%TF.GenerationSoftware,KiCad,Pcbnew,(5.1.6)-1*%
%TF.CreationDate,2020-09-22T23:51:07+09:00*%
%TF.ProjectId,motordecoder_simple2_rev2_panelize,6d6f746f-7264-4656-936f-6465725f7369,rev?*%
%TF.SameCoordinates,PX459e440PY38444c0*%
%TF.FileFunction,Soldermask,Bot*%
%TF.FilePolarity,Negative*%
%FSLAX46Y46*%
G04 Gerber Fmt 4.6, Leading zero omitted, Abs format (unit mm)*
G04 Created by KiCad (PCBNEW (5.1.6)-1) date 2020-09-22 23:51:07*
%MOMM*%
%LPD*%
G01*
G04 APERTURE LIST*
%ADD10R,1.400000X1.400000*%
%ADD11R,1.050000X1.050000*%
G04 APERTURE END LIST*
D10*
%TO.C,P3*%
X80750000Y-88750000D03*
%TD*%
%TO.C,P3*%
X53750000Y-88750000D03*
%TD*%
%TO.C,P3*%
X26750000Y-88750000D03*
%TD*%
%TO.C,P3*%
X80750000Y-76250000D03*
%TD*%
%TO.C,P3*%
X53750000Y-76250000D03*
%TD*%
%TO.C,P3*%
X26750000Y-76250000D03*
%TD*%
%TO.C,P3*%
X80750000Y-63750000D03*
%TD*%
%TO.C,P3*%
X53750000Y-63750000D03*
%TD*%
%TO.C,P3*%
X26750000Y-63750000D03*
%TD*%
%TO.C,P3*%
X80750000Y-51250000D03*
%TD*%
%TO.C,P3*%
X53750000Y-51250000D03*
%TD*%
%TO.C,P3*%
X26750000Y-51250000D03*
%TD*%
%TO.C,P3*%
X80750000Y-38750000D03*
%TD*%
%TO.C,P3*%
X53750000Y-38750000D03*
%TD*%
%TO.C,P3*%
X26750000Y-38750000D03*
%TD*%
%TO.C,P3*%
X80750000Y-26250000D03*
%TD*%
%TO.C,P3*%
X53750000Y-26250000D03*
%TD*%
%TO.C,P3*%
X26750000Y-26250000D03*
%TD*%
%TO.C,P3*%
X80750000Y-13750000D03*
%TD*%
%TO.C,P3*%
X53750000Y-13750000D03*
%TD*%
%TO.C,P3*%
X26750000Y-13750000D03*
%TD*%
%TO.C,P3*%
X80750000Y-1250000D03*
%TD*%
%TO.C,P3*%
X53750000Y-1250000D03*
%TD*%
%TO.C,P6*%
X61250000Y-88750000D03*
%TD*%
%TO.C,P6*%
X34250000Y-88750000D03*
%TD*%
%TO.C,P6*%
X7250000Y-88750000D03*
%TD*%
%TO.C,P6*%
X61250000Y-76250000D03*
%TD*%
%TO.C,P6*%
X34250000Y-76250000D03*
%TD*%
%TO.C,P6*%
X7250000Y-76250000D03*
%TD*%
%TO.C,P6*%
X61250000Y-63750000D03*
%TD*%
%TO.C,P6*%
X34250000Y-63750000D03*
%TD*%
%TO.C,P6*%
X7250000Y-63750000D03*
%TD*%
%TO.C,P6*%
X61250000Y-51250000D03*
%TD*%
%TO.C,P6*%
X34250000Y-51250000D03*
%TD*%
%TO.C,P6*%
X7250000Y-51250000D03*
%TD*%
%TO.C,P6*%
X61250000Y-38750000D03*
%TD*%
%TO.C,P6*%
X34250000Y-38750000D03*
%TD*%
%TO.C,P6*%
X7250000Y-38750000D03*
%TD*%
%TO.C,P6*%
X61250000Y-26250000D03*
%TD*%
%TO.C,P6*%
X34250000Y-26250000D03*
%TD*%
%TO.C,P6*%
X7250000Y-26250000D03*
%TD*%
%TO.C,P6*%
X61250000Y-13750000D03*
%TD*%
%TO.C,P6*%
X34250000Y-13750000D03*
%TD*%
%TO.C,P6*%
X7250000Y-13750000D03*
%TD*%
%TO.C,P6*%
X61250000Y-1250000D03*
%TD*%
%TO.C,P6*%
X34250000Y-1250000D03*
%TD*%
%TO.C,P4*%
X80750000Y-96250000D03*
%TD*%
%TO.C,P4*%
X53750000Y-96250000D03*
%TD*%
%TO.C,P4*%
X26750000Y-96250000D03*
%TD*%
%TO.C,P4*%
X80750000Y-83750000D03*
%TD*%
%TO.C,P4*%
X53750000Y-83750000D03*
%TD*%
%TO.C,P4*%
X26750000Y-83750000D03*
%TD*%
%TO.C,P4*%
X80750000Y-71250000D03*
%TD*%
%TO.C,P4*%
X53750000Y-71250000D03*
%TD*%
%TO.C,P4*%
X26750000Y-71250000D03*
%TD*%
%TO.C,P4*%
X80750000Y-58750000D03*
%TD*%
%TO.C,P4*%
X53750000Y-58750000D03*
%TD*%
%TO.C,P4*%
X26750000Y-58750000D03*
%TD*%
%TO.C,P4*%
X80750000Y-46250000D03*
%TD*%
%TO.C,P4*%
X53750000Y-46250000D03*
%TD*%
%TO.C,P4*%
X26750000Y-46250000D03*
%TD*%
%TO.C,P4*%
X80750000Y-33750000D03*
%TD*%
%TO.C,P4*%
X53750000Y-33750000D03*
%TD*%
%TO.C,P4*%
X26750000Y-33750000D03*
%TD*%
%TO.C,P4*%
X80750000Y-21250000D03*
%TD*%
%TO.C,P4*%
X53750000Y-21250000D03*
%TD*%
%TO.C,P4*%
X26750000Y-21250000D03*
%TD*%
%TO.C,P4*%
X80750000Y-8750000D03*
%TD*%
%TO.C,P4*%
X53750000Y-8750000D03*
%TD*%
%TO.C,P5*%
X61250000Y-96250000D03*
%TD*%
%TO.C,P5*%
X34250000Y-96250000D03*
%TD*%
%TO.C,P5*%
X7250000Y-96250000D03*
%TD*%
%TO.C,P5*%
X61250000Y-83750000D03*
%TD*%
%TO.C,P5*%
X34250000Y-83750000D03*
%TD*%
%TO.C,P5*%
X7250000Y-83750000D03*
%TD*%
%TO.C,P5*%
X61250000Y-71250000D03*
%TD*%
%TO.C,P5*%
X34250000Y-71250000D03*
%TD*%
%TO.C,P5*%
X7250000Y-71250000D03*
%TD*%
%TO.C,P5*%
X61250000Y-58750000D03*
%TD*%
%TO.C,P5*%
X34250000Y-58750000D03*
%TD*%
%TO.C,P5*%
X7250000Y-58750000D03*
%TD*%
%TO.C,P5*%
X61250000Y-46250000D03*
%TD*%
%TO.C,P5*%
X34250000Y-46250000D03*
%TD*%
%TO.C,P5*%
X7250000Y-46250000D03*
%TD*%
%TO.C,P5*%
X61250000Y-33750000D03*
%TD*%
%TO.C,P5*%
X34250000Y-33750000D03*
%TD*%
%TO.C,P5*%
X7250000Y-33750000D03*
%TD*%
%TO.C,P5*%
X61250000Y-21250000D03*
%TD*%
%TO.C,P5*%
X34250000Y-21250000D03*
%TD*%
%TO.C,P5*%
X7250000Y-21250000D03*
%TD*%
%TO.C,P5*%
X61250000Y-8750000D03*
%TD*%
%TO.C,P5*%
X34250000Y-8750000D03*
%TD*%
%TO.C,P1*%
X61250000Y-91250000D03*
%TD*%
%TO.C,P1*%
X34250000Y-91250000D03*
%TD*%
%TO.C,P1*%
X7250000Y-91250000D03*
%TD*%
%TO.C,P1*%
X61250000Y-78750000D03*
%TD*%
%TO.C,P1*%
X34250000Y-78750000D03*
%TD*%
%TO.C,P1*%
X7250000Y-78750000D03*
%TD*%
%TO.C,P1*%
X61250000Y-66250000D03*
%TD*%
%TO.C,P1*%
X34250000Y-66250000D03*
%TD*%
%TO.C,P1*%
X7250000Y-66250000D03*
%TD*%
%TO.C,P1*%
X61250000Y-53750000D03*
%TD*%
%TO.C,P1*%
X34250000Y-53750000D03*
%TD*%
%TO.C,P1*%
X7250000Y-53750000D03*
%TD*%
%TO.C,P1*%
X61250000Y-41250000D03*
%TD*%
%TO.C,P1*%
X34250000Y-41250000D03*
%TD*%
%TO.C,P1*%
X7250000Y-41250000D03*
%TD*%
%TO.C,P1*%
X61250000Y-28750000D03*
%TD*%
%TO.C,P1*%
X34250000Y-28750000D03*
%TD*%
%TO.C,P1*%
X7250000Y-28750000D03*
%TD*%
%TO.C,P1*%
X61250000Y-16250000D03*
%TD*%
%TO.C,P1*%
X34250000Y-16250000D03*
%TD*%
%TO.C,P1*%
X7250000Y-16250000D03*
%TD*%
%TO.C,P1*%
X61250000Y-3750000D03*
%TD*%
%TO.C,P1*%
X34250000Y-3750000D03*
%TD*%
D11*
%TO.C,P9*%
X63325000Y-88250000D03*
X64595000Y-88250000D03*
X65865000Y-88250000D03*
X67135000Y-88250000D03*
X68405000Y-88250000D03*
X69675000Y-88250000D03*
%TD*%
%TO.C,P9*%
X36325000Y-88250000D03*
X37595000Y-88250000D03*
X38865000Y-88250000D03*
X40135000Y-88250000D03*
X41405000Y-88250000D03*
X42675000Y-88250000D03*
%TD*%
%TO.C,P9*%
X9325000Y-88250000D03*
X10595000Y-88250000D03*
X11865000Y-88250000D03*
X13135000Y-88250000D03*
X14405000Y-88250000D03*
X15675000Y-88250000D03*
%TD*%
%TO.C,P9*%
X63325000Y-75750000D03*
X64595000Y-75750000D03*
X65865000Y-75750000D03*
X67135000Y-75750000D03*
X68405000Y-75750000D03*
X69675000Y-75750000D03*
%TD*%
%TO.C,P9*%
X36325000Y-75750000D03*
X37595000Y-75750000D03*
X38865000Y-75750000D03*
X40135000Y-75750000D03*
X41405000Y-75750000D03*
X42675000Y-75750000D03*
%TD*%
%TO.C,P9*%
X9325000Y-75750000D03*
X10595000Y-75750000D03*
X11865000Y-75750000D03*
X13135000Y-75750000D03*
X14405000Y-75750000D03*
X15675000Y-75750000D03*
%TD*%
%TO.C,P9*%
X63325000Y-63250000D03*
X64595000Y-63250000D03*
X65865000Y-63250000D03*
X67135000Y-63250000D03*
X68405000Y-63250000D03*
X69675000Y-63250000D03*
%TD*%
%TO.C,P9*%
X36325000Y-63250000D03*
X37595000Y-63250000D03*
X38865000Y-63250000D03*
X40135000Y-63250000D03*
X41405000Y-63250000D03*
X42675000Y-63250000D03*
%TD*%
%TO.C,P9*%
X9325000Y-63250000D03*
X10595000Y-63250000D03*
X11865000Y-63250000D03*
X13135000Y-63250000D03*
X14405000Y-63250000D03*
X15675000Y-63250000D03*
%TD*%
%TO.C,P9*%
X63325000Y-50750000D03*
X64595000Y-50750000D03*
X65865000Y-50750000D03*
X67135000Y-50750000D03*
X68405000Y-50750000D03*
X69675000Y-50750000D03*
%TD*%
%TO.C,P9*%
X36325000Y-50750000D03*
X37595000Y-50750000D03*
X38865000Y-50750000D03*
X40135000Y-50750000D03*
X41405000Y-50750000D03*
X42675000Y-50750000D03*
%TD*%
%TO.C,P9*%
X9325000Y-50750000D03*
X10595000Y-50750000D03*
X11865000Y-50750000D03*
X13135000Y-50750000D03*
X14405000Y-50750000D03*
X15675000Y-50750000D03*
%TD*%
%TO.C,P9*%
X63325000Y-38250000D03*
X64595000Y-38250000D03*
X65865000Y-38250000D03*
X67135000Y-38250000D03*
X68405000Y-38250000D03*
X69675000Y-38250000D03*
%TD*%
%TO.C,P9*%
X36325000Y-38250000D03*
X37595000Y-38250000D03*
X38865000Y-38250000D03*
X40135000Y-38250000D03*
X41405000Y-38250000D03*
X42675000Y-38250000D03*
%TD*%
%TO.C,P9*%
X9325000Y-38250000D03*
X10595000Y-38250000D03*
X11865000Y-38250000D03*
X13135000Y-38250000D03*
X14405000Y-38250000D03*
X15675000Y-38250000D03*
%TD*%
%TO.C,P9*%
X63325000Y-25750000D03*
X64595000Y-25750000D03*
X65865000Y-25750000D03*
X67135000Y-25750000D03*
X68405000Y-25750000D03*
X69675000Y-25750000D03*
%TD*%
%TO.C,P9*%
X36325000Y-25750000D03*
X37595000Y-25750000D03*
X38865000Y-25750000D03*
X40135000Y-25750000D03*
X41405000Y-25750000D03*
X42675000Y-25750000D03*
%TD*%
%TO.C,P9*%
X9325000Y-25750000D03*
X10595000Y-25750000D03*
X11865000Y-25750000D03*
X13135000Y-25750000D03*
X14405000Y-25750000D03*
X15675000Y-25750000D03*
%TD*%
%TO.C,P9*%
X63325000Y-13250000D03*
X64595000Y-13250000D03*
X65865000Y-13250000D03*
X67135000Y-13250000D03*
X68405000Y-13250000D03*
X69675000Y-13250000D03*
%TD*%
%TO.C,P9*%
X36325000Y-13250000D03*
X37595000Y-13250000D03*
X38865000Y-13250000D03*
X40135000Y-13250000D03*
X41405000Y-13250000D03*
X42675000Y-13250000D03*
%TD*%
%TO.C,P9*%
X9325000Y-13250000D03*
X10595000Y-13250000D03*
X11865000Y-13250000D03*
X13135000Y-13250000D03*
X14405000Y-13250000D03*
X15675000Y-13250000D03*
%TD*%
%TO.C,P9*%
X63325000Y-750000D03*
X64595000Y-750000D03*
X65865000Y-750000D03*
X67135000Y-750000D03*
X68405000Y-750000D03*
X69675000Y-750000D03*
%TD*%
%TO.C,P9*%
X36325000Y-750000D03*
X37595000Y-750000D03*
X38865000Y-750000D03*
X40135000Y-750000D03*
X41405000Y-750000D03*
X42675000Y-750000D03*
%TD*%
D10*
%TO.C,P2*%
X61250000Y-93750000D03*
%TD*%
%TO.C,P2*%
X34250000Y-93750000D03*
%TD*%
%TO.C,P2*%
X7250000Y-93750000D03*
%TD*%
%TO.C,P2*%
X61250000Y-81250000D03*
%TD*%
%TO.C,P2*%
X34250000Y-81250000D03*
%TD*%
%TO.C,P2*%
X7250000Y-81250000D03*
%TD*%
%TO.C,P2*%
X61250000Y-68750000D03*
%TD*%
%TO.C,P2*%
X34250000Y-68750000D03*
%TD*%
%TO.C,P2*%
X7250000Y-68750000D03*
%TD*%
%TO.C,P2*%
X61250000Y-56250000D03*
%TD*%
%TO.C,P2*%
X34250000Y-56250000D03*
%TD*%
%TO.C,P2*%
X7250000Y-56250000D03*
%TD*%
%TO.C,P2*%
X61250000Y-43750000D03*
%TD*%
%TO.C,P2*%
X34250000Y-43750000D03*
%TD*%
%TO.C,P2*%
X7250000Y-43750000D03*
%TD*%
%TO.C,P2*%
X61250000Y-31250000D03*
%TD*%
%TO.C,P2*%
X34250000Y-31250000D03*
%TD*%
%TO.C,P2*%
X7250000Y-31250000D03*
%TD*%
%TO.C,P2*%
X61250000Y-18750000D03*
%TD*%
%TO.C,P2*%
X34250000Y-18750000D03*
%TD*%
%TO.C,P2*%
X7250000Y-18750000D03*
%TD*%
%TO.C,P2*%
X61250000Y-6250000D03*
%TD*%
%TO.C,P2*%
X34250000Y-6250000D03*
%TD*%
%TO.C,P1*%
X7250000Y-3750000D03*
%TD*%
%TO.C,P2*%
X7250000Y-6250000D03*
%TD*%
%TO.C,P3*%
X26750000Y-1250000D03*
%TD*%
%TO.C,P4*%
X26750000Y-8750000D03*
%TD*%
%TO.C,P5*%
X7250000Y-8750000D03*
%TD*%
%TO.C,P6*%
X7250000Y-1250000D03*
%TD*%
D11*
%TO.C,P9*%
X15675000Y-750000D03*
X14405000Y-750000D03*
X13135000Y-750000D03*
X11865000Y-750000D03*
X10595000Y-750000D03*
X9325000Y-750000D03*
%TD*%
M02*
