%TF.GenerationSoftware,KiCad,Pcbnew,(5.1.6)-1*%
%TF.CreationDate,2020-09-22T23:51:07+09:00*%
%TF.ProjectId,motordecoder_simple2_rev2_panelize,6d6f746f-7264-4656-936f-6465725f7369,rev?*%
%TF.SameCoordinates,PX459e440PY38444c0*%
%TF.FileFunction,Legend,Bot*%
%TF.FilePolarity,Positive*%
%FSLAX46Y46*%
G04 Gerber Fmt 4.6, Leading zero omitted, Abs format (unit mm)*
G04 Created by KiCad (PCBNEW (5.1.6)-1) date 2020-09-22 23:51:07*
%MOMM*%
%LPD*%
G01*
G04 APERTURE LIST*
%ADD10C,0.140000*%
%ADD11R,1.400000X1.400000*%
%ADD12R,1.050000X1.050000*%
G04 APERTURE END LIST*
D10*
X75544714Y-95728571D02*
X75516142Y-95700000D01*
X75459000Y-95671428D01*
X75316142Y-95671428D01*
X75259000Y-95700000D01*
X75230428Y-95728571D01*
X75201857Y-95785714D01*
X75201857Y-95842857D01*
X75230428Y-95928571D01*
X75573285Y-96271428D01*
X75201857Y-96271428D01*
X74830428Y-95671428D02*
X74773285Y-95671428D01*
X74716142Y-95700000D01*
X74687571Y-95728571D01*
X74659000Y-95785714D01*
X74630428Y-95900000D01*
X74630428Y-96042857D01*
X74659000Y-96157142D01*
X74687571Y-96214285D01*
X74716142Y-96242857D01*
X74773285Y-96271428D01*
X74830428Y-96271428D01*
X74887571Y-96242857D01*
X74916142Y-96214285D01*
X74944714Y-96157142D01*
X74973285Y-96042857D01*
X74973285Y-95900000D01*
X74944714Y-95785714D01*
X74916142Y-95728571D01*
X74887571Y-95700000D01*
X74830428Y-95671428D01*
X74401857Y-95728571D02*
X74373285Y-95700000D01*
X74316142Y-95671428D01*
X74173285Y-95671428D01*
X74116142Y-95700000D01*
X74087571Y-95728571D01*
X74059000Y-95785714D01*
X74059000Y-95842857D01*
X74087571Y-95928571D01*
X74430428Y-96271428D01*
X74059000Y-96271428D01*
X73687571Y-95671428D02*
X73630428Y-95671428D01*
X73573285Y-95700000D01*
X73544714Y-95728571D01*
X73516142Y-95785714D01*
X73487571Y-95900000D01*
X73487571Y-96042857D01*
X73516142Y-96157142D01*
X73544714Y-96214285D01*
X73573285Y-96242857D01*
X73630428Y-96271428D01*
X73687571Y-96271428D01*
X73744714Y-96242857D01*
X73773285Y-96214285D01*
X73801857Y-96157142D01*
X73830428Y-96042857D01*
X73830428Y-95900000D01*
X73801857Y-95785714D01*
X73773285Y-95728571D01*
X73744714Y-95700000D01*
X73687571Y-95671428D01*
X73230428Y-96214285D02*
X73201857Y-96242857D01*
X73230428Y-96271428D01*
X73259000Y-96242857D01*
X73230428Y-96214285D01*
X73230428Y-96271428D01*
X72830428Y-95671428D02*
X72773285Y-95671428D01*
X72716142Y-95700000D01*
X72687571Y-95728571D01*
X72659000Y-95785714D01*
X72630428Y-95900000D01*
X72630428Y-96042857D01*
X72659000Y-96157142D01*
X72687571Y-96214285D01*
X72716142Y-96242857D01*
X72773285Y-96271428D01*
X72830428Y-96271428D01*
X72887571Y-96242857D01*
X72916142Y-96214285D01*
X72944714Y-96157142D01*
X72973285Y-96042857D01*
X72973285Y-95900000D01*
X72944714Y-95785714D01*
X72916142Y-95728571D01*
X72887571Y-95700000D01*
X72830428Y-95671428D01*
X72344714Y-96271428D02*
X72230428Y-96271428D01*
X72173285Y-96242857D01*
X72144714Y-96214285D01*
X72087571Y-96128571D01*
X72059000Y-96014285D01*
X72059000Y-95785714D01*
X72087571Y-95728571D01*
X72116142Y-95700000D01*
X72173285Y-95671428D01*
X72287571Y-95671428D01*
X72344714Y-95700000D01*
X72373285Y-95728571D01*
X72401857Y-95785714D01*
X72401857Y-95928571D01*
X72373285Y-95985714D01*
X72344714Y-96014285D01*
X72287571Y-96042857D01*
X72173285Y-96042857D01*
X72116142Y-96014285D01*
X72087571Y-95985714D01*
X72059000Y-95928571D01*
X48544714Y-95728571D02*
X48516142Y-95700000D01*
X48459000Y-95671428D01*
X48316142Y-95671428D01*
X48259000Y-95700000D01*
X48230428Y-95728571D01*
X48201857Y-95785714D01*
X48201857Y-95842857D01*
X48230428Y-95928571D01*
X48573285Y-96271428D01*
X48201857Y-96271428D01*
X47830428Y-95671428D02*
X47773285Y-95671428D01*
X47716142Y-95700000D01*
X47687571Y-95728571D01*
X47659000Y-95785714D01*
X47630428Y-95900000D01*
X47630428Y-96042857D01*
X47659000Y-96157142D01*
X47687571Y-96214285D01*
X47716142Y-96242857D01*
X47773285Y-96271428D01*
X47830428Y-96271428D01*
X47887571Y-96242857D01*
X47916142Y-96214285D01*
X47944714Y-96157142D01*
X47973285Y-96042857D01*
X47973285Y-95900000D01*
X47944714Y-95785714D01*
X47916142Y-95728571D01*
X47887571Y-95700000D01*
X47830428Y-95671428D01*
X47401857Y-95728571D02*
X47373285Y-95700000D01*
X47316142Y-95671428D01*
X47173285Y-95671428D01*
X47116142Y-95700000D01*
X47087571Y-95728571D01*
X47059000Y-95785714D01*
X47059000Y-95842857D01*
X47087571Y-95928571D01*
X47430428Y-96271428D01*
X47059000Y-96271428D01*
X46687571Y-95671428D02*
X46630428Y-95671428D01*
X46573285Y-95700000D01*
X46544714Y-95728571D01*
X46516142Y-95785714D01*
X46487571Y-95900000D01*
X46487571Y-96042857D01*
X46516142Y-96157142D01*
X46544714Y-96214285D01*
X46573285Y-96242857D01*
X46630428Y-96271428D01*
X46687571Y-96271428D01*
X46744714Y-96242857D01*
X46773285Y-96214285D01*
X46801857Y-96157142D01*
X46830428Y-96042857D01*
X46830428Y-95900000D01*
X46801857Y-95785714D01*
X46773285Y-95728571D01*
X46744714Y-95700000D01*
X46687571Y-95671428D01*
X46230428Y-96214285D02*
X46201857Y-96242857D01*
X46230428Y-96271428D01*
X46259000Y-96242857D01*
X46230428Y-96214285D01*
X46230428Y-96271428D01*
X45830428Y-95671428D02*
X45773285Y-95671428D01*
X45716142Y-95700000D01*
X45687571Y-95728571D01*
X45659000Y-95785714D01*
X45630428Y-95900000D01*
X45630428Y-96042857D01*
X45659000Y-96157142D01*
X45687571Y-96214285D01*
X45716142Y-96242857D01*
X45773285Y-96271428D01*
X45830428Y-96271428D01*
X45887571Y-96242857D01*
X45916142Y-96214285D01*
X45944714Y-96157142D01*
X45973285Y-96042857D01*
X45973285Y-95900000D01*
X45944714Y-95785714D01*
X45916142Y-95728571D01*
X45887571Y-95700000D01*
X45830428Y-95671428D01*
X45344714Y-96271428D02*
X45230428Y-96271428D01*
X45173285Y-96242857D01*
X45144714Y-96214285D01*
X45087571Y-96128571D01*
X45059000Y-96014285D01*
X45059000Y-95785714D01*
X45087571Y-95728571D01*
X45116142Y-95700000D01*
X45173285Y-95671428D01*
X45287571Y-95671428D01*
X45344714Y-95700000D01*
X45373285Y-95728571D01*
X45401857Y-95785714D01*
X45401857Y-95928571D01*
X45373285Y-95985714D01*
X45344714Y-96014285D01*
X45287571Y-96042857D01*
X45173285Y-96042857D01*
X45116142Y-96014285D01*
X45087571Y-95985714D01*
X45059000Y-95928571D01*
X21544714Y-95728571D02*
X21516142Y-95700000D01*
X21459000Y-95671428D01*
X21316142Y-95671428D01*
X21259000Y-95700000D01*
X21230428Y-95728571D01*
X21201857Y-95785714D01*
X21201857Y-95842857D01*
X21230428Y-95928571D01*
X21573285Y-96271428D01*
X21201857Y-96271428D01*
X20830428Y-95671428D02*
X20773285Y-95671428D01*
X20716142Y-95700000D01*
X20687571Y-95728571D01*
X20659000Y-95785714D01*
X20630428Y-95900000D01*
X20630428Y-96042857D01*
X20659000Y-96157142D01*
X20687571Y-96214285D01*
X20716142Y-96242857D01*
X20773285Y-96271428D01*
X20830428Y-96271428D01*
X20887571Y-96242857D01*
X20916142Y-96214285D01*
X20944714Y-96157142D01*
X20973285Y-96042857D01*
X20973285Y-95900000D01*
X20944714Y-95785714D01*
X20916142Y-95728571D01*
X20887571Y-95700000D01*
X20830428Y-95671428D01*
X20401857Y-95728571D02*
X20373285Y-95700000D01*
X20316142Y-95671428D01*
X20173285Y-95671428D01*
X20116142Y-95700000D01*
X20087571Y-95728571D01*
X20059000Y-95785714D01*
X20059000Y-95842857D01*
X20087571Y-95928571D01*
X20430428Y-96271428D01*
X20059000Y-96271428D01*
X19687571Y-95671428D02*
X19630428Y-95671428D01*
X19573285Y-95700000D01*
X19544714Y-95728571D01*
X19516142Y-95785714D01*
X19487571Y-95900000D01*
X19487571Y-96042857D01*
X19516142Y-96157142D01*
X19544714Y-96214285D01*
X19573285Y-96242857D01*
X19630428Y-96271428D01*
X19687571Y-96271428D01*
X19744714Y-96242857D01*
X19773285Y-96214285D01*
X19801857Y-96157142D01*
X19830428Y-96042857D01*
X19830428Y-95900000D01*
X19801857Y-95785714D01*
X19773285Y-95728571D01*
X19744714Y-95700000D01*
X19687571Y-95671428D01*
X19230428Y-96214285D02*
X19201857Y-96242857D01*
X19230428Y-96271428D01*
X19259000Y-96242857D01*
X19230428Y-96214285D01*
X19230428Y-96271428D01*
X18830428Y-95671428D02*
X18773285Y-95671428D01*
X18716142Y-95700000D01*
X18687571Y-95728571D01*
X18659000Y-95785714D01*
X18630428Y-95900000D01*
X18630428Y-96042857D01*
X18659000Y-96157142D01*
X18687571Y-96214285D01*
X18716142Y-96242857D01*
X18773285Y-96271428D01*
X18830428Y-96271428D01*
X18887571Y-96242857D01*
X18916142Y-96214285D01*
X18944714Y-96157142D01*
X18973285Y-96042857D01*
X18973285Y-95900000D01*
X18944714Y-95785714D01*
X18916142Y-95728571D01*
X18887571Y-95700000D01*
X18830428Y-95671428D01*
X18344714Y-96271428D02*
X18230428Y-96271428D01*
X18173285Y-96242857D01*
X18144714Y-96214285D01*
X18087571Y-96128571D01*
X18059000Y-96014285D01*
X18059000Y-95785714D01*
X18087571Y-95728571D01*
X18116142Y-95700000D01*
X18173285Y-95671428D01*
X18287571Y-95671428D01*
X18344714Y-95700000D01*
X18373285Y-95728571D01*
X18401857Y-95785714D01*
X18401857Y-95928571D01*
X18373285Y-95985714D01*
X18344714Y-96014285D01*
X18287571Y-96042857D01*
X18173285Y-96042857D01*
X18116142Y-96014285D01*
X18087571Y-95985714D01*
X18059000Y-95928571D01*
X75544714Y-83228571D02*
X75516142Y-83200000D01*
X75459000Y-83171428D01*
X75316142Y-83171428D01*
X75259000Y-83200000D01*
X75230428Y-83228571D01*
X75201857Y-83285714D01*
X75201857Y-83342857D01*
X75230428Y-83428571D01*
X75573285Y-83771428D01*
X75201857Y-83771428D01*
X74830428Y-83171428D02*
X74773285Y-83171428D01*
X74716142Y-83200000D01*
X74687571Y-83228571D01*
X74659000Y-83285714D01*
X74630428Y-83400000D01*
X74630428Y-83542857D01*
X74659000Y-83657142D01*
X74687571Y-83714285D01*
X74716142Y-83742857D01*
X74773285Y-83771428D01*
X74830428Y-83771428D01*
X74887571Y-83742857D01*
X74916142Y-83714285D01*
X74944714Y-83657142D01*
X74973285Y-83542857D01*
X74973285Y-83400000D01*
X74944714Y-83285714D01*
X74916142Y-83228571D01*
X74887571Y-83200000D01*
X74830428Y-83171428D01*
X74401857Y-83228571D02*
X74373285Y-83200000D01*
X74316142Y-83171428D01*
X74173285Y-83171428D01*
X74116142Y-83200000D01*
X74087571Y-83228571D01*
X74059000Y-83285714D01*
X74059000Y-83342857D01*
X74087571Y-83428571D01*
X74430428Y-83771428D01*
X74059000Y-83771428D01*
X73687571Y-83171428D02*
X73630428Y-83171428D01*
X73573285Y-83200000D01*
X73544714Y-83228571D01*
X73516142Y-83285714D01*
X73487571Y-83400000D01*
X73487571Y-83542857D01*
X73516142Y-83657142D01*
X73544714Y-83714285D01*
X73573285Y-83742857D01*
X73630428Y-83771428D01*
X73687571Y-83771428D01*
X73744714Y-83742857D01*
X73773285Y-83714285D01*
X73801857Y-83657142D01*
X73830428Y-83542857D01*
X73830428Y-83400000D01*
X73801857Y-83285714D01*
X73773285Y-83228571D01*
X73744714Y-83200000D01*
X73687571Y-83171428D01*
X73230428Y-83714285D02*
X73201857Y-83742857D01*
X73230428Y-83771428D01*
X73259000Y-83742857D01*
X73230428Y-83714285D01*
X73230428Y-83771428D01*
X72830428Y-83171428D02*
X72773285Y-83171428D01*
X72716142Y-83200000D01*
X72687571Y-83228571D01*
X72659000Y-83285714D01*
X72630428Y-83400000D01*
X72630428Y-83542857D01*
X72659000Y-83657142D01*
X72687571Y-83714285D01*
X72716142Y-83742857D01*
X72773285Y-83771428D01*
X72830428Y-83771428D01*
X72887571Y-83742857D01*
X72916142Y-83714285D01*
X72944714Y-83657142D01*
X72973285Y-83542857D01*
X72973285Y-83400000D01*
X72944714Y-83285714D01*
X72916142Y-83228571D01*
X72887571Y-83200000D01*
X72830428Y-83171428D01*
X72344714Y-83771428D02*
X72230428Y-83771428D01*
X72173285Y-83742857D01*
X72144714Y-83714285D01*
X72087571Y-83628571D01*
X72059000Y-83514285D01*
X72059000Y-83285714D01*
X72087571Y-83228571D01*
X72116142Y-83200000D01*
X72173285Y-83171428D01*
X72287571Y-83171428D01*
X72344714Y-83200000D01*
X72373285Y-83228571D01*
X72401857Y-83285714D01*
X72401857Y-83428571D01*
X72373285Y-83485714D01*
X72344714Y-83514285D01*
X72287571Y-83542857D01*
X72173285Y-83542857D01*
X72116142Y-83514285D01*
X72087571Y-83485714D01*
X72059000Y-83428571D01*
X48544714Y-83228571D02*
X48516142Y-83200000D01*
X48459000Y-83171428D01*
X48316142Y-83171428D01*
X48259000Y-83200000D01*
X48230428Y-83228571D01*
X48201857Y-83285714D01*
X48201857Y-83342857D01*
X48230428Y-83428571D01*
X48573285Y-83771428D01*
X48201857Y-83771428D01*
X47830428Y-83171428D02*
X47773285Y-83171428D01*
X47716142Y-83200000D01*
X47687571Y-83228571D01*
X47659000Y-83285714D01*
X47630428Y-83400000D01*
X47630428Y-83542857D01*
X47659000Y-83657142D01*
X47687571Y-83714285D01*
X47716142Y-83742857D01*
X47773285Y-83771428D01*
X47830428Y-83771428D01*
X47887571Y-83742857D01*
X47916142Y-83714285D01*
X47944714Y-83657142D01*
X47973285Y-83542857D01*
X47973285Y-83400000D01*
X47944714Y-83285714D01*
X47916142Y-83228571D01*
X47887571Y-83200000D01*
X47830428Y-83171428D01*
X47401857Y-83228571D02*
X47373285Y-83200000D01*
X47316142Y-83171428D01*
X47173285Y-83171428D01*
X47116142Y-83200000D01*
X47087571Y-83228571D01*
X47059000Y-83285714D01*
X47059000Y-83342857D01*
X47087571Y-83428571D01*
X47430428Y-83771428D01*
X47059000Y-83771428D01*
X46687571Y-83171428D02*
X46630428Y-83171428D01*
X46573285Y-83200000D01*
X46544714Y-83228571D01*
X46516142Y-83285714D01*
X46487571Y-83400000D01*
X46487571Y-83542857D01*
X46516142Y-83657142D01*
X46544714Y-83714285D01*
X46573285Y-83742857D01*
X46630428Y-83771428D01*
X46687571Y-83771428D01*
X46744714Y-83742857D01*
X46773285Y-83714285D01*
X46801857Y-83657142D01*
X46830428Y-83542857D01*
X46830428Y-83400000D01*
X46801857Y-83285714D01*
X46773285Y-83228571D01*
X46744714Y-83200000D01*
X46687571Y-83171428D01*
X46230428Y-83714285D02*
X46201857Y-83742857D01*
X46230428Y-83771428D01*
X46259000Y-83742857D01*
X46230428Y-83714285D01*
X46230428Y-83771428D01*
X45830428Y-83171428D02*
X45773285Y-83171428D01*
X45716142Y-83200000D01*
X45687571Y-83228571D01*
X45659000Y-83285714D01*
X45630428Y-83400000D01*
X45630428Y-83542857D01*
X45659000Y-83657142D01*
X45687571Y-83714285D01*
X45716142Y-83742857D01*
X45773285Y-83771428D01*
X45830428Y-83771428D01*
X45887571Y-83742857D01*
X45916142Y-83714285D01*
X45944714Y-83657142D01*
X45973285Y-83542857D01*
X45973285Y-83400000D01*
X45944714Y-83285714D01*
X45916142Y-83228571D01*
X45887571Y-83200000D01*
X45830428Y-83171428D01*
X45344714Y-83771428D02*
X45230428Y-83771428D01*
X45173285Y-83742857D01*
X45144714Y-83714285D01*
X45087571Y-83628571D01*
X45059000Y-83514285D01*
X45059000Y-83285714D01*
X45087571Y-83228571D01*
X45116142Y-83200000D01*
X45173285Y-83171428D01*
X45287571Y-83171428D01*
X45344714Y-83200000D01*
X45373285Y-83228571D01*
X45401857Y-83285714D01*
X45401857Y-83428571D01*
X45373285Y-83485714D01*
X45344714Y-83514285D01*
X45287571Y-83542857D01*
X45173285Y-83542857D01*
X45116142Y-83514285D01*
X45087571Y-83485714D01*
X45059000Y-83428571D01*
X21544714Y-83228571D02*
X21516142Y-83200000D01*
X21459000Y-83171428D01*
X21316142Y-83171428D01*
X21259000Y-83200000D01*
X21230428Y-83228571D01*
X21201857Y-83285714D01*
X21201857Y-83342857D01*
X21230428Y-83428571D01*
X21573285Y-83771428D01*
X21201857Y-83771428D01*
X20830428Y-83171428D02*
X20773285Y-83171428D01*
X20716142Y-83200000D01*
X20687571Y-83228571D01*
X20659000Y-83285714D01*
X20630428Y-83400000D01*
X20630428Y-83542857D01*
X20659000Y-83657142D01*
X20687571Y-83714285D01*
X20716142Y-83742857D01*
X20773285Y-83771428D01*
X20830428Y-83771428D01*
X20887571Y-83742857D01*
X20916142Y-83714285D01*
X20944714Y-83657142D01*
X20973285Y-83542857D01*
X20973285Y-83400000D01*
X20944714Y-83285714D01*
X20916142Y-83228571D01*
X20887571Y-83200000D01*
X20830428Y-83171428D01*
X20401857Y-83228571D02*
X20373285Y-83200000D01*
X20316142Y-83171428D01*
X20173285Y-83171428D01*
X20116142Y-83200000D01*
X20087571Y-83228571D01*
X20059000Y-83285714D01*
X20059000Y-83342857D01*
X20087571Y-83428571D01*
X20430428Y-83771428D01*
X20059000Y-83771428D01*
X19687571Y-83171428D02*
X19630428Y-83171428D01*
X19573285Y-83200000D01*
X19544714Y-83228571D01*
X19516142Y-83285714D01*
X19487571Y-83400000D01*
X19487571Y-83542857D01*
X19516142Y-83657142D01*
X19544714Y-83714285D01*
X19573285Y-83742857D01*
X19630428Y-83771428D01*
X19687571Y-83771428D01*
X19744714Y-83742857D01*
X19773285Y-83714285D01*
X19801857Y-83657142D01*
X19830428Y-83542857D01*
X19830428Y-83400000D01*
X19801857Y-83285714D01*
X19773285Y-83228571D01*
X19744714Y-83200000D01*
X19687571Y-83171428D01*
X19230428Y-83714285D02*
X19201857Y-83742857D01*
X19230428Y-83771428D01*
X19259000Y-83742857D01*
X19230428Y-83714285D01*
X19230428Y-83771428D01*
X18830428Y-83171428D02*
X18773285Y-83171428D01*
X18716142Y-83200000D01*
X18687571Y-83228571D01*
X18659000Y-83285714D01*
X18630428Y-83400000D01*
X18630428Y-83542857D01*
X18659000Y-83657142D01*
X18687571Y-83714285D01*
X18716142Y-83742857D01*
X18773285Y-83771428D01*
X18830428Y-83771428D01*
X18887571Y-83742857D01*
X18916142Y-83714285D01*
X18944714Y-83657142D01*
X18973285Y-83542857D01*
X18973285Y-83400000D01*
X18944714Y-83285714D01*
X18916142Y-83228571D01*
X18887571Y-83200000D01*
X18830428Y-83171428D01*
X18344714Y-83771428D02*
X18230428Y-83771428D01*
X18173285Y-83742857D01*
X18144714Y-83714285D01*
X18087571Y-83628571D01*
X18059000Y-83514285D01*
X18059000Y-83285714D01*
X18087571Y-83228571D01*
X18116142Y-83200000D01*
X18173285Y-83171428D01*
X18287571Y-83171428D01*
X18344714Y-83200000D01*
X18373285Y-83228571D01*
X18401857Y-83285714D01*
X18401857Y-83428571D01*
X18373285Y-83485714D01*
X18344714Y-83514285D01*
X18287571Y-83542857D01*
X18173285Y-83542857D01*
X18116142Y-83514285D01*
X18087571Y-83485714D01*
X18059000Y-83428571D01*
X75544714Y-70728571D02*
X75516142Y-70700000D01*
X75459000Y-70671428D01*
X75316142Y-70671428D01*
X75259000Y-70700000D01*
X75230428Y-70728571D01*
X75201857Y-70785714D01*
X75201857Y-70842857D01*
X75230428Y-70928571D01*
X75573285Y-71271428D01*
X75201857Y-71271428D01*
X74830428Y-70671428D02*
X74773285Y-70671428D01*
X74716142Y-70700000D01*
X74687571Y-70728571D01*
X74659000Y-70785714D01*
X74630428Y-70900000D01*
X74630428Y-71042857D01*
X74659000Y-71157142D01*
X74687571Y-71214285D01*
X74716142Y-71242857D01*
X74773285Y-71271428D01*
X74830428Y-71271428D01*
X74887571Y-71242857D01*
X74916142Y-71214285D01*
X74944714Y-71157142D01*
X74973285Y-71042857D01*
X74973285Y-70900000D01*
X74944714Y-70785714D01*
X74916142Y-70728571D01*
X74887571Y-70700000D01*
X74830428Y-70671428D01*
X74401857Y-70728571D02*
X74373285Y-70700000D01*
X74316142Y-70671428D01*
X74173285Y-70671428D01*
X74116142Y-70700000D01*
X74087571Y-70728571D01*
X74059000Y-70785714D01*
X74059000Y-70842857D01*
X74087571Y-70928571D01*
X74430428Y-71271428D01*
X74059000Y-71271428D01*
X73687571Y-70671428D02*
X73630428Y-70671428D01*
X73573285Y-70700000D01*
X73544714Y-70728571D01*
X73516142Y-70785714D01*
X73487571Y-70900000D01*
X73487571Y-71042857D01*
X73516142Y-71157142D01*
X73544714Y-71214285D01*
X73573285Y-71242857D01*
X73630428Y-71271428D01*
X73687571Y-71271428D01*
X73744714Y-71242857D01*
X73773285Y-71214285D01*
X73801857Y-71157142D01*
X73830428Y-71042857D01*
X73830428Y-70900000D01*
X73801857Y-70785714D01*
X73773285Y-70728571D01*
X73744714Y-70700000D01*
X73687571Y-70671428D01*
X73230428Y-71214285D02*
X73201857Y-71242857D01*
X73230428Y-71271428D01*
X73259000Y-71242857D01*
X73230428Y-71214285D01*
X73230428Y-71271428D01*
X72830428Y-70671428D02*
X72773285Y-70671428D01*
X72716142Y-70700000D01*
X72687571Y-70728571D01*
X72659000Y-70785714D01*
X72630428Y-70900000D01*
X72630428Y-71042857D01*
X72659000Y-71157142D01*
X72687571Y-71214285D01*
X72716142Y-71242857D01*
X72773285Y-71271428D01*
X72830428Y-71271428D01*
X72887571Y-71242857D01*
X72916142Y-71214285D01*
X72944714Y-71157142D01*
X72973285Y-71042857D01*
X72973285Y-70900000D01*
X72944714Y-70785714D01*
X72916142Y-70728571D01*
X72887571Y-70700000D01*
X72830428Y-70671428D01*
X72344714Y-71271428D02*
X72230428Y-71271428D01*
X72173285Y-71242857D01*
X72144714Y-71214285D01*
X72087571Y-71128571D01*
X72059000Y-71014285D01*
X72059000Y-70785714D01*
X72087571Y-70728571D01*
X72116142Y-70700000D01*
X72173285Y-70671428D01*
X72287571Y-70671428D01*
X72344714Y-70700000D01*
X72373285Y-70728571D01*
X72401857Y-70785714D01*
X72401857Y-70928571D01*
X72373285Y-70985714D01*
X72344714Y-71014285D01*
X72287571Y-71042857D01*
X72173285Y-71042857D01*
X72116142Y-71014285D01*
X72087571Y-70985714D01*
X72059000Y-70928571D01*
X48544714Y-70728571D02*
X48516142Y-70700000D01*
X48459000Y-70671428D01*
X48316142Y-70671428D01*
X48259000Y-70700000D01*
X48230428Y-70728571D01*
X48201857Y-70785714D01*
X48201857Y-70842857D01*
X48230428Y-70928571D01*
X48573285Y-71271428D01*
X48201857Y-71271428D01*
X47830428Y-70671428D02*
X47773285Y-70671428D01*
X47716142Y-70700000D01*
X47687571Y-70728571D01*
X47659000Y-70785714D01*
X47630428Y-70900000D01*
X47630428Y-71042857D01*
X47659000Y-71157142D01*
X47687571Y-71214285D01*
X47716142Y-71242857D01*
X47773285Y-71271428D01*
X47830428Y-71271428D01*
X47887571Y-71242857D01*
X47916142Y-71214285D01*
X47944714Y-71157142D01*
X47973285Y-71042857D01*
X47973285Y-70900000D01*
X47944714Y-70785714D01*
X47916142Y-70728571D01*
X47887571Y-70700000D01*
X47830428Y-70671428D01*
X47401857Y-70728571D02*
X47373285Y-70700000D01*
X47316142Y-70671428D01*
X47173285Y-70671428D01*
X47116142Y-70700000D01*
X47087571Y-70728571D01*
X47059000Y-70785714D01*
X47059000Y-70842857D01*
X47087571Y-70928571D01*
X47430428Y-71271428D01*
X47059000Y-71271428D01*
X46687571Y-70671428D02*
X46630428Y-70671428D01*
X46573285Y-70700000D01*
X46544714Y-70728571D01*
X46516142Y-70785714D01*
X46487571Y-70900000D01*
X46487571Y-71042857D01*
X46516142Y-71157142D01*
X46544714Y-71214285D01*
X46573285Y-71242857D01*
X46630428Y-71271428D01*
X46687571Y-71271428D01*
X46744714Y-71242857D01*
X46773285Y-71214285D01*
X46801857Y-71157142D01*
X46830428Y-71042857D01*
X46830428Y-70900000D01*
X46801857Y-70785714D01*
X46773285Y-70728571D01*
X46744714Y-70700000D01*
X46687571Y-70671428D01*
X46230428Y-71214285D02*
X46201857Y-71242857D01*
X46230428Y-71271428D01*
X46259000Y-71242857D01*
X46230428Y-71214285D01*
X46230428Y-71271428D01*
X45830428Y-70671428D02*
X45773285Y-70671428D01*
X45716142Y-70700000D01*
X45687571Y-70728571D01*
X45659000Y-70785714D01*
X45630428Y-70900000D01*
X45630428Y-71042857D01*
X45659000Y-71157142D01*
X45687571Y-71214285D01*
X45716142Y-71242857D01*
X45773285Y-71271428D01*
X45830428Y-71271428D01*
X45887571Y-71242857D01*
X45916142Y-71214285D01*
X45944714Y-71157142D01*
X45973285Y-71042857D01*
X45973285Y-70900000D01*
X45944714Y-70785714D01*
X45916142Y-70728571D01*
X45887571Y-70700000D01*
X45830428Y-70671428D01*
X45344714Y-71271428D02*
X45230428Y-71271428D01*
X45173285Y-71242857D01*
X45144714Y-71214285D01*
X45087571Y-71128571D01*
X45059000Y-71014285D01*
X45059000Y-70785714D01*
X45087571Y-70728571D01*
X45116142Y-70700000D01*
X45173285Y-70671428D01*
X45287571Y-70671428D01*
X45344714Y-70700000D01*
X45373285Y-70728571D01*
X45401857Y-70785714D01*
X45401857Y-70928571D01*
X45373285Y-70985714D01*
X45344714Y-71014285D01*
X45287571Y-71042857D01*
X45173285Y-71042857D01*
X45116142Y-71014285D01*
X45087571Y-70985714D01*
X45059000Y-70928571D01*
X21544714Y-70728571D02*
X21516142Y-70700000D01*
X21459000Y-70671428D01*
X21316142Y-70671428D01*
X21259000Y-70700000D01*
X21230428Y-70728571D01*
X21201857Y-70785714D01*
X21201857Y-70842857D01*
X21230428Y-70928571D01*
X21573285Y-71271428D01*
X21201857Y-71271428D01*
X20830428Y-70671428D02*
X20773285Y-70671428D01*
X20716142Y-70700000D01*
X20687571Y-70728571D01*
X20659000Y-70785714D01*
X20630428Y-70900000D01*
X20630428Y-71042857D01*
X20659000Y-71157142D01*
X20687571Y-71214285D01*
X20716142Y-71242857D01*
X20773285Y-71271428D01*
X20830428Y-71271428D01*
X20887571Y-71242857D01*
X20916142Y-71214285D01*
X20944714Y-71157142D01*
X20973285Y-71042857D01*
X20973285Y-70900000D01*
X20944714Y-70785714D01*
X20916142Y-70728571D01*
X20887571Y-70700000D01*
X20830428Y-70671428D01*
X20401857Y-70728571D02*
X20373285Y-70700000D01*
X20316142Y-70671428D01*
X20173285Y-70671428D01*
X20116142Y-70700000D01*
X20087571Y-70728571D01*
X20059000Y-70785714D01*
X20059000Y-70842857D01*
X20087571Y-70928571D01*
X20430428Y-71271428D01*
X20059000Y-71271428D01*
X19687571Y-70671428D02*
X19630428Y-70671428D01*
X19573285Y-70700000D01*
X19544714Y-70728571D01*
X19516142Y-70785714D01*
X19487571Y-70900000D01*
X19487571Y-71042857D01*
X19516142Y-71157142D01*
X19544714Y-71214285D01*
X19573285Y-71242857D01*
X19630428Y-71271428D01*
X19687571Y-71271428D01*
X19744714Y-71242857D01*
X19773285Y-71214285D01*
X19801857Y-71157142D01*
X19830428Y-71042857D01*
X19830428Y-70900000D01*
X19801857Y-70785714D01*
X19773285Y-70728571D01*
X19744714Y-70700000D01*
X19687571Y-70671428D01*
X19230428Y-71214285D02*
X19201857Y-71242857D01*
X19230428Y-71271428D01*
X19259000Y-71242857D01*
X19230428Y-71214285D01*
X19230428Y-71271428D01*
X18830428Y-70671428D02*
X18773285Y-70671428D01*
X18716142Y-70700000D01*
X18687571Y-70728571D01*
X18659000Y-70785714D01*
X18630428Y-70900000D01*
X18630428Y-71042857D01*
X18659000Y-71157142D01*
X18687571Y-71214285D01*
X18716142Y-71242857D01*
X18773285Y-71271428D01*
X18830428Y-71271428D01*
X18887571Y-71242857D01*
X18916142Y-71214285D01*
X18944714Y-71157142D01*
X18973285Y-71042857D01*
X18973285Y-70900000D01*
X18944714Y-70785714D01*
X18916142Y-70728571D01*
X18887571Y-70700000D01*
X18830428Y-70671428D01*
X18344714Y-71271428D02*
X18230428Y-71271428D01*
X18173285Y-71242857D01*
X18144714Y-71214285D01*
X18087571Y-71128571D01*
X18059000Y-71014285D01*
X18059000Y-70785714D01*
X18087571Y-70728571D01*
X18116142Y-70700000D01*
X18173285Y-70671428D01*
X18287571Y-70671428D01*
X18344714Y-70700000D01*
X18373285Y-70728571D01*
X18401857Y-70785714D01*
X18401857Y-70928571D01*
X18373285Y-70985714D01*
X18344714Y-71014285D01*
X18287571Y-71042857D01*
X18173285Y-71042857D01*
X18116142Y-71014285D01*
X18087571Y-70985714D01*
X18059000Y-70928571D01*
X75544714Y-58228571D02*
X75516142Y-58200000D01*
X75459000Y-58171428D01*
X75316142Y-58171428D01*
X75259000Y-58200000D01*
X75230428Y-58228571D01*
X75201857Y-58285714D01*
X75201857Y-58342857D01*
X75230428Y-58428571D01*
X75573285Y-58771428D01*
X75201857Y-58771428D01*
X74830428Y-58171428D02*
X74773285Y-58171428D01*
X74716142Y-58200000D01*
X74687571Y-58228571D01*
X74659000Y-58285714D01*
X74630428Y-58400000D01*
X74630428Y-58542857D01*
X74659000Y-58657142D01*
X74687571Y-58714285D01*
X74716142Y-58742857D01*
X74773285Y-58771428D01*
X74830428Y-58771428D01*
X74887571Y-58742857D01*
X74916142Y-58714285D01*
X74944714Y-58657142D01*
X74973285Y-58542857D01*
X74973285Y-58400000D01*
X74944714Y-58285714D01*
X74916142Y-58228571D01*
X74887571Y-58200000D01*
X74830428Y-58171428D01*
X74401857Y-58228571D02*
X74373285Y-58200000D01*
X74316142Y-58171428D01*
X74173285Y-58171428D01*
X74116142Y-58200000D01*
X74087571Y-58228571D01*
X74059000Y-58285714D01*
X74059000Y-58342857D01*
X74087571Y-58428571D01*
X74430428Y-58771428D01*
X74059000Y-58771428D01*
X73687571Y-58171428D02*
X73630428Y-58171428D01*
X73573285Y-58200000D01*
X73544714Y-58228571D01*
X73516142Y-58285714D01*
X73487571Y-58400000D01*
X73487571Y-58542857D01*
X73516142Y-58657142D01*
X73544714Y-58714285D01*
X73573285Y-58742857D01*
X73630428Y-58771428D01*
X73687571Y-58771428D01*
X73744714Y-58742857D01*
X73773285Y-58714285D01*
X73801857Y-58657142D01*
X73830428Y-58542857D01*
X73830428Y-58400000D01*
X73801857Y-58285714D01*
X73773285Y-58228571D01*
X73744714Y-58200000D01*
X73687571Y-58171428D01*
X73230428Y-58714285D02*
X73201857Y-58742857D01*
X73230428Y-58771428D01*
X73259000Y-58742857D01*
X73230428Y-58714285D01*
X73230428Y-58771428D01*
X72830428Y-58171428D02*
X72773285Y-58171428D01*
X72716142Y-58200000D01*
X72687571Y-58228571D01*
X72659000Y-58285714D01*
X72630428Y-58400000D01*
X72630428Y-58542857D01*
X72659000Y-58657142D01*
X72687571Y-58714285D01*
X72716142Y-58742857D01*
X72773285Y-58771428D01*
X72830428Y-58771428D01*
X72887571Y-58742857D01*
X72916142Y-58714285D01*
X72944714Y-58657142D01*
X72973285Y-58542857D01*
X72973285Y-58400000D01*
X72944714Y-58285714D01*
X72916142Y-58228571D01*
X72887571Y-58200000D01*
X72830428Y-58171428D01*
X72344714Y-58771428D02*
X72230428Y-58771428D01*
X72173285Y-58742857D01*
X72144714Y-58714285D01*
X72087571Y-58628571D01*
X72059000Y-58514285D01*
X72059000Y-58285714D01*
X72087571Y-58228571D01*
X72116142Y-58200000D01*
X72173285Y-58171428D01*
X72287571Y-58171428D01*
X72344714Y-58200000D01*
X72373285Y-58228571D01*
X72401857Y-58285714D01*
X72401857Y-58428571D01*
X72373285Y-58485714D01*
X72344714Y-58514285D01*
X72287571Y-58542857D01*
X72173285Y-58542857D01*
X72116142Y-58514285D01*
X72087571Y-58485714D01*
X72059000Y-58428571D01*
X48544714Y-58228571D02*
X48516142Y-58200000D01*
X48459000Y-58171428D01*
X48316142Y-58171428D01*
X48259000Y-58200000D01*
X48230428Y-58228571D01*
X48201857Y-58285714D01*
X48201857Y-58342857D01*
X48230428Y-58428571D01*
X48573285Y-58771428D01*
X48201857Y-58771428D01*
X47830428Y-58171428D02*
X47773285Y-58171428D01*
X47716142Y-58200000D01*
X47687571Y-58228571D01*
X47659000Y-58285714D01*
X47630428Y-58400000D01*
X47630428Y-58542857D01*
X47659000Y-58657142D01*
X47687571Y-58714285D01*
X47716142Y-58742857D01*
X47773285Y-58771428D01*
X47830428Y-58771428D01*
X47887571Y-58742857D01*
X47916142Y-58714285D01*
X47944714Y-58657142D01*
X47973285Y-58542857D01*
X47973285Y-58400000D01*
X47944714Y-58285714D01*
X47916142Y-58228571D01*
X47887571Y-58200000D01*
X47830428Y-58171428D01*
X47401857Y-58228571D02*
X47373285Y-58200000D01*
X47316142Y-58171428D01*
X47173285Y-58171428D01*
X47116142Y-58200000D01*
X47087571Y-58228571D01*
X47059000Y-58285714D01*
X47059000Y-58342857D01*
X47087571Y-58428571D01*
X47430428Y-58771428D01*
X47059000Y-58771428D01*
X46687571Y-58171428D02*
X46630428Y-58171428D01*
X46573285Y-58200000D01*
X46544714Y-58228571D01*
X46516142Y-58285714D01*
X46487571Y-58400000D01*
X46487571Y-58542857D01*
X46516142Y-58657142D01*
X46544714Y-58714285D01*
X46573285Y-58742857D01*
X46630428Y-58771428D01*
X46687571Y-58771428D01*
X46744714Y-58742857D01*
X46773285Y-58714285D01*
X46801857Y-58657142D01*
X46830428Y-58542857D01*
X46830428Y-58400000D01*
X46801857Y-58285714D01*
X46773285Y-58228571D01*
X46744714Y-58200000D01*
X46687571Y-58171428D01*
X46230428Y-58714285D02*
X46201857Y-58742857D01*
X46230428Y-58771428D01*
X46259000Y-58742857D01*
X46230428Y-58714285D01*
X46230428Y-58771428D01*
X45830428Y-58171428D02*
X45773285Y-58171428D01*
X45716142Y-58200000D01*
X45687571Y-58228571D01*
X45659000Y-58285714D01*
X45630428Y-58400000D01*
X45630428Y-58542857D01*
X45659000Y-58657142D01*
X45687571Y-58714285D01*
X45716142Y-58742857D01*
X45773285Y-58771428D01*
X45830428Y-58771428D01*
X45887571Y-58742857D01*
X45916142Y-58714285D01*
X45944714Y-58657142D01*
X45973285Y-58542857D01*
X45973285Y-58400000D01*
X45944714Y-58285714D01*
X45916142Y-58228571D01*
X45887571Y-58200000D01*
X45830428Y-58171428D01*
X45344714Y-58771428D02*
X45230428Y-58771428D01*
X45173285Y-58742857D01*
X45144714Y-58714285D01*
X45087571Y-58628571D01*
X45059000Y-58514285D01*
X45059000Y-58285714D01*
X45087571Y-58228571D01*
X45116142Y-58200000D01*
X45173285Y-58171428D01*
X45287571Y-58171428D01*
X45344714Y-58200000D01*
X45373285Y-58228571D01*
X45401857Y-58285714D01*
X45401857Y-58428571D01*
X45373285Y-58485714D01*
X45344714Y-58514285D01*
X45287571Y-58542857D01*
X45173285Y-58542857D01*
X45116142Y-58514285D01*
X45087571Y-58485714D01*
X45059000Y-58428571D01*
X21544714Y-58228571D02*
X21516142Y-58200000D01*
X21459000Y-58171428D01*
X21316142Y-58171428D01*
X21259000Y-58200000D01*
X21230428Y-58228571D01*
X21201857Y-58285714D01*
X21201857Y-58342857D01*
X21230428Y-58428571D01*
X21573285Y-58771428D01*
X21201857Y-58771428D01*
X20830428Y-58171428D02*
X20773285Y-58171428D01*
X20716142Y-58200000D01*
X20687571Y-58228571D01*
X20659000Y-58285714D01*
X20630428Y-58400000D01*
X20630428Y-58542857D01*
X20659000Y-58657142D01*
X20687571Y-58714285D01*
X20716142Y-58742857D01*
X20773285Y-58771428D01*
X20830428Y-58771428D01*
X20887571Y-58742857D01*
X20916142Y-58714285D01*
X20944714Y-58657142D01*
X20973285Y-58542857D01*
X20973285Y-58400000D01*
X20944714Y-58285714D01*
X20916142Y-58228571D01*
X20887571Y-58200000D01*
X20830428Y-58171428D01*
X20401857Y-58228571D02*
X20373285Y-58200000D01*
X20316142Y-58171428D01*
X20173285Y-58171428D01*
X20116142Y-58200000D01*
X20087571Y-58228571D01*
X20059000Y-58285714D01*
X20059000Y-58342857D01*
X20087571Y-58428571D01*
X20430428Y-58771428D01*
X20059000Y-58771428D01*
X19687571Y-58171428D02*
X19630428Y-58171428D01*
X19573285Y-58200000D01*
X19544714Y-58228571D01*
X19516142Y-58285714D01*
X19487571Y-58400000D01*
X19487571Y-58542857D01*
X19516142Y-58657142D01*
X19544714Y-58714285D01*
X19573285Y-58742857D01*
X19630428Y-58771428D01*
X19687571Y-58771428D01*
X19744714Y-58742857D01*
X19773285Y-58714285D01*
X19801857Y-58657142D01*
X19830428Y-58542857D01*
X19830428Y-58400000D01*
X19801857Y-58285714D01*
X19773285Y-58228571D01*
X19744714Y-58200000D01*
X19687571Y-58171428D01*
X19230428Y-58714285D02*
X19201857Y-58742857D01*
X19230428Y-58771428D01*
X19259000Y-58742857D01*
X19230428Y-58714285D01*
X19230428Y-58771428D01*
X18830428Y-58171428D02*
X18773285Y-58171428D01*
X18716142Y-58200000D01*
X18687571Y-58228571D01*
X18659000Y-58285714D01*
X18630428Y-58400000D01*
X18630428Y-58542857D01*
X18659000Y-58657142D01*
X18687571Y-58714285D01*
X18716142Y-58742857D01*
X18773285Y-58771428D01*
X18830428Y-58771428D01*
X18887571Y-58742857D01*
X18916142Y-58714285D01*
X18944714Y-58657142D01*
X18973285Y-58542857D01*
X18973285Y-58400000D01*
X18944714Y-58285714D01*
X18916142Y-58228571D01*
X18887571Y-58200000D01*
X18830428Y-58171428D01*
X18344714Y-58771428D02*
X18230428Y-58771428D01*
X18173285Y-58742857D01*
X18144714Y-58714285D01*
X18087571Y-58628571D01*
X18059000Y-58514285D01*
X18059000Y-58285714D01*
X18087571Y-58228571D01*
X18116142Y-58200000D01*
X18173285Y-58171428D01*
X18287571Y-58171428D01*
X18344714Y-58200000D01*
X18373285Y-58228571D01*
X18401857Y-58285714D01*
X18401857Y-58428571D01*
X18373285Y-58485714D01*
X18344714Y-58514285D01*
X18287571Y-58542857D01*
X18173285Y-58542857D01*
X18116142Y-58514285D01*
X18087571Y-58485714D01*
X18059000Y-58428571D01*
X75544714Y-45728571D02*
X75516142Y-45700000D01*
X75459000Y-45671428D01*
X75316142Y-45671428D01*
X75259000Y-45700000D01*
X75230428Y-45728571D01*
X75201857Y-45785714D01*
X75201857Y-45842857D01*
X75230428Y-45928571D01*
X75573285Y-46271428D01*
X75201857Y-46271428D01*
X74830428Y-45671428D02*
X74773285Y-45671428D01*
X74716142Y-45700000D01*
X74687571Y-45728571D01*
X74659000Y-45785714D01*
X74630428Y-45900000D01*
X74630428Y-46042857D01*
X74659000Y-46157142D01*
X74687571Y-46214285D01*
X74716142Y-46242857D01*
X74773285Y-46271428D01*
X74830428Y-46271428D01*
X74887571Y-46242857D01*
X74916142Y-46214285D01*
X74944714Y-46157142D01*
X74973285Y-46042857D01*
X74973285Y-45900000D01*
X74944714Y-45785714D01*
X74916142Y-45728571D01*
X74887571Y-45700000D01*
X74830428Y-45671428D01*
X74401857Y-45728571D02*
X74373285Y-45700000D01*
X74316142Y-45671428D01*
X74173285Y-45671428D01*
X74116142Y-45700000D01*
X74087571Y-45728571D01*
X74059000Y-45785714D01*
X74059000Y-45842857D01*
X74087571Y-45928571D01*
X74430428Y-46271428D01*
X74059000Y-46271428D01*
X73687571Y-45671428D02*
X73630428Y-45671428D01*
X73573285Y-45700000D01*
X73544714Y-45728571D01*
X73516142Y-45785714D01*
X73487571Y-45900000D01*
X73487571Y-46042857D01*
X73516142Y-46157142D01*
X73544714Y-46214285D01*
X73573285Y-46242857D01*
X73630428Y-46271428D01*
X73687571Y-46271428D01*
X73744714Y-46242857D01*
X73773285Y-46214285D01*
X73801857Y-46157142D01*
X73830428Y-46042857D01*
X73830428Y-45900000D01*
X73801857Y-45785714D01*
X73773285Y-45728571D01*
X73744714Y-45700000D01*
X73687571Y-45671428D01*
X73230428Y-46214285D02*
X73201857Y-46242857D01*
X73230428Y-46271428D01*
X73259000Y-46242857D01*
X73230428Y-46214285D01*
X73230428Y-46271428D01*
X72830428Y-45671428D02*
X72773285Y-45671428D01*
X72716142Y-45700000D01*
X72687571Y-45728571D01*
X72659000Y-45785714D01*
X72630428Y-45900000D01*
X72630428Y-46042857D01*
X72659000Y-46157142D01*
X72687571Y-46214285D01*
X72716142Y-46242857D01*
X72773285Y-46271428D01*
X72830428Y-46271428D01*
X72887571Y-46242857D01*
X72916142Y-46214285D01*
X72944714Y-46157142D01*
X72973285Y-46042857D01*
X72973285Y-45900000D01*
X72944714Y-45785714D01*
X72916142Y-45728571D01*
X72887571Y-45700000D01*
X72830428Y-45671428D01*
X72344714Y-46271428D02*
X72230428Y-46271428D01*
X72173285Y-46242857D01*
X72144714Y-46214285D01*
X72087571Y-46128571D01*
X72059000Y-46014285D01*
X72059000Y-45785714D01*
X72087571Y-45728571D01*
X72116142Y-45700000D01*
X72173285Y-45671428D01*
X72287571Y-45671428D01*
X72344714Y-45700000D01*
X72373285Y-45728571D01*
X72401857Y-45785714D01*
X72401857Y-45928571D01*
X72373285Y-45985714D01*
X72344714Y-46014285D01*
X72287571Y-46042857D01*
X72173285Y-46042857D01*
X72116142Y-46014285D01*
X72087571Y-45985714D01*
X72059000Y-45928571D01*
X48544714Y-45728571D02*
X48516142Y-45700000D01*
X48459000Y-45671428D01*
X48316142Y-45671428D01*
X48259000Y-45700000D01*
X48230428Y-45728571D01*
X48201857Y-45785714D01*
X48201857Y-45842857D01*
X48230428Y-45928571D01*
X48573285Y-46271428D01*
X48201857Y-46271428D01*
X47830428Y-45671428D02*
X47773285Y-45671428D01*
X47716142Y-45700000D01*
X47687571Y-45728571D01*
X47659000Y-45785714D01*
X47630428Y-45900000D01*
X47630428Y-46042857D01*
X47659000Y-46157142D01*
X47687571Y-46214285D01*
X47716142Y-46242857D01*
X47773285Y-46271428D01*
X47830428Y-46271428D01*
X47887571Y-46242857D01*
X47916142Y-46214285D01*
X47944714Y-46157142D01*
X47973285Y-46042857D01*
X47973285Y-45900000D01*
X47944714Y-45785714D01*
X47916142Y-45728571D01*
X47887571Y-45700000D01*
X47830428Y-45671428D01*
X47401857Y-45728571D02*
X47373285Y-45700000D01*
X47316142Y-45671428D01*
X47173285Y-45671428D01*
X47116142Y-45700000D01*
X47087571Y-45728571D01*
X47059000Y-45785714D01*
X47059000Y-45842857D01*
X47087571Y-45928571D01*
X47430428Y-46271428D01*
X47059000Y-46271428D01*
X46687571Y-45671428D02*
X46630428Y-45671428D01*
X46573285Y-45700000D01*
X46544714Y-45728571D01*
X46516142Y-45785714D01*
X46487571Y-45900000D01*
X46487571Y-46042857D01*
X46516142Y-46157142D01*
X46544714Y-46214285D01*
X46573285Y-46242857D01*
X46630428Y-46271428D01*
X46687571Y-46271428D01*
X46744714Y-46242857D01*
X46773285Y-46214285D01*
X46801857Y-46157142D01*
X46830428Y-46042857D01*
X46830428Y-45900000D01*
X46801857Y-45785714D01*
X46773285Y-45728571D01*
X46744714Y-45700000D01*
X46687571Y-45671428D01*
X46230428Y-46214285D02*
X46201857Y-46242857D01*
X46230428Y-46271428D01*
X46259000Y-46242857D01*
X46230428Y-46214285D01*
X46230428Y-46271428D01*
X45830428Y-45671428D02*
X45773285Y-45671428D01*
X45716142Y-45700000D01*
X45687571Y-45728571D01*
X45659000Y-45785714D01*
X45630428Y-45900000D01*
X45630428Y-46042857D01*
X45659000Y-46157142D01*
X45687571Y-46214285D01*
X45716142Y-46242857D01*
X45773285Y-46271428D01*
X45830428Y-46271428D01*
X45887571Y-46242857D01*
X45916142Y-46214285D01*
X45944714Y-46157142D01*
X45973285Y-46042857D01*
X45973285Y-45900000D01*
X45944714Y-45785714D01*
X45916142Y-45728571D01*
X45887571Y-45700000D01*
X45830428Y-45671428D01*
X45344714Y-46271428D02*
X45230428Y-46271428D01*
X45173285Y-46242857D01*
X45144714Y-46214285D01*
X45087571Y-46128571D01*
X45059000Y-46014285D01*
X45059000Y-45785714D01*
X45087571Y-45728571D01*
X45116142Y-45700000D01*
X45173285Y-45671428D01*
X45287571Y-45671428D01*
X45344714Y-45700000D01*
X45373285Y-45728571D01*
X45401857Y-45785714D01*
X45401857Y-45928571D01*
X45373285Y-45985714D01*
X45344714Y-46014285D01*
X45287571Y-46042857D01*
X45173285Y-46042857D01*
X45116142Y-46014285D01*
X45087571Y-45985714D01*
X45059000Y-45928571D01*
X21544714Y-45728571D02*
X21516142Y-45700000D01*
X21459000Y-45671428D01*
X21316142Y-45671428D01*
X21259000Y-45700000D01*
X21230428Y-45728571D01*
X21201857Y-45785714D01*
X21201857Y-45842857D01*
X21230428Y-45928571D01*
X21573285Y-46271428D01*
X21201857Y-46271428D01*
X20830428Y-45671428D02*
X20773285Y-45671428D01*
X20716142Y-45700000D01*
X20687571Y-45728571D01*
X20659000Y-45785714D01*
X20630428Y-45900000D01*
X20630428Y-46042857D01*
X20659000Y-46157142D01*
X20687571Y-46214285D01*
X20716142Y-46242857D01*
X20773285Y-46271428D01*
X20830428Y-46271428D01*
X20887571Y-46242857D01*
X20916142Y-46214285D01*
X20944714Y-46157142D01*
X20973285Y-46042857D01*
X20973285Y-45900000D01*
X20944714Y-45785714D01*
X20916142Y-45728571D01*
X20887571Y-45700000D01*
X20830428Y-45671428D01*
X20401857Y-45728571D02*
X20373285Y-45700000D01*
X20316142Y-45671428D01*
X20173285Y-45671428D01*
X20116142Y-45700000D01*
X20087571Y-45728571D01*
X20059000Y-45785714D01*
X20059000Y-45842857D01*
X20087571Y-45928571D01*
X20430428Y-46271428D01*
X20059000Y-46271428D01*
X19687571Y-45671428D02*
X19630428Y-45671428D01*
X19573285Y-45700000D01*
X19544714Y-45728571D01*
X19516142Y-45785714D01*
X19487571Y-45900000D01*
X19487571Y-46042857D01*
X19516142Y-46157142D01*
X19544714Y-46214285D01*
X19573285Y-46242857D01*
X19630428Y-46271428D01*
X19687571Y-46271428D01*
X19744714Y-46242857D01*
X19773285Y-46214285D01*
X19801857Y-46157142D01*
X19830428Y-46042857D01*
X19830428Y-45900000D01*
X19801857Y-45785714D01*
X19773285Y-45728571D01*
X19744714Y-45700000D01*
X19687571Y-45671428D01*
X19230428Y-46214285D02*
X19201857Y-46242857D01*
X19230428Y-46271428D01*
X19259000Y-46242857D01*
X19230428Y-46214285D01*
X19230428Y-46271428D01*
X18830428Y-45671428D02*
X18773285Y-45671428D01*
X18716142Y-45700000D01*
X18687571Y-45728571D01*
X18659000Y-45785714D01*
X18630428Y-45900000D01*
X18630428Y-46042857D01*
X18659000Y-46157142D01*
X18687571Y-46214285D01*
X18716142Y-46242857D01*
X18773285Y-46271428D01*
X18830428Y-46271428D01*
X18887571Y-46242857D01*
X18916142Y-46214285D01*
X18944714Y-46157142D01*
X18973285Y-46042857D01*
X18973285Y-45900000D01*
X18944714Y-45785714D01*
X18916142Y-45728571D01*
X18887571Y-45700000D01*
X18830428Y-45671428D01*
X18344714Y-46271428D02*
X18230428Y-46271428D01*
X18173285Y-46242857D01*
X18144714Y-46214285D01*
X18087571Y-46128571D01*
X18059000Y-46014285D01*
X18059000Y-45785714D01*
X18087571Y-45728571D01*
X18116142Y-45700000D01*
X18173285Y-45671428D01*
X18287571Y-45671428D01*
X18344714Y-45700000D01*
X18373285Y-45728571D01*
X18401857Y-45785714D01*
X18401857Y-45928571D01*
X18373285Y-45985714D01*
X18344714Y-46014285D01*
X18287571Y-46042857D01*
X18173285Y-46042857D01*
X18116142Y-46014285D01*
X18087571Y-45985714D01*
X18059000Y-45928571D01*
X75544714Y-33228571D02*
X75516142Y-33200000D01*
X75459000Y-33171428D01*
X75316142Y-33171428D01*
X75259000Y-33200000D01*
X75230428Y-33228571D01*
X75201857Y-33285714D01*
X75201857Y-33342857D01*
X75230428Y-33428571D01*
X75573285Y-33771428D01*
X75201857Y-33771428D01*
X74830428Y-33171428D02*
X74773285Y-33171428D01*
X74716142Y-33200000D01*
X74687571Y-33228571D01*
X74659000Y-33285714D01*
X74630428Y-33400000D01*
X74630428Y-33542857D01*
X74659000Y-33657142D01*
X74687571Y-33714285D01*
X74716142Y-33742857D01*
X74773285Y-33771428D01*
X74830428Y-33771428D01*
X74887571Y-33742857D01*
X74916142Y-33714285D01*
X74944714Y-33657142D01*
X74973285Y-33542857D01*
X74973285Y-33400000D01*
X74944714Y-33285714D01*
X74916142Y-33228571D01*
X74887571Y-33200000D01*
X74830428Y-33171428D01*
X74401857Y-33228571D02*
X74373285Y-33200000D01*
X74316142Y-33171428D01*
X74173285Y-33171428D01*
X74116142Y-33200000D01*
X74087571Y-33228571D01*
X74059000Y-33285714D01*
X74059000Y-33342857D01*
X74087571Y-33428571D01*
X74430428Y-33771428D01*
X74059000Y-33771428D01*
X73687571Y-33171428D02*
X73630428Y-33171428D01*
X73573285Y-33200000D01*
X73544714Y-33228571D01*
X73516142Y-33285714D01*
X73487571Y-33400000D01*
X73487571Y-33542857D01*
X73516142Y-33657142D01*
X73544714Y-33714285D01*
X73573285Y-33742857D01*
X73630428Y-33771428D01*
X73687571Y-33771428D01*
X73744714Y-33742857D01*
X73773285Y-33714285D01*
X73801857Y-33657142D01*
X73830428Y-33542857D01*
X73830428Y-33400000D01*
X73801857Y-33285714D01*
X73773285Y-33228571D01*
X73744714Y-33200000D01*
X73687571Y-33171428D01*
X73230428Y-33714285D02*
X73201857Y-33742857D01*
X73230428Y-33771428D01*
X73259000Y-33742857D01*
X73230428Y-33714285D01*
X73230428Y-33771428D01*
X72830428Y-33171428D02*
X72773285Y-33171428D01*
X72716142Y-33200000D01*
X72687571Y-33228571D01*
X72659000Y-33285714D01*
X72630428Y-33400000D01*
X72630428Y-33542857D01*
X72659000Y-33657142D01*
X72687571Y-33714285D01*
X72716142Y-33742857D01*
X72773285Y-33771428D01*
X72830428Y-33771428D01*
X72887571Y-33742857D01*
X72916142Y-33714285D01*
X72944714Y-33657142D01*
X72973285Y-33542857D01*
X72973285Y-33400000D01*
X72944714Y-33285714D01*
X72916142Y-33228571D01*
X72887571Y-33200000D01*
X72830428Y-33171428D01*
X72344714Y-33771428D02*
X72230428Y-33771428D01*
X72173285Y-33742857D01*
X72144714Y-33714285D01*
X72087571Y-33628571D01*
X72059000Y-33514285D01*
X72059000Y-33285714D01*
X72087571Y-33228571D01*
X72116142Y-33200000D01*
X72173285Y-33171428D01*
X72287571Y-33171428D01*
X72344714Y-33200000D01*
X72373285Y-33228571D01*
X72401857Y-33285714D01*
X72401857Y-33428571D01*
X72373285Y-33485714D01*
X72344714Y-33514285D01*
X72287571Y-33542857D01*
X72173285Y-33542857D01*
X72116142Y-33514285D01*
X72087571Y-33485714D01*
X72059000Y-33428571D01*
X48544714Y-33228571D02*
X48516142Y-33200000D01*
X48459000Y-33171428D01*
X48316142Y-33171428D01*
X48259000Y-33200000D01*
X48230428Y-33228571D01*
X48201857Y-33285714D01*
X48201857Y-33342857D01*
X48230428Y-33428571D01*
X48573285Y-33771428D01*
X48201857Y-33771428D01*
X47830428Y-33171428D02*
X47773285Y-33171428D01*
X47716142Y-33200000D01*
X47687571Y-33228571D01*
X47659000Y-33285714D01*
X47630428Y-33400000D01*
X47630428Y-33542857D01*
X47659000Y-33657142D01*
X47687571Y-33714285D01*
X47716142Y-33742857D01*
X47773285Y-33771428D01*
X47830428Y-33771428D01*
X47887571Y-33742857D01*
X47916142Y-33714285D01*
X47944714Y-33657142D01*
X47973285Y-33542857D01*
X47973285Y-33400000D01*
X47944714Y-33285714D01*
X47916142Y-33228571D01*
X47887571Y-33200000D01*
X47830428Y-33171428D01*
X47401857Y-33228571D02*
X47373285Y-33200000D01*
X47316142Y-33171428D01*
X47173285Y-33171428D01*
X47116142Y-33200000D01*
X47087571Y-33228571D01*
X47059000Y-33285714D01*
X47059000Y-33342857D01*
X47087571Y-33428571D01*
X47430428Y-33771428D01*
X47059000Y-33771428D01*
X46687571Y-33171428D02*
X46630428Y-33171428D01*
X46573285Y-33200000D01*
X46544714Y-33228571D01*
X46516142Y-33285714D01*
X46487571Y-33400000D01*
X46487571Y-33542857D01*
X46516142Y-33657142D01*
X46544714Y-33714285D01*
X46573285Y-33742857D01*
X46630428Y-33771428D01*
X46687571Y-33771428D01*
X46744714Y-33742857D01*
X46773285Y-33714285D01*
X46801857Y-33657142D01*
X46830428Y-33542857D01*
X46830428Y-33400000D01*
X46801857Y-33285714D01*
X46773285Y-33228571D01*
X46744714Y-33200000D01*
X46687571Y-33171428D01*
X46230428Y-33714285D02*
X46201857Y-33742857D01*
X46230428Y-33771428D01*
X46259000Y-33742857D01*
X46230428Y-33714285D01*
X46230428Y-33771428D01*
X45830428Y-33171428D02*
X45773285Y-33171428D01*
X45716142Y-33200000D01*
X45687571Y-33228571D01*
X45659000Y-33285714D01*
X45630428Y-33400000D01*
X45630428Y-33542857D01*
X45659000Y-33657142D01*
X45687571Y-33714285D01*
X45716142Y-33742857D01*
X45773285Y-33771428D01*
X45830428Y-33771428D01*
X45887571Y-33742857D01*
X45916142Y-33714285D01*
X45944714Y-33657142D01*
X45973285Y-33542857D01*
X45973285Y-33400000D01*
X45944714Y-33285714D01*
X45916142Y-33228571D01*
X45887571Y-33200000D01*
X45830428Y-33171428D01*
X45344714Y-33771428D02*
X45230428Y-33771428D01*
X45173285Y-33742857D01*
X45144714Y-33714285D01*
X45087571Y-33628571D01*
X45059000Y-33514285D01*
X45059000Y-33285714D01*
X45087571Y-33228571D01*
X45116142Y-33200000D01*
X45173285Y-33171428D01*
X45287571Y-33171428D01*
X45344714Y-33200000D01*
X45373285Y-33228571D01*
X45401857Y-33285714D01*
X45401857Y-33428571D01*
X45373285Y-33485714D01*
X45344714Y-33514285D01*
X45287571Y-33542857D01*
X45173285Y-33542857D01*
X45116142Y-33514285D01*
X45087571Y-33485714D01*
X45059000Y-33428571D01*
X21544714Y-33228571D02*
X21516142Y-33200000D01*
X21459000Y-33171428D01*
X21316142Y-33171428D01*
X21259000Y-33200000D01*
X21230428Y-33228571D01*
X21201857Y-33285714D01*
X21201857Y-33342857D01*
X21230428Y-33428571D01*
X21573285Y-33771428D01*
X21201857Y-33771428D01*
X20830428Y-33171428D02*
X20773285Y-33171428D01*
X20716142Y-33200000D01*
X20687571Y-33228571D01*
X20659000Y-33285714D01*
X20630428Y-33400000D01*
X20630428Y-33542857D01*
X20659000Y-33657142D01*
X20687571Y-33714285D01*
X20716142Y-33742857D01*
X20773285Y-33771428D01*
X20830428Y-33771428D01*
X20887571Y-33742857D01*
X20916142Y-33714285D01*
X20944714Y-33657142D01*
X20973285Y-33542857D01*
X20973285Y-33400000D01*
X20944714Y-33285714D01*
X20916142Y-33228571D01*
X20887571Y-33200000D01*
X20830428Y-33171428D01*
X20401857Y-33228571D02*
X20373285Y-33200000D01*
X20316142Y-33171428D01*
X20173285Y-33171428D01*
X20116142Y-33200000D01*
X20087571Y-33228571D01*
X20059000Y-33285714D01*
X20059000Y-33342857D01*
X20087571Y-33428571D01*
X20430428Y-33771428D01*
X20059000Y-33771428D01*
X19687571Y-33171428D02*
X19630428Y-33171428D01*
X19573285Y-33200000D01*
X19544714Y-33228571D01*
X19516142Y-33285714D01*
X19487571Y-33400000D01*
X19487571Y-33542857D01*
X19516142Y-33657142D01*
X19544714Y-33714285D01*
X19573285Y-33742857D01*
X19630428Y-33771428D01*
X19687571Y-33771428D01*
X19744714Y-33742857D01*
X19773285Y-33714285D01*
X19801857Y-33657142D01*
X19830428Y-33542857D01*
X19830428Y-33400000D01*
X19801857Y-33285714D01*
X19773285Y-33228571D01*
X19744714Y-33200000D01*
X19687571Y-33171428D01*
X19230428Y-33714285D02*
X19201857Y-33742857D01*
X19230428Y-33771428D01*
X19259000Y-33742857D01*
X19230428Y-33714285D01*
X19230428Y-33771428D01*
X18830428Y-33171428D02*
X18773285Y-33171428D01*
X18716142Y-33200000D01*
X18687571Y-33228571D01*
X18659000Y-33285714D01*
X18630428Y-33400000D01*
X18630428Y-33542857D01*
X18659000Y-33657142D01*
X18687571Y-33714285D01*
X18716142Y-33742857D01*
X18773285Y-33771428D01*
X18830428Y-33771428D01*
X18887571Y-33742857D01*
X18916142Y-33714285D01*
X18944714Y-33657142D01*
X18973285Y-33542857D01*
X18973285Y-33400000D01*
X18944714Y-33285714D01*
X18916142Y-33228571D01*
X18887571Y-33200000D01*
X18830428Y-33171428D01*
X18344714Y-33771428D02*
X18230428Y-33771428D01*
X18173285Y-33742857D01*
X18144714Y-33714285D01*
X18087571Y-33628571D01*
X18059000Y-33514285D01*
X18059000Y-33285714D01*
X18087571Y-33228571D01*
X18116142Y-33200000D01*
X18173285Y-33171428D01*
X18287571Y-33171428D01*
X18344714Y-33200000D01*
X18373285Y-33228571D01*
X18401857Y-33285714D01*
X18401857Y-33428571D01*
X18373285Y-33485714D01*
X18344714Y-33514285D01*
X18287571Y-33542857D01*
X18173285Y-33542857D01*
X18116142Y-33514285D01*
X18087571Y-33485714D01*
X18059000Y-33428571D01*
X75544714Y-20728571D02*
X75516142Y-20700000D01*
X75459000Y-20671428D01*
X75316142Y-20671428D01*
X75259000Y-20700000D01*
X75230428Y-20728571D01*
X75201857Y-20785714D01*
X75201857Y-20842857D01*
X75230428Y-20928571D01*
X75573285Y-21271428D01*
X75201857Y-21271428D01*
X74830428Y-20671428D02*
X74773285Y-20671428D01*
X74716142Y-20700000D01*
X74687571Y-20728571D01*
X74659000Y-20785714D01*
X74630428Y-20900000D01*
X74630428Y-21042857D01*
X74659000Y-21157142D01*
X74687571Y-21214285D01*
X74716142Y-21242857D01*
X74773285Y-21271428D01*
X74830428Y-21271428D01*
X74887571Y-21242857D01*
X74916142Y-21214285D01*
X74944714Y-21157142D01*
X74973285Y-21042857D01*
X74973285Y-20900000D01*
X74944714Y-20785714D01*
X74916142Y-20728571D01*
X74887571Y-20700000D01*
X74830428Y-20671428D01*
X74401857Y-20728571D02*
X74373285Y-20700000D01*
X74316142Y-20671428D01*
X74173285Y-20671428D01*
X74116142Y-20700000D01*
X74087571Y-20728571D01*
X74059000Y-20785714D01*
X74059000Y-20842857D01*
X74087571Y-20928571D01*
X74430428Y-21271428D01*
X74059000Y-21271428D01*
X73687571Y-20671428D02*
X73630428Y-20671428D01*
X73573285Y-20700000D01*
X73544714Y-20728571D01*
X73516142Y-20785714D01*
X73487571Y-20900000D01*
X73487571Y-21042857D01*
X73516142Y-21157142D01*
X73544714Y-21214285D01*
X73573285Y-21242857D01*
X73630428Y-21271428D01*
X73687571Y-21271428D01*
X73744714Y-21242857D01*
X73773285Y-21214285D01*
X73801857Y-21157142D01*
X73830428Y-21042857D01*
X73830428Y-20900000D01*
X73801857Y-20785714D01*
X73773285Y-20728571D01*
X73744714Y-20700000D01*
X73687571Y-20671428D01*
X73230428Y-21214285D02*
X73201857Y-21242857D01*
X73230428Y-21271428D01*
X73259000Y-21242857D01*
X73230428Y-21214285D01*
X73230428Y-21271428D01*
X72830428Y-20671428D02*
X72773285Y-20671428D01*
X72716142Y-20700000D01*
X72687571Y-20728571D01*
X72659000Y-20785714D01*
X72630428Y-20900000D01*
X72630428Y-21042857D01*
X72659000Y-21157142D01*
X72687571Y-21214285D01*
X72716142Y-21242857D01*
X72773285Y-21271428D01*
X72830428Y-21271428D01*
X72887571Y-21242857D01*
X72916142Y-21214285D01*
X72944714Y-21157142D01*
X72973285Y-21042857D01*
X72973285Y-20900000D01*
X72944714Y-20785714D01*
X72916142Y-20728571D01*
X72887571Y-20700000D01*
X72830428Y-20671428D01*
X72344714Y-21271428D02*
X72230428Y-21271428D01*
X72173285Y-21242857D01*
X72144714Y-21214285D01*
X72087571Y-21128571D01*
X72059000Y-21014285D01*
X72059000Y-20785714D01*
X72087571Y-20728571D01*
X72116142Y-20700000D01*
X72173285Y-20671428D01*
X72287571Y-20671428D01*
X72344714Y-20700000D01*
X72373285Y-20728571D01*
X72401857Y-20785714D01*
X72401857Y-20928571D01*
X72373285Y-20985714D01*
X72344714Y-21014285D01*
X72287571Y-21042857D01*
X72173285Y-21042857D01*
X72116142Y-21014285D01*
X72087571Y-20985714D01*
X72059000Y-20928571D01*
X48544714Y-20728571D02*
X48516142Y-20700000D01*
X48459000Y-20671428D01*
X48316142Y-20671428D01*
X48259000Y-20700000D01*
X48230428Y-20728571D01*
X48201857Y-20785714D01*
X48201857Y-20842857D01*
X48230428Y-20928571D01*
X48573285Y-21271428D01*
X48201857Y-21271428D01*
X47830428Y-20671428D02*
X47773285Y-20671428D01*
X47716142Y-20700000D01*
X47687571Y-20728571D01*
X47659000Y-20785714D01*
X47630428Y-20900000D01*
X47630428Y-21042857D01*
X47659000Y-21157142D01*
X47687571Y-21214285D01*
X47716142Y-21242857D01*
X47773285Y-21271428D01*
X47830428Y-21271428D01*
X47887571Y-21242857D01*
X47916142Y-21214285D01*
X47944714Y-21157142D01*
X47973285Y-21042857D01*
X47973285Y-20900000D01*
X47944714Y-20785714D01*
X47916142Y-20728571D01*
X47887571Y-20700000D01*
X47830428Y-20671428D01*
X47401857Y-20728571D02*
X47373285Y-20700000D01*
X47316142Y-20671428D01*
X47173285Y-20671428D01*
X47116142Y-20700000D01*
X47087571Y-20728571D01*
X47059000Y-20785714D01*
X47059000Y-20842857D01*
X47087571Y-20928571D01*
X47430428Y-21271428D01*
X47059000Y-21271428D01*
X46687571Y-20671428D02*
X46630428Y-20671428D01*
X46573285Y-20700000D01*
X46544714Y-20728571D01*
X46516142Y-20785714D01*
X46487571Y-20900000D01*
X46487571Y-21042857D01*
X46516142Y-21157142D01*
X46544714Y-21214285D01*
X46573285Y-21242857D01*
X46630428Y-21271428D01*
X46687571Y-21271428D01*
X46744714Y-21242857D01*
X46773285Y-21214285D01*
X46801857Y-21157142D01*
X46830428Y-21042857D01*
X46830428Y-20900000D01*
X46801857Y-20785714D01*
X46773285Y-20728571D01*
X46744714Y-20700000D01*
X46687571Y-20671428D01*
X46230428Y-21214285D02*
X46201857Y-21242857D01*
X46230428Y-21271428D01*
X46259000Y-21242857D01*
X46230428Y-21214285D01*
X46230428Y-21271428D01*
X45830428Y-20671428D02*
X45773285Y-20671428D01*
X45716142Y-20700000D01*
X45687571Y-20728571D01*
X45659000Y-20785714D01*
X45630428Y-20900000D01*
X45630428Y-21042857D01*
X45659000Y-21157142D01*
X45687571Y-21214285D01*
X45716142Y-21242857D01*
X45773285Y-21271428D01*
X45830428Y-21271428D01*
X45887571Y-21242857D01*
X45916142Y-21214285D01*
X45944714Y-21157142D01*
X45973285Y-21042857D01*
X45973285Y-20900000D01*
X45944714Y-20785714D01*
X45916142Y-20728571D01*
X45887571Y-20700000D01*
X45830428Y-20671428D01*
X45344714Y-21271428D02*
X45230428Y-21271428D01*
X45173285Y-21242857D01*
X45144714Y-21214285D01*
X45087571Y-21128571D01*
X45059000Y-21014285D01*
X45059000Y-20785714D01*
X45087571Y-20728571D01*
X45116142Y-20700000D01*
X45173285Y-20671428D01*
X45287571Y-20671428D01*
X45344714Y-20700000D01*
X45373285Y-20728571D01*
X45401857Y-20785714D01*
X45401857Y-20928571D01*
X45373285Y-20985714D01*
X45344714Y-21014285D01*
X45287571Y-21042857D01*
X45173285Y-21042857D01*
X45116142Y-21014285D01*
X45087571Y-20985714D01*
X45059000Y-20928571D01*
X21544714Y-20728571D02*
X21516142Y-20700000D01*
X21459000Y-20671428D01*
X21316142Y-20671428D01*
X21259000Y-20700000D01*
X21230428Y-20728571D01*
X21201857Y-20785714D01*
X21201857Y-20842857D01*
X21230428Y-20928571D01*
X21573285Y-21271428D01*
X21201857Y-21271428D01*
X20830428Y-20671428D02*
X20773285Y-20671428D01*
X20716142Y-20700000D01*
X20687571Y-20728571D01*
X20659000Y-20785714D01*
X20630428Y-20900000D01*
X20630428Y-21042857D01*
X20659000Y-21157142D01*
X20687571Y-21214285D01*
X20716142Y-21242857D01*
X20773285Y-21271428D01*
X20830428Y-21271428D01*
X20887571Y-21242857D01*
X20916142Y-21214285D01*
X20944714Y-21157142D01*
X20973285Y-21042857D01*
X20973285Y-20900000D01*
X20944714Y-20785714D01*
X20916142Y-20728571D01*
X20887571Y-20700000D01*
X20830428Y-20671428D01*
X20401857Y-20728571D02*
X20373285Y-20700000D01*
X20316142Y-20671428D01*
X20173285Y-20671428D01*
X20116142Y-20700000D01*
X20087571Y-20728571D01*
X20059000Y-20785714D01*
X20059000Y-20842857D01*
X20087571Y-20928571D01*
X20430428Y-21271428D01*
X20059000Y-21271428D01*
X19687571Y-20671428D02*
X19630428Y-20671428D01*
X19573285Y-20700000D01*
X19544714Y-20728571D01*
X19516142Y-20785714D01*
X19487571Y-20900000D01*
X19487571Y-21042857D01*
X19516142Y-21157142D01*
X19544714Y-21214285D01*
X19573285Y-21242857D01*
X19630428Y-21271428D01*
X19687571Y-21271428D01*
X19744714Y-21242857D01*
X19773285Y-21214285D01*
X19801857Y-21157142D01*
X19830428Y-21042857D01*
X19830428Y-20900000D01*
X19801857Y-20785714D01*
X19773285Y-20728571D01*
X19744714Y-20700000D01*
X19687571Y-20671428D01*
X19230428Y-21214285D02*
X19201857Y-21242857D01*
X19230428Y-21271428D01*
X19259000Y-21242857D01*
X19230428Y-21214285D01*
X19230428Y-21271428D01*
X18830428Y-20671428D02*
X18773285Y-20671428D01*
X18716142Y-20700000D01*
X18687571Y-20728571D01*
X18659000Y-20785714D01*
X18630428Y-20900000D01*
X18630428Y-21042857D01*
X18659000Y-21157142D01*
X18687571Y-21214285D01*
X18716142Y-21242857D01*
X18773285Y-21271428D01*
X18830428Y-21271428D01*
X18887571Y-21242857D01*
X18916142Y-21214285D01*
X18944714Y-21157142D01*
X18973285Y-21042857D01*
X18973285Y-20900000D01*
X18944714Y-20785714D01*
X18916142Y-20728571D01*
X18887571Y-20700000D01*
X18830428Y-20671428D01*
X18344714Y-21271428D02*
X18230428Y-21271428D01*
X18173285Y-21242857D01*
X18144714Y-21214285D01*
X18087571Y-21128571D01*
X18059000Y-21014285D01*
X18059000Y-20785714D01*
X18087571Y-20728571D01*
X18116142Y-20700000D01*
X18173285Y-20671428D01*
X18287571Y-20671428D01*
X18344714Y-20700000D01*
X18373285Y-20728571D01*
X18401857Y-20785714D01*
X18401857Y-20928571D01*
X18373285Y-20985714D01*
X18344714Y-21014285D01*
X18287571Y-21042857D01*
X18173285Y-21042857D01*
X18116142Y-21014285D01*
X18087571Y-20985714D01*
X18059000Y-20928571D01*
X75544714Y-8228571D02*
X75516142Y-8200000D01*
X75459000Y-8171428D01*
X75316142Y-8171428D01*
X75259000Y-8200000D01*
X75230428Y-8228571D01*
X75201857Y-8285714D01*
X75201857Y-8342857D01*
X75230428Y-8428571D01*
X75573285Y-8771428D01*
X75201857Y-8771428D01*
X74830428Y-8171428D02*
X74773285Y-8171428D01*
X74716142Y-8200000D01*
X74687571Y-8228571D01*
X74659000Y-8285714D01*
X74630428Y-8400000D01*
X74630428Y-8542857D01*
X74659000Y-8657142D01*
X74687571Y-8714285D01*
X74716142Y-8742857D01*
X74773285Y-8771428D01*
X74830428Y-8771428D01*
X74887571Y-8742857D01*
X74916142Y-8714285D01*
X74944714Y-8657142D01*
X74973285Y-8542857D01*
X74973285Y-8400000D01*
X74944714Y-8285714D01*
X74916142Y-8228571D01*
X74887571Y-8200000D01*
X74830428Y-8171428D01*
X74401857Y-8228571D02*
X74373285Y-8200000D01*
X74316142Y-8171428D01*
X74173285Y-8171428D01*
X74116142Y-8200000D01*
X74087571Y-8228571D01*
X74059000Y-8285714D01*
X74059000Y-8342857D01*
X74087571Y-8428571D01*
X74430428Y-8771428D01*
X74059000Y-8771428D01*
X73687571Y-8171428D02*
X73630428Y-8171428D01*
X73573285Y-8200000D01*
X73544714Y-8228571D01*
X73516142Y-8285714D01*
X73487571Y-8400000D01*
X73487571Y-8542857D01*
X73516142Y-8657142D01*
X73544714Y-8714285D01*
X73573285Y-8742857D01*
X73630428Y-8771428D01*
X73687571Y-8771428D01*
X73744714Y-8742857D01*
X73773285Y-8714285D01*
X73801857Y-8657142D01*
X73830428Y-8542857D01*
X73830428Y-8400000D01*
X73801857Y-8285714D01*
X73773285Y-8228571D01*
X73744714Y-8200000D01*
X73687571Y-8171428D01*
X73230428Y-8714285D02*
X73201857Y-8742857D01*
X73230428Y-8771428D01*
X73259000Y-8742857D01*
X73230428Y-8714285D01*
X73230428Y-8771428D01*
X72830428Y-8171428D02*
X72773285Y-8171428D01*
X72716142Y-8200000D01*
X72687571Y-8228571D01*
X72659000Y-8285714D01*
X72630428Y-8400000D01*
X72630428Y-8542857D01*
X72659000Y-8657142D01*
X72687571Y-8714285D01*
X72716142Y-8742857D01*
X72773285Y-8771428D01*
X72830428Y-8771428D01*
X72887571Y-8742857D01*
X72916142Y-8714285D01*
X72944714Y-8657142D01*
X72973285Y-8542857D01*
X72973285Y-8400000D01*
X72944714Y-8285714D01*
X72916142Y-8228571D01*
X72887571Y-8200000D01*
X72830428Y-8171428D01*
X72344714Y-8771428D02*
X72230428Y-8771428D01*
X72173285Y-8742857D01*
X72144714Y-8714285D01*
X72087571Y-8628571D01*
X72059000Y-8514285D01*
X72059000Y-8285714D01*
X72087571Y-8228571D01*
X72116142Y-8200000D01*
X72173285Y-8171428D01*
X72287571Y-8171428D01*
X72344714Y-8200000D01*
X72373285Y-8228571D01*
X72401857Y-8285714D01*
X72401857Y-8428571D01*
X72373285Y-8485714D01*
X72344714Y-8514285D01*
X72287571Y-8542857D01*
X72173285Y-8542857D01*
X72116142Y-8514285D01*
X72087571Y-8485714D01*
X72059000Y-8428571D01*
X48544714Y-8228571D02*
X48516142Y-8200000D01*
X48459000Y-8171428D01*
X48316142Y-8171428D01*
X48259000Y-8200000D01*
X48230428Y-8228571D01*
X48201857Y-8285714D01*
X48201857Y-8342857D01*
X48230428Y-8428571D01*
X48573285Y-8771428D01*
X48201857Y-8771428D01*
X47830428Y-8171428D02*
X47773285Y-8171428D01*
X47716142Y-8200000D01*
X47687571Y-8228571D01*
X47659000Y-8285714D01*
X47630428Y-8400000D01*
X47630428Y-8542857D01*
X47659000Y-8657142D01*
X47687571Y-8714285D01*
X47716142Y-8742857D01*
X47773285Y-8771428D01*
X47830428Y-8771428D01*
X47887571Y-8742857D01*
X47916142Y-8714285D01*
X47944714Y-8657142D01*
X47973285Y-8542857D01*
X47973285Y-8400000D01*
X47944714Y-8285714D01*
X47916142Y-8228571D01*
X47887571Y-8200000D01*
X47830428Y-8171428D01*
X47401857Y-8228571D02*
X47373285Y-8200000D01*
X47316142Y-8171428D01*
X47173285Y-8171428D01*
X47116142Y-8200000D01*
X47087571Y-8228571D01*
X47059000Y-8285714D01*
X47059000Y-8342857D01*
X47087571Y-8428571D01*
X47430428Y-8771428D01*
X47059000Y-8771428D01*
X46687571Y-8171428D02*
X46630428Y-8171428D01*
X46573285Y-8200000D01*
X46544714Y-8228571D01*
X46516142Y-8285714D01*
X46487571Y-8400000D01*
X46487571Y-8542857D01*
X46516142Y-8657142D01*
X46544714Y-8714285D01*
X46573285Y-8742857D01*
X46630428Y-8771428D01*
X46687571Y-8771428D01*
X46744714Y-8742857D01*
X46773285Y-8714285D01*
X46801857Y-8657142D01*
X46830428Y-8542857D01*
X46830428Y-8400000D01*
X46801857Y-8285714D01*
X46773285Y-8228571D01*
X46744714Y-8200000D01*
X46687571Y-8171428D01*
X46230428Y-8714285D02*
X46201857Y-8742857D01*
X46230428Y-8771428D01*
X46259000Y-8742857D01*
X46230428Y-8714285D01*
X46230428Y-8771428D01*
X45830428Y-8171428D02*
X45773285Y-8171428D01*
X45716142Y-8200000D01*
X45687571Y-8228571D01*
X45659000Y-8285714D01*
X45630428Y-8400000D01*
X45630428Y-8542857D01*
X45659000Y-8657142D01*
X45687571Y-8714285D01*
X45716142Y-8742857D01*
X45773285Y-8771428D01*
X45830428Y-8771428D01*
X45887571Y-8742857D01*
X45916142Y-8714285D01*
X45944714Y-8657142D01*
X45973285Y-8542857D01*
X45973285Y-8400000D01*
X45944714Y-8285714D01*
X45916142Y-8228571D01*
X45887571Y-8200000D01*
X45830428Y-8171428D01*
X45344714Y-8771428D02*
X45230428Y-8771428D01*
X45173285Y-8742857D01*
X45144714Y-8714285D01*
X45087571Y-8628571D01*
X45059000Y-8514285D01*
X45059000Y-8285714D01*
X45087571Y-8228571D01*
X45116142Y-8200000D01*
X45173285Y-8171428D01*
X45287571Y-8171428D01*
X45344714Y-8200000D01*
X45373285Y-8228571D01*
X45401857Y-8285714D01*
X45401857Y-8428571D01*
X45373285Y-8485714D01*
X45344714Y-8514285D01*
X45287571Y-8542857D01*
X45173285Y-8542857D01*
X45116142Y-8514285D01*
X45087571Y-8485714D01*
X45059000Y-8428571D01*
X75492333Y-95316666D02*
X75492333Y-94616666D01*
X75259000Y-95116666D01*
X75025666Y-94616666D01*
X75025666Y-95316666D01*
X74559000Y-94616666D02*
X74492333Y-94616666D01*
X74425666Y-94650000D01*
X74392333Y-94683333D01*
X74359000Y-94750000D01*
X74325666Y-94883333D01*
X74325666Y-95050000D01*
X74359000Y-95183333D01*
X74392333Y-95250000D01*
X74425666Y-95283333D01*
X74492333Y-95316666D01*
X74559000Y-95316666D01*
X74625666Y-95283333D01*
X74659000Y-95250000D01*
X74692333Y-95183333D01*
X74725666Y-95050000D01*
X74725666Y-94883333D01*
X74692333Y-94750000D01*
X74659000Y-94683333D01*
X74625666Y-94650000D01*
X74559000Y-94616666D01*
X73659000Y-95316666D02*
X74059000Y-95316666D01*
X73859000Y-95316666D02*
X73859000Y-94616666D01*
X73925666Y-94716666D01*
X73992333Y-94783333D01*
X74059000Y-94816666D01*
X73125666Y-94950000D02*
X73359000Y-94950000D01*
X73359000Y-95316666D02*
X73359000Y-94616666D01*
X73025666Y-94616666D01*
X72625666Y-94616666D02*
X72559000Y-94616666D01*
X72492333Y-94650000D01*
X72459000Y-94683333D01*
X72425666Y-94750000D01*
X72392333Y-94883333D01*
X72392333Y-95050000D01*
X72425666Y-95183333D01*
X72459000Y-95250000D01*
X72492333Y-95283333D01*
X72559000Y-95316666D01*
X72625666Y-95316666D01*
X72692333Y-95283333D01*
X72725666Y-95250000D01*
X72759000Y-95183333D01*
X72792333Y-95050000D01*
X72792333Y-94883333D01*
X72759000Y-94750000D01*
X72725666Y-94683333D01*
X72692333Y-94650000D01*
X72625666Y-94616666D01*
X71159000Y-95316666D02*
X71392333Y-94983333D01*
X71559000Y-95316666D02*
X71559000Y-94616666D01*
X71292333Y-94616666D01*
X71225666Y-94650000D01*
X71192333Y-94683333D01*
X71159000Y-94750000D01*
X71159000Y-94850000D01*
X71192333Y-94916666D01*
X71225666Y-94950000D01*
X71292333Y-94983333D01*
X71559000Y-94983333D01*
X70592333Y-95283333D02*
X70659000Y-95316666D01*
X70792333Y-95316666D01*
X70859000Y-95283333D01*
X70892333Y-95216666D01*
X70892333Y-94950000D01*
X70859000Y-94883333D01*
X70792333Y-94850000D01*
X70659000Y-94850000D01*
X70592333Y-94883333D01*
X70559000Y-94950000D01*
X70559000Y-95016666D01*
X70892333Y-95083333D01*
X70325666Y-94850000D02*
X70159000Y-95316666D01*
X69992333Y-94850000D01*
X69725666Y-95250000D02*
X69692333Y-95283333D01*
X69725666Y-95316666D01*
X69759000Y-95283333D01*
X69725666Y-95250000D01*
X69725666Y-95316666D01*
X69025666Y-95316666D02*
X69425666Y-95316666D01*
X69225666Y-95316666D02*
X69225666Y-94616666D01*
X69292333Y-94716666D01*
X69359000Y-94783333D01*
X69425666Y-94816666D01*
X48492333Y-95316666D02*
X48492333Y-94616666D01*
X48259000Y-95116666D01*
X48025666Y-94616666D01*
X48025666Y-95316666D01*
X47559000Y-94616666D02*
X47492333Y-94616666D01*
X47425666Y-94650000D01*
X47392333Y-94683333D01*
X47359000Y-94750000D01*
X47325666Y-94883333D01*
X47325666Y-95050000D01*
X47359000Y-95183333D01*
X47392333Y-95250000D01*
X47425666Y-95283333D01*
X47492333Y-95316666D01*
X47559000Y-95316666D01*
X47625666Y-95283333D01*
X47659000Y-95250000D01*
X47692333Y-95183333D01*
X47725666Y-95050000D01*
X47725666Y-94883333D01*
X47692333Y-94750000D01*
X47659000Y-94683333D01*
X47625666Y-94650000D01*
X47559000Y-94616666D01*
X46659000Y-95316666D02*
X47059000Y-95316666D01*
X46859000Y-95316666D02*
X46859000Y-94616666D01*
X46925666Y-94716666D01*
X46992333Y-94783333D01*
X47059000Y-94816666D01*
X46125666Y-94950000D02*
X46359000Y-94950000D01*
X46359000Y-95316666D02*
X46359000Y-94616666D01*
X46025666Y-94616666D01*
X45625666Y-94616666D02*
X45559000Y-94616666D01*
X45492333Y-94650000D01*
X45459000Y-94683333D01*
X45425666Y-94750000D01*
X45392333Y-94883333D01*
X45392333Y-95050000D01*
X45425666Y-95183333D01*
X45459000Y-95250000D01*
X45492333Y-95283333D01*
X45559000Y-95316666D01*
X45625666Y-95316666D01*
X45692333Y-95283333D01*
X45725666Y-95250000D01*
X45759000Y-95183333D01*
X45792333Y-95050000D01*
X45792333Y-94883333D01*
X45759000Y-94750000D01*
X45725666Y-94683333D01*
X45692333Y-94650000D01*
X45625666Y-94616666D01*
X44159000Y-95316666D02*
X44392333Y-94983333D01*
X44559000Y-95316666D02*
X44559000Y-94616666D01*
X44292333Y-94616666D01*
X44225666Y-94650000D01*
X44192333Y-94683333D01*
X44159000Y-94750000D01*
X44159000Y-94850000D01*
X44192333Y-94916666D01*
X44225666Y-94950000D01*
X44292333Y-94983333D01*
X44559000Y-94983333D01*
X43592333Y-95283333D02*
X43659000Y-95316666D01*
X43792333Y-95316666D01*
X43859000Y-95283333D01*
X43892333Y-95216666D01*
X43892333Y-94950000D01*
X43859000Y-94883333D01*
X43792333Y-94850000D01*
X43659000Y-94850000D01*
X43592333Y-94883333D01*
X43559000Y-94950000D01*
X43559000Y-95016666D01*
X43892333Y-95083333D01*
X43325666Y-94850000D02*
X43159000Y-95316666D01*
X42992333Y-94850000D01*
X42725666Y-95250000D02*
X42692333Y-95283333D01*
X42725666Y-95316666D01*
X42759000Y-95283333D01*
X42725666Y-95250000D01*
X42725666Y-95316666D01*
X42025666Y-95316666D02*
X42425666Y-95316666D01*
X42225666Y-95316666D02*
X42225666Y-94616666D01*
X42292333Y-94716666D01*
X42359000Y-94783333D01*
X42425666Y-94816666D01*
X21492333Y-95316666D02*
X21492333Y-94616666D01*
X21259000Y-95116666D01*
X21025666Y-94616666D01*
X21025666Y-95316666D01*
X20559000Y-94616666D02*
X20492333Y-94616666D01*
X20425666Y-94650000D01*
X20392333Y-94683333D01*
X20359000Y-94750000D01*
X20325666Y-94883333D01*
X20325666Y-95050000D01*
X20359000Y-95183333D01*
X20392333Y-95250000D01*
X20425666Y-95283333D01*
X20492333Y-95316666D01*
X20559000Y-95316666D01*
X20625666Y-95283333D01*
X20659000Y-95250000D01*
X20692333Y-95183333D01*
X20725666Y-95050000D01*
X20725666Y-94883333D01*
X20692333Y-94750000D01*
X20659000Y-94683333D01*
X20625666Y-94650000D01*
X20559000Y-94616666D01*
X19659000Y-95316666D02*
X20059000Y-95316666D01*
X19859000Y-95316666D02*
X19859000Y-94616666D01*
X19925666Y-94716666D01*
X19992333Y-94783333D01*
X20059000Y-94816666D01*
X19125666Y-94950000D02*
X19359000Y-94950000D01*
X19359000Y-95316666D02*
X19359000Y-94616666D01*
X19025666Y-94616666D01*
X18625666Y-94616666D02*
X18559000Y-94616666D01*
X18492333Y-94650000D01*
X18459000Y-94683333D01*
X18425666Y-94750000D01*
X18392333Y-94883333D01*
X18392333Y-95050000D01*
X18425666Y-95183333D01*
X18459000Y-95250000D01*
X18492333Y-95283333D01*
X18559000Y-95316666D01*
X18625666Y-95316666D01*
X18692333Y-95283333D01*
X18725666Y-95250000D01*
X18759000Y-95183333D01*
X18792333Y-95050000D01*
X18792333Y-94883333D01*
X18759000Y-94750000D01*
X18725666Y-94683333D01*
X18692333Y-94650000D01*
X18625666Y-94616666D01*
X17159000Y-95316666D02*
X17392333Y-94983333D01*
X17559000Y-95316666D02*
X17559000Y-94616666D01*
X17292333Y-94616666D01*
X17225666Y-94650000D01*
X17192333Y-94683333D01*
X17159000Y-94750000D01*
X17159000Y-94850000D01*
X17192333Y-94916666D01*
X17225666Y-94950000D01*
X17292333Y-94983333D01*
X17559000Y-94983333D01*
X16592333Y-95283333D02*
X16659000Y-95316666D01*
X16792333Y-95316666D01*
X16859000Y-95283333D01*
X16892333Y-95216666D01*
X16892333Y-94950000D01*
X16859000Y-94883333D01*
X16792333Y-94850000D01*
X16659000Y-94850000D01*
X16592333Y-94883333D01*
X16559000Y-94950000D01*
X16559000Y-95016666D01*
X16892333Y-95083333D01*
X16325666Y-94850000D02*
X16159000Y-95316666D01*
X15992333Y-94850000D01*
X15725666Y-95250000D02*
X15692333Y-95283333D01*
X15725666Y-95316666D01*
X15759000Y-95283333D01*
X15725666Y-95250000D01*
X15725666Y-95316666D01*
X15025666Y-95316666D02*
X15425666Y-95316666D01*
X15225666Y-95316666D02*
X15225666Y-94616666D01*
X15292333Y-94716666D01*
X15359000Y-94783333D01*
X15425666Y-94816666D01*
X75492333Y-82816666D02*
X75492333Y-82116666D01*
X75259000Y-82616666D01*
X75025666Y-82116666D01*
X75025666Y-82816666D01*
X74559000Y-82116666D02*
X74492333Y-82116666D01*
X74425666Y-82150000D01*
X74392333Y-82183333D01*
X74359000Y-82250000D01*
X74325666Y-82383333D01*
X74325666Y-82550000D01*
X74359000Y-82683333D01*
X74392333Y-82750000D01*
X74425666Y-82783333D01*
X74492333Y-82816666D01*
X74559000Y-82816666D01*
X74625666Y-82783333D01*
X74659000Y-82750000D01*
X74692333Y-82683333D01*
X74725666Y-82550000D01*
X74725666Y-82383333D01*
X74692333Y-82250000D01*
X74659000Y-82183333D01*
X74625666Y-82150000D01*
X74559000Y-82116666D01*
X73659000Y-82816666D02*
X74059000Y-82816666D01*
X73859000Y-82816666D02*
X73859000Y-82116666D01*
X73925666Y-82216666D01*
X73992333Y-82283333D01*
X74059000Y-82316666D01*
X73125666Y-82450000D02*
X73359000Y-82450000D01*
X73359000Y-82816666D02*
X73359000Y-82116666D01*
X73025666Y-82116666D01*
X72625666Y-82116666D02*
X72559000Y-82116666D01*
X72492333Y-82150000D01*
X72459000Y-82183333D01*
X72425666Y-82250000D01*
X72392333Y-82383333D01*
X72392333Y-82550000D01*
X72425666Y-82683333D01*
X72459000Y-82750000D01*
X72492333Y-82783333D01*
X72559000Y-82816666D01*
X72625666Y-82816666D01*
X72692333Y-82783333D01*
X72725666Y-82750000D01*
X72759000Y-82683333D01*
X72792333Y-82550000D01*
X72792333Y-82383333D01*
X72759000Y-82250000D01*
X72725666Y-82183333D01*
X72692333Y-82150000D01*
X72625666Y-82116666D01*
X71159000Y-82816666D02*
X71392333Y-82483333D01*
X71559000Y-82816666D02*
X71559000Y-82116666D01*
X71292333Y-82116666D01*
X71225666Y-82150000D01*
X71192333Y-82183333D01*
X71159000Y-82250000D01*
X71159000Y-82350000D01*
X71192333Y-82416666D01*
X71225666Y-82450000D01*
X71292333Y-82483333D01*
X71559000Y-82483333D01*
X70592333Y-82783333D02*
X70659000Y-82816666D01*
X70792333Y-82816666D01*
X70859000Y-82783333D01*
X70892333Y-82716666D01*
X70892333Y-82450000D01*
X70859000Y-82383333D01*
X70792333Y-82350000D01*
X70659000Y-82350000D01*
X70592333Y-82383333D01*
X70559000Y-82450000D01*
X70559000Y-82516666D01*
X70892333Y-82583333D01*
X70325666Y-82350000D02*
X70159000Y-82816666D01*
X69992333Y-82350000D01*
X69725666Y-82750000D02*
X69692333Y-82783333D01*
X69725666Y-82816666D01*
X69759000Y-82783333D01*
X69725666Y-82750000D01*
X69725666Y-82816666D01*
X69025666Y-82816666D02*
X69425666Y-82816666D01*
X69225666Y-82816666D02*
X69225666Y-82116666D01*
X69292333Y-82216666D01*
X69359000Y-82283333D01*
X69425666Y-82316666D01*
X48492333Y-82816666D02*
X48492333Y-82116666D01*
X48259000Y-82616666D01*
X48025666Y-82116666D01*
X48025666Y-82816666D01*
X47559000Y-82116666D02*
X47492333Y-82116666D01*
X47425666Y-82150000D01*
X47392333Y-82183333D01*
X47359000Y-82250000D01*
X47325666Y-82383333D01*
X47325666Y-82550000D01*
X47359000Y-82683333D01*
X47392333Y-82750000D01*
X47425666Y-82783333D01*
X47492333Y-82816666D01*
X47559000Y-82816666D01*
X47625666Y-82783333D01*
X47659000Y-82750000D01*
X47692333Y-82683333D01*
X47725666Y-82550000D01*
X47725666Y-82383333D01*
X47692333Y-82250000D01*
X47659000Y-82183333D01*
X47625666Y-82150000D01*
X47559000Y-82116666D01*
X46659000Y-82816666D02*
X47059000Y-82816666D01*
X46859000Y-82816666D02*
X46859000Y-82116666D01*
X46925666Y-82216666D01*
X46992333Y-82283333D01*
X47059000Y-82316666D01*
X46125666Y-82450000D02*
X46359000Y-82450000D01*
X46359000Y-82816666D02*
X46359000Y-82116666D01*
X46025666Y-82116666D01*
X45625666Y-82116666D02*
X45559000Y-82116666D01*
X45492333Y-82150000D01*
X45459000Y-82183333D01*
X45425666Y-82250000D01*
X45392333Y-82383333D01*
X45392333Y-82550000D01*
X45425666Y-82683333D01*
X45459000Y-82750000D01*
X45492333Y-82783333D01*
X45559000Y-82816666D01*
X45625666Y-82816666D01*
X45692333Y-82783333D01*
X45725666Y-82750000D01*
X45759000Y-82683333D01*
X45792333Y-82550000D01*
X45792333Y-82383333D01*
X45759000Y-82250000D01*
X45725666Y-82183333D01*
X45692333Y-82150000D01*
X45625666Y-82116666D01*
X44159000Y-82816666D02*
X44392333Y-82483333D01*
X44559000Y-82816666D02*
X44559000Y-82116666D01*
X44292333Y-82116666D01*
X44225666Y-82150000D01*
X44192333Y-82183333D01*
X44159000Y-82250000D01*
X44159000Y-82350000D01*
X44192333Y-82416666D01*
X44225666Y-82450000D01*
X44292333Y-82483333D01*
X44559000Y-82483333D01*
X43592333Y-82783333D02*
X43659000Y-82816666D01*
X43792333Y-82816666D01*
X43859000Y-82783333D01*
X43892333Y-82716666D01*
X43892333Y-82450000D01*
X43859000Y-82383333D01*
X43792333Y-82350000D01*
X43659000Y-82350000D01*
X43592333Y-82383333D01*
X43559000Y-82450000D01*
X43559000Y-82516666D01*
X43892333Y-82583333D01*
X43325666Y-82350000D02*
X43159000Y-82816666D01*
X42992333Y-82350000D01*
X42725666Y-82750000D02*
X42692333Y-82783333D01*
X42725666Y-82816666D01*
X42759000Y-82783333D01*
X42725666Y-82750000D01*
X42725666Y-82816666D01*
X42025666Y-82816666D02*
X42425666Y-82816666D01*
X42225666Y-82816666D02*
X42225666Y-82116666D01*
X42292333Y-82216666D01*
X42359000Y-82283333D01*
X42425666Y-82316666D01*
X21492333Y-82816666D02*
X21492333Y-82116666D01*
X21259000Y-82616666D01*
X21025666Y-82116666D01*
X21025666Y-82816666D01*
X20559000Y-82116666D02*
X20492333Y-82116666D01*
X20425666Y-82150000D01*
X20392333Y-82183333D01*
X20359000Y-82250000D01*
X20325666Y-82383333D01*
X20325666Y-82550000D01*
X20359000Y-82683333D01*
X20392333Y-82750000D01*
X20425666Y-82783333D01*
X20492333Y-82816666D01*
X20559000Y-82816666D01*
X20625666Y-82783333D01*
X20659000Y-82750000D01*
X20692333Y-82683333D01*
X20725666Y-82550000D01*
X20725666Y-82383333D01*
X20692333Y-82250000D01*
X20659000Y-82183333D01*
X20625666Y-82150000D01*
X20559000Y-82116666D01*
X19659000Y-82816666D02*
X20059000Y-82816666D01*
X19859000Y-82816666D02*
X19859000Y-82116666D01*
X19925666Y-82216666D01*
X19992333Y-82283333D01*
X20059000Y-82316666D01*
X19125666Y-82450000D02*
X19359000Y-82450000D01*
X19359000Y-82816666D02*
X19359000Y-82116666D01*
X19025666Y-82116666D01*
X18625666Y-82116666D02*
X18559000Y-82116666D01*
X18492333Y-82150000D01*
X18459000Y-82183333D01*
X18425666Y-82250000D01*
X18392333Y-82383333D01*
X18392333Y-82550000D01*
X18425666Y-82683333D01*
X18459000Y-82750000D01*
X18492333Y-82783333D01*
X18559000Y-82816666D01*
X18625666Y-82816666D01*
X18692333Y-82783333D01*
X18725666Y-82750000D01*
X18759000Y-82683333D01*
X18792333Y-82550000D01*
X18792333Y-82383333D01*
X18759000Y-82250000D01*
X18725666Y-82183333D01*
X18692333Y-82150000D01*
X18625666Y-82116666D01*
X17159000Y-82816666D02*
X17392333Y-82483333D01*
X17559000Y-82816666D02*
X17559000Y-82116666D01*
X17292333Y-82116666D01*
X17225666Y-82150000D01*
X17192333Y-82183333D01*
X17159000Y-82250000D01*
X17159000Y-82350000D01*
X17192333Y-82416666D01*
X17225666Y-82450000D01*
X17292333Y-82483333D01*
X17559000Y-82483333D01*
X16592333Y-82783333D02*
X16659000Y-82816666D01*
X16792333Y-82816666D01*
X16859000Y-82783333D01*
X16892333Y-82716666D01*
X16892333Y-82450000D01*
X16859000Y-82383333D01*
X16792333Y-82350000D01*
X16659000Y-82350000D01*
X16592333Y-82383333D01*
X16559000Y-82450000D01*
X16559000Y-82516666D01*
X16892333Y-82583333D01*
X16325666Y-82350000D02*
X16159000Y-82816666D01*
X15992333Y-82350000D01*
X15725666Y-82750000D02*
X15692333Y-82783333D01*
X15725666Y-82816666D01*
X15759000Y-82783333D01*
X15725666Y-82750000D01*
X15725666Y-82816666D01*
X15025666Y-82816666D02*
X15425666Y-82816666D01*
X15225666Y-82816666D02*
X15225666Y-82116666D01*
X15292333Y-82216666D01*
X15359000Y-82283333D01*
X15425666Y-82316666D01*
X75492333Y-70316666D02*
X75492333Y-69616666D01*
X75259000Y-70116666D01*
X75025666Y-69616666D01*
X75025666Y-70316666D01*
X74559000Y-69616666D02*
X74492333Y-69616666D01*
X74425666Y-69650000D01*
X74392333Y-69683333D01*
X74359000Y-69750000D01*
X74325666Y-69883333D01*
X74325666Y-70050000D01*
X74359000Y-70183333D01*
X74392333Y-70250000D01*
X74425666Y-70283333D01*
X74492333Y-70316666D01*
X74559000Y-70316666D01*
X74625666Y-70283333D01*
X74659000Y-70250000D01*
X74692333Y-70183333D01*
X74725666Y-70050000D01*
X74725666Y-69883333D01*
X74692333Y-69750000D01*
X74659000Y-69683333D01*
X74625666Y-69650000D01*
X74559000Y-69616666D01*
X73659000Y-70316666D02*
X74059000Y-70316666D01*
X73859000Y-70316666D02*
X73859000Y-69616666D01*
X73925666Y-69716666D01*
X73992333Y-69783333D01*
X74059000Y-69816666D01*
X73125666Y-69950000D02*
X73359000Y-69950000D01*
X73359000Y-70316666D02*
X73359000Y-69616666D01*
X73025666Y-69616666D01*
X72625666Y-69616666D02*
X72559000Y-69616666D01*
X72492333Y-69650000D01*
X72459000Y-69683333D01*
X72425666Y-69750000D01*
X72392333Y-69883333D01*
X72392333Y-70050000D01*
X72425666Y-70183333D01*
X72459000Y-70250000D01*
X72492333Y-70283333D01*
X72559000Y-70316666D01*
X72625666Y-70316666D01*
X72692333Y-70283333D01*
X72725666Y-70250000D01*
X72759000Y-70183333D01*
X72792333Y-70050000D01*
X72792333Y-69883333D01*
X72759000Y-69750000D01*
X72725666Y-69683333D01*
X72692333Y-69650000D01*
X72625666Y-69616666D01*
X71159000Y-70316666D02*
X71392333Y-69983333D01*
X71559000Y-70316666D02*
X71559000Y-69616666D01*
X71292333Y-69616666D01*
X71225666Y-69650000D01*
X71192333Y-69683333D01*
X71159000Y-69750000D01*
X71159000Y-69850000D01*
X71192333Y-69916666D01*
X71225666Y-69950000D01*
X71292333Y-69983333D01*
X71559000Y-69983333D01*
X70592333Y-70283333D02*
X70659000Y-70316666D01*
X70792333Y-70316666D01*
X70859000Y-70283333D01*
X70892333Y-70216666D01*
X70892333Y-69950000D01*
X70859000Y-69883333D01*
X70792333Y-69850000D01*
X70659000Y-69850000D01*
X70592333Y-69883333D01*
X70559000Y-69950000D01*
X70559000Y-70016666D01*
X70892333Y-70083333D01*
X70325666Y-69850000D02*
X70159000Y-70316666D01*
X69992333Y-69850000D01*
X69725666Y-70250000D02*
X69692333Y-70283333D01*
X69725666Y-70316666D01*
X69759000Y-70283333D01*
X69725666Y-70250000D01*
X69725666Y-70316666D01*
X69025666Y-70316666D02*
X69425666Y-70316666D01*
X69225666Y-70316666D02*
X69225666Y-69616666D01*
X69292333Y-69716666D01*
X69359000Y-69783333D01*
X69425666Y-69816666D01*
X48492333Y-70316666D02*
X48492333Y-69616666D01*
X48259000Y-70116666D01*
X48025666Y-69616666D01*
X48025666Y-70316666D01*
X47559000Y-69616666D02*
X47492333Y-69616666D01*
X47425666Y-69650000D01*
X47392333Y-69683333D01*
X47359000Y-69750000D01*
X47325666Y-69883333D01*
X47325666Y-70050000D01*
X47359000Y-70183333D01*
X47392333Y-70250000D01*
X47425666Y-70283333D01*
X47492333Y-70316666D01*
X47559000Y-70316666D01*
X47625666Y-70283333D01*
X47659000Y-70250000D01*
X47692333Y-70183333D01*
X47725666Y-70050000D01*
X47725666Y-69883333D01*
X47692333Y-69750000D01*
X47659000Y-69683333D01*
X47625666Y-69650000D01*
X47559000Y-69616666D01*
X46659000Y-70316666D02*
X47059000Y-70316666D01*
X46859000Y-70316666D02*
X46859000Y-69616666D01*
X46925666Y-69716666D01*
X46992333Y-69783333D01*
X47059000Y-69816666D01*
X46125666Y-69950000D02*
X46359000Y-69950000D01*
X46359000Y-70316666D02*
X46359000Y-69616666D01*
X46025666Y-69616666D01*
X45625666Y-69616666D02*
X45559000Y-69616666D01*
X45492333Y-69650000D01*
X45459000Y-69683333D01*
X45425666Y-69750000D01*
X45392333Y-69883333D01*
X45392333Y-70050000D01*
X45425666Y-70183333D01*
X45459000Y-70250000D01*
X45492333Y-70283333D01*
X45559000Y-70316666D01*
X45625666Y-70316666D01*
X45692333Y-70283333D01*
X45725666Y-70250000D01*
X45759000Y-70183333D01*
X45792333Y-70050000D01*
X45792333Y-69883333D01*
X45759000Y-69750000D01*
X45725666Y-69683333D01*
X45692333Y-69650000D01*
X45625666Y-69616666D01*
X44159000Y-70316666D02*
X44392333Y-69983333D01*
X44559000Y-70316666D02*
X44559000Y-69616666D01*
X44292333Y-69616666D01*
X44225666Y-69650000D01*
X44192333Y-69683333D01*
X44159000Y-69750000D01*
X44159000Y-69850000D01*
X44192333Y-69916666D01*
X44225666Y-69950000D01*
X44292333Y-69983333D01*
X44559000Y-69983333D01*
X43592333Y-70283333D02*
X43659000Y-70316666D01*
X43792333Y-70316666D01*
X43859000Y-70283333D01*
X43892333Y-70216666D01*
X43892333Y-69950000D01*
X43859000Y-69883333D01*
X43792333Y-69850000D01*
X43659000Y-69850000D01*
X43592333Y-69883333D01*
X43559000Y-69950000D01*
X43559000Y-70016666D01*
X43892333Y-70083333D01*
X43325666Y-69850000D02*
X43159000Y-70316666D01*
X42992333Y-69850000D01*
X42725666Y-70250000D02*
X42692333Y-70283333D01*
X42725666Y-70316666D01*
X42759000Y-70283333D01*
X42725666Y-70250000D01*
X42725666Y-70316666D01*
X42025666Y-70316666D02*
X42425666Y-70316666D01*
X42225666Y-70316666D02*
X42225666Y-69616666D01*
X42292333Y-69716666D01*
X42359000Y-69783333D01*
X42425666Y-69816666D01*
X21492333Y-70316666D02*
X21492333Y-69616666D01*
X21259000Y-70116666D01*
X21025666Y-69616666D01*
X21025666Y-70316666D01*
X20559000Y-69616666D02*
X20492333Y-69616666D01*
X20425666Y-69650000D01*
X20392333Y-69683333D01*
X20359000Y-69750000D01*
X20325666Y-69883333D01*
X20325666Y-70050000D01*
X20359000Y-70183333D01*
X20392333Y-70250000D01*
X20425666Y-70283333D01*
X20492333Y-70316666D01*
X20559000Y-70316666D01*
X20625666Y-70283333D01*
X20659000Y-70250000D01*
X20692333Y-70183333D01*
X20725666Y-70050000D01*
X20725666Y-69883333D01*
X20692333Y-69750000D01*
X20659000Y-69683333D01*
X20625666Y-69650000D01*
X20559000Y-69616666D01*
X19659000Y-70316666D02*
X20059000Y-70316666D01*
X19859000Y-70316666D02*
X19859000Y-69616666D01*
X19925666Y-69716666D01*
X19992333Y-69783333D01*
X20059000Y-69816666D01*
X19125666Y-69950000D02*
X19359000Y-69950000D01*
X19359000Y-70316666D02*
X19359000Y-69616666D01*
X19025666Y-69616666D01*
X18625666Y-69616666D02*
X18559000Y-69616666D01*
X18492333Y-69650000D01*
X18459000Y-69683333D01*
X18425666Y-69750000D01*
X18392333Y-69883333D01*
X18392333Y-70050000D01*
X18425666Y-70183333D01*
X18459000Y-70250000D01*
X18492333Y-70283333D01*
X18559000Y-70316666D01*
X18625666Y-70316666D01*
X18692333Y-70283333D01*
X18725666Y-70250000D01*
X18759000Y-70183333D01*
X18792333Y-70050000D01*
X18792333Y-69883333D01*
X18759000Y-69750000D01*
X18725666Y-69683333D01*
X18692333Y-69650000D01*
X18625666Y-69616666D01*
X17159000Y-70316666D02*
X17392333Y-69983333D01*
X17559000Y-70316666D02*
X17559000Y-69616666D01*
X17292333Y-69616666D01*
X17225666Y-69650000D01*
X17192333Y-69683333D01*
X17159000Y-69750000D01*
X17159000Y-69850000D01*
X17192333Y-69916666D01*
X17225666Y-69950000D01*
X17292333Y-69983333D01*
X17559000Y-69983333D01*
X16592333Y-70283333D02*
X16659000Y-70316666D01*
X16792333Y-70316666D01*
X16859000Y-70283333D01*
X16892333Y-70216666D01*
X16892333Y-69950000D01*
X16859000Y-69883333D01*
X16792333Y-69850000D01*
X16659000Y-69850000D01*
X16592333Y-69883333D01*
X16559000Y-69950000D01*
X16559000Y-70016666D01*
X16892333Y-70083333D01*
X16325666Y-69850000D02*
X16159000Y-70316666D01*
X15992333Y-69850000D01*
X15725666Y-70250000D02*
X15692333Y-70283333D01*
X15725666Y-70316666D01*
X15759000Y-70283333D01*
X15725666Y-70250000D01*
X15725666Y-70316666D01*
X15025666Y-70316666D02*
X15425666Y-70316666D01*
X15225666Y-70316666D02*
X15225666Y-69616666D01*
X15292333Y-69716666D01*
X15359000Y-69783333D01*
X15425666Y-69816666D01*
X75492333Y-57816666D02*
X75492333Y-57116666D01*
X75259000Y-57616666D01*
X75025666Y-57116666D01*
X75025666Y-57816666D01*
X74559000Y-57116666D02*
X74492333Y-57116666D01*
X74425666Y-57150000D01*
X74392333Y-57183333D01*
X74359000Y-57250000D01*
X74325666Y-57383333D01*
X74325666Y-57550000D01*
X74359000Y-57683333D01*
X74392333Y-57750000D01*
X74425666Y-57783333D01*
X74492333Y-57816666D01*
X74559000Y-57816666D01*
X74625666Y-57783333D01*
X74659000Y-57750000D01*
X74692333Y-57683333D01*
X74725666Y-57550000D01*
X74725666Y-57383333D01*
X74692333Y-57250000D01*
X74659000Y-57183333D01*
X74625666Y-57150000D01*
X74559000Y-57116666D01*
X73659000Y-57816666D02*
X74059000Y-57816666D01*
X73859000Y-57816666D02*
X73859000Y-57116666D01*
X73925666Y-57216666D01*
X73992333Y-57283333D01*
X74059000Y-57316666D01*
X73125666Y-57450000D02*
X73359000Y-57450000D01*
X73359000Y-57816666D02*
X73359000Y-57116666D01*
X73025666Y-57116666D01*
X72625666Y-57116666D02*
X72559000Y-57116666D01*
X72492333Y-57150000D01*
X72459000Y-57183333D01*
X72425666Y-57250000D01*
X72392333Y-57383333D01*
X72392333Y-57550000D01*
X72425666Y-57683333D01*
X72459000Y-57750000D01*
X72492333Y-57783333D01*
X72559000Y-57816666D01*
X72625666Y-57816666D01*
X72692333Y-57783333D01*
X72725666Y-57750000D01*
X72759000Y-57683333D01*
X72792333Y-57550000D01*
X72792333Y-57383333D01*
X72759000Y-57250000D01*
X72725666Y-57183333D01*
X72692333Y-57150000D01*
X72625666Y-57116666D01*
X71159000Y-57816666D02*
X71392333Y-57483333D01*
X71559000Y-57816666D02*
X71559000Y-57116666D01*
X71292333Y-57116666D01*
X71225666Y-57150000D01*
X71192333Y-57183333D01*
X71159000Y-57250000D01*
X71159000Y-57350000D01*
X71192333Y-57416666D01*
X71225666Y-57450000D01*
X71292333Y-57483333D01*
X71559000Y-57483333D01*
X70592333Y-57783333D02*
X70659000Y-57816666D01*
X70792333Y-57816666D01*
X70859000Y-57783333D01*
X70892333Y-57716666D01*
X70892333Y-57450000D01*
X70859000Y-57383333D01*
X70792333Y-57350000D01*
X70659000Y-57350000D01*
X70592333Y-57383333D01*
X70559000Y-57450000D01*
X70559000Y-57516666D01*
X70892333Y-57583333D01*
X70325666Y-57350000D02*
X70159000Y-57816666D01*
X69992333Y-57350000D01*
X69725666Y-57750000D02*
X69692333Y-57783333D01*
X69725666Y-57816666D01*
X69759000Y-57783333D01*
X69725666Y-57750000D01*
X69725666Y-57816666D01*
X69025666Y-57816666D02*
X69425666Y-57816666D01*
X69225666Y-57816666D02*
X69225666Y-57116666D01*
X69292333Y-57216666D01*
X69359000Y-57283333D01*
X69425666Y-57316666D01*
X48492333Y-57816666D02*
X48492333Y-57116666D01*
X48259000Y-57616666D01*
X48025666Y-57116666D01*
X48025666Y-57816666D01*
X47559000Y-57116666D02*
X47492333Y-57116666D01*
X47425666Y-57150000D01*
X47392333Y-57183333D01*
X47359000Y-57250000D01*
X47325666Y-57383333D01*
X47325666Y-57550000D01*
X47359000Y-57683333D01*
X47392333Y-57750000D01*
X47425666Y-57783333D01*
X47492333Y-57816666D01*
X47559000Y-57816666D01*
X47625666Y-57783333D01*
X47659000Y-57750000D01*
X47692333Y-57683333D01*
X47725666Y-57550000D01*
X47725666Y-57383333D01*
X47692333Y-57250000D01*
X47659000Y-57183333D01*
X47625666Y-57150000D01*
X47559000Y-57116666D01*
X46659000Y-57816666D02*
X47059000Y-57816666D01*
X46859000Y-57816666D02*
X46859000Y-57116666D01*
X46925666Y-57216666D01*
X46992333Y-57283333D01*
X47059000Y-57316666D01*
X46125666Y-57450000D02*
X46359000Y-57450000D01*
X46359000Y-57816666D02*
X46359000Y-57116666D01*
X46025666Y-57116666D01*
X45625666Y-57116666D02*
X45559000Y-57116666D01*
X45492333Y-57150000D01*
X45459000Y-57183333D01*
X45425666Y-57250000D01*
X45392333Y-57383333D01*
X45392333Y-57550000D01*
X45425666Y-57683333D01*
X45459000Y-57750000D01*
X45492333Y-57783333D01*
X45559000Y-57816666D01*
X45625666Y-57816666D01*
X45692333Y-57783333D01*
X45725666Y-57750000D01*
X45759000Y-57683333D01*
X45792333Y-57550000D01*
X45792333Y-57383333D01*
X45759000Y-57250000D01*
X45725666Y-57183333D01*
X45692333Y-57150000D01*
X45625666Y-57116666D01*
X44159000Y-57816666D02*
X44392333Y-57483333D01*
X44559000Y-57816666D02*
X44559000Y-57116666D01*
X44292333Y-57116666D01*
X44225666Y-57150000D01*
X44192333Y-57183333D01*
X44159000Y-57250000D01*
X44159000Y-57350000D01*
X44192333Y-57416666D01*
X44225666Y-57450000D01*
X44292333Y-57483333D01*
X44559000Y-57483333D01*
X43592333Y-57783333D02*
X43659000Y-57816666D01*
X43792333Y-57816666D01*
X43859000Y-57783333D01*
X43892333Y-57716666D01*
X43892333Y-57450000D01*
X43859000Y-57383333D01*
X43792333Y-57350000D01*
X43659000Y-57350000D01*
X43592333Y-57383333D01*
X43559000Y-57450000D01*
X43559000Y-57516666D01*
X43892333Y-57583333D01*
X43325666Y-57350000D02*
X43159000Y-57816666D01*
X42992333Y-57350000D01*
X42725666Y-57750000D02*
X42692333Y-57783333D01*
X42725666Y-57816666D01*
X42759000Y-57783333D01*
X42725666Y-57750000D01*
X42725666Y-57816666D01*
X42025666Y-57816666D02*
X42425666Y-57816666D01*
X42225666Y-57816666D02*
X42225666Y-57116666D01*
X42292333Y-57216666D01*
X42359000Y-57283333D01*
X42425666Y-57316666D01*
X21492333Y-57816666D02*
X21492333Y-57116666D01*
X21259000Y-57616666D01*
X21025666Y-57116666D01*
X21025666Y-57816666D01*
X20559000Y-57116666D02*
X20492333Y-57116666D01*
X20425666Y-57150000D01*
X20392333Y-57183333D01*
X20359000Y-57250000D01*
X20325666Y-57383333D01*
X20325666Y-57550000D01*
X20359000Y-57683333D01*
X20392333Y-57750000D01*
X20425666Y-57783333D01*
X20492333Y-57816666D01*
X20559000Y-57816666D01*
X20625666Y-57783333D01*
X20659000Y-57750000D01*
X20692333Y-57683333D01*
X20725666Y-57550000D01*
X20725666Y-57383333D01*
X20692333Y-57250000D01*
X20659000Y-57183333D01*
X20625666Y-57150000D01*
X20559000Y-57116666D01*
X19659000Y-57816666D02*
X20059000Y-57816666D01*
X19859000Y-57816666D02*
X19859000Y-57116666D01*
X19925666Y-57216666D01*
X19992333Y-57283333D01*
X20059000Y-57316666D01*
X19125666Y-57450000D02*
X19359000Y-57450000D01*
X19359000Y-57816666D02*
X19359000Y-57116666D01*
X19025666Y-57116666D01*
X18625666Y-57116666D02*
X18559000Y-57116666D01*
X18492333Y-57150000D01*
X18459000Y-57183333D01*
X18425666Y-57250000D01*
X18392333Y-57383333D01*
X18392333Y-57550000D01*
X18425666Y-57683333D01*
X18459000Y-57750000D01*
X18492333Y-57783333D01*
X18559000Y-57816666D01*
X18625666Y-57816666D01*
X18692333Y-57783333D01*
X18725666Y-57750000D01*
X18759000Y-57683333D01*
X18792333Y-57550000D01*
X18792333Y-57383333D01*
X18759000Y-57250000D01*
X18725666Y-57183333D01*
X18692333Y-57150000D01*
X18625666Y-57116666D01*
X17159000Y-57816666D02*
X17392333Y-57483333D01*
X17559000Y-57816666D02*
X17559000Y-57116666D01*
X17292333Y-57116666D01*
X17225666Y-57150000D01*
X17192333Y-57183333D01*
X17159000Y-57250000D01*
X17159000Y-57350000D01*
X17192333Y-57416666D01*
X17225666Y-57450000D01*
X17292333Y-57483333D01*
X17559000Y-57483333D01*
X16592333Y-57783333D02*
X16659000Y-57816666D01*
X16792333Y-57816666D01*
X16859000Y-57783333D01*
X16892333Y-57716666D01*
X16892333Y-57450000D01*
X16859000Y-57383333D01*
X16792333Y-57350000D01*
X16659000Y-57350000D01*
X16592333Y-57383333D01*
X16559000Y-57450000D01*
X16559000Y-57516666D01*
X16892333Y-57583333D01*
X16325666Y-57350000D02*
X16159000Y-57816666D01*
X15992333Y-57350000D01*
X15725666Y-57750000D02*
X15692333Y-57783333D01*
X15725666Y-57816666D01*
X15759000Y-57783333D01*
X15725666Y-57750000D01*
X15725666Y-57816666D01*
X15025666Y-57816666D02*
X15425666Y-57816666D01*
X15225666Y-57816666D02*
X15225666Y-57116666D01*
X15292333Y-57216666D01*
X15359000Y-57283333D01*
X15425666Y-57316666D01*
X75492333Y-45316666D02*
X75492333Y-44616666D01*
X75259000Y-45116666D01*
X75025666Y-44616666D01*
X75025666Y-45316666D01*
X74559000Y-44616666D02*
X74492333Y-44616666D01*
X74425666Y-44650000D01*
X74392333Y-44683333D01*
X74359000Y-44750000D01*
X74325666Y-44883333D01*
X74325666Y-45050000D01*
X74359000Y-45183333D01*
X74392333Y-45250000D01*
X74425666Y-45283333D01*
X74492333Y-45316666D01*
X74559000Y-45316666D01*
X74625666Y-45283333D01*
X74659000Y-45250000D01*
X74692333Y-45183333D01*
X74725666Y-45050000D01*
X74725666Y-44883333D01*
X74692333Y-44750000D01*
X74659000Y-44683333D01*
X74625666Y-44650000D01*
X74559000Y-44616666D01*
X73659000Y-45316666D02*
X74059000Y-45316666D01*
X73859000Y-45316666D02*
X73859000Y-44616666D01*
X73925666Y-44716666D01*
X73992333Y-44783333D01*
X74059000Y-44816666D01*
X73125666Y-44950000D02*
X73359000Y-44950000D01*
X73359000Y-45316666D02*
X73359000Y-44616666D01*
X73025666Y-44616666D01*
X72625666Y-44616666D02*
X72559000Y-44616666D01*
X72492333Y-44650000D01*
X72459000Y-44683333D01*
X72425666Y-44750000D01*
X72392333Y-44883333D01*
X72392333Y-45050000D01*
X72425666Y-45183333D01*
X72459000Y-45250000D01*
X72492333Y-45283333D01*
X72559000Y-45316666D01*
X72625666Y-45316666D01*
X72692333Y-45283333D01*
X72725666Y-45250000D01*
X72759000Y-45183333D01*
X72792333Y-45050000D01*
X72792333Y-44883333D01*
X72759000Y-44750000D01*
X72725666Y-44683333D01*
X72692333Y-44650000D01*
X72625666Y-44616666D01*
X71159000Y-45316666D02*
X71392333Y-44983333D01*
X71559000Y-45316666D02*
X71559000Y-44616666D01*
X71292333Y-44616666D01*
X71225666Y-44650000D01*
X71192333Y-44683333D01*
X71159000Y-44750000D01*
X71159000Y-44850000D01*
X71192333Y-44916666D01*
X71225666Y-44950000D01*
X71292333Y-44983333D01*
X71559000Y-44983333D01*
X70592333Y-45283333D02*
X70659000Y-45316666D01*
X70792333Y-45316666D01*
X70859000Y-45283333D01*
X70892333Y-45216666D01*
X70892333Y-44950000D01*
X70859000Y-44883333D01*
X70792333Y-44850000D01*
X70659000Y-44850000D01*
X70592333Y-44883333D01*
X70559000Y-44950000D01*
X70559000Y-45016666D01*
X70892333Y-45083333D01*
X70325666Y-44850000D02*
X70159000Y-45316666D01*
X69992333Y-44850000D01*
X69725666Y-45250000D02*
X69692333Y-45283333D01*
X69725666Y-45316666D01*
X69759000Y-45283333D01*
X69725666Y-45250000D01*
X69725666Y-45316666D01*
X69025666Y-45316666D02*
X69425666Y-45316666D01*
X69225666Y-45316666D02*
X69225666Y-44616666D01*
X69292333Y-44716666D01*
X69359000Y-44783333D01*
X69425666Y-44816666D01*
X48492333Y-45316666D02*
X48492333Y-44616666D01*
X48259000Y-45116666D01*
X48025666Y-44616666D01*
X48025666Y-45316666D01*
X47559000Y-44616666D02*
X47492333Y-44616666D01*
X47425666Y-44650000D01*
X47392333Y-44683333D01*
X47359000Y-44750000D01*
X47325666Y-44883333D01*
X47325666Y-45050000D01*
X47359000Y-45183333D01*
X47392333Y-45250000D01*
X47425666Y-45283333D01*
X47492333Y-45316666D01*
X47559000Y-45316666D01*
X47625666Y-45283333D01*
X47659000Y-45250000D01*
X47692333Y-45183333D01*
X47725666Y-45050000D01*
X47725666Y-44883333D01*
X47692333Y-44750000D01*
X47659000Y-44683333D01*
X47625666Y-44650000D01*
X47559000Y-44616666D01*
X46659000Y-45316666D02*
X47059000Y-45316666D01*
X46859000Y-45316666D02*
X46859000Y-44616666D01*
X46925666Y-44716666D01*
X46992333Y-44783333D01*
X47059000Y-44816666D01*
X46125666Y-44950000D02*
X46359000Y-44950000D01*
X46359000Y-45316666D02*
X46359000Y-44616666D01*
X46025666Y-44616666D01*
X45625666Y-44616666D02*
X45559000Y-44616666D01*
X45492333Y-44650000D01*
X45459000Y-44683333D01*
X45425666Y-44750000D01*
X45392333Y-44883333D01*
X45392333Y-45050000D01*
X45425666Y-45183333D01*
X45459000Y-45250000D01*
X45492333Y-45283333D01*
X45559000Y-45316666D01*
X45625666Y-45316666D01*
X45692333Y-45283333D01*
X45725666Y-45250000D01*
X45759000Y-45183333D01*
X45792333Y-45050000D01*
X45792333Y-44883333D01*
X45759000Y-44750000D01*
X45725666Y-44683333D01*
X45692333Y-44650000D01*
X45625666Y-44616666D01*
X44159000Y-45316666D02*
X44392333Y-44983333D01*
X44559000Y-45316666D02*
X44559000Y-44616666D01*
X44292333Y-44616666D01*
X44225666Y-44650000D01*
X44192333Y-44683333D01*
X44159000Y-44750000D01*
X44159000Y-44850000D01*
X44192333Y-44916666D01*
X44225666Y-44950000D01*
X44292333Y-44983333D01*
X44559000Y-44983333D01*
X43592333Y-45283333D02*
X43659000Y-45316666D01*
X43792333Y-45316666D01*
X43859000Y-45283333D01*
X43892333Y-45216666D01*
X43892333Y-44950000D01*
X43859000Y-44883333D01*
X43792333Y-44850000D01*
X43659000Y-44850000D01*
X43592333Y-44883333D01*
X43559000Y-44950000D01*
X43559000Y-45016666D01*
X43892333Y-45083333D01*
X43325666Y-44850000D02*
X43159000Y-45316666D01*
X42992333Y-44850000D01*
X42725666Y-45250000D02*
X42692333Y-45283333D01*
X42725666Y-45316666D01*
X42759000Y-45283333D01*
X42725666Y-45250000D01*
X42725666Y-45316666D01*
X42025666Y-45316666D02*
X42425666Y-45316666D01*
X42225666Y-45316666D02*
X42225666Y-44616666D01*
X42292333Y-44716666D01*
X42359000Y-44783333D01*
X42425666Y-44816666D01*
X21492333Y-45316666D02*
X21492333Y-44616666D01*
X21259000Y-45116666D01*
X21025666Y-44616666D01*
X21025666Y-45316666D01*
X20559000Y-44616666D02*
X20492333Y-44616666D01*
X20425666Y-44650000D01*
X20392333Y-44683333D01*
X20359000Y-44750000D01*
X20325666Y-44883333D01*
X20325666Y-45050000D01*
X20359000Y-45183333D01*
X20392333Y-45250000D01*
X20425666Y-45283333D01*
X20492333Y-45316666D01*
X20559000Y-45316666D01*
X20625666Y-45283333D01*
X20659000Y-45250000D01*
X20692333Y-45183333D01*
X20725666Y-45050000D01*
X20725666Y-44883333D01*
X20692333Y-44750000D01*
X20659000Y-44683333D01*
X20625666Y-44650000D01*
X20559000Y-44616666D01*
X19659000Y-45316666D02*
X20059000Y-45316666D01*
X19859000Y-45316666D02*
X19859000Y-44616666D01*
X19925666Y-44716666D01*
X19992333Y-44783333D01*
X20059000Y-44816666D01*
X19125666Y-44950000D02*
X19359000Y-44950000D01*
X19359000Y-45316666D02*
X19359000Y-44616666D01*
X19025666Y-44616666D01*
X18625666Y-44616666D02*
X18559000Y-44616666D01*
X18492333Y-44650000D01*
X18459000Y-44683333D01*
X18425666Y-44750000D01*
X18392333Y-44883333D01*
X18392333Y-45050000D01*
X18425666Y-45183333D01*
X18459000Y-45250000D01*
X18492333Y-45283333D01*
X18559000Y-45316666D01*
X18625666Y-45316666D01*
X18692333Y-45283333D01*
X18725666Y-45250000D01*
X18759000Y-45183333D01*
X18792333Y-45050000D01*
X18792333Y-44883333D01*
X18759000Y-44750000D01*
X18725666Y-44683333D01*
X18692333Y-44650000D01*
X18625666Y-44616666D01*
X17159000Y-45316666D02*
X17392333Y-44983333D01*
X17559000Y-45316666D02*
X17559000Y-44616666D01*
X17292333Y-44616666D01*
X17225666Y-44650000D01*
X17192333Y-44683333D01*
X17159000Y-44750000D01*
X17159000Y-44850000D01*
X17192333Y-44916666D01*
X17225666Y-44950000D01*
X17292333Y-44983333D01*
X17559000Y-44983333D01*
X16592333Y-45283333D02*
X16659000Y-45316666D01*
X16792333Y-45316666D01*
X16859000Y-45283333D01*
X16892333Y-45216666D01*
X16892333Y-44950000D01*
X16859000Y-44883333D01*
X16792333Y-44850000D01*
X16659000Y-44850000D01*
X16592333Y-44883333D01*
X16559000Y-44950000D01*
X16559000Y-45016666D01*
X16892333Y-45083333D01*
X16325666Y-44850000D02*
X16159000Y-45316666D01*
X15992333Y-44850000D01*
X15725666Y-45250000D02*
X15692333Y-45283333D01*
X15725666Y-45316666D01*
X15759000Y-45283333D01*
X15725666Y-45250000D01*
X15725666Y-45316666D01*
X15025666Y-45316666D02*
X15425666Y-45316666D01*
X15225666Y-45316666D02*
X15225666Y-44616666D01*
X15292333Y-44716666D01*
X15359000Y-44783333D01*
X15425666Y-44816666D01*
X75492333Y-32816666D02*
X75492333Y-32116666D01*
X75259000Y-32616666D01*
X75025666Y-32116666D01*
X75025666Y-32816666D01*
X74559000Y-32116666D02*
X74492333Y-32116666D01*
X74425666Y-32150000D01*
X74392333Y-32183333D01*
X74359000Y-32250000D01*
X74325666Y-32383333D01*
X74325666Y-32550000D01*
X74359000Y-32683333D01*
X74392333Y-32750000D01*
X74425666Y-32783333D01*
X74492333Y-32816666D01*
X74559000Y-32816666D01*
X74625666Y-32783333D01*
X74659000Y-32750000D01*
X74692333Y-32683333D01*
X74725666Y-32550000D01*
X74725666Y-32383333D01*
X74692333Y-32250000D01*
X74659000Y-32183333D01*
X74625666Y-32150000D01*
X74559000Y-32116666D01*
X73659000Y-32816666D02*
X74059000Y-32816666D01*
X73859000Y-32816666D02*
X73859000Y-32116666D01*
X73925666Y-32216666D01*
X73992333Y-32283333D01*
X74059000Y-32316666D01*
X73125666Y-32450000D02*
X73359000Y-32450000D01*
X73359000Y-32816666D02*
X73359000Y-32116666D01*
X73025666Y-32116666D01*
X72625666Y-32116666D02*
X72559000Y-32116666D01*
X72492333Y-32150000D01*
X72459000Y-32183333D01*
X72425666Y-32250000D01*
X72392333Y-32383333D01*
X72392333Y-32550000D01*
X72425666Y-32683333D01*
X72459000Y-32750000D01*
X72492333Y-32783333D01*
X72559000Y-32816666D01*
X72625666Y-32816666D01*
X72692333Y-32783333D01*
X72725666Y-32750000D01*
X72759000Y-32683333D01*
X72792333Y-32550000D01*
X72792333Y-32383333D01*
X72759000Y-32250000D01*
X72725666Y-32183333D01*
X72692333Y-32150000D01*
X72625666Y-32116666D01*
X71159000Y-32816666D02*
X71392333Y-32483333D01*
X71559000Y-32816666D02*
X71559000Y-32116666D01*
X71292333Y-32116666D01*
X71225666Y-32150000D01*
X71192333Y-32183333D01*
X71159000Y-32250000D01*
X71159000Y-32350000D01*
X71192333Y-32416666D01*
X71225666Y-32450000D01*
X71292333Y-32483333D01*
X71559000Y-32483333D01*
X70592333Y-32783333D02*
X70659000Y-32816666D01*
X70792333Y-32816666D01*
X70859000Y-32783333D01*
X70892333Y-32716666D01*
X70892333Y-32450000D01*
X70859000Y-32383333D01*
X70792333Y-32350000D01*
X70659000Y-32350000D01*
X70592333Y-32383333D01*
X70559000Y-32450000D01*
X70559000Y-32516666D01*
X70892333Y-32583333D01*
X70325666Y-32350000D02*
X70159000Y-32816666D01*
X69992333Y-32350000D01*
X69725666Y-32750000D02*
X69692333Y-32783333D01*
X69725666Y-32816666D01*
X69759000Y-32783333D01*
X69725666Y-32750000D01*
X69725666Y-32816666D01*
X69025666Y-32816666D02*
X69425666Y-32816666D01*
X69225666Y-32816666D02*
X69225666Y-32116666D01*
X69292333Y-32216666D01*
X69359000Y-32283333D01*
X69425666Y-32316666D01*
X48492333Y-32816666D02*
X48492333Y-32116666D01*
X48259000Y-32616666D01*
X48025666Y-32116666D01*
X48025666Y-32816666D01*
X47559000Y-32116666D02*
X47492333Y-32116666D01*
X47425666Y-32150000D01*
X47392333Y-32183333D01*
X47359000Y-32250000D01*
X47325666Y-32383333D01*
X47325666Y-32550000D01*
X47359000Y-32683333D01*
X47392333Y-32750000D01*
X47425666Y-32783333D01*
X47492333Y-32816666D01*
X47559000Y-32816666D01*
X47625666Y-32783333D01*
X47659000Y-32750000D01*
X47692333Y-32683333D01*
X47725666Y-32550000D01*
X47725666Y-32383333D01*
X47692333Y-32250000D01*
X47659000Y-32183333D01*
X47625666Y-32150000D01*
X47559000Y-32116666D01*
X46659000Y-32816666D02*
X47059000Y-32816666D01*
X46859000Y-32816666D02*
X46859000Y-32116666D01*
X46925666Y-32216666D01*
X46992333Y-32283333D01*
X47059000Y-32316666D01*
X46125666Y-32450000D02*
X46359000Y-32450000D01*
X46359000Y-32816666D02*
X46359000Y-32116666D01*
X46025666Y-32116666D01*
X45625666Y-32116666D02*
X45559000Y-32116666D01*
X45492333Y-32150000D01*
X45459000Y-32183333D01*
X45425666Y-32250000D01*
X45392333Y-32383333D01*
X45392333Y-32550000D01*
X45425666Y-32683333D01*
X45459000Y-32750000D01*
X45492333Y-32783333D01*
X45559000Y-32816666D01*
X45625666Y-32816666D01*
X45692333Y-32783333D01*
X45725666Y-32750000D01*
X45759000Y-32683333D01*
X45792333Y-32550000D01*
X45792333Y-32383333D01*
X45759000Y-32250000D01*
X45725666Y-32183333D01*
X45692333Y-32150000D01*
X45625666Y-32116666D01*
X44159000Y-32816666D02*
X44392333Y-32483333D01*
X44559000Y-32816666D02*
X44559000Y-32116666D01*
X44292333Y-32116666D01*
X44225666Y-32150000D01*
X44192333Y-32183333D01*
X44159000Y-32250000D01*
X44159000Y-32350000D01*
X44192333Y-32416666D01*
X44225666Y-32450000D01*
X44292333Y-32483333D01*
X44559000Y-32483333D01*
X43592333Y-32783333D02*
X43659000Y-32816666D01*
X43792333Y-32816666D01*
X43859000Y-32783333D01*
X43892333Y-32716666D01*
X43892333Y-32450000D01*
X43859000Y-32383333D01*
X43792333Y-32350000D01*
X43659000Y-32350000D01*
X43592333Y-32383333D01*
X43559000Y-32450000D01*
X43559000Y-32516666D01*
X43892333Y-32583333D01*
X43325666Y-32350000D02*
X43159000Y-32816666D01*
X42992333Y-32350000D01*
X42725666Y-32750000D02*
X42692333Y-32783333D01*
X42725666Y-32816666D01*
X42759000Y-32783333D01*
X42725666Y-32750000D01*
X42725666Y-32816666D01*
X42025666Y-32816666D02*
X42425666Y-32816666D01*
X42225666Y-32816666D02*
X42225666Y-32116666D01*
X42292333Y-32216666D01*
X42359000Y-32283333D01*
X42425666Y-32316666D01*
X21492333Y-32816666D02*
X21492333Y-32116666D01*
X21259000Y-32616666D01*
X21025666Y-32116666D01*
X21025666Y-32816666D01*
X20559000Y-32116666D02*
X20492333Y-32116666D01*
X20425666Y-32150000D01*
X20392333Y-32183333D01*
X20359000Y-32250000D01*
X20325666Y-32383333D01*
X20325666Y-32550000D01*
X20359000Y-32683333D01*
X20392333Y-32750000D01*
X20425666Y-32783333D01*
X20492333Y-32816666D01*
X20559000Y-32816666D01*
X20625666Y-32783333D01*
X20659000Y-32750000D01*
X20692333Y-32683333D01*
X20725666Y-32550000D01*
X20725666Y-32383333D01*
X20692333Y-32250000D01*
X20659000Y-32183333D01*
X20625666Y-32150000D01*
X20559000Y-32116666D01*
X19659000Y-32816666D02*
X20059000Y-32816666D01*
X19859000Y-32816666D02*
X19859000Y-32116666D01*
X19925666Y-32216666D01*
X19992333Y-32283333D01*
X20059000Y-32316666D01*
X19125666Y-32450000D02*
X19359000Y-32450000D01*
X19359000Y-32816666D02*
X19359000Y-32116666D01*
X19025666Y-32116666D01*
X18625666Y-32116666D02*
X18559000Y-32116666D01*
X18492333Y-32150000D01*
X18459000Y-32183333D01*
X18425666Y-32250000D01*
X18392333Y-32383333D01*
X18392333Y-32550000D01*
X18425666Y-32683333D01*
X18459000Y-32750000D01*
X18492333Y-32783333D01*
X18559000Y-32816666D01*
X18625666Y-32816666D01*
X18692333Y-32783333D01*
X18725666Y-32750000D01*
X18759000Y-32683333D01*
X18792333Y-32550000D01*
X18792333Y-32383333D01*
X18759000Y-32250000D01*
X18725666Y-32183333D01*
X18692333Y-32150000D01*
X18625666Y-32116666D01*
X17159000Y-32816666D02*
X17392333Y-32483333D01*
X17559000Y-32816666D02*
X17559000Y-32116666D01*
X17292333Y-32116666D01*
X17225666Y-32150000D01*
X17192333Y-32183333D01*
X17159000Y-32250000D01*
X17159000Y-32350000D01*
X17192333Y-32416666D01*
X17225666Y-32450000D01*
X17292333Y-32483333D01*
X17559000Y-32483333D01*
X16592333Y-32783333D02*
X16659000Y-32816666D01*
X16792333Y-32816666D01*
X16859000Y-32783333D01*
X16892333Y-32716666D01*
X16892333Y-32450000D01*
X16859000Y-32383333D01*
X16792333Y-32350000D01*
X16659000Y-32350000D01*
X16592333Y-32383333D01*
X16559000Y-32450000D01*
X16559000Y-32516666D01*
X16892333Y-32583333D01*
X16325666Y-32350000D02*
X16159000Y-32816666D01*
X15992333Y-32350000D01*
X15725666Y-32750000D02*
X15692333Y-32783333D01*
X15725666Y-32816666D01*
X15759000Y-32783333D01*
X15725666Y-32750000D01*
X15725666Y-32816666D01*
X15025666Y-32816666D02*
X15425666Y-32816666D01*
X15225666Y-32816666D02*
X15225666Y-32116666D01*
X15292333Y-32216666D01*
X15359000Y-32283333D01*
X15425666Y-32316666D01*
X75492333Y-20316666D02*
X75492333Y-19616666D01*
X75259000Y-20116666D01*
X75025666Y-19616666D01*
X75025666Y-20316666D01*
X74559000Y-19616666D02*
X74492333Y-19616666D01*
X74425666Y-19650000D01*
X74392333Y-19683333D01*
X74359000Y-19750000D01*
X74325666Y-19883333D01*
X74325666Y-20050000D01*
X74359000Y-20183333D01*
X74392333Y-20250000D01*
X74425666Y-20283333D01*
X74492333Y-20316666D01*
X74559000Y-20316666D01*
X74625666Y-20283333D01*
X74659000Y-20250000D01*
X74692333Y-20183333D01*
X74725666Y-20050000D01*
X74725666Y-19883333D01*
X74692333Y-19750000D01*
X74659000Y-19683333D01*
X74625666Y-19650000D01*
X74559000Y-19616666D01*
X73659000Y-20316666D02*
X74059000Y-20316666D01*
X73859000Y-20316666D02*
X73859000Y-19616666D01*
X73925666Y-19716666D01*
X73992333Y-19783333D01*
X74059000Y-19816666D01*
X73125666Y-19950000D02*
X73359000Y-19950000D01*
X73359000Y-20316666D02*
X73359000Y-19616666D01*
X73025666Y-19616666D01*
X72625666Y-19616666D02*
X72559000Y-19616666D01*
X72492333Y-19650000D01*
X72459000Y-19683333D01*
X72425666Y-19750000D01*
X72392333Y-19883333D01*
X72392333Y-20050000D01*
X72425666Y-20183333D01*
X72459000Y-20250000D01*
X72492333Y-20283333D01*
X72559000Y-20316666D01*
X72625666Y-20316666D01*
X72692333Y-20283333D01*
X72725666Y-20250000D01*
X72759000Y-20183333D01*
X72792333Y-20050000D01*
X72792333Y-19883333D01*
X72759000Y-19750000D01*
X72725666Y-19683333D01*
X72692333Y-19650000D01*
X72625666Y-19616666D01*
X71159000Y-20316666D02*
X71392333Y-19983333D01*
X71559000Y-20316666D02*
X71559000Y-19616666D01*
X71292333Y-19616666D01*
X71225666Y-19650000D01*
X71192333Y-19683333D01*
X71159000Y-19750000D01*
X71159000Y-19850000D01*
X71192333Y-19916666D01*
X71225666Y-19950000D01*
X71292333Y-19983333D01*
X71559000Y-19983333D01*
X70592333Y-20283333D02*
X70659000Y-20316666D01*
X70792333Y-20316666D01*
X70859000Y-20283333D01*
X70892333Y-20216666D01*
X70892333Y-19950000D01*
X70859000Y-19883333D01*
X70792333Y-19850000D01*
X70659000Y-19850000D01*
X70592333Y-19883333D01*
X70559000Y-19950000D01*
X70559000Y-20016666D01*
X70892333Y-20083333D01*
X70325666Y-19850000D02*
X70159000Y-20316666D01*
X69992333Y-19850000D01*
X69725666Y-20250000D02*
X69692333Y-20283333D01*
X69725666Y-20316666D01*
X69759000Y-20283333D01*
X69725666Y-20250000D01*
X69725666Y-20316666D01*
X69025666Y-20316666D02*
X69425666Y-20316666D01*
X69225666Y-20316666D02*
X69225666Y-19616666D01*
X69292333Y-19716666D01*
X69359000Y-19783333D01*
X69425666Y-19816666D01*
X48492333Y-20316666D02*
X48492333Y-19616666D01*
X48259000Y-20116666D01*
X48025666Y-19616666D01*
X48025666Y-20316666D01*
X47559000Y-19616666D02*
X47492333Y-19616666D01*
X47425666Y-19650000D01*
X47392333Y-19683333D01*
X47359000Y-19750000D01*
X47325666Y-19883333D01*
X47325666Y-20050000D01*
X47359000Y-20183333D01*
X47392333Y-20250000D01*
X47425666Y-20283333D01*
X47492333Y-20316666D01*
X47559000Y-20316666D01*
X47625666Y-20283333D01*
X47659000Y-20250000D01*
X47692333Y-20183333D01*
X47725666Y-20050000D01*
X47725666Y-19883333D01*
X47692333Y-19750000D01*
X47659000Y-19683333D01*
X47625666Y-19650000D01*
X47559000Y-19616666D01*
X46659000Y-20316666D02*
X47059000Y-20316666D01*
X46859000Y-20316666D02*
X46859000Y-19616666D01*
X46925666Y-19716666D01*
X46992333Y-19783333D01*
X47059000Y-19816666D01*
X46125666Y-19950000D02*
X46359000Y-19950000D01*
X46359000Y-20316666D02*
X46359000Y-19616666D01*
X46025666Y-19616666D01*
X45625666Y-19616666D02*
X45559000Y-19616666D01*
X45492333Y-19650000D01*
X45459000Y-19683333D01*
X45425666Y-19750000D01*
X45392333Y-19883333D01*
X45392333Y-20050000D01*
X45425666Y-20183333D01*
X45459000Y-20250000D01*
X45492333Y-20283333D01*
X45559000Y-20316666D01*
X45625666Y-20316666D01*
X45692333Y-20283333D01*
X45725666Y-20250000D01*
X45759000Y-20183333D01*
X45792333Y-20050000D01*
X45792333Y-19883333D01*
X45759000Y-19750000D01*
X45725666Y-19683333D01*
X45692333Y-19650000D01*
X45625666Y-19616666D01*
X44159000Y-20316666D02*
X44392333Y-19983333D01*
X44559000Y-20316666D02*
X44559000Y-19616666D01*
X44292333Y-19616666D01*
X44225666Y-19650000D01*
X44192333Y-19683333D01*
X44159000Y-19750000D01*
X44159000Y-19850000D01*
X44192333Y-19916666D01*
X44225666Y-19950000D01*
X44292333Y-19983333D01*
X44559000Y-19983333D01*
X43592333Y-20283333D02*
X43659000Y-20316666D01*
X43792333Y-20316666D01*
X43859000Y-20283333D01*
X43892333Y-20216666D01*
X43892333Y-19950000D01*
X43859000Y-19883333D01*
X43792333Y-19850000D01*
X43659000Y-19850000D01*
X43592333Y-19883333D01*
X43559000Y-19950000D01*
X43559000Y-20016666D01*
X43892333Y-20083333D01*
X43325666Y-19850000D02*
X43159000Y-20316666D01*
X42992333Y-19850000D01*
X42725666Y-20250000D02*
X42692333Y-20283333D01*
X42725666Y-20316666D01*
X42759000Y-20283333D01*
X42725666Y-20250000D01*
X42725666Y-20316666D01*
X42025666Y-20316666D02*
X42425666Y-20316666D01*
X42225666Y-20316666D02*
X42225666Y-19616666D01*
X42292333Y-19716666D01*
X42359000Y-19783333D01*
X42425666Y-19816666D01*
X21492333Y-20316666D02*
X21492333Y-19616666D01*
X21259000Y-20116666D01*
X21025666Y-19616666D01*
X21025666Y-20316666D01*
X20559000Y-19616666D02*
X20492333Y-19616666D01*
X20425666Y-19650000D01*
X20392333Y-19683333D01*
X20359000Y-19750000D01*
X20325666Y-19883333D01*
X20325666Y-20050000D01*
X20359000Y-20183333D01*
X20392333Y-20250000D01*
X20425666Y-20283333D01*
X20492333Y-20316666D01*
X20559000Y-20316666D01*
X20625666Y-20283333D01*
X20659000Y-20250000D01*
X20692333Y-20183333D01*
X20725666Y-20050000D01*
X20725666Y-19883333D01*
X20692333Y-19750000D01*
X20659000Y-19683333D01*
X20625666Y-19650000D01*
X20559000Y-19616666D01*
X19659000Y-20316666D02*
X20059000Y-20316666D01*
X19859000Y-20316666D02*
X19859000Y-19616666D01*
X19925666Y-19716666D01*
X19992333Y-19783333D01*
X20059000Y-19816666D01*
X19125666Y-19950000D02*
X19359000Y-19950000D01*
X19359000Y-20316666D02*
X19359000Y-19616666D01*
X19025666Y-19616666D01*
X18625666Y-19616666D02*
X18559000Y-19616666D01*
X18492333Y-19650000D01*
X18459000Y-19683333D01*
X18425666Y-19750000D01*
X18392333Y-19883333D01*
X18392333Y-20050000D01*
X18425666Y-20183333D01*
X18459000Y-20250000D01*
X18492333Y-20283333D01*
X18559000Y-20316666D01*
X18625666Y-20316666D01*
X18692333Y-20283333D01*
X18725666Y-20250000D01*
X18759000Y-20183333D01*
X18792333Y-20050000D01*
X18792333Y-19883333D01*
X18759000Y-19750000D01*
X18725666Y-19683333D01*
X18692333Y-19650000D01*
X18625666Y-19616666D01*
X17159000Y-20316666D02*
X17392333Y-19983333D01*
X17559000Y-20316666D02*
X17559000Y-19616666D01*
X17292333Y-19616666D01*
X17225666Y-19650000D01*
X17192333Y-19683333D01*
X17159000Y-19750000D01*
X17159000Y-19850000D01*
X17192333Y-19916666D01*
X17225666Y-19950000D01*
X17292333Y-19983333D01*
X17559000Y-19983333D01*
X16592333Y-20283333D02*
X16659000Y-20316666D01*
X16792333Y-20316666D01*
X16859000Y-20283333D01*
X16892333Y-20216666D01*
X16892333Y-19950000D01*
X16859000Y-19883333D01*
X16792333Y-19850000D01*
X16659000Y-19850000D01*
X16592333Y-19883333D01*
X16559000Y-19950000D01*
X16559000Y-20016666D01*
X16892333Y-20083333D01*
X16325666Y-19850000D02*
X16159000Y-20316666D01*
X15992333Y-19850000D01*
X15725666Y-20250000D02*
X15692333Y-20283333D01*
X15725666Y-20316666D01*
X15759000Y-20283333D01*
X15725666Y-20250000D01*
X15725666Y-20316666D01*
X15025666Y-20316666D02*
X15425666Y-20316666D01*
X15225666Y-20316666D02*
X15225666Y-19616666D01*
X15292333Y-19716666D01*
X15359000Y-19783333D01*
X15425666Y-19816666D01*
X75492333Y-7816666D02*
X75492333Y-7116666D01*
X75259000Y-7616666D01*
X75025666Y-7116666D01*
X75025666Y-7816666D01*
X74559000Y-7116666D02*
X74492333Y-7116666D01*
X74425666Y-7150000D01*
X74392333Y-7183333D01*
X74359000Y-7250000D01*
X74325666Y-7383333D01*
X74325666Y-7550000D01*
X74359000Y-7683333D01*
X74392333Y-7750000D01*
X74425666Y-7783333D01*
X74492333Y-7816666D01*
X74559000Y-7816666D01*
X74625666Y-7783333D01*
X74659000Y-7750000D01*
X74692333Y-7683333D01*
X74725666Y-7550000D01*
X74725666Y-7383333D01*
X74692333Y-7250000D01*
X74659000Y-7183333D01*
X74625666Y-7150000D01*
X74559000Y-7116666D01*
X73659000Y-7816666D02*
X74059000Y-7816666D01*
X73859000Y-7816666D02*
X73859000Y-7116666D01*
X73925666Y-7216666D01*
X73992333Y-7283333D01*
X74059000Y-7316666D01*
X73125666Y-7450000D02*
X73359000Y-7450000D01*
X73359000Y-7816666D02*
X73359000Y-7116666D01*
X73025666Y-7116666D01*
X72625666Y-7116666D02*
X72559000Y-7116666D01*
X72492333Y-7150000D01*
X72459000Y-7183333D01*
X72425666Y-7250000D01*
X72392333Y-7383333D01*
X72392333Y-7550000D01*
X72425666Y-7683333D01*
X72459000Y-7750000D01*
X72492333Y-7783333D01*
X72559000Y-7816666D01*
X72625666Y-7816666D01*
X72692333Y-7783333D01*
X72725666Y-7750000D01*
X72759000Y-7683333D01*
X72792333Y-7550000D01*
X72792333Y-7383333D01*
X72759000Y-7250000D01*
X72725666Y-7183333D01*
X72692333Y-7150000D01*
X72625666Y-7116666D01*
X71159000Y-7816666D02*
X71392333Y-7483333D01*
X71559000Y-7816666D02*
X71559000Y-7116666D01*
X71292333Y-7116666D01*
X71225666Y-7150000D01*
X71192333Y-7183333D01*
X71159000Y-7250000D01*
X71159000Y-7350000D01*
X71192333Y-7416666D01*
X71225666Y-7450000D01*
X71292333Y-7483333D01*
X71559000Y-7483333D01*
X70592333Y-7783333D02*
X70659000Y-7816666D01*
X70792333Y-7816666D01*
X70859000Y-7783333D01*
X70892333Y-7716666D01*
X70892333Y-7450000D01*
X70859000Y-7383333D01*
X70792333Y-7350000D01*
X70659000Y-7350000D01*
X70592333Y-7383333D01*
X70559000Y-7450000D01*
X70559000Y-7516666D01*
X70892333Y-7583333D01*
X70325666Y-7350000D02*
X70159000Y-7816666D01*
X69992333Y-7350000D01*
X69725666Y-7750000D02*
X69692333Y-7783333D01*
X69725666Y-7816666D01*
X69759000Y-7783333D01*
X69725666Y-7750000D01*
X69725666Y-7816666D01*
X69025666Y-7816666D02*
X69425666Y-7816666D01*
X69225666Y-7816666D02*
X69225666Y-7116666D01*
X69292333Y-7216666D01*
X69359000Y-7283333D01*
X69425666Y-7316666D01*
X48492333Y-7816666D02*
X48492333Y-7116666D01*
X48259000Y-7616666D01*
X48025666Y-7116666D01*
X48025666Y-7816666D01*
X47559000Y-7116666D02*
X47492333Y-7116666D01*
X47425666Y-7150000D01*
X47392333Y-7183333D01*
X47359000Y-7250000D01*
X47325666Y-7383333D01*
X47325666Y-7550000D01*
X47359000Y-7683333D01*
X47392333Y-7750000D01*
X47425666Y-7783333D01*
X47492333Y-7816666D01*
X47559000Y-7816666D01*
X47625666Y-7783333D01*
X47659000Y-7750000D01*
X47692333Y-7683333D01*
X47725666Y-7550000D01*
X47725666Y-7383333D01*
X47692333Y-7250000D01*
X47659000Y-7183333D01*
X47625666Y-7150000D01*
X47559000Y-7116666D01*
X46659000Y-7816666D02*
X47059000Y-7816666D01*
X46859000Y-7816666D02*
X46859000Y-7116666D01*
X46925666Y-7216666D01*
X46992333Y-7283333D01*
X47059000Y-7316666D01*
X46125666Y-7450000D02*
X46359000Y-7450000D01*
X46359000Y-7816666D02*
X46359000Y-7116666D01*
X46025666Y-7116666D01*
X45625666Y-7116666D02*
X45559000Y-7116666D01*
X45492333Y-7150000D01*
X45459000Y-7183333D01*
X45425666Y-7250000D01*
X45392333Y-7383333D01*
X45392333Y-7550000D01*
X45425666Y-7683333D01*
X45459000Y-7750000D01*
X45492333Y-7783333D01*
X45559000Y-7816666D01*
X45625666Y-7816666D01*
X45692333Y-7783333D01*
X45725666Y-7750000D01*
X45759000Y-7683333D01*
X45792333Y-7550000D01*
X45792333Y-7383333D01*
X45759000Y-7250000D01*
X45725666Y-7183333D01*
X45692333Y-7150000D01*
X45625666Y-7116666D01*
X44159000Y-7816666D02*
X44392333Y-7483333D01*
X44559000Y-7816666D02*
X44559000Y-7116666D01*
X44292333Y-7116666D01*
X44225666Y-7150000D01*
X44192333Y-7183333D01*
X44159000Y-7250000D01*
X44159000Y-7350000D01*
X44192333Y-7416666D01*
X44225666Y-7450000D01*
X44292333Y-7483333D01*
X44559000Y-7483333D01*
X43592333Y-7783333D02*
X43659000Y-7816666D01*
X43792333Y-7816666D01*
X43859000Y-7783333D01*
X43892333Y-7716666D01*
X43892333Y-7450000D01*
X43859000Y-7383333D01*
X43792333Y-7350000D01*
X43659000Y-7350000D01*
X43592333Y-7383333D01*
X43559000Y-7450000D01*
X43559000Y-7516666D01*
X43892333Y-7583333D01*
X43325666Y-7350000D02*
X43159000Y-7816666D01*
X42992333Y-7350000D01*
X42725666Y-7750000D02*
X42692333Y-7783333D01*
X42725666Y-7816666D01*
X42759000Y-7783333D01*
X42725666Y-7750000D01*
X42725666Y-7816666D01*
X42025666Y-7816666D02*
X42425666Y-7816666D01*
X42225666Y-7816666D02*
X42225666Y-7116666D01*
X42292333Y-7216666D01*
X42359000Y-7283333D01*
X42425666Y-7316666D01*
X79771428Y-95678571D02*
X79171428Y-95678571D01*
X79600000Y-95878571D01*
X79171428Y-96078571D01*
X79771428Y-96078571D01*
X79542857Y-96364285D02*
X79542857Y-96821428D01*
X52771428Y-95678571D02*
X52171428Y-95678571D01*
X52600000Y-95878571D01*
X52171428Y-96078571D01*
X52771428Y-96078571D01*
X52542857Y-96364285D02*
X52542857Y-96821428D01*
X25771428Y-95678571D02*
X25171428Y-95678571D01*
X25600000Y-95878571D01*
X25171428Y-96078571D01*
X25771428Y-96078571D01*
X25542857Y-96364285D02*
X25542857Y-96821428D01*
X79771428Y-83178571D02*
X79171428Y-83178571D01*
X79600000Y-83378571D01*
X79171428Y-83578571D01*
X79771428Y-83578571D01*
X79542857Y-83864285D02*
X79542857Y-84321428D01*
X52771428Y-83178571D02*
X52171428Y-83178571D01*
X52600000Y-83378571D01*
X52171428Y-83578571D01*
X52771428Y-83578571D01*
X52542857Y-83864285D02*
X52542857Y-84321428D01*
X25771428Y-83178571D02*
X25171428Y-83178571D01*
X25600000Y-83378571D01*
X25171428Y-83578571D01*
X25771428Y-83578571D01*
X25542857Y-83864285D02*
X25542857Y-84321428D01*
X79771428Y-70678571D02*
X79171428Y-70678571D01*
X79600000Y-70878571D01*
X79171428Y-71078571D01*
X79771428Y-71078571D01*
X79542857Y-71364285D02*
X79542857Y-71821428D01*
X52771428Y-70678571D02*
X52171428Y-70678571D01*
X52600000Y-70878571D01*
X52171428Y-71078571D01*
X52771428Y-71078571D01*
X52542857Y-71364285D02*
X52542857Y-71821428D01*
X25771428Y-70678571D02*
X25171428Y-70678571D01*
X25600000Y-70878571D01*
X25171428Y-71078571D01*
X25771428Y-71078571D01*
X25542857Y-71364285D02*
X25542857Y-71821428D01*
X79771428Y-58178571D02*
X79171428Y-58178571D01*
X79600000Y-58378571D01*
X79171428Y-58578571D01*
X79771428Y-58578571D01*
X79542857Y-58864285D02*
X79542857Y-59321428D01*
X52771428Y-58178571D02*
X52171428Y-58178571D01*
X52600000Y-58378571D01*
X52171428Y-58578571D01*
X52771428Y-58578571D01*
X52542857Y-58864285D02*
X52542857Y-59321428D01*
X25771428Y-58178571D02*
X25171428Y-58178571D01*
X25600000Y-58378571D01*
X25171428Y-58578571D01*
X25771428Y-58578571D01*
X25542857Y-58864285D02*
X25542857Y-59321428D01*
X79771428Y-45678571D02*
X79171428Y-45678571D01*
X79600000Y-45878571D01*
X79171428Y-46078571D01*
X79771428Y-46078571D01*
X79542857Y-46364285D02*
X79542857Y-46821428D01*
X52771428Y-45678571D02*
X52171428Y-45678571D01*
X52600000Y-45878571D01*
X52171428Y-46078571D01*
X52771428Y-46078571D01*
X52542857Y-46364285D02*
X52542857Y-46821428D01*
X25771428Y-45678571D02*
X25171428Y-45678571D01*
X25600000Y-45878571D01*
X25171428Y-46078571D01*
X25771428Y-46078571D01*
X25542857Y-46364285D02*
X25542857Y-46821428D01*
X79771428Y-33178571D02*
X79171428Y-33178571D01*
X79600000Y-33378571D01*
X79171428Y-33578571D01*
X79771428Y-33578571D01*
X79542857Y-33864285D02*
X79542857Y-34321428D01*
X52771428Y-33178571D02*
X52171428Y-33178571D01*
X52600000Y-33378571D01*
X52171428Y-33578571D01*
X52771428Y-33578571D01*
X52542857Y-33864285D02*
X52542857Y-34321428D01*
X25771428Y-33178571D02*
X25171428Y-33178571D01*
X25600000Y-33378571D01*
X25171428Y-33578571D01*
X25771428Y-33578571D01*
X25542857Y-33864285D02*
X25542857Y-34321428D01*
X79771428Y-20678571D02*
X79171428Y-20678571D01*
X79600000Y-20878571D01*
X79171428Y-21078571D01*
X79771428Y-21078571D01*
X79542857Y-21364285D02*
X79542857Y-21821428D01*
X52771428Y-20678571D02*
X52171428Y-20678571D01*
X52600000Y-20878571D01*
X52171428Y-21078571D01*
X52771428Y-21078571D01*
X52542857Y-21364285D02*
X52542857Y-21821428D01*
X25771428Y-20678571D02*
X25171428Y-20678571D01*
X25600000Y-20878571D01*
X25171428Y-21078571D01*
X25771428Y-21078571D01*
X25542857Y-21364285D02*
X25542857Y-21821428D01*
X79771428Y-8178571D02*
X79171428Y-8178571D01*
X79600000Y-8378571D01*
X79171428Y-8578571D01*
X79771428Y-8578571D01*
X79542857Y-8864285D02*
X79542857Y-9321428D01*
X52771428Y-8178571D02*
X52171428Y-8178571D01*
X52600000Y-8378571D01*
X52171428Y-8578571D01*
X52771428Y-8578571D01*
X52542857Y-8864285D02*
X52542857Y-9321428D01*
X62650000Y-89207142D02*
X62678571Y-89264285D01*
X62678571Y-89350000D01*
X62650000Y-89435714D01*
X62592857Y-89492857D01*
X62535714Y-89521428D01*
X62421428Y-89550000D01*
X62335714Y-89550000D01*
X62221428Y-89521428D01*
X62164285Y-89492857D01*
X62107142Y-89435714D01*
X62078571Y-89350000D01*
X62078571Y-89292857D01*
X62107142Y-89207142D01*
X62135714Y-89178571D01*
X62335714Y-89178571D01*
X62335714Y-89292857D01*
X62078571Y-88921428D02*
X62678571Y-88921428D01*
X62078571Y-88578571D01*
X62678571Y-88578571D01*
X62078571Y-88292857D02*
X62678571Y-88292857D01*
X62678571Y-88150000D01*
X62650000Y-88064285D01*
X62592857Y-88007142D01*
X62535714Y-87978571D01*
X62421428Y-87950000D01*
X62335714Y-87950000D01*
X62221428Y-87978571D01*
X62164285Y-88007142D01*
X62107142Y-88064285D01*
X62078571Y-88150000D01*
X62078571Y-88292857D01*
X35650000Y-89207142D02*
X35678571Y-89264285D01*
X35678571Y-89350000D01*
X35650000Y-89435714D01*
X35592857Y-89492857D01*
X35535714Y-89521428D01*
X35421428Y-89550000D01*
X35335714Y-89550000D01*
X35221428Y-89521428D01*
X35164285Y-89492857D01*
X35107142Y-89435714D01*
X35078571Y-89350000D01*
X35078571Y-89292857D01*
X35107142Y-89207142D01*
X35135714Y-89178571D01*
X35335714Y-89178571D01*
X35335714Y-89292857D01*
X35078571Y-88921428D02*
X35678571Y-88921428D01*
X35078571Y-88578571D01*
X35678571Y-88578571D01*
X35078571Y-88292857D02*
X35678571Y-88292857D01*
X35678571Y-88150000D01*
X35650000Y-88064285D01*
X35592857Y-88007142D01*
X35535714Y-87978571D01*
X35421428Y-87950000D01*
X35335714Y-87950000D01*
X35221428Y-87978571D01*
X35164285Y-88007142D01*
X35107142Y-88064285D01*
X35078571Y-88150000D01*
X35078571Y-88292857D01*
X8650000Y-89207142D02*
X8678571Y-89264285D01*
X8678571Y-89350000D01*
X8650000Y-89435714D01*
X8592857Y-89492857D01*
X8535714Y-89521428D01*
X8421428Y-89550000D01*
X8335714Y-89550000D01*
X8221428Y-89521428D01*
X8164285Y-89492857D01*
X8107142Y-89435714D01*
X8078571Y-89350000D01*
X8078571Y-89292857D01*
X8107142Y-89207142D01*
X8135714Y-89178571D01*
X8335714Y-89178571D01*
X8335714Y-89292857D01*
X8078571Y-88921428D02*
X8678571Y-88921428D01*
X8078571Y-88578571D01*
X8678571Y-88578571D01*
X8078571Y-88292857D02*
X8678571Y-88292857D01*
X8678571Y-88150000D01*
X8650000Y-88064285D01*
X8592857Y-88007142D01*
X8535714Y-87978571D01*
X8421428Y-87950000D01*
X8335714Y-87950000D01*
X8221428Y-87978571D01*
X8164285Y-88007142D01*
X8107142Y-88064285D01*
X8078571Y-88150000D01*
X8078571Y-88292857D01*
X62650000Y-76707142D02*
X62678571Y-76764285D01*
X62678571Y-76850000D01*
X62650000Y-76935714D01*
X62592857Y-76992857D01*
X62535714Y-77021428D01*
X62421428Y-77050000D01*
X62335714Y-77050000D01*
X62221428Y-77021428D01*
X62164285Y-76992857D01*
X62107142Y-76935714D01*
X62078571Y-76850000D01*
X62078571Y-76792857D01*
X62107142Y-76707142D01*
X62135714Y-76678571D01*
X62335714Y-76678571D01*
X62335714Y-76792857D01*
X62078571Y-76421428D02*
X62678571Y-76421428D01*
X62078571Y-76078571D01*
X62678571Y-76078571D01*
X62078571Y-75792857D02*
X62678571Y-75792857D01*
X62678571Y-75650000D01*
X62650000Y-75564285D01*
X62592857Y-75507142D01*
X62535714Y-75478571D01*
X62421428Y-75450000D01*
X62335714Y-75450000D01*
X62221428Y-75478571D01*
X62164285Y-75507142D01*
X62107142Y-75564285D01*
X62078571Y-75650000D01*
X62078571Y-75792857D01*
X35650000Y-76707142D02*
X35678571Y-76764285D01*
X35678571Y-76850000D01*
X35650000Y-76935714D01*
X35592857Y-76992857D01*
X35535714Y-77021428D01*
X35421428Y-77050000D01*
X35335714Y-77050000D01*
X35221428Y-77021428D01*
X35164285Y-76992857D01*
X35107142Y-76935714D01*
X35078571Y-76850000D01*
X35078571Y-76792857D01*
X35107142Y-76707142D01*
X35135714Y-76678571D01*
X35335714Y-76678571D01*
X35335714Y-76792857D01*
X35078571Y-76421428D02*
X35678571Y-76421428D01*
X35078571Y-76078571D01*
X35678571Y-76078571D01*
X35078571Y-75792857D02*
X35678571Y-75792857D01*
X35678571Y-75650000D01*
X35650000Y-75564285D01*
X35592857Y-75507142D01*
X35535714Y-75478571D01*
X35421428Y-75450000D01*
X35335714Y-75450000D01*
X35221428Y-75478571D01*
X35164285Y-75507142D01*
X35107142Y-75564285D01*
X35078571Y-75650000D01*
X35078571Y-75792857D01*
X8650000Y-76707142D02*
X8678571Y-76764285D01*
X8678571Y-76850000D01*
X8650000Y-76935714D01*
X8592857Y-76992857D01*
X8535714Y-77021428D01*
X8421428Y-77050000D01*
X8335714Y-77050000D01*
X8221428Y-77021428D01*
X8164285Y-76992857D01*
X8107142Y-76935714D01*
X8078571Y-76850000D01*
X8078571Y-76792857D01*
X8107142Y-76707142D01*
X8135714Y-76678571D01*
X8335714Y-76678571D01*
X8335714Y-76792857D01*
X8078571Y-76421428D02*
X8678571Y-76421428D01*
X8078571Y-76078571D01*
X8678571Y-76078571D01*
X8078571Y-75792857D02*
X8678571Y-75792857D01*
X8678571Y-75650000D01*
X8650000Y-75564285D01*
X8592857Y-75507142D01*
X8535714Y-75478571D01*
X8421428Y-75450000D01*
X8335714Y-75450000D01*
X8221428Y-75478571D01*
X8164285Y-75507142D01*
X8107142Y-75564285D01*
X8078571Y-75650000D01*
X8078571Y-75792857D01*
X62650000Y-64207142D02*
X62678571Y-64264285D01*
X62678571Y-64350000D01*
X62650000Y-64435714D01*
X62592857Y-64492857D01*
X62535714Y-64521428D01*
X62421428Y-64550000D01*
X62335714Y-64550000D01*
X62221428Y-64521428D01*
X62164285Y-64492857D01*
X62107142Y-64435714D01*
X62078571Y-64350000D01*
X62078571Y-64292857D01*
X62107142Y-64207142D01*
X62135714Y-64178571D01*
X62335714Y-64178571D01*
X62335714Y-64292857D01*
X62078571Y-63921428D02*
X62678571Y-63921428D01*
X62078571Y-63578571D01*
X62678571Y-63578571D01*
X62078571Y-63292857D02*
X62678571Y-63292857D01*
X62678571Y-63150000D01*
X62650000Y-63064285D01*
X62592857Y-63007142D01*
X62535714Y-62978571D01*
X62421428Y-62950000D01*
X62335714Y-62950000D01*
X62221428Y-62978571D01*
X62164285Y-63007142D01*
X62107142Y-63064285D01*
X62078571Y-63150000D01*
X62078571Y-63292857D01*
X35650000Y-64207142D02*
X35678571Y-64264285D01*
X35678571Y-64350000D01*
X35650000Y-64435714D01*
X35592857Y-64492857D01*
X35535714Y-64521428D01*
X35421428Y-64550000D01*
X35335714Y-64550000D01*
X35221428Y-64521428D01*
X35164285Y-64492857D01*
X35107142Y-64435714D01*
X35078571Y-64350000D01*
X35078571Y-64292857D01*
X35107142Y-64207142D01*
X35135714Y-64178571D01*
X35335714Y-64178571D01*
X35335714Y-64292857D01*
X35078571Y-63921428D02*
X35678571Y-63921428D01*
X35078571Y-63578571D01*
X35678571Y-63578571D01*
X35078571Y-63292857D02*
X35678571Y-63292857D01*
X35678571Y-63150000D01*
X35650000Y-63064285D01*
X35592857Y-63007142D01*
X35535714Y-62978571D01*
X35421428Y-62950000D01*
X35335714Y-62950000D01*
X35221428Y-62978571D01*
X35164285Y-63007142D01*
X35107142Y-63064285D01*
X35078571Y-63150000D01*
X35078571Y-63292857D01*
X8650000Y-64207142D02*
X8678571Y-64264285D01*
X8678571Y-64350000D01*
X8650000Y-64435714D01*
X8592857Y-64492857D01*
X8535714Y-64521428D01*
X8421428Y-64550000D01*
X8335714Y-64550000D01*
X8221428Y-64521428D01*
X8164285Y-64492857D01*
X8107142Y-64435714D01*
X8078571Y-64350000D01*
X8078571Y-64292857D01*
X8107142Y-64207142D01*
X8135714Y-64178571D01*
X8335714Y-64178571D01*
X8335714Y-64292857D01*
X8078571Y-63921428D02*
X8678571Y-63921428D01*
X8078571Y-63578571D01*
X8678571Y-63578571D01*
X8078571Y-63292857D02*
X8678571Y-63292857D01*
X8678571Y-63150000D01*
X8650000Y-63064285D01*
X8592857Y-63007142D01*
X8535714Y-62978571D01*
X8421428Y-62950000D01*
X8335714Y-62950000D01*
X8221428Y-62978571D01*
X8164285Y-63007142D01*
X8107142Y-63064285D01*
X8078571Y-63150000D01*
X8078571Y-63292857D01*
X62650000Y-51707142D02*
X62678571Y-51764285D01*
X62678571Y-51850000D01*
X62650000Y-51935714D01*
X62592857Y-51992857D01*
X62535714Y-52021428D01*
X62421428Y-52050000D01*
X62335714Y-52050000D01*
X62221428Y-52021428D01*
X62164285Y-51992857D01*
X62107142Y-51935714D01*
X62078571Y-51850000D01*
X62078571Y-51792857D01*
X62107142Y-51707142D01*
X62135714Y-51678571D01*
X62335714Y-51678571D01*
X62335714Y-51792857D01*
X62078571Y-51421428D02*
X62678571Y-51421428D01*
X62078571Y-51078571D01*
X62678571Y-51078571D01*
X62078571Y-50792857D02*
X62678571Y-50792857D01*
X62678571Y-50650000D01*
X62650000Y-50564285D01*
X62592857Y-50507142D01*
X62535714Y-50478571D01*
X62421428Y-50450000D01*
X62335714Y-50450000D01*
X62221428Y-50478571D01*
X62164285Y-50507142D01*
X62107142Y-50564285D01*
X62078571Y-50650000D01*
X62078571Y-50792857D01*
X35650000Y-51707142D02*
X35678571Y-51764285D01*
X35678571Y-51850000D01*
X35650000Y-51935714D01*
X35592857Y-51992857D01*
X35535714Y-52021428D01*
X35421428Y-52050000D01*
X35335714Y-52050000D01*
X35221428Y-52021428D01*
X35164285Y-51992857D01*
X35107142Y-51935714D01*
X35078571Y-51850000D01*
X35078571Y-51792857D01*
X35107142Y-51707142D01*
X35135714Y-51678571D01*
X35335714Y-51678571D01*
X35335714Y-51792857D01*
X35078571Y-51421428D02*
X35678571Y-51421428D01*
X35078571Y-51078571D01*
X35678571Y-51078571D01*
X35078571Y-50792857D02*
X35678571Y-50792857D01*
X35678571Y-50650000D01*
X35650000Y-50564285D01*
X35592857Y-50507142D01*
X35535714Y-50478571D01*
X35421428Y-50450000D01*
X35335714Y-50450000D01*
X35221428Y-50478571D01*
X35164285Y-50507142D01*
X35107142Y-50564285D01*
X35078571Y-50650000D01*
X35078571Y-50792857D01*
X8650000Y-51707142D02*
X8678571Y-51764285D01*
X8678571Y-51850000D01*
X8650000Y-51935714D01*
X8592857Y-51992857D01*
X8535714Y-52021428D01*
X8421428Y-52050000D01*
X8335714Y-52050000D01*
X8221428Y-52021428D01*
X8164285Y-51992857D01*
X8107142Y-51935714D01*
X8078571Y-51850000D01*
X8078571Y-51792857D01*
X8107142Y-51707142D01*
X8135714Y-51678571D01*
X8335714Y-51678571D01*
X8335714Y-51792857D01*
X8078571Y-51421428D02*
X8678571Y-51421428D01*
X8078571Y-51078571D01*
X8678571Y-51078571D01*
X8078571Y-50792857D02*
X8678571Y-50792857D01*
X8678571Y-50650000D01*
X8650000Y-50564285D01*
X8592857Y-50507142D01*
X8535714Y-50478571D01*
X8421428Y-50450000D01*
X8335714Y-50450000D01*
X8221428Y-50478571D01*
X8164285Y-50507142D01*
X8107142Y-50564285D01*
X8078571Y-50650000D01*
X8078571Y-50792857D01*
X62650000Y-39207142D02*
X62678571Y-39264285D01*
X62678571Y-39350000D01*
X62650000Y-39435714D01*
X62592857Y-39492857D01*
X62535714Y-39521428D01*
X62421428Y-39550000D01*
X62335714Y-39550000D01*
X62221428Y-39521428D01*
X62164285Y-39492857D01*
X62107142Y-39435714D01*
X62078571Y-39350000D01*
X62078571Y-39292857D01*
X62107142Y-39207142D01*
X62135714Y-39178571D01*
X62335714Y-39178571D01*
X62335714Y-39292857D01*
X62078571Y-38921428D02*
X62678571Y-38921428D01*
X62078571Y-38578571D01*
X62678571Y-38578571D01*
X62078571Y-38292857D02*
X62678571Y-38292857D01*
X62678571Y-38150000D01*
X62650000Y-38064285D01*
X62592857Y-38007142D01*
X62535714Y-37978571D01*
X62421428Y-37950000D01*
X62335714Y-37950000D01*
X62221428Y-37978571D01*
X62164285Y-38007142D01*
X62107142Y-38064285D01*
X62078571Y-38150000D01*
X62078571Y-38292857D01*
X35650000Y-39207142D02*
X35678571Y-39264285D01*
X35678571Y-39350000D01*
X35650000Y-39435714D01*
X35592857Y-39492857D01*
X35535714Y-39521428D01*
X35421428Y-39550000D01*
X35335714Y-39550000D01*
X35221428Y-39521428D01*
X35164285Y-39492857D01*
X35107142Y-39435714D01*
X35078571Y-39350000D01*
X35078571Y-39292857D01*
X35107142Y-39207142D01*
X35135714Y-39178571D01*
X35335714Y-39178571D01*
X35335714Y-39292857D01*
X35078571Y-38921428D02*
X35678571Y-38921428D01*
X35078571Y-38578571D01*
X35678571Y-38578571D01*
X35078571Y-38292857D02*
X35678571Y-38292857D01*
X35678571Y-38150000D01*
X35650000Y-38064285D01*
X35592857Y-38007142D01*
X35535714Y-37978571D01*
X35421428Y-37950000D01*
X35335714Y-37950000D01*
X35221428Y-37978571D01*
X35164285Y-38007142D01*
X35107142Y-38064285D01*
X35078571Y-38150000D01*
X35078571Y-38292857D01*
X8650000Y-39207142D02*
X8678571Y-39264285D01*
X8678571Y-39350000D01*
X8650000Y-39435714D01*
X8592857Y-39492857D01*
X8535714Y-39521428D01*
X8421428Y-39550000D01*
X8335714Y-39550000D01*
X8221428Y-39521428D01*
X8164285Y-39492857D01*
X8107142Y-39435714D01*
X8078571Y-39350000D01*
X8078571Y-39292857D01*
X8107142Y-39207142D01*
X8135714Y-39178571D01*
X8335714Y-39178571D01*
X8335714Y-39292857D01*
X8078571Y-38921428D02*
X8678571Y-38921428D01*
X8078571Y-38578571D01*
X8678571Y-38578571D01*
X8078571Y-38292857D02*
X8678571Y-38292857D01*
X8678571Y-38150000D01*
X8650000Y-38064285D01*
X8592857Y-38007142D01*
X8535714Y-37978571D01*
X8421428Y-37950000D01*
X8335714Y-37950000D01*
X8221428Y-37978571D01*
X8164285Y-38007142D01*
X8107142Y-38064285D01*
X8078571Y-38150000D01*
X8078571Y-38292857D01*
X62650000Y-26707142D02*
X62678571Y-26764285D01*
X62678571Y-26850000D01*
X62650000Y-26935714D01*
X62592857Y-26992857D01*
X62535714Y-27021428D01*
X62421428Y-27050000D01*
X62335714Y-27050000D01*
X62221428Y-27021428D01*
X62164285Y-26992857D01*
X62107142Y-26935714D01*
X62078571Y-26850000D01*
X62078571Y-26792857D01*
X62107142Y-26707142D01*
X62135714Y-26678571D01*
X62335714Y-26678571D01*
X62335714Y-26792857D01*
X62078571Y-26421428D02*
X62678571Y-26421428D01*
X62078571Y-26078571D01*
X62678571Y-26078571D01*
X62078571Y-25792857D02*
X62678571Y-25792857D01*
X62678571Y-25650000D01*
X62650000Y-25564285D01*
X62592857Y-25507142D01*
X62535714Y-25478571D01*
X62421428Y-25450000D01*
X62335714Y-25450000D01*
X62221428Y-25478571D01*
X62164285Y-25507142D01*
X62107142Y-25564285D01*
X62078571Y-25650000D01*
X62078571Y-25792857D01*
X35650000Y-26707142D02*
X35678571Y-26764285D01*
X35678571Y-26850000D01*
X35650000Y-26935714D01*
X35592857Y-26992857D01*
X35535714Y-27021428D01*
X35421428Y-27050000D01*
X35335714Y-27050000D01*
X35221428Y-27021428D01*
X35164285Y-26992857D01*
X35107142Y-26935714D01*
X35078571Y-26850000D01*
X35078571Y-26792857D01*
X35107142Y-26707142D01*
X35135714Y-26678571D01*
X35335714Y-26678571D01*
X35335714Y-26792857D01*
X35078571Y-26421428D02*
X35678571Y-26421428D01*
X35078571Y-26078571D01*
X35678571Y-26078571D01*
X35078571Y-25792857D02*
X35678571Y-25792857D01*
X35678571Y-25650000D01*
X35650000Y-25564285D01*
X35592857Y-25507142D01*
X35535714Y-25478571D01*
X35421428Y-25450000D01*
X35335714Y-25450000D01*
X35221428Y-25478571D01*
X35164285Y-25507142D01*
X35107142Y-25564285D01*
X35078571Y-25650000D01*
X35078571Y-25792857D01*
X8650000Y-26707142D02*
X8678571Y-26764285D01*
X8678571Y-26850000D01*
X8650000Y-26935714D01*
X8592857Y-26992857D01*
X8535714Y-27021428D01*
X8421428Y-27050000D01*
X8335714Y-27050000D01*
X8221428Y-27021428D01*
X8164285Y-26992857D01*
X8107142Y-26935714D01*
X8078571Y-26850000D01*
X8078571Y-26792857D01*
X8107142Y-26707142D01*
X8135714Y-26678571D01*
X8335714Y-26678571D01*
X8335714Y-26792857D01*
X8078571Y-26421428D02*
X8678571Y-26421428D01*
X8078571Y-26078571D01*
X8678571Y-26078571D01*
X8078571Y-25792857D02*
X8678571Y-25792857D01*
X8678571Y-25650000D01*
X8650000Y-25564285D01*
X8592857Y-25507142D01*
X8535714Y-25478571D01*
X8421428Y-25450000D01*
X8335714Y-25450000D01*
X8221428Y-25478571D01*
X8164285Y-25507142D01*
X8107142Y-25564285D01*
X8078571Y-25650000D01*
X8078571Y-25792857D01*
X62650000Y-14207142D02*
X62678571Y-14264285D01*
X62678571Y-14350000D01*
X62650000Y-14435714D01*
X62592857Y-14492857D01*
X62535714Y-14521428D01*
X62421428Y-14550000D01*
X62335714Y-14550000D01*
X62221428Y-14521428D01*
X62164285Y-14492857D01*
X62107142Y-14435714D01*
X62078571Y-14350000D01*
X62078571Y-14292857D01*
X62107142Y-14207142D01*
X62135714Y-14178571D01*
X62335714Y-14178571D01*
X62335714Y-14292857D01*
X62078571Y-13921428D02*
X62678571Y-13921428D01*
X62078571Y-13578571D01*
X62678571Y-13578571D01*
X62078571Y-13292857D02*
X62678571Y-13292857D01*
X62678571Y-13150000D01*
X62650000Y-13064285D01*
X62592857Y-13007142D01*
X62535714Y-12978571D01*
X62421428Y-12950000D01*
X62335714Y-12950000D01*
X62221428Y-12978571D01*
X62164285Y-13007142D01*
X62107142Y-13064285D01*
X62078571Y-13150000D01*
X62078571Y-13292857D01*
X35650000Y-14207142D02*
X35678571Y-14264285D01*
X35678571Y-14350000D01*
X35650000Y-14435714D01*
X35592857Y-14492857D01*
X35535714Y-14521428D01*
X35421428Y-14550000D01*
X35335714Y-14550000D01*
X35221428Y-14521428D01*
X35164285Y-14492857D01*
X35107142Y-14435714D01*
X35078571Y-14350000D01*
X35078571Y-14292857D01*
X35107142Y-14207142D01*
X35135714Y-14178571D01*
X35335714Y-14178571D01*
X35335714Y-14292857D01*
X35078571Y-13921428D02*
X35678571Y-13921428D01*
X35078571Y-13578571D01*
X35678571Y-13578571D01*
X35078571Y-13292857D02*
X35678571Y-13292857D01*
X35678571Y-13150000D01*
X35650000Y-13064285D01*
X35592857Y-13007142D01*
X35535714Y-12978571D01*
X35421428Y-12950000D01*
X35335714Y-12950000D01*
X35221428Y-12978571D01*
X35164285Y-13007142D01*
X35107142Y-13064285D01*
X35078571Y-13150000D01*
X35078571Y-13292857D01*
X8650000Y-14207142D02*
X8678571Y-14264285D01*
X8678571Y-14350000D01*
X8650000Y-14435714D01*
X8592857Y-14492857D01*
X8535714Y-14521428D01*
X8421428Y-14550000D01*
X8335714Y-14550000D01*
X8221428Y-14521428D01*
X8164285Y-14492857D01*
X8107142Y-14435714D01*
X8078571Y-14350000D01*
X8078571Y-14292857D01*
X8107142Y-14207142D01*
X8135714Y-14178571D01*
X8335714Y-14178571D01*
X8335714Y-14292857D01*
X8078571Y-13921428D02*
X8678571Y-13921428D01*
X8078571Y-13578571D01*
X8678571Y-13578571D01*
X8078571Y-13292857D02*
X8678571Y-13292857D01*
X8678571Y-13150000D01*
X8650000Y-13064285D01*
X8592857Y-13007142D01*
X8535714Y-12978571D01*
X8421428Y-12950000D01*
X8335714Y-12950000D01*
X8221428Y-12978571D01*
X8164285Y-13007142D01*
X8107142Y-13064285D01*
X8078571Y-13150000D01*
X8078571Y-13292857D01*
X62650000Y-1707142D02*
X62678571Y-1764285D01*
X62678571Y-1850000D01*
X62650000Y-1935714D01*
X62592857Y-1992857D01*
X62535714Y-2021428D01*
X62421428Y-2050000D01*
X62335714Y-2050000D01*
X62221428Y-2021428D01*
X62164285Y-1992857D01*
X62107142Y-1935714D01*
X62078571Y-1850000D01*
X62078571Y-1792857D01*
X62107142Y-1707142D01*
X62135714Y-1678571D01*
X62335714Y-1678571D01*
X62335714Y-1792857D01*
X62078571Y-1421428D02*
X62678571Y-1421428D01*
X62078571Y-1078571D01*
X62678571Y-1078571D01*
X62078571Y-792857D02*
X62678571Y-792857D01*
X62678571Y-650000D01*
X62650000Y-564285D01*
X62592857Y-507142D01*
X62535714Y-478571D01*
X62421428Y-450000D01*
X62335714Y-450000D01*
X62221428Y-478571D01*
X62164285Y-507142D01*
X62107142Y-564285D01*
X62078571Y-650000D01*
X62078571Y-792857D01*
X35650000Y-1707142D02*
X35678571Y-1764285D01*
X35678571Y-1850000D01*
X35650000Y-1935714D01*
X35592857Y-1992857D01*
X35535714Y-2021428D01*
X35421428Y-2050000D01*
X35335714Y-2050000D01*
X35221428Y-2021428D01*
X35164285Y-1992857D01*
X35107142Y-1935714D01*
X35078571Y-1850000D01*
X35078571Y-1792857D01*
X35107142Y-1707142D01*
X35135714Y-1678571D01*
X35335714Y-1678571D01*
X35335714Y-1792857D01*
X35078571Y-1421428D02*
X35678571Y-1421428D01*
X35078571Y-1078571D01*
X35678571Y-1078571D01*
X35078571Y-792857D02*
X35678571Y-792857D01*
X35678571Y-650000D01*
X35650000Y-564285D01*
X35592857Y-507142D01*
X35535714Y-478571D01*
X35421428Y-450000D01*
X35335714Y-450000D01*
X35221428Y-478571D01*
X35164285Y-507142D01*
X35107142Y-564285D01*
X35078571Y-650000D01*
X35078571Y-792857D01*
X62457142Y-97307142D02*
X62457142Y-96850000D01*
X62228571Y-97078571D02*
X62685714Y-97078571D01*
X62228571Y-96250000D02*
X62228571Y-96592857D01*
X62228571Y-96421428D02*
X62828571Y-96421428D01*
X62742857Y-96478571D01*
X62685714Y-96535714D01*
X62657142Y-96592857D01*
X62771428Y-96021428D02*
X62800000Y-95992857D01*
X62828571Y-95935714D01*
X62828571Y-95792857D01*
X62800000Y-95735714D01*
X62771428Y-95707142D01*
X62714285Y-95678571D01*
X62657142Y-95678571D01*
X62571428Y-95707142D01*
X62228571Y-96050000D01*
X62228571Y-95678571D01*
X62828571Y-95507142D02*
X62228571Y-95307142D01*
X62828571Y-95107142D01*
X35457142Y-97307142D02*
X35457142Y-96850000D01*
X35228571Y-97078571D02*
X35685714Y-97078571D01*
X35228571Y-96250000D02*
X35228571Y-96592857D01*
X35228571Y-96421428D02*
X35828571Y-96421428D01*
X35742857Y-96478571D01*
X35685714Y-96535714D01*
X35657142Y-96592857D01*
X35771428Y-96021428D02*
X35800000Y-95992857D01*
X35828571Y-95935714D01*
X35828571Y-95792857D01*
X35800000Y-95735714D01*
X35771428Y-95707142D01*
X35714285Y-95678571D01*
X35657142Y-95678571D01*
X35571428Y-95707142D01*
X35228571Y-96050000D01*
X35228571Y-95678571D01*
X35828571Y-95507142D02*
X35228571Y-95307142D01*
X35828571Y-95107142D01*
X8457142Y-97307142D02*
X8457142Y-96850000D01*
X8228571Y-97078571D02*
X8685714Y-97078571D01*
X8228571Y-96250000D02*
X8228571Y-96592857D01*
X8228571Y-96421428D02*
X8828571Y-96421428D01*
X8742857Y-96478571D01*
X8685714Y-96535714D01*
X8657142Y-96592857D01*
X8771428Y-96021428D02*
X8800000Y-95992857D01*
X8828571Y-95935714D01*
X8828571Y-95792857D01*
X8800000Y-95735714D01*
X8771428Y-95707142D01*
X8714285Y-95678571D01*
X8657142Y-95678571D01*
X8571428Y-95707142D01*
X8228571Y-96050000D01*
X8228571Y-95678571D01*
X8828571Y-95507142D02*
X8228571Y-95307142D01*
X8828571Y-95107142D01*
X62457142Y-84807142D02*
X62457142Y-84350000D01*
X62228571Y-84578571D02*
X62685714Y-84578571D01*
X62228571Y-83750000D02*
X62228571Y-84092857D01*
X62228571Y-83921428D02*
X62828571Y-83921428D01*
X62742857Y-83978571D01*
X62685714Y-84035714D01*
X62657142Y-84092857D01*
X62771428Y-83521428D02*
X62800000Y-83492857D01*
X62828571Y-83435714D01*
X62828571Y-83292857D01*
X62800000Y-83235714D01*
X62771428Y-83207142D01*
X62714285Y-83178571D01*
X62657142Y-83178571D01*
X62571428Y-83207142D01*
X62228571Y-83550000D01*
X62228571Y-83178571D01*
X62828571Y-83007142D02*
X62228571Y-82807142D01*
X62828571Y-82607142D01*
X35457142Y-84807142D02*
X35457142Y-84350000D01*
X35228571Y-84578571D02*
X35685714Y-84578571D01*
X35228571Y-83750000D02*
X35228571Y-84092857D01*
X35228571Y-83921428D02*
X35828571Y-83921428D01*
X35742857Y-83978571D01*
X35685714Y-84035714D01*
X35657142Y-84092857D01*
X35771428Y-83521428D02*
X35800000Y-83492857D01*
X35828571Y-83435714D01*
X35828571Y-83292857D01*
X35800000Y-83235714D01*
X35771428Y-83207142D01*
X35714285Y-83178571D01*
X35657142Y-83178571D01*
X35571428Y-83207142D01*
X35228571Y-83550000D01*
X35228571Y-83178571D01*
X35828571Y-83007142D02*
X35228571Y-82807142D01*
X35828571Y-82607142D01*
X8457142Y-84807142D02*
X8457142Y-84350000D01*
X8228571Y-84578571D02*
X8685714Y-84578571D01*
X8228571Y-83750000D02*
X8228571Y-84092857D01*
X8228571Y-83921428D02*
X8828571Y-83921428D01*
X8742857Y-83978571D01*
X8685714Y-84035714D01*
X8657142Y-84092857D01*
X8771428Y-83521428D02*
X8800000Y-83492857D01*
X8828571Y-83435714D01*
X8828571Y-83292857D01*
X8800000Y-83235714D01*
X8771428Y-83207142D01*
X8714285Y-83178571D01*
X8657142Y-83178571D01*
X8571428Y-83207142D01*
X8228571Y-83550000D01*
X8228571Y-83178571D01*
X8828571Y-83007142D02*
X8228571Y-82807142D01*
X8828571Y-82607142D01*
X62457142Y-72307142D02*
X62457142Y-71850000D01*
X62228571Y-72078571D02*
X62685714Y-72078571D01*
X62228571Y-71250000D02*
X62228571Y-71592857D01*
X62228571Y-71421428D02*
X62828571Y-71421428D01*
X62742857Y-71478571D01*
X62685714Y-71535714D01*
X62657142Y-71592857D01*
X62771428Y-71021428D02*
X62800000Y-70992857D01*
X62828571Y-70935714D01*
X62828571Y-70792857D01*
X62800000Y-70735714D01*
X62771428Y-70707142D01*
X62714285Y-70678571D01*
X62657142Y-70678571D01*
X62571428Y-70707142D01*
X62228571Y-71050000D01*
X62228571Y-70678571D01*
X62828571Y-70507142D02*
X62228571Y-70307142D01*
X62828571Y-70107142D01*
X35457142Y-72307142D02*
X35457142Y-71850000D01*
X35228571Y-72078571D02*
X35685714Y-72078571D01*
X35228571Y-71250000D02*
X35228571Y-71592857D01*
X35228571Y-71421428D02*
X35828571Y-71421428D01*
X35742857Y-71478571D01*
X35685714Y-71535714D01*
X35657142Y-71592857D01*
X35771428Y-71021428D02*
X35800000Y-70992857D01*
X35828571Y-70935714D01*
X35828571Y-70792857D01*
X35800000Y-70735714D01*
X35771428Y-70707142D01*
X35714285Y-70678571D01*
X35657142Y-70678571D01*
X35571428Y-70707142D01*
X35228571Y-71050000D01*
X35228571Y-70678571D01*
X35828571Y-70507142D02*
X35228571Y-70307142D01*
X35828571Y-70107142D01*
X8457142Y-72307142D02*
X8457142Y-71850000D01*
X8228571Y-72078571D02*
X8685714Y-72078571D01*
X8228571Y-71250000D02*
X8228571Y-71592857D01*
X8228571Y-71421428D02*
X8828571Y-71421428D01*
X8742857Y-71478571D01*
X8685714Y-71535714D01*
X8657142Y-71592857D01*
X8771428Y-71021428D02*
X8800000Y-70992857D01*
X8828571Y-70935714D01*
X8828571Y-70792857D01*
X8800000Y-70735714D01*
X8771428Y-70707142D01*
X8714285Y-70678571D01*
X8657142Y-70678571D01*
X8571428Y-70707142D01*
X8228571Y-71050000D01*
X8228571Y-70678571D01*
X8828571Y-70507142D02*
X8228571Y-70307142D01*
X8828571Y-70107142D01*
X62457142Y-59807142D02*
X62457142Y-59350000D01*
X62228571Y-59578571D02*
X62685714Y-59578571D01*
X62228571Y-58750000D02*
X62228571Y-59092857D01*
X62228571Y-58921428D02*
X62828571Y-58921428D01*
X62742857Y-58978571D01*
X62685714Y-59035714D01*
X62657142Y-59092857D01*
X62771428Y-58521428D02*
X62800000Y-58492857D01*
X62828571Y-58435714D01*
X62828571Y-58292857D01*
X62800000Y-58235714D01*
X62771428Y-58207142D01*
X62714285Y-58178571D01*
X62657142Y-58178571D01*
X62571428Y-58207142D01*
X62228571Y-58550000D01*
X62228571Y-58178571D01*
X62828571Y-58007142D02*
X62228571Y-57807142D01*
X62828571Y-57607142D01*
X35457142Y-59807142D02*
X35457142Y-59350000D01*
X35228571Y-59578571D02*
X35685714Y-59578571D01*
X35228571Y-58750000D02*
X35228571Y-59092857D01*
X35228571Y-58921428D02*
X35828571Y-58921428D01*
X35742857Y-58978571D01*
X35685714Y-59035714D01*
X35657142Y-59092857D01*
X35771428Y-58521428D02*
X35800000Y-58492857D01*
X35828571Y-58435714D01*
X35828571Y-58292857D01*
X35800000Y-58235714D01*
X35771428Y-58207142D01*
X35714285Y-58178571D01*
X35657142Y-58178571D01*
X35571428Y-58207142D01*
X35228571Y-58550000D01*
X35228571Y-58178571D01*
X35828571Y-58007142D02*
X35228571Y-57807142D01*
X35828571Y-57607142D01*
X8457142Y-59807142D02*
X8457142Y-59350000D01*
X8228571Y-59578571D02*
X8685714Y-59578571D01*
X8228571Y-58750000D02*
X8228571Y-59092857D01*
X8228571Y-58921428D02*
X8828571Y-58921428D01*
X8742857Y-58978571D01*
X8685714Y-59035714D01*
X8657142Y-59092857D01*
X8771428Y-58521428D02*
X8800000Y-58492857D01*
X8828571Y-58435714D01*
X8828571Y-58292857D01*
X8800000Y-58235714D01*
X8771428Y-58207142D01*
X8714285Y-58178571D01*
X8657142Y-58178571D01*
X8571428Y-58207142D01*
X8228571Y-58550000D01*
X8228571Y-58178571D01*
X8828571Y-58007142D02*
X8228571Y-57807142D01*
X8828571Y-57607142D01*
X62457142Y-47307142D02*
X62457142Y-46850000D01*
X62228571Y-47078571D02*
X62685714Y-47078571D01*
X62228571Y-46250000D02*
X62228571Y-46592857D01*
X62228571Y-46421428D02*
X62828571Y-46421428D01*
X62742857Y-46478571D01*
X62685714Y-46535714D01*
X62657142Y-46592857D01*
X62771428Y-46021428D02*
X62800000Y-45992857D01*
X62828571Y-45935714D01*
X62828571Y-45792857D01*
X62800000Y-45735714D01*
X62771428Y-45707142D01*
X62714285Y-45678571D01*
X62657142Y-45678571D01*
X62571428Y-45707142D01*
X62228571Y-46050000D01*
X62228571Y-45678571D01*
X62828571Y-45507142D02*
X62228571Y-45307142D01*
X62828571Y-45107142D01*
X35457142Y-47307142D02*
X35457142Y-46850000D01*
X35228571Y-47078571D02*
X35685714Y-47078571D01*
X35228571Y-46250000D02*
X35228571Y-46592857D01*
X35228571Y-46421428D02*
X35828571Y-46421428D01*
X35742857Y-46478571D01*
X35685714Y-46535714D01*
X35657142Y-46592857D01*
X35771428Y-46021428D02*
X35800000Y-45992857D01*
X35828571Y-45935714D01*
X35828571Y-45792857D01*
X35800000Y-45735714D01*
X35771428Y-45707142D01*
X35714285Y-45678571D01*
X35657142Y-45678571D01*
X35571428Y-45707142D01*
X35228571Y-46050000D01*
X35228571Y-45678571D01*
X35828571Y-45507142D02*
X35228571Y-45307142D01*
X35828571Y-45107142D01*
X8457142Y-47307142D02*
X8457142Y-46850000D01*
X8228571Y-47078571D02*
X8685714Y-47078571D01*
X8228571Y-46250000D02*
X8228571Y-46592857D01*
X8228571Y-46421428D02*
X8828571Y-46421428D01*
X8742857Y-46478571D01*
X8685714Y-46535714D01*
X8657142Y-46592857D01*
X8771428Y-46021428D02*
X8800000Y-45992857D01*
X8828571Y-45935714D01*
X8828571Y-45792857D01*
X8800000Y-45735714D01*
X8771428Y-45707142D01*
X8714285Y-45678571D01*
X8657142Y-45678571D01*
X8571428Y-45707142D01*
X8228571Y-46050000D01*
X8228571Y-45678571D01*
X8828571Y-45507142D02*
X8228571Y-45307142D01*
X8828571Y-45107142D01*
X62457142Y-34807142D02*
X62457142Y-34350000D01*
X62228571Y-34578571D02*
X62685714Y-34578571D01*
X62228571Y-33750000D02*
X62228571Y-34092857D01*
X62228571Y-33921428D02*
X62828571Y-33921428D01*
X62742857Y-33978571D01*
X62685714Y-34035714D01*
X62657142Y-34092857D01*
X62771428Y-33521428D02*
X62800000Y-33492857D01*
X62828571Y-33435714D01*
X62828571Y-33292857D01*
X62800000Y-33235714D01*
X62771428Y-33207142D01*
X62714285Y-33178571D01*
X62657142Y-33178571D01*
X62571428Y-33207142D01*
X62228571Y-33550000D01*
X62228571Y-33178571D01*
X62828571Y-33007142D02*
X62228571Y-32807142D01*
X62828571Y-32607142D01*
X35457142Y-34807142D02*
X35457142Y-34350000D01*
X35228571Y-34578571D02*
X35685714Y-34578571D01*
X35228571Y-33750000D02*
X35228571Y-34092857D01*
X35228571Y-33921428D02*
X35828571Y-33921428D01*
X35742857Y-33978571D01*
X35685714Y-34035714D01*
X35657142Y-34092857D01*
X35771428Y-33521428D02*
X35800000Y-33492857D01*
X35828571Y-33435714D01*
X35828571Y-33292857D01*
X35800000Y-33235714D01*
X35771428Y-33207142D01*
X35714285Y-33178571D01*
X35657142Y-33178571D01*
X35571428Y-33207142D01*
X35228571Y-33550000D01*
X35228571Y-33178571D01*
X35828571Y-33007142D02*
X35228571Y-32807142D01*
X35828571Y-32607142D01*
X8457142Y-34807142D02*
X8457142Y-34350000D01*
X8228571Y-34578571D02*
X8685714Y-34578571D01*
X8228571Y-33750000D02*
X8228571Y-34092857D01*
X8228571Y-33921428D02*
X8828571Y-33921428D01*
X8742857Y-33978571D01*
X8685714Y-34035714D01*
X8657142Y-34092857D01*
X8771428Y-33521428D02*
X8800000Y-33492857D01*
X8828571Y-33435714D01*
X8828571Y-33292857D01*
X8800000Y-33235714D01*
X8771428Y-33207142D01*
X8714285Y-33178571D01*
X8657142Y-33178571D01*
X8571428Y-33207142D01*
X8228571Y-33550000D01*
X8228571Y-33178571D01*
X8828571Y-33007142D02*
X8228571Y-32807142D01*
X8828571Y-32607142D01*
X62457142Y-22307142D02*
X62457142Y-21850000D01*
X62228571Y-22078571D02*
X62685714Y-22078571D01*
X62228571Y-21250000D02*
X62228571Y-21592857D01*
X62228571Y-21421428D02*
X62828571Y-21421428D01*
X62742857Y-21478571D01*
X62685714Y-21535714D01*
X62657142Y-21592857D01*
X62771428Y-21021428D02*
X62800000Y-20992857D01*
X62828571Y-20935714D01*
X62828571Y-20792857D01*
X62800000Y-20735714D01*
X62771428Y-20707142D01*
X62714285Y-20678571D01*
X62657142Y-20678571D01*
X62571428Y-20707142D01*
X62228571Y-21050000D01*
X62228571Y-20678571D01*
X62828571Y-20507142D02*
X62228571Y-20307142D01*
X62828571Y-20107142D01*
X35457142Y-22307142D02*
X35457142Y-21850000D01*
X35228571Y-22078571D02*
X35685714Y-22078571D01*
X35228571Y-21250000D02*
X35228571Y-21592857D01*
X35228571Y-21421428D02*
X35828571Y-21421428D01*
X35742857Y-21478571D01*
X35685714Y-21535714D01*
X35657142Y-21592857D01*
X35771428Y-21021428D02*
X35800000Y-20992857D01*
X35828571Y-20935714D01*
X35828571Y-20792857D01*
X35800000Y-20735714D01*
X35771428Y-20707142D01*
X35714285Y-20678571D01*
X35657142Y-20678571D01*
X35571428Y-20707142D01*
X35228571Y-21050000D01*
X35228571Y-20678571D01*
X35828571Y-20507142D02*
X35228571Y-20307142D01*
X35828571Y-20107142D01*
X8457142Y-22307142D02*
X8457142Y-21850000D01*
X8228571Y-22078571D02*
X8685714Y-22078571D01*
X8228571Y-21250000D02*
X8228571Y-21592857D01*
X8228571Y-21421428D02*
X8828571Y-21421428D01*
X8742857Y-21478571D01*
X8685714Y-21535714D01*
X8657142Y-21592857D01*
X8771428Y-21021428D02*
X8800000Y-20992857D01*
X8828571Y-20935714D01*
X8828571Y-20792857D01*
X8800000Y-20735714D01*
X8771428Y-20707142D01*
X8714285Y-20678571D01*
X8657142Y-20678571D01*
X8571428Y-20707142D01*
X8228571Y-21050000D01*
X8228571Y-20678571D01*
X8828571Y-20507142D02*
X8228571Y-20307142D01*
X8828571Y-20107142D01*
X62457142Y-9807142D02*
X62457142Y-9350000D01*
X62228571Y-9578571D02*
X62685714Y-9578571D01*
X62228571Y-8750000D02*
X62228571Y-9092857D01*
X62228571Y-8921428D02*
X62828571Y-8921428D01*
X62742857Y-8978571D01*
X62685714Y-9035714D01*
X62657142Y-9092857D01*
X62771428Y-8521428D02*
X62800000Y-8492857D01*
X62828571Y-8435714D01*
X62828571Y-8292857D01*
X62800000Y-8235714D01*
X62771428Y-8207142D01*
X62714285Y-8178571D01*
X62657142Y-8178571D01*
X62571428Y-8207142D01*
X62228571Y-8550000D01*
X62228571Y-8178571D01*
X62828571Y-8007142D02*
X62228571Y-7807142D01*
X62828571Y-7607142D01*
X35457142Y-9807142D02*
X35457142Y-9350000D01*
X35228571Y-9578571D02*
X35685714Y-9578571D01*
X35228571Y-8750000D02*
X35228571Y-9092857D01*
X35228571Y-8921428D02*
X35828571Y-8921428D01*
X35742857Y-8978571D01*
X35685714Y-9035714D01*
X35657142Y-9092857D01*
X35771428Y-8521428D02*
X35800000Y-8492857D01*
X35828571Y-8435714D01*
X35828571Y-8292857D01*
X35800000Y-8235714D01*
X35771428Y-8207142D01*
X35714285Y-8178571D01*
X35657142Y-8178571D01*
X35571428Y-8207142D01*
X35228571Y-8550000D01*
X35228571Y-8178571D01*
X35828571Y-8007142D02*
X35228571Y-7807142D01*
X35828571Y-7607142D01*
X62228571Y-93935714D02*
X62514285Y-94135714D01*
X62228571Y-94278571D02*
X62828571Y-94278571D01*
X62828571Y-94050000D01*
X62800000Y-93992857D01*
X62771428Y-93964285D01*
X62714285Y-93935714D01*
X62628571Y-93935714D01*
X62571428Y-93964285D01*
X62542857Y-93992857D01*
X62514285Y-94050000D01*
X62514285Y-94278571D01*
X62457142Y-93678571D02*
X62457142Y-93221428D01*
X35228571Y-93935714D02*
X35514285Y-94135714D01*
X35228571Y-94278571D02*
X35828571Y-94278571D01*
X35828571Y-94050000D01*
X35800000Y-93992857D01*
X35771428Y-93964285D01*
X35714285Y-93935714D01*
X35628571Y-93935714D01*
X35571428Y-93964285D01*
X35542857Y-93992857D01*
X35514285Y-94050000D01*
X35514285Y-94278571D01*
X35457142Y-93678571D02*
X35457142Y-93221428D01*
X8228571Y-93935714D02*
X8514285Y-94135714D01*
X8228571Y-94278571D02*
X8828571Y-94278571D01*
X8828571Y-94050000D01*
X8800000Y-93992857D01*
X8771428Y-93964285D01*
X8714285Y-93935714D01*
X8628571Y-93935714D01*
X8571428Y-93964285D01*
X8542857Y-93992857D01*
X8514285Y-94050000D01*
X8514285Y-94278571D01*
X8457142Y-93678571D02*
X8457142Y-93221428D01*
X62228571Y-81435714D02*
X62514285Y-81635714D01*
X62228571Y-81778571D02*
X62828571Y-81778571D01*
X62828571Y-81550000D01*
X62800000Y-81492857D01*
X62771428Y-81464285D01*
X62714285Y-81435714D01*
X62628571Y-81435714D01*
X62571428Y-81464285D01*
X62542857Y-81492857D01*
X62514285Y-81550000D01*
X62514285Y-81778571D01*
X62457142Y-81178571D02*
X62457142Y-80721428D01*
X35228571Y-81435714D02*
X35514285Y-81635714D01*
X35228571Y-81778571D02*
X35828571Y-81778571D01*
X35828571Y-81550000D01*
X35800000Y-81492857D01*
X35771428Y-81464285D01*
X35714285Y-81435714D01*
X35628571Y-81435714D01*
X35571428Y-81464285D01*
X35542857Y-81492857D01*
X35514285Y-81550000D01*
X35514285Y-81778571D01*
X35457142Y-81178571D02*
X35457142Y-80721428D01*
X8228571Y-81435714D02*
X8514285Y-81635714D01*
X8228571Y-81778571D02*
X8828571Y-81778571D01*
X8828571Y-81550000D01*
X8800000Y-81492857D01*
X8771428Y-81464285D01*
X8714285Y-81435714D01*
X8628571Y-81435714D01*
X8571428Y-81464285D01*
X8542857Y-81492857D01*
X8514285Y-81550000D01*
X8514285Y-81778571D01*
X8457142Y-81178571D02*
X8457142Y-80721428D01*
X62228571Y-68935714D02*
X62514285Y-69135714D01*
X62228571Y-69278571D02*
X62828571Y-69278571D01*
X62828571Y-69050000D01*
X62800000Y-68992857D01*
X62771428Y-68964285D01*
X62714285Y-68935714D01*
X62628571Y-68935714D01*
X62571428Y-68964285D01*
X62542857Y-68992857D01*
X62514285Y-69050000D01*
X62514285Y-69278571D01*
X62457142Y-68678571D02*
X62457142Y-68221428D01*
X35228571Y-68935714D02*
X35514285Y-69135714D01*
X35228571Y-69278571D02*
X35828571Y-69278571D01*
X35828571Y-69050000D01*
X35800000Y-68992857D01*
X35771428Y-68964285D01*
X35714285Y-68935714D01*
X35628571Y-68935714D01*
X35571428Y-68964285D01*
X35542857Y-68992857D01*
X35514285Y-69050000D01*
X35514285Y-69278571D01*
X35457142Y-68678571D02*
X35457142Y-68221428D01*
X8228571Y-68935714D02*
X8514285Y-69135714D01*
X8228571Y-69278571D02*
X8828571Y-69278571D01*
X8828571Y-69050000D01*
X8800000Y-68992857D01*
X8771428Y-68964285D01*
X8714285Y-68935714D01*
X8628571Y-68935714D01*
X8571428Y-68964285D01*
X8542857Y-68992857D01*
X8514285Y-69050000D01*
X8514285Y-69278571D01*
X8457142Y-68678571D02*
X8457142Y-68221428D01*
X62228571Y-56435714D02*
X62514285Y-56635714D01*
X62228571Y-56778571D02*
X62828571Y-56778571D01*
X62828571Y-56550000D01*
X62800000Y-56492857D01*
X62771428Y-56464285D01*
X62714285Y-56435714D01*
X62628571Y-56435714D01*
X62571428Y-56464285D01*
X62542857Y-56492857D01*
X62514285Y-56550000D01*
X62514285Y-56778571D01*
X62457142Y-56178571D02*
X62457142Y-55721428D01*
X35228571Y-56435714D02*
X35514285Y-56635714D01*
X35228571Y-56778571D02*
X35828571Y-56778571D01*
X35828571Y-56550000D01*
X35800000Y-56492857D01*
X35771428Y-56464285D01*
X35714285Y-56435714D01*
X35628571Y-56435714D01*
X35571428Y-56464285D01*
X35542857Y-56492857D01*
X35514285Y-56550000D01*
X35514285Y-56778571D01*
X35457142Y-56178571D02*
X35457142Y-55721428D01*
X8228571Y-56435714D02*
X8514285Y-56635714D01*
X8228571Y-56778571D02*
X8828571Y-56778571D01*
X8828571Y-56550000D01*
X8800000Y-56492857D01*
X8771428Y-56464285D01*
X8714285Y-56435714D01*
X8628571Y-56435714D01*
X8571428Y-56464285D01*
X8542857Y-56492857D01*
X8514285Y-56550000D01*
X8514285Y-56778571D01*
X8457142Y-56178571D02*
X8457142Y-55721428D01*
X62228571Y-43935714D02*
X62514285Y-44135714D01*
X62228571Y-44278571D02*
X62828571Y-44278571D01*
X62828571Y-44050000D01*
X62800000Y-43992857D01*
X62771428Y-43964285D01*
X62714285Y-43935714D01*
X62628571Y-43935714D01*
X62571428Y-43964285D01*
X62542857Y-43992857D01*
X62514285Y-44050000D01*
X62514285Y-44278571D01*
X62457142Y-43678571D02*
X62457142Y-43221428D01*
X35228571Y-43935714D02*
X35514285Y-44135714D01*
X35228571Y-44278571D02*
X35828571Y-44278571D01*
X35828571Y-44050000D01*
X35800000Y-43992857D01*
X35771428Y-43964285D01*
X35714285Y-43935714D01*
X35628571Y-43935714D01*
X35571428Y-43964285D01*
X35542857Y-43992857D01*
X35514285Y-44050000D01*
X35514285Y-44278571D01*
X35457142Y-43678571D02*
X35457142Y-43221428D01*
X8228571Y-43935714D02*
X8514285Y-44135714D01*
X8228571Y-44278571D02*
X8828571Y-44278571D01*
X8828571Y-44050000D01*
X8800000Y-43992857D01*
X8771428Y-43964285D01*
X8714285Y-43935714D01*
X8628571Y-43935714D01*
X8571428Y-43964285D01*
X8542857Y-43992857D01*
X8514285Y-44050000D01*
X8514285Y-44278571D01*
X8457142Y-43678571D02*
X8457142Y-43221428D01*
X62228571Y-31435714D02*
X62514285Y-31635714D01*
X62228571Y-31778571D02*
X62828571Y-31778571D01*
X62828571Y-31550000D01*
X62800000Y-31492857D01*
X62771428Y-31464285D01*
X62714285Y-31435714D01*
X62628571Y-31435714D01*
X62571428Y-31464285D01*
X62542857Y-31492857D01*
X62514285Y-31550000D01*
X62514285Y-31778571D01*
X62457142Y-31178571D02*
X62457142Y-30721428D01*
X35228571Y-31435714D02*
X35514285Y-31635714D01*
X35228571Y-31778571D02*
X35828571Y-31778571D01*
X35828571Y-31550000D01*
X35800000Y-31492857D01*
X35771428Y-31464285D01*
X35714285Y-31435714D01*
X35628571Y-31435714D01*
X35571428Y-31464285D01*
X35542857Y-31492857D01*
X35514285Y-31550000D01*
X35514285Y-31778571D01*
X35457142Y-31178571D02*
X35457142Y-30721428D01*
X8228571Y-31435714D02*
X8514285Y-31635714D01*
X8228571Y-31778571D02*
X8828571Y-31778571D01*
X8828571Y-31550000D01*
X8800000Y-31492857D01*
X8771428Y-31464285D01*
X8714285Y-31435714D01*
X8628571Y-31435714D01*
X8571428Y-31464285D01*
X8542857Y-31492857D01*
X8514285Y-31550000D01*
X8514285Y-31778571D01*
X8457142Y-31178571D02*
X8457142Y-30721428D01*
X62228571Y-18935714D02*
X62514285Y-19135714D01*
X62228571Y-19278571D02*
X62828571Y-19278571D01*
X62828571Y-19050000D01*
X62800000Y-18992857D01*
X62771428Y-18964285D01*
X62714285Y-18935714D01*
X62628571Y-18935714D01*
X62571428Y-18964285D01*
X62542857Y-18992857D01*
X62514285Y-19050000D01*
X62514285Y-19278571D01*
X62457142Y-18678571D02*
X62457142Y-18221428D01*
X35228571Y-18935714D02*
X35514285Y-19135714D01*
X35228571Y-19278571D02*
X35828571Y-19278571D01*
X35828571Y-19050000D01*
X35800000Y-18992857D01*
X35771428Y-18964285D01*
X35714285Y-18935714D01*
X35628571Y-18935714D01*
X35571428Y-18964285D01*
X35542857Y-18992857D01*
X35514285Y-19050000D01*
X35514285Y-19278571D01*
X35457142Y-18678571D02*
X35457142Y-18221428D01*
X8228571Y-18935714D02*
X8514285Y-19135714D01*
X8228571Y-19278571D02*
X8828571Y-19278571D01*
X8828571Y-19050000D01*
X8800000Y-18992857D01*
X8771428Y-18964285D01*
X8714285Y-18935714D01*
X8628571Y-18935714D01*
X8571428Y-18964285D01*
X8542857Y-18992857D01*
X8514285Y-19050000D01*
X8514285Y-19278571D01*
X8457142Y-18678571D02*
X8457142Y-18221428D01*
X62228571Y-6435714D02*
X62514285Y-6635714D01*
X62228571Y-6778571D02*
X62828571Y-6778571D01*
X62828571Y-6550000D01*
X62800000Y-6492857D01*
X62771428Y-6464285D01*
X62714285Y-6435714D01*
X62628571Y-6435714D01*
X62571428Y-6464285D01*
X62542857Y-6492857D01*
X62514285Y-6550000D01*
X62514285Y-6778571D01*
X62457142Y-6178571D02*
X62457142Y-5721428D01*
X35228571Y-6435714D02*
X35514285Y-6635714D01*
X35228571Y-6778571D02*
X35828571Y-6778571D01*
X35828571Y-6550000D01*
X35800000Y-6492857D01*
X35771428Y-6464285D01*
X35714285Y-6435714D01*
X35628571Y-6435714D01*
X35571428Y-6464285D01*
X35542857Y-6492857D01*
X35514285Y-6550000D01*
X35514285Y-6778571D01*
X35457142Y-6178571D02*
X35457142Y-5721428D01*
X62228571Y-91435714D02*
X62514285Y-91635714D01*
X62228571Y-91778571D02*
X62828571Y-91778571D01*
X62828571Y-91550000D01*
X62800000Y-91492857D01*
X62771428Y-91464285D01*
X62714285Y-91435714D01*
X62628571Y-91435714D01*
X62571428Y-91464285D01*
X62542857Y-91492857D01*
X62514285Y-91550000D01*
X62514285Y-91778571D01*
X62457142Y-91178571D02*
X62457142Y-90721428D01*
X62228571Y-90950000D02*
X62685714Y-90950000D01*
X35228571Y-91435714D02*
X35514285Y-91635714D01*
X35228571Y-91778571D02*
X35828571Y-91778571D01*
X35828571Y-91550000D01*
X35800000Y-91492857D01*
X35771428Y-91464285D01*
X35714285Y-91435714D01*
X35628571Y-91435714D01*
X35571428Y-91464285D01*
X35542857Y-91492857D01*
X35514285Y-91550000D01*
X35514285Y-91778571D01*
X35457142Y-91178571D02*
X35457142Y-90721428D01*
X35228571Y-90950000D02*
X35685714Y-90950000D01*
X8228571Y-91435714D02*
X8514285Y-91635714D01*
X8228571Y-91778571D02*
X8828571Y-91778571D01*
X8828571Y-91550000D01*
X8800000Y-91492857D01*
X8771428Y-91464285D01*
X8714285Y-91435714D01*
X8628571Y-91435714D01*
X8571428Y-91464285D01*
X8542857Y-91492857D01*
X8514285Y-91550000D01*
X8514285Y-91778571D01*
X8457142Y-91178571D02*
X8457142Y-90721428D01*
X8228571Y-90950000D02*
X8685714Y-90950000D01*
X62228571Y-78935714D02*
X62514285Y-79135714D01*
X62228571Y-79278571D02*
X62828571Y-79278571D01*
X62828571Y-79050000D01*
X62800000Y-78992857D01*
X62771428Y-78964285D01*
X62714285Y-78935714D01*
X62628571Y-78935714D01*
X62571428Y-78964285D01*
X62542857Y-78992857D01*
X62514285Y-79050000D01*
X62514285Y-79278571D01*
X62457142Y-78678571D02*
X62457142Y-78221428D01*
X62228571Y-78450000D02*
X62685714Y-78450000D01*
X35228571Y-78935714D02*
X35514285Y-79135714D01*
X35228571Y-79278571D02*
X35828571Y-79278571D01*
X35828571Y-79050000D01*
X35800000Y-78992857D01*
X35771428Y-78964285D01*
X35714285Y-78935714D01*
X35628571Y-78935714D01*
X35571428Y-78964285D01*
X35542857Y-78992857D01*
X35514285Y-79050000D01*
X35514285Y-79278571D01*
X35457142Y-78678571D02*
X35457142Y-78221428D01*
X35228571Y-78450000D02*
X35685714Y-78450000D01*
X8228571Y-78935714D02*
X8514285Y-79135714D01*
X8228571Y-79278571D02*
X8828571Y-79278571D01*
X8828571Y-79050000D01*
X8800000Y-78992857D01*
X8771428Y-78964285D01*
X8714285Y-78935714D01*
X8628571Y-78935714D01*
X8571428Y-78964285D01*
X8542857Y-78992857D01*
X8514285Y-79050000D01*
X8514285Y-79278571D01*
X8457142Y-78678571D02*
X8457142Y-78221428D01*
X8228571Y-78450000D02*
X8685714Y-78450000D01*
X62228571Y-66435714D02*
X62514285Y-66635714D01*
X62228571Y-66778571D02*
X62828571Y-66778571D01*
X62828571Y-66550000D01*
X62800000Y-66492857D01*
X62771428Y-66464285D01*
X62714285Y-66435714D01*
X62628571Y-66435714D01*
X62571428Y-66464285D01*
X62542857Y-66492857D01*
X62514285Y-66550000D01*
X62514285Y-66778571D01*
X62457142Y-66178571D02*
X62457142Y-65721428D01*
X62228571Y-65950000D02*
X62685714Y-65950000D01*
X35228571Y-66435714D02*
X35514285Y-66635714D01*
X35228571Y-66778571D02*
X35828571Y-66778571D01*
X35828571Y-66550000D01*
X35800000Y-66492857D01*
X35771428Y-66464285D01*
X35714285Y-66435714D01*
X35628571Y-66435714D01*
X35571428Y-66464285D01*
X35542857Y-66492857D01*
X35514285Y-66550000D01*
X35514285Y-66778571D01*
X35457142Y-66178571D02*
X35457142Y-65721428D01*
X35228571Y-65950000D02*
X35685714Y-65950000D01*
X8228571Y-66435714D02*
X8514285Y-66635714D01*
X8228571Y-66778571D02*
X8828571Y-66778571D01*
X8828571Y-66550000D01*
X8800000Y-66492857D01*
X8771428Y-66464285D01*
X8714285Y-66435714D01*
X8628571Y-66435714D01*
X8571428Y-66464285D01*
X8542857Y-66492857D01*
X8514285Y-66550000D01*
X8514285Y-66778571D01*
X8457142Y-66178571D02*
X8457142Y-65721428D01*
X8228571Y-65950000D02*
X8685714Y-65950000D01*
X62228571Y-53935714D02*
X62514285Y-54135714D01*
X62228571Y-54278571D02*
X62828571Y-54278571D01*
X62828571Y-54050000D01*
X62800000Y-53992857D01*
X62771428Y-53964285D01*
X62714285Y-53935714D01*
X62628571Y-53935714D01*
X62571428Y-53964285D01*
X62542857Y-53992857D01*
X62514285Y-54050000D01*
X62514285Y-54278571D01*
X62457142Y-53678571D02*
X62457142Y-53221428D01*
X62228571Y-53450000D02*
X62685714Y-53450000D01*
X35228571Y-53935714D02*
X35514285Y-54135714D01*
X35228571Y-54278571D02*
X35828571Y-54278571D01*
X35828571Y-54050000D01*
X35800000Y-53992857D01*
X35771428Y-53964285D01*
X35714285Y-53935714D01*
X35628571Y-53935714D01*
X35571428Y-53964285D01*
X35542857Y-53992857D01*
X35514285Y-54050000D01*
X35514285Y-54278571D01*
X35457142Y-53678571D02*
X35457142Y-53221428D01*
X35228571Y-53450000D02*
X35685714Y-53450000D01*
X8228571Y-53935714D02*
X8514285Y-54135714D01*
X8228571Y-54278571D02*
X8828571Y-54278571D01*
X8828571Y-54050000D01*
X8800000Y-53992857D01*
X8771428Y-53964285D01*
X8714285Y-53935714D01*
X8628571Y-53935714D01*
X8571428Y-53964285D01*
X8542857Y-53992857D01*
X8514285Y-54050000D01*
X8514285Y-54278571D01*
X8457142Y-53678571D02*
X8457142Y-53221428D01*
X8228571Y-53450000D02*
X8685714Y-53450000D01*
X62228571Y-41435714D02*
X62514285Y-41635714D01*
X62228571Y-41778571D02*
X62828571Y-41778571D01*
X62828571Y-41550000D01*
X62800000Y-41492857D01*
X62771428Y-41464285D01*
X62714285Y-41435714D01*
X62628571Y-41435714D01*
X62571428Y-41464285D01*
X62542857Y-41492857D01*
X62514285Y-41550000D01*
X62514285Y-41778571D01*
X62457142Y-41178571D02*
X62457142Y-40721428D01*
X62228571Y-40950000D02*
X62685714Y-40950000D01*
X35228571Y-41435714D02*
X35514285Y-41635714D01*
X35228571Y-41778571D02*
X35828571Y-41778571D01*
X35828571Y-41550000D01*
X35800000Y-41492857D01*
X35771428Y-41464285D01*
X35714285Y-41435714D01*
X35628571Y-41435714D01*
X35571428Y-41464285D01*
X35542857Y-41492857D01*
X35514285Y-41550000D01*
X35514285Y-41778571D01*
X35457142Y-41178571D02*
X35457142Y-40721428D01*
X35228571Y-40950000D02*
X35685714Y-40950000D01*
X8228571Y-41435714D02*
X8514285Y-41635714D01*
X8228571Y-41778571D02*
X8828571Y-41778571D01*
X8828571Y-41550000D01*
X8800000Y-41492857D01*
X8771428Y-41464285D01*
X8714285Y-41435714D01*
X8628571Y-41435714D01*
X8571428Y-41464285D01*
X8542857Y-41492857D01*
X8514285Y-41550000D01*
X8514285Y-41778571D01*
X8457142Y-41178571D02*
X8457142Y-40721428D01*
X8228571Y-40950000D02*
X8685714Y-40950000D01*
X62228571Y-28935714D02*
X62514285Y-29135714D01*
X62228571Y-29278571D02*
X62828571Y-29278571D01*
X62828571Y-29050000D01*
X62800000Y-28992857D01*
X62771428Y-28964285D01*
X62714285Y-28935714D01*
X62628571Y-28935714D01*
X62571428Y-28964285D01*
X62542857Y-28992857D01*
X62514285Y-29050000D01*
X62514285Y-29278571D01*
X62457142Y-28678571D02*
X62457142Y-28221428D01*
X62228571Y-28450000D02*
X62685714Y-28450000D01*
X35228571Y-28935714D02*
X35514285Y-29135714D01*
X35228571Y-29278571D02*
X35828571Y-29278571D01*
X35828571Y-29050000D01*
X35800000Y-28992857D01*
X35771428Y-28964285D01*
X35714285Y-28935714D01*
X35628571Y-28935714D01*
X35571428Y-28964285D01*
X35542857Y-28992857D01*
X35514285Y-29050000D01*
X35514285Y-29278571D01*
X35457142Y-28678571D02*
X35457142Y-28221428D01*
X35228571Y-28450000D02*
X35685714Y-28450000D01*
X8228571Y-28935714D02*
X8514285Y-29135714D01*
X8228571Y-29278571D02*
X8828571Y-29278571D01*
X8828571Y-29050000D01*
X8800000Y-28992857D01*
X8771428Y-28964285D01*
X8714285Y-28935714D01*
X8628571Y-28935714D01*
X8571428Y-28964285D01*
X8542857Y-28992857D01*
X8514285Y-29050000D01*
X8514285Y-29278571D01*
X8457142Y-28678571D02*
X8457142Y-28221428D01*
X8228571Y-28450000D02*
X8685714Y-28450000D01*
X62228571Y-16435714D02*
X62514285Y-16635714D01*
X62228571Y-16778571D02*
X62828571Y-16778571D01*
X62828571Y-16550000D01*
X62800000Y-16492857D01*
X62771428Y-16464285D01*
X62714285Y-16435714D01*
X62628571Y-16435714D01*
X62571428Y-16464285D01*
X62542857Y-16492857D01*
X62514285Y-16550000D01*
X62514285Y-16778571D01*
X62457142Y-16178571D02*
X62457142Y-15721428D01*
X62228571Y-15950000D02*
X62685714Y-15950000D01*
X35228571Y-16435714D02*
X35514285Y-16635714D01*
X35228571Y-16778571D02*
X35828571Y-16778571D01*
X35828571Y-16550000D01*
X35800000Y-16492857D01*
X35771428Y-16464285D01*
X35714285Y-16435714D01*
X35628571Y-16435714D01*
X35571428Y-16464285D01*
X35542857Y-16492857D01*
X35514285Y-16550000D01*
X35514285Y-16778571D01*
X35457142Y-16178571D02*
X35457142Y-15721428D01*
X35228571Y-15950000D02*
X35685714Y-15950000D01*
X8228571Y-16435714D02*
X8514285Y-16635714D01*
X8228571Y-16778571D02*
X8828571Y-16778571D01*
X8828571Y-16550000D01*
X8800000Y-16492857D01*
X8771428Y-16464285D01*
X8714285Y-16435714D01*
X8628571Y-16435714D01*
X8571428Y-16464285D01*
X8542857Y-16492857D01*
X8514285Y-16550000D01*
X8514285Y-16778571D01*
X8457142Y-16178571D02*
X8457142Y-15721428D01*
X8228571Y-15950000D02*
X8685714Y-15950000D01*
X62228571Y-3935714D02*
X62514285Y-4135714D01*
X62228571Y-4278571D02*
X62828571Y-4278571D01*
X62828571Y-4050000D01*
X62800000Y-3992857D01*
X62771428Y-3964285D01*
X62714285Y-3935714D01*
X62628571Y-3935714D01*
X62571428Y-3964285D01*
X62542857Y-3992857D01*
X62514285Y-4050000D01*
X62514285Y-4278571D01*
X62457142Y-3678571D02*
X62457142Y-3221428D01*
X62228571Y-3450000D02*
X62685714Y-3450000D01*
X35228571Y-3935714D02*
X35514285Y-4135714D01*
X35228571Y-4278571D02*
X35828571Y-4278571D01*
X35828571Y-4050000D01*
X35800000Y-3992857D01*
X35771428Y-3964285D01*
X35714285Y-3935714D01*
X35628571Y-3935714D01*
X35571428Y-3964285D01*
X35542857Y-3992857D01*
X35514285Y-4050000D01*
X35514285Y-4278571D01*
X35457142Y-3678571D02*
X35457142Y-3221428D01*
X35228571Y-3450000D02*
X35685714Y-3450000D01*
X79771428Y-88178571D02*
X79171428Y-88178571D01*
X79600000Y-88378571D01*
X79171428Y-88578571D01*
X79771428Y-88578571D01*
X79542857Y-88864285D02*
X79542857Y-89321428D01*
X79771428Y-89092857D02*
X79314285Y-89092857D01*
X52771428Y-88178571D02*
X52171428Y-88178571D01*
X52600000Y-88378571D01*
X52171428Y-88578571D01*
X52771428Y-88578571D01*
X52542857Y-88864285D02*
X52542857Y-89321428D01*
X52771428Y-89092857D02*
X52314285Y-89092857D01*
X25771428Y-88178571D02*
X25171428Y-88178571D01*
X25600000Y-88378571D01*
X25171428Y-88578571D01*
X25771428Y-88578571D01*
X25542857Y-88864285D02*
X25542857Y-89321428D01*
X25771428Y-89092857D02*
X25314285Y-89092857D01*
X79771428Y-75678571D02*
X79171428Y-75678571D01*
X79600000Y-75878571D01*
X79171428Y-76078571D01*
X79771428Y-76078571D01*
X79542857Y-76364285D02*
X79542857Y-76821428D01*
X79771428Y-76592857D02*
X79314285Y-76592857D01*
X52771428Y-75678571D02*
X52171428Y-75678571D01*
X52600000Y-75878571D01*
X52171428Y-76078571D01*
X52771428Y-76078571D01*
X52542857Y-76364285D02*
X52542857Y-76821428D01*
X52771428Y-76592857D02*
X52314285Y-76592857D01*
X25771428Y-75678571D02*
X25171428Y-75678571D01*
X25600000Y-75878571D01*
X25171428Y-76078571D01*
X25771428Y-76078571D01*
X25542857Y-76364285D02*
X25542857Y-76821428D01*
X25771428Y-76592857D02*
X25314285Y-76592857D01*
X79771428Y-63178571D02*
X79171428Y-63178571D01*
X79600000Y-63378571D01*
X79171428Y-63578571D01*
X79771428Y-63578571D01*
X79542857Y-63864285D02*
X79542857Y-64321428D01*
X79771428Y-64092857D02*
X79314285Y-64092857D01*
X52771428Y-63178571D02*
X52171428Y-63178571D01*
X52600000Y-63378571D01*
X52171428Y-63578571D01*
X52771428Y-63578571D01*
X52542857Y-63864285D02*
X52542857Y-64321428D01*
X52771428Y-64092857D02*
X52314285Y-64092857D01*
X25771428Y-63178571D02*
X25171428Y-63178571D01*
X25600000Y-63378571D01*
X25171428Y-63578571D01*
X25771428Y-63578571D01*
X25542857Y-63864285D02*
X25542857Y-64321428D01*
X25771428Y-64092857D02*
X25314285Y-64092857D01*
X79771428Y-50678571D02*
X79171428Y-50678571D01*
X79600000Y-50878571D01*
X79171428Y-51078571D01*
X79771428Y-51078571D01*
X79542857Y-51364285D02*
X79542857Y-51821428D01*
X79771428Y-51592857D02*
X79314285Y-51592857D01*
X52771428Y-50678571D02*
X52171428Y-50678571D01*
X52600000Y-50878571D01*
X52171428Y-51078571D01*
X52771428Y-51078571D01*
X52542857Y-51364285D02*
X52542857Y-51821428D01*
X52771428Y-51592857D02*
X52314285Y-51592857D01*
X25771428Y-50678571D02*
X25171428Y-50678571D01*
X25600000Y-50878571D01*
X25171428Y-51078571D01*
X25771428Y-51078571D01*
X25542857Y-51364285D02*
X25542857Y-51821428D01*
X25771428Y-51592857D02*
X25314285Y-51592857D01*
X79771428Y-38178571D02*
X79171428Y-38178571D01*
X79600000Y-38378571D01*
X79171428Y-38578571D01*
X79771428Y-38578571D01*
X79542857Y-38864285D02*
X79542857Y-39321428D01*
X79771428Y-39092857D02*
X79314285Y-39092857D01*
X52771428Y-38178571D02*
X52171428Y-38178571D01*
X52600000Y-38378571D01*
X52171428Y-38578571D01*
X52771428Y-38578571D01*
X52542857Y-38864285D02*
X52542857Y-39321428D01*
X52771428Y-39092857D02*
X52314285Y-39092857D01*
X25771428Y-38178571D02*
X25171428Y-38178571D01*
X25600000Y-38378571D01*
X25171428Y-38578571D01*
X25771428Y-38578571D01*
X25542857Y-38864285D02*
X25542857Y-39321428D01*
X25771428Y-39092857D02*
X25314285Y-39092857D01*
X79771428Y-25678571D02*
X79171428Y-25678571D01*
X79600000Y-25878571D01*
X79171428Y-26078571D01*
X79771428Y-26078571D01*
X79542857Y-26364285D02*
X79542857Y-26821428D01*
X79771428Y-26592857D02*
X79314285Y-26592857D01*
X52771428Y-25678571D02*
X52171428Y-25678571D01*
X52600000Y-25878571D01*
X52171428Y-26078571D01*
X52771428Y-26078571D01*
X52542857Y-26364285D02*
X52542857Y-26821428D01*
X52771428Y-26592857D02*
X52314285Y-26592857D01*
X25771428Y-25678571D02*
X25171428Y-25678571D01*
X25600000Y-25878571D01*
X25171428Y-26078571D01*
X25771428Y-26078571D01*
X25542857Y-26364285D02*
X25542857Y-26821428D01*
X25771428Y-26592857D02*
X25314285Y-26592857D01*
X79771428Y-13178571D02*
X79171428Y-13178571D01*
X79600000Y-13378571D01*
X79171428Y-13578571D01*
X79771428Y-13578571D01*
X79542857Y-13864285D02*
X79542857Y-14321428D01*
X79771428Y-14092857D02*
X79314285Y-14092857D01*
X52771428Y-13178571D02*
X52171428Y-13178571D01*
X52600000Y-13378571D01*
X52171428Y-13578571D01*
X52771428Y-13578571D01*
X52542857Y-13864285D02*
X52542857Y-14321428D01*
X52771428Y-14092857D02*
X52314285Y-14092857D01*
X25771428Y-13178571D02*
X25171428Y-13178571D01*
X25600000Y-13378571D01*
X25171428Y-13578571D01*
X25771428Y-13578571D01*
X25542857Y-13864285D02*
X25542857Y-14321428D01*
X25771428Y-14092857D02*
X25314285Y-14092857D01*
X79771428Y-678571D02*
X79171428Y-678571D01*
X79600000Y-878571D01*
X79171428Y-1078571D01*
X79771428Y-1078571D01*
X79542857Y-1364285D02*
X79542857Y-1821428D01*
X79771428Y-1592857D02*
X79314285Y-1592857D01*
X52771428Y-678571D02*
X52171428Y-678571D01*
X52600000Y-878571D01*
X52171428Y-1078571D01*
X52771428Y-1078571D01*
X52542857Y-1364285D02*
X52542857Y-1821428D01*
X52771428Y-1592857D02*
X52314285Y-1592857D01*
X21544714Y-8228571D02*
X21516142Y-8200000D01*
X21459000Y-8171428D01*
X21316142Y-8171428D01*
X21259000Y-8200000D01*
X21230428Y-8228571D01*
X21201857Y-8285714D01*
X21201857Y-8342857D01*
X21230428Y-8428571D01*
X21573285Y-8771428D01*
X21201857Y-8771428D01*
X20830428Y-8171428D02*
X20773285Y-8171428D01*
X20716142Y-8200000D01*
X20687571Y-8228571D01*
X20659000Y-8285714D01*
X20630428Y-8400000D01*
X20630428Y-8542857D01*
X20659000Y-8657142D01*
X20687571Y-8714285D01*
X20716142Y-8742857D01*
X20773285Y-8771428D01*
X20830428Y-8771428D01*
X20887571Y-8742857D01*
X20916142Y-8714285D01*
X20944714Y-8657142D01*
X20973285Y-8542857D01*
X20973285Y-8400000D01*
X20944714Y-8285714D01*
X20916142Y-8228571D01*
X20887571Y-8200000D01*
X20830428Y-8171428D01*
X20401857Y-8228571D02*
X20373285Y-8200000D01*
X20316142Y-8171428D01*
X20173285Y-8171428D01*
X20116142Y-8200000D01*
X20087571Y-8228571D01*
X20059000Y-8285714D01*
X20059000Y-8342857D01*
X20087571Y-8428571D01*
X20430428Y-8771428D01*
X20059000Y-8771428D01*
X19687571Y-8171428D02*
X19630428Y-8171428D01*
X19573285Y-8200000D01*
X19544714Y-8228571D01*
X19516142Y-8285714D01*
X19487571Y-8400000D01*
X19487571Y-8542857D01*
X19516142Y-8657142D01*
X19544714Y-8714285D01*
X19573285Y-8742857D01*
X19630428Y-8771428D01*
X19687571Y-8771428D01*
X19744714Y-8742857D01*
X19773285Y-8714285D01*
X19801857Y-8657142D01*
X19830428Y-8542857D01*
X19830428Y-8400000D01*
X19801857Y-8285714D01*
X19773285Y-8228571D01*
X19744714Y-8200000D01*
X19687571Y-8171428D01*
X19230428Y-8714285D02*
X19201857Y-8742857D01*
X19230428Y-8771428D01*
X19259000Y-8742857D01*
X19230428Y-8714285D01*
X19230428Y-8771428D01*
X18830428Y-8171428D02*
X18773285Y-8171428D01*
X18716142Y-8200000D01*
X18687571Y-8228571D01*
X18659000Y-8285714D01*
X18630428Y-8400000D01*
X18630428Y-8542857D01*
X18659000Y-8657142D01*
X18687571Y-8714285D01*
X18716142Y-8742857D01*
X18773285Y-8771428D01*
X18830428Y-8771428D01*
X18887571Y-8742857D01*
X18916142Y-8714285D01*
X18944714Y-8657142D01*
X18973285Y-8542857D01*
X18973285Y-8400000D01*
X18944714Y-8285714D01*
X18916142Y-8228571D01*
X18887571Y-8200000D01*
X18830428Y-8171428D01*
X18344714Y-8771428D02*
X18230428Y-8771428D01*
X18173285Y-8742857D01*
X18144714Y-8714285D01*
X18087571Y-8628571D01*
X18059000Y-8514285D01*
X18059000Y-8285714D01*
X18087571Y-8228571D01*
X18116142Y-8200000D01*
X18173285Y-8171428D01*
X18287571Y-8171428D01*
X18344714Y-8200000D01*
X18373285Y-8228571D01*
X18401857Y-8285714D01*
X18401857Y-8428571D01*
X18373285Y-8485714D01*
X18344714Y-8514285D01*
X18287571Y-8542857D01*
X18173285Y-8542857D01*
X18116142Y-8514285D01*
X18087571Y-8485714D01*
X18059000Y-8428571D01*
X21492333Y-7816666D02*
X21492333Y-7116666D01*
X21259000Y-7616666D01*
X21025666Y-7116666D01*
X21025666Y-7816666D01*
X20559000Y-7116666D02*
X20492333Y-7116666D01*
X20425666Y-7150000D01*
X20392333Y-7183333D01*
X20359000Y-7250000D01*
X20325666Y-7383333D01*
X20325666Y-7550000D01*
X20359000Y-7683333D01*
X20392333Y-7750000D01*
X20425666Y-7783333D01*
X20492333Y-7816666D01*
X20559000Y-7816666D01*
X20625666Y-7783333D01*
X20659000Y-7750000D01*
X20692333Y-7683333D01*
X20725666Y-7550000D01*
X20725666Y-7383333D01*
X20692333Y-7250000D01*
X20659000Y-7183333D01*
X20625666Y-7150000D01*
X20559000Y-7116666D01*
X19659000Y-7816666D02*
X20059000Y-7816666D01*
X19859000Y-7816666D02*
X19859000Y-7116666D01*
X19925666Y-7216666D01*
X19992333Y-7283333D01*
X20059000Y-7316666D01*
X19125666Y-7450000D02*
X19359000Y-7450000D01*
X19359000Y-7816666D02*
X19359000Y-7116666D01*
X19025666Y-7116666D01*
X18625666Y-7116666D02*
X18559000Y-7116666D01*
X18492333Y-7150000D01*
X18459000Y-7183333D01*
X18425666Y-7250000D01*
X18392333Y-7383333D01*
X18392333Y-7550000D01*
X18425666Y-7683333D01*
X18459000Y-7750000D01*
X18492333Y-7783333D01*
X18559000Y-7816666D01*
X18625666Y-7816666D01*
X18692333Y-7783333D01*
X18725666Y-7750000D01*
X18759000Y-7683333D01*
X18792333Y-7550000D01*
X18792333Y-7383333D01*
X18759000Y-7250000D01*
X18725666Y-7183333D01*
X18692333Y-7150000D01*
X18625666Y-7116666D01*
X17159000Y-7816666D02*
X17392333Y-7483333D01*
X17559000Y-7816666D02*
X17559000Y-7116666D01*
X17292333Y-7116666D01*
X17225666Y-7150000D01*
X17192333Y-7183333D01*
X17159000Y-7250000D01*
X17159000Y-7350000D01*
X17192333Y-7416666D01*
X17225666Y-7450000D01*
X17292333Y-7483333D01*
X17559000Y-7483333D01*
X16592333Y-7783333D02*
X16659000Y-7816666D01*
X16792333Y-7816666D01*
X16859000Y-7783333D01*
X16892333Y-7716666D01*
X16892333Y-7450000D01*
X16859000Y-7383333D01*
X16792333Y-7350000D01*
X16659000Y-7350000D01*
X16592333Y-7383333D01*
X16559000Y-7450000D01*
X16559000Y-7516666D01*
X16892333Y-7583333D01*
X16325666Y-7350000D02*
X16159000Y-7816666D01*
X15992333Y-7350000D01*
X15725666Y-7750000D02*
X15692333Y-7783333D01*
X15725666Y-7816666D01*
X15759000Y-7783333D01*
X15725666Y-7750000D01*
X15725666Y-7816666D01*
X15025666Y-7816666D02*
X15425666Y-7816666D01*
X15225666Y-7816666D02*
X15225666Y-7116666D01*
X15292333Y-7216666D01*
X15359000Y-7283333D01*
X15425666Y-7316666D01*
X25771428Y-8178571D02*
X25171428Y-8178571D01*
X25600000Y-8378571D01*
X25171428Y-8578571D01*
X25771428Y-8578571D01*
X25542857Y-8864285D02*
X25542857Y-9321428D01*
X25771428Y-678571D02*
X25171428Y-678571D01*
X25600000Y-878571D01*
X25171428Y-1078571D01*
X25771428Y-1078571D01*
X25542857Y-1364285D02*
X25542857Y-1821428D01*
X25771428Y-1592857D02*
X25314285Y-1592857D01*
X8457142Y-9807142D02*
X8457142Y-9350000D01*
X8228571Y-9578571D02*
X8685714Y-9578571D01*
X8228571Y-8750000D02*
X8228571Y-9092857D01*
X8228571Y-8921428D02*
X8828571Y-8921428D01*
X8742857Y-8978571D01*
X8685714Y-9035714D01*
X8657142Y-9092857D01*
X8771428Y-8521428D02*
X8800000Y-8492857D01*
X8828571Y-8435714D01*
X8828571Y-8292857D01*
X8800000Y-8235714D01*
X8771428Y-8207142D01*
X8714285Y-8178571D01*
X8657142Y-8178571D01*
X8571428Y-8207142D01*
X8228571Y-8550000D01*
X8228571Y-8178571D01*
X8828571Y-8007142D02*
X8228571Y-7807142D01*
X8828571Y-7607142D01*
X8228571Y-3935714D02*
X8514285Y-4135714D01*
X8228571Y-4278571D02*
X8828571Y-4278571D01*
X8828571Y-4050000D01*
X8800000Y-3992857D01*
X8771428Y-3964285D01*
X8714285Y-3935714D01*
X8628571Y-3935714D01*
X8571428Y-3964285D01*
X8542857Y-3992857D01*
X8514285Y-4050000D01*
X8514285Y-4278571D01*
X8457142Y-3678571D02*
X8457142Y-3221428D01*
X8228571Y-3450000D02*
X8685714Y-3450000D01*
X8228571Y-6435714D02*
X8514285Y-6635714D01*
X8228571Y-6778571D02*
X8828571Y-6778571D01*
X8828571Y-6550000D01*
X8800000Y-6492857D01*
X8771428Y-6464285D01*
X8714285Y-6435714D01*
X8628571Y-6435714D01*
X8571428Y-6464285D01*
X8542857Y-6492857D01*
X8514285Y-6550000D01*
X8514285Y-6778571D01*
X8457142Y-6178571D02*
X8457142Y-5721428D01*
X8650000Y-1707142D02*
X8678571Y-1764285D01*
X8678571Y-1850000D01*
X8650000Y-1935714D01*
X8592857Y-1992857D01*
X8535714Y-2021428D01*
X8421428Y-2050000D01*
X8335714Y-2050000D01*
X8221428Y-2021428D01*
X8164285Y-1992857D01*
X8107142Y-1935714D01*
X8078571Y-1850000D01*
X8078571Y-1792857D01*
X8107142Y-1707142D01*
X8135714Y-1678571D01*
X8335714Y-1678571D01*
X8335714Y-1792857D01*
X8078571Y-1421428D02*
X8678571Y-1421428D01*
X8078571Y-1078571D01*
X8678571Y-1078571D01*
X8078571Y-792857D02*
X8678571Y-792857D01*
X8678571Y-650000D01*
X8650000Y-564285D01*
X8592857Y-507142D01*
X8535714Y-478571D01*
X8421428Y-450000D01*
X8335714Y-450000D01*
X8221428Y-478571D01*
X8164285Y-507142D01*
X8107142Y-564285D01*
X8078571Y-650000D01*
X8078571Y-792857D01*
%LPC*%
D11*
%TO.C,P3*%
X80750000Y-88750000D03*
%TD*%
%TO.C,P3*%
X53750000Y-88750000D03*
%TD*%
%TO.C,P3*%
X26750000Y-88750000D03*
%TD*%
%TO.C,P3*%
X80750000Y-76250000D03*
%TD*%
%TO.C,P3*%
X53750000Y-76250000D03*
%TD*%
%TO.C,P3*%
X26750000Y-76250000D03*
%TD*%
%TO.C,P3*%
X80750000Y-63750000D03*
%TD*%
%TO.C,P3*%
X53750000Y-63750000D03*
%TD*%
%TO.C,P3*%
X26750000Y-63750000D03*
%TD*%
%TO.C,P3*%
X80750000Y-51250000D03*
%TD*%
%TO.C,P3*%
X53750000Y-51250000D03*
%TD*%
%TO.C,P3*%
X26750000Y-51250000D03*
%TD*%
%TO.C,P3*%
X80750000Y-38750000D03*
%TD*%
%TO.C,P3*%
X53750000Y-38750000D03*
%TD*%
%TO.C,P3*%
X26750000Y-38750000D03*
%TD*%
%TO.C,P3*%
X80750000Y-26250000D03*
%TD*%
%TO.C,P3*%
X53750000Y-26250000D03*
%TD*%
%TO.C,P3*%
X26750000Y-26250000D03*
%TD*%
%TO.C,P3*%
X80750000Y-13750000D03*
%TD*%
%TO.C,P3*%
X53750000Y-13750000D03*
%TD*%
%TO.C,P3*%
X26750000Y-13750000D03*
%TD*%
%TO.C,P3*%
X80750000Y-1250000D03*
%TD*%
%TO.C,P3*%
X53750000Y-1250000D03*
%TD*%
%TO.C,P6*%
X61250000Y-88750000D03*
%TD*%
%TO.C,P6*%
X34250000Y-88750000D03*
%TD*%
%TO.C,P6*%
X7250000Y-88750000D03*
%TD*%
%TO.C,P6*%
X61250000Y-76250000D03*
%TD*%
%TO.C,P6*%
X34250000Y-76250000D03*
%TD*%
%TO.C,P6*%
X7250000Y-76250000D03*
%TD*%
%TO.C,P6*%
X61250000Y-63750000D03*
%TD*%
%TO.C,P6*%
X34250000Y-63750000D03*
%TD*%
%TO.C,P6*%
X7250000Y-63750000D03*
%TD*%
%TO.C,P6*%
X61250000Y-51250000D03*
%TD*%
%TO.C,P6*%
X34250000Y-51250000D03*
%TD*%
%TO.C,P6*%
X7250000Y-51250000D03*
%TD*%
%TO.C,P6*%
X61250000Y-38750000D03*
%TD*%
%TO.C,P6*%
X34250000Y-38750000D03*
%TD*%
%TO.C,P6*%
X7250000Y-38750000D03*
%TD*%
%TO.C,P6*%
X61250000Y-26250000D03*
%TD*%
%TO.C,P6*%
X34250000Y-26250000D03*
%TD*%
%TO.C,P6*%
X7250000Y-26250000D03*
%TD*%
%TO.C,P6*%
X61250000Y-13750000D03*
%TD*%
%TO.C,P6*%
X34250000Y-13750000D03*
%TD*%
%TO.C,P6*%
X7250000Y-13750000D03*
%TD*%
%TO.C,P6*%
X61250000Y-1250000D03*
%TD*%
%TO.C,P6*%
X34250000Y-1250000D03*
%TD*%
%TO.C,P4*%
X80750000Y-96250000D03*
%TD*%
%TO.C,P4*%
X53750000Y-96250000D03*
%TD*%
%TO.C,P4*%
X26750000Y-96250000D03*
%TD*%
%TO.C,P4*%
X80750000Y-83750000D03*
%TD*%
%TO.C,P4*%
X53750000Y-83750000D03*
%TD*%
%TO.C,P4*%
X26750000Y-83750000D03*
%TD*%
%TO.C,P4*%
X80750000Y-71250000D03*
%TD*%
%TO.C,P4*%
X53750000Y-71250000D03*
%TD*%
%TO.C,P4*%
X26750000Y-71250000D03*
%TD*%
%TO.C,P4*%
X80750000Y-58750000D03*
%TD*%
%TO.C,P4*%
X53750000Y-58750000D03*
%TD*%
%TO.C,P4*%
X26750000Y-58750000D03*
%TD*%
%TO.C,P4*%
X80750000Y-46250000D03*
%TD*%
%TO.C,P4*%
X53750000Y-46250000D03*
%TD*%
%TO.C,P4*%
X26750000Y-46250000D03*
%TD*%
%TO.C,P4*%
X80750000Y-33750000D03*
%TD*%
%TO.C,P4*%
X53750000Y-33750000D03*
%TD*%
%TO.C,P4*%
X26750000Y-33750000D03*
%TD*%
%TO.C,P4*%
X80750000Y-21250000D03*
%TD*%
%TO.C,P4*%
X53750000Y-21250000D03*
%TD*%
%TO.C,P4*%
X26750000Y-21250000D03*
%TD*%
%TO.C,P4*%
X80750000Y-8750000D03*
%TD*%
%TO.C,P4*%
X53750000Y-8750000D03*
%TD*%
%TO.C,P5*%
X61250000Y-96250000D03*
%TD*%
%TO.C,P5*%
X34250000Y-96250000D03*
%TD*%
%TO.C,P5*%
X7250000Y-96250000D03*
%TD*%
%TO.C,P5*%
X61250000Y-83750000D03*
%TD*%
%TO.C,P5*%
X34250000Y-83750000D03*
%TD*%
%TO.C,P5*%
X7250000Y-83750000D03*
%TD*%
%TO.C,P5*%
X61250000Y-71250000D03*
%TD*%
%TO.C,P5*%
X34250000Y-71250000D03*
%TD*%
%TO.C,P5*%
X7250000Y-71250000D03*
%TD*%
%TO.C,P5*%
X61250000Y-58750000D03*
%TD*%
%TO.C,P5*%
X34250000Y-58750000D03*
%TD*%
%TO.C,P5*%
X7250000Y-58750000D03*
%TD*%
%TO.C,P5*%
X61250000Y-46250000D03*
%TD*%
%TO.C,P5*%
X34250000Y-46250000D03*
%TD*%
%TO.C,P5*%
X7250000Y-46250000D03*
%TD*%
%TO.C,P5*%
X61250000Y-33750000D03*
%TD*%
%TO.C,P5*%
X34250000Y-33750000D03*
%TD*%
%TO.C,P5*%
X7250000Y-33750000D03*
%TD*%
%TO.C,P5*%
X61250000Y-21250000D03*
%TD*%
%TO.C,P5*%
X34250000Y-21250000D03*
%TD*%
%TO.C,P5*%
X7250000Y-21250000D03*
%TD*%
%TO.C,P5*%
X61250000Y-8750000D03*
%TD*%
%TO.C,P5*%
X34250000Y-8750000D03*
%TD*%
%TO.C,P1*%
X61250000Y-91250000D03*
%TD*%
%TO.C,P1*%
X34250000Y-91250000D03*
%TD*%
%TO.C,P1*%
X7250000Y-91250000D03*
%TD*%
%TO.C,P1*%
X61250000Y-78750000D03*
%TD*%
%TO.C,P1*%
X34250000Y-78750000D03*
%TD*%
%TO.C,P1*%
X7250000Y-78750000D03*
%TD*%
%TO.C,P1*%
X61250000Y-66250000D03*
%TD*%
%TO.C,P1*%
X34250000Y-66250000D03*
%TD*%
%TO.C,P1*%
X7250000Y-66250000D03*
%TD*%
%TO.C,P1*%
X61250000Y-53750000D03*
%TD*%
%TO.C,P1*%
X34250000Y-53750000D03*
%TD*%
%TO.C,P1*%
X7250000Y-53750000D03*
%TD*%
%TO.C,P1*%
X61250000Y-41250000D03*
%TD*%
%TO.C,P1*%
X34250000Y-41250000D03*
%TD*%
%TO.C,P1*%
X7250000Y-41250000D03*
%TD*%
%TO.C,P1*%
X61250000Y-28750000D03*
%TD*%
%TO.C,P1*%
X34250000Y-28750000D03*
%TD*%
%TO.C,P1*%
X7250000Y-28750000D03*
%TD*%
%TO.C,P1*%
X61250000Y-16250000D03*
%TD*%
%TO.C,P1*%
X34250000Y-16250000D03*
%TD*%
%TO.C,P1*%
X7250000Y-16250000D03*
%TD*%
%TO.C,P1*%
X61250000Y-3750000D03*
%TD*%
%TO.C,P1*%
X34250000Y-3750000D03*
%TD*%
D12*
%TO.C,P9*%
X63325000Y-88250000D03*
X64595000Y-88250000D03*
X65865000Y-88250000D03*
X67135000Y-88250000D03*
X68405000Y-88250000D03*
X69675000Y-88250000D03*
%TD*%
%TO.C,P9*%
X36325000Y-88250000D03*
X37595000Y-88250000D03*
X38865000Y-88250000D03*
X40135000Y-88250000D03*
X41405000Y-88250000D03*
X42675000Y-88250000D03*
%TD*%
%TO.C,P9*%
X9325000Y-88250000D03*
X10595000Y-88250000D03*
X11865000Y-88250000D03*
X13135000Y-88250000D03*
X14405000Y-88250000D03*
X15675000Y-88250000D03*
%TD*%
%TO.C,P9*%
X63325000Y-75750000D03*
X64595000Y-75750000D03*
X65865000Y-75750000D03*
X67135000Y-75750000D03*
X68405000Y-75750000D03*
X69675000Y-75750000D03*
%TD*%
%TO.C,P9*%
X36325000Y-75750000D03*
X37595000Y-75750000D03*
X38865000Y-75750000D03*
X40135000Y-75750000D03*
X41405000Y-75750000D03*
X42675000Y-75750000D03*
%TD*%
%TO.C,P9*%
X9325000Y-75750000D03*
X10595000Y-75750000D03*
X11865000Y-75750000D03*
X13135000Y-75750000D03*
X14405000Y-75750000D03*
X15675000Y-75750000D03*
%TD*%
%TO.C,P9*%
X63325000Y-63250000D03*
X64595000Y-63250000D03*
X65865000Y-63250000D03*
X67135000Y-63250000D03*
X68405000Y-63250000D03*
X69675000Y-63250000D03*
%TD*%
%TO.C,P9*%
X36325000Y-63250000D03*
X37595000Y-63250000D03*
X38865000Y-63250000D03*
X40135000Y-63250000D03*
X41405000Y-63250000D03*
X42675000Y-63250000D03*
%TD*%
%TO.C,P9*%
X9325000Y-63250000D03*
X10595000Y-63250000D03*
X11865000Y-63250000D03*
X13135000Y-63250000D03*
X14405000Y-63250000D03*
X15675000Y-63250000D03*
%TD*%
%TO.C,P9*%
X63325000Y-50750000D03*
X64595000Y-50750000D03*
X65865000Y-50750000D03*
X67135000Y-50750000D03*
X68405000Y-50750000D03*
X69675000Y-50750000D03*
%TD*%
%TO.C,P9*%
X36325000Y-50750000D03*
X37595000Y-50750000D03*
X38865000Y-50750000D03*
X40135000Y-50750000D03*
X41405000Y-50750000D03*
X42675000Y-50750000D03*
%TD*%
%TO.C,P9*%
X9325000Y-50750000D03*
X10595000Y-50750000D03*
X11865000Y-50750000D03*
X13135000Y-50750000D03*
X14405000Y-50750000D03*
X15675000Y-50750000D03*
%TD*%
%TO.C,P9*%
X63325000Y-38250000D03*
X64595000Y-38250000D03*
X65865000Y-38250000D03*
X67135000Y-38250000D03*
X68405000Y-38250000D03*
X69675000Y-38250000D03*
%TD*%
%TO.C,P9*%
X36325000Y-38250000D03*
X37595000Y-38250000D03*
X38865000Y-38250000D03*
X40135000Y-38250000D03*
X41405000Y-38250000D03*
X42675000Y-38250000D03*
%TD*%
%TO.C,P9*%
X9325000Y-38250000D03*
X10595000Y-38250000D03*
X11865000Y-38250000D03*
X13135000Y-38250000D03*
X14405000Y-38250000D03*
X15675000Y-38250000D03*
%TD*%
%TO.C,P9*%
X63325000Y-25750000D03*
X64595000Y-25750000D03*
X65865000Y-25750000D03*
X67135000Y-25750000D03*
X68405000Y-25750000D03*
X69675000Y-25750000D03*
%TD*%
%TO.C,P9*%
X36325000Y-25750000D03*
X37595000Y-25750000D03*
X38865000Y-25750000D03*
X40135000Y-25750000D03*
X41405000Y-25750000D03*
X42675000Y-25750000D03*
%TD*%
%TO.C,P9*%
X9325000Y-25750000D03*
X10595000Y-25750000D03*
X11865000Y-25750000D03*
X13135000Y-25750000D03*
X14405000Y-25750000D03*
X15675000Y-25750000D03*
%TD*%
%TO.C,P9*%
X63325000Y-13250000D03*
X64595000Y-13250000D03*
X65865000Y-13250000D03*
X67135000Y-13250000D03*
X68405000Y-13250000D03*
X69675000Y-13250000D03*
%TD*%
%TO.C,P9*%
X36325000Y-13250000D03*
X37595000Y-13250000D03*
X38865000Y-13250000D03*
X40135000Y-13250000D03*
X41405000Y-13250000D03*
X42675000Y-13250000D03*
%TD*%
%TO.C,P9*%
X9325000Y-13250000D03*
X10595000Y-13250000D03*
X11865000Y-13250000D03*
X13135000Y-13250000D03*
X14405000Y-13250000D03*
X15675000Y-13250000D03*
%TD*%
%TO.C,P9*%
X63325000Y-750000D03*
X64595000Y-750000D03*
X65865000Y-750000D03*
X67135000Y-750000D03*
X68405000Y-750000D03*
X69675000Y-750000D03*
%TD*%
%TO.C,P9*%
X36325000Y-750000D03*
X37595000Y-750000D03*
X38865000Y-750000D03*
X40135000Y-750000D03*
X41405000Y-750000D03*
X42675000Y-750000D03*
%TD*%
D11*
%TO.C,P2*%
X61250000Y-93750000D03*
%TD*%
%TO.C,P2*%
X34250000Y-93750000D03*
%TD*%
%TO.C,P2*%
X7250000Y-93750000D03*
%TD*%
%TO.C,P2*%
X61250000Y-81250000D03*
%TD*%
%TO.C,P2*%
X34250000Y-81250000D03*
%TD*%
%TO.C,P2*%
X7250000Y-81250000D03*
%TD*%
%TO.C,P2*%
X61250000Y-68750000D03*
%TD*%
%TO.C,P2*%
X34250000Y-68750000D03*
%TD*%
%TO.C,P2*%
X7250000Y-68750000D03*
%TD*%
%TO.C,P2*%
X61250000Y-56250000D03*
%TD*%
%TO.C,P2*%
X34250000Y-56250000D03*
%TD*%
%TO.C,P2*%
X7250000Y-56250000D03*
%TD*%
%TO.C,P2*%
X61250000Y-43750000D03*
%TD*%
%TO.C,P2*%
X34250000Y-43750000D03*
%TD*%
%TO.C,P2*%
X7250000Y-43750000D03*
%TD*%
%TO.C,P2*%
X61250000Y-31250000D03*
%TD*%
%TO.C,P2*%
X34250000Y-31250000D03*
%TD*%
%TO.C,P2*%
X7250000Y-31250000D03*
%TD*%
%TO.C,P2*%
X61250000Y-18750000D03*
%TD*%
%TO.C,P2*%
X34250000Y-18750000D03*
%TD*%
%TO.C,P2*%
X7250000Y-18750000D03*
%TD*%
%TO.C,P2*%
X61250000Y-6250000D03*
%TD*%
%TO.C,P2*%
X34250000Y-6250000D03*
%TD*%
%TO.C,P1*%
X7250000Y-3750000D03*
%TD*%
%TO.C,P2*%
X7250000Y-6250000D03*
%TD*%
%TO.C,P3*%
X26750000Y-1250000D03*
%TD*%
%TO.C,P4*%
X26750000Y-8750000D03*
%TD*%
%TO.C,P5*%
X7250000Y-8750000D03*
%TD*%
%TO.C,P6*%
X7250000Y-1250000D03*
%TD*%
D12*
%TO.C,P9*%
X15675000Y-750000D03*
X14405000Y-750000D03*
X13135000Y-750000D03*
X11865000Y-750000D03*
X10595000Y-750000D03*
X9325000Y-750000D03*
%TD*%
M02*
