%TF.GenerationSoftware,KiCad,Pcbnew,(5.1.6)-1*%
%TF.CreationDate,2020-09-22T23:51:07+09:00*%
%TF.ProjectId,motordecoder_simple2_rev2_panelize,6d6f746f-7264-4656-936f-6465725f7369,rev?*%
%TF.SameCoordinates,PX459e440PY38444c0*%
%TF.FileFunction,Soldermask,Top*%
%TF.FilePolarity,Negative*%
%FSLAX46Y46*%
G04 Gerber Fmt 4.6, Leading zero omitted, Abs format (unit mm)*
G04 Created by KiCad (PCBNEW (5.1.6)-1) date 2020-09-22 23:51:07*
%MOMM*%
%LPD*%
G01*
G04 APERTURE LIST*
%ADD10R,0.800000X1.000000*%
%ADD11R,0.700000X0.900000*%
%ADD12R,0.900000X1.000000*%
%ADD13R,1.000000X0.800000*%
%ADD14R,0.700000X0.750000*%
%ADD15R,1.100000X0.800000*%
%ADD16R,1.400000X1.400000*%
%ADD17R,0.900000X0.900000*%
%ADD18R,1.300000X1.000000*%
%ADD19R,1.050000X1.050000*%
%ADD20R,1.800000X0.500000*%
G04 APERTURE END LIST*
D10*
%TO.C,R6*%
X71450000Y-91750000D03*
X73050000Y-91750000D03*
%TD*%
%TO.C,R6*%
X44450000Y-91750000D03*
X46050000Y-91750000D03*
%TD*%
%TO.C,R6*%
X17450000Y-91750000D03*
X19050000Y-91750000D03*
%TD*%
%TO.C,R6*%
X71450000Y-79250000D03*
X73050000Y-79250000D03*
%TD*%
%TO.C,R6*%
X44450000Y-79250000D03*
X46050000Y-79250000D03*
%TD*%
%TO.C,R6*%
X17450000Y-79250000D03*
X19050000Y-79250000D03*
%TD*%
%TO.C,R6*%
X71450000Y-66750000D03*
X73050000Y-66750000D03*
%TD*%
%TO.C,R6*%
X44450000Y-66750000D03*
X46050000Y-66750000D03*
%TD*%
%TO.C,R6*%
X17450000Y-66750000D03*
X19050000Y-66750000D03*
%TD*%
%TO.C,R6*%
X71450000Y-54250000D03*
X73050000Y-54250000D03*
%TD*%
%TO.C,R6*%
X44450000Y-54250000D03*
X46050000Y-54250000D03*
%TD*%
%TO.C,R6*%
X17450000Y-54250000D03*
X19050000Y-54250000D03*
%TD*%
%TO.C,R6*%
X71450000Y-41750000D03*
X73050000Y-41750000D03*
%TD*%
%TO.C,R6*%
X44450000Y-41750000D03*
X46050000Y-41750000D03*
%TD*%
%TO.C,R6*%
X17450000Y-41750000D03*
X19050000Y-41750000D03*
%TD*%
%TO.C,R6*%
X71450000Y-29250000D03*
X73050000Y-29250000D03*
%TD*%
%TO.C,R6*%
X44450000Y-29250000D03*
X46050000Y-29250000D03*
%TD*%
%TO.C,R6*%
X17450000Y-29250000D03*
X19050000Y-29250000D03*
%TD*%
%TO.C,R6*%
X71450000Y-16750000D03*
X73050000Y-16750000D03*
%TD*%
%TO.C,R6*%
X44450000Y-16750000D03*
X46050000Y-16750000D03*
%TD*%
%TO.C,R6*%
X17450000Y-16750000D03*
X19050000Y-16750000D03*
%TD*%
%TO.C,R6*%
X71450000Y-4250000D03*
X73050000Y-4250000D03*
%TD*%
%TO.C,R6*%
X44450000Y-4250000D03*
X46050000Y-4250000D03*
%TD*%
%TO.C,R1*%
X64800000Y-93000000D03*
X63200000Y-93000000D03*
%TD*%
%TO.C,R1*%
X37800000Y-93000000D03*
X36200000Y-93000000D03*
%TD*%
%TO.C,R1*%
X10800000Y-93000000D03*
X9200000Y-93000000D03*
%TD*%
%TO.C,R1*%
X64800000Y-80500000D03*
X63200000Y-80500000D03*
%TD*%
%TO.C,R1*%
X37800000Y-80500000D03*
X36200000Y-80500000D03*
%TD*%
%TO.C,R1*%
X10800000Y-80500000D03*
X9200000Y-80500000D03*
%TD*%
%TO.C,R1*%
X64800000Y-68000000D03*
X63200000Y-68000000D03*
%TD*%
%TO.C,R1*%
X37800000Y-68000000D03*
X36200000Y-68000000D03*
%TD*%
%TO.C,R1*%
X10800000Y-68000000D03*
X9200000Y-68000000D03*
%TD*%
%TO.C,R1*%
X64800000Y-55500000D03*
X63200000Y-55500000D03*
%TD*%
%TO.C,R1*%
X37800000Y-55500000D03*
X36200000Y-55500000D03*
%TD*%
%TO.C,R1*%
X10800000Y-55500000D03*
X9200000Y-55500000D03*
%TD*%
%TO.C,R1*%
X64800000Y-43000000D03*
X63200000Y-43000000D03*
%TD*%
%TO.C,R1*%
X37800000Y-43000000D03*
X36200000Y-43000000D03*
%TD*%
%TO.C,R1*%
X10800000Y-43000000D03*
X9200000Y-43000000D03*
%TD*%
%TO.C,R1*%
X64800000Y-30500000D03*
X63200000Y-30500000D03*
%TD*%
%TO.C,R1*%
X37800000Y-30500000D03*
X36200000Y-30500000D03*
%TD*%
%TO.C,R1*%
X10800000Y-30500000D03*
X9200000Y-30500000D03*
%TD*%
%TO.C,R1*%
X64800000Y-18000000D03*
X63200000Y-18000000D03*
%TD*%
%TO.C,R1*%
X37800000Y-18000000D03*
X36200000Y-18000000D03*
%TD*%
%TO.C,R1*%
X10800000Y-18000000D03*
X9200000Y-18000000D03*
%TD*%
%TO.C,R1*%
X64800000Y-5500000D03*
X63200000Y-5500000D03*
%TD*%
%TO.C,R1*%
X37800000Y-5500000D03*
X36200000Y-5500000D03*
%TD*%
D11*
%TO.C,Q5*%
X67250000Y-96450000D03*
X66600000Y-94550000D03*
X67900000Y-94550000D03*
%TD*%
%TO.C,Q5*%
X40250000Y-96450000D03*
X39600000Y-94550000D03*
X40900000Y-94550000D03*
%TD*%
%TO.C,Q5*%
X13250000Y-96450000D03*
X12600000Y-94550000D03*
X13900000Y-94550000D03*
%TD*%
%TO.C,Q5*%
X67250000Y-83950000D03*
X66600000Y-82050000D03*
X67900000Y-82050000D03*
%TD*%
%TO.C,Q5*%
X40250000Y-83950000D03*
X39600000Y-82050000D03*
X40900000Y-82050000D03*
%TD*%
%TO.C,Q5*%
X13250000Y-83950000D03*
X12600000Y-82050000D03*
X13900000Y-82050000D03*
%TD*%
%TO.C,Q5*%
X67250000Y-71450000D03*
X66600000Y-69550000D03*
X67900000Y-69550000D03*
%TD*%
%TO.C,Q5*%
X40250000Y-71450000D03*
X39600000Y-69550000D03*
X40900000Y-69550000D03*
%TD*%
%TO.C,Q5*%
X13250000Y-71450000D03*
X12600000Y-69550000D03*
X13900000Y-69550000D03*
%TD*%
%TO.C,Q5*%
X67250000Y-58950000D03*
X66600000Y-57050000D03*
X67900000Y-57050000D03*
%TD*%
%TO.C,Q5*%
X40250000Y-58950000D03*
X39600000Y-57050000D03*
X40900000Y-57050000D03*
%TD*%
%TO.C,Q5*%
X13250000Y-58950000D03*
X12600000Y-57050000D03*
X13900000Y-57050000D03*
%TD*%
%TO.C,Q5*%
X67250000Y-46450000D03*
X66600000Y-44550000D03*
X67900000Y-44550000D03*
%TD*%
%TO.C,Q5*%
X40250000Y-46450000D03*
X39600000Y-44550000D03*
X40900000Y-44550000D03*
%TD*%
%TO.C,Q5*%
X13250000Y-46450000D03*
X12600000Y-44550000D03*
X13900000Y-44550000D03*
%TD*%
%TO.C,Q5*%
X67250000Y-33950000D03*
X66600000Y-32050000D03*
X67900000Y-32050000D03*
%TD*%
%TO.C,Q5*%
X40250000Y-33950000D03*
X39600000Y-32050000D03*
X40900000Y-32050000D03*
%TD*%
%TO.C,Q5*%
X13250000Y-33950000D03*
X12600000Y-32050000D03*
X13900000Y-32050000D03*
%TD*%
%TO.C,Q5*%
X67250000Y-21450000D03*
X66600000Y-19550000D03*
X67900000Y-19550000D03*
%TD*%
%TO.C,Q5*%
X40250000Y-21450000D03*
X39600000Y-19550000D03*
X40900000Y-19550000D03*
%TD*%
%TO.C,Q5*%
X13250000Y-21450000D03*
X12600000Y-19550000D03*
X13900000Y-19550000D03*
%TD*%
%TO.C,Q5*%
X67250000Y-8950000D03*
X66600000Y-7050000D03*
X67900000Y-7050000D03*
%TD*%
%TO.C,Q5*%
X40250000Y-8950000D03*
X39600000Y-7050000D03*
X40900000Y-7050000D03*
%TD*%
D12*
%TO.C,D3*%
X68700000Y-93250000D03*
X70800000Y-93250000D03*
%TD*%
%TO.C,D3*%
X41700000Y-93250000D03*
X43800000Y-93250000D03*
%TD*%
%TO.C,D3*%
X14700000Y-93250000D03*
X16800000Y-93250000D03*
%TD*%
%TO.C,D3*%
X68700000Y-80750000D03*
X70800000Y-80750000D03*
%TD*%
%TO.C,D3*%
X41700000Y-80750000D03*
X43800000Y-80750000D03*
%TD*%
%TO.C,D3*%
X14700000Y-80750000D03*
X16800000Y-80750000D03*
%TD*%
%TO.C,D3*%
X68700000Y-68250000D03*
X70800000Y-68250000D03*
%TD*%
%TO.C,D3*%
X41700000Y-68250000D03*
X43800000Y-68250000D03*
%TD*%
%TO.C,D3*%
X14700000Y-68250000D03*
X16800000Y-68250000D03*
%TD*%
%TO.C,D3*%
X68700000Y-55750000D03*
X70800000Y-55750000D03*
%TD*%
%TO.C,D3*%
X41700000Y-55750000D03*
X43800000Y-55750000D03*
%TD*%
%TO.C,D3*%
X14700000Y-55750000D03*
X16800000Y-55750000D03*
%TD*%
%TO.C,D3*%
X68700000Y-43250000D03*
X70800000Y-43250000D03*
%TD*%
%TO.C,D3*%
X41700000Y-43250000D03*
X43800000Y-43250000D03*
%TD*%
%TO.C,D3*%
X14700000Y-43250000D03*
X16800000Y-43250000D03*
%TD*%
%TO.C,D3*%
X68700000Y-30750000D03*
X70800000Y-30750000D03*
%TD*%
%TO.C,D3*%
X41700000Y-30750000D03*
X43800000Y-30750000D03*
%TD*%
%TO.C,D3*%
X14700000Y-30750000D03*
X16800000Y-30750000D03*
%TD*%
%TO.C,D3*%
X68700000Y-18250000D03*
X70800000Y-18250000D03*
%TD*%
%TO.C,D3*%
X41700000Y-18250000D03*
X43800000Y-18250000D03*
%TD*%
%TO.C,D3*%
X14700000Y-18250000D03*
X16800000Y-18250000D03*
%TD*%
%TO.C,D3*%
X68700000Y-5750000D03*
X70800000Y-5750000D03*
%TD*%
%TO.C,D3*%
X41700000Y-5750000D03*
X43800000Y-5750000D03*
%TD*%
D13*
%TO.C,R8*%
X81000000Y-90200000D03*
X81000000Y-91800000D03*
%TD*%
%TO.C,R8*%
X54000000Y-90200000D03*
X54000000Y-91800000D03*
%TD*%
%TO.C,R8*%
X27000000Y-90200000D03*
X27000000Y-91800000D03*
%TD*%
%TO.C,R8*%
X81000000Y-77700000D03*
X81000000Y-79300000D03*
%TD*%
%TO.C,R8*%
X54000000Y-77700000D03*
X54000000Y-79300000D03*
%TD*%
%TO.C,R8*%
X27000000Y-77700000D03*
X27000000Y-79300000D03*
%TD*%
%TO.C,R8*%
X81000000Y-65200000D03*
X81000000Y-66800000D03*
%TD*%
%TO.C,R8*%
X54000000Y-65200000D03*
X54000000Y-66800000D03*
%TD*%
%TO.C,R8*%
X27000000Y-65200000D03*
X27000000Y-66800000D03*
%TD*%
%TO.C,R8*%
X81000000Y-52700000D03*
X81000000Y-54300000D03*
%TD*%
%TO.C,R8*%
X54000000Y-52700000D03*
X54000000Y-54300000D03*
%TD*%
%TO.C,R8*%
X27000000Y-52700000D03*
X27000000Y-54300000D03*
%TD*%
%TO.C,R8*%
X81000000Y-40200000D03*
X81000000Y-41800000D03*
%TD*%
%TO.C,R8*%
X54000000Y-40200000D03*
X54000000Y-41800000D03*
%TD*%
%TO.C,R8*%
X27000000Y-40200000D03*
X27000000Y-41800000D03*
%TD*%
%TO.C,R8*%
X81000000Y-27700000D03*
X81000000Y-29300000D03*
%TD*%
%TO.C,R8*%
X54000000Y-27700000D03*
X54000000Y-29300000D03*
%TD*%
%TO.C,R8*%
X27000000Y-27700000D03*
X27000000Y-29300000D03*
%TD*%
%TO.C,R8*%
X81000000Y-15200000D03*
X81000000Y-16800000D03*
%TD*%
%TO.C,R8*%
X54000000Y-15200000D03*
X54000000Y-16800000D03*
%TD*%
%TO.C,R8*%
X27000000Y-15200000D03*
X27000000Y-16800000D03*
%TD*%
%TO.C,R8*%
X81000000Y-2700000D03*
X81000000Y-4300000D03*
%TD*%
%TO.C,R8*%
X54000000Y-2700000D03*
X54000000Y-4300000D03*
%TD*%
D11*
%TO.C,Q4*%
X74000000Y-96700000D03*
X73350000Y-94800000D03*
X74650000Y-94800000D03*
%TD*%
%TO.C,Q4*%
X47000000Y-96700000D03*
X46350000Y-94800000D03*
X47650000Y-94800000D03*
%TD*%
%TO.C,Q4*%
X20000000Y-96700000D03*
X19350000Y-94800000D03*
X20650000Y-94800000D03*
%TD*%
%TO.C,Q4*%
X74000000Y-84200000D03*
X73350000Y-82300000D03*
X74650000Y-82300000D03*
%TD*%
%TO.C,Q4*%
X47000000Y-84200000D03*
X46350000Y-82300000D03*
X47650000Y-82300000D03*
%TD*%
%TO.C,Q4*%
X20000000Y-84200000D03*
X19350000Y-82300000D03*
X20650000Y-82300000D03*
%TD*%
%TO.C,Q4*%
X74000000Y-71700000D03*
X73350000Y-69800000D03*
X74650000Y-69800000D03*
%TD*%
%TO.C,Q4*%
X47000000Y-71700000D03*
X46350000Y-69800000D03*
X47650000Y-69800000D03*
%TD*%
%TO.C,Q4*%
X20000000Y-71700000D03*
X19350000Y-69800000D03*
X20650000Y-69800000D03*
%TD*%
%TO.C,Q4*%
X74000000Y-59200000D03*
X73350000Y-57300000D03*
X74650000Y-57300000D03*
%TD*%
%TO.C,Q4*%
X47000000Y-59200000D03*
X46350000Y-57300000D03*
X47650000Y-57300000D03*
%TD*%
%TO.C,Q4*%
X20000000Y-59200000D03*
X19350000Y-57300000D03*
X20650000Y-57300000D03*
%TD*%
%TO.C,Q4*%
X74000000Y-46700000D03*
X73350000Y-44800000D03*
X74650000Y-44800000D03*
%TD*%
%TO.C,Q4*%
X47000000Y-46700000D03*
X46350000Y-44800000D03*
X47650000Y-44800000D03*
%TD*%
%TO.C,Q4*%
X20000000Y-46700000D03*
X19350000Y-44800000D03*
X20650000Y-44800000D03*
%TD*%
%TO.C,Q4*%
X74000000Y-34200000D03*
X73350000Y-32300000D03*
X74650000Y-32300000D03*
%TD*%
%TO.C,Q4*%
X47000000Y-34200000D03*
X46350000Y-32300000D03*
X47650000Y-32300000D03*
%TD*%
%TO.C,Q4*%
X20000000Y-34200000D03*
X19350000Y-32300000D03*
X20650000Y-32300000D03*
%TD*%
%TO.C,Q4*%
X74000000Y-21700000D03*
X73350000Y-19800000D03*
X74650000Y-19800000D03*
%TD*%
%TO.C,Q4*%
X47000000Y-21700000D03*
X46350000Y-19800000D03*
X47650000Y-19800000D03*
%TD*%
%TO.C,Q4*%
X20000000Y-21700000D03*
X19350000Y-19800000D03*
X20650000Y-19800000D03*
%TD*%
%TO.C,Q4*%
X74000000Y-9200000D03*
X73350000Y-7300000D03*
X74650000Y-7300000D03*
%TD*%
%TO.C,Q4*%
X47000000Y-9200000D03*
X46350000Y-7300000D03*
X47650000Y-7300000D03*
%TD*%
D10*
%TO.C,R2*%
X75700000Y-91750000D03*
X77300000Y-91750000D03*
%TD*%
%TO.C,R2*%
X48700000Y-91750000D03*
X50300000Y-91750000D03*
%TD*%
%TO.C,R2*%
X21700000Y-91750000D03*
X23300000Y-91750000D03*
%TD*%
%TO.C,R2*%
X75700000Y-79250000D03*
X77300000Y-79250000D03*
%TD*%
%TO.C,R2*%
X48700000Y-79250000D03*
X50300000Y-79250000D03*
%TD*%
%TO.C,R2*%
X21700000Y-79250000D03*
X23300000Y-79250000D03*
%TD*%
%TO.C,R2*%
X75700000Y-66750000D03*
X77300000Y-66750000D03*
%TD*%
%TO.C,R2*%
X48700000Y-66750000D03*
X50300000Y-66750000D03*
%TD*%
%TO.C,R2*%
X21700000Y-66750000D03*
X23300000Y-66750000D03*
%TD*%
%TO.C,R2*%
X75700000Y-54250000D03*
X77300000Y-54250000D03*
%TD*%
%TO.C,R2*%
X48700000Y-54250000D03*
X50300000Y-54250000D03*
%TD*%
%TO.C,R2*%
X21700000Y-54250000D03*
X23300000Y-54250000D03*
%TD*%
%TO.C,R2*%
X75700000Y-41750000D03*
X77300000Y-41750000D03*
%TD*%
%TO.C,R2*%
X48700000Y-41750000D03*
X50300000Y-41750000D03*
%TD*%
%TO.C,R2*%
X21700000Y-41750000D03*
X23300000Y-41750000D03*
%TD*%
%TO.C,R2*%
X75700000Y-29250000D03*
X77300000Y-29250000D03*
%TD*%
%TO.C,R2*%
X48700000Y-29250000D03*
X50300000Y-29250000D03*
%TD*%
%TO.C,R2*%
X21700000Y-29250000D03*
X23300000Y-29250000D03*
%TD*%
%TO.C,R2*%
X75700000Y-16750000D03*
X77300000Y-16750000D03*
%TD*%
%TO.C,R2*%
X48700000Y-16750000D03*
X50300000Y-16750000D03*
%TD*%
%TO.C,R2*%
X21700000Y-16750000D03*
X23300000Y-16750000D03*
%TD*%
%TO.C,R2*%
X75700000Y-4250000D03*
X77300000Y-4250000D03*
%TD*%
%TO.C,R2*%
X48700000Y-4250000D03*
X50300000Y-4250000D03*
%TD*%
D11*
%TO.C,Q3*%
X75400000Y-89550000D03*
X74100000Y-89550000D03*
X74750000Y-91450000D03*
%TD*%
%TO.C,Q3*%
X48400000Y-89550000D03*
X47100000Y-89550000D03*
X47750000Y-91450000D03*
%TD*%
%TO.C,Q3*%
X21400000Y-89550000D03*
X20100000Y-89550000D03*
X20750000Y-91450000D03*
%TD*%
%TO.C,Q3*%
X75400000Y-77050000D03*
X74100000Y-77050000D03*
X74750000Y-78950000D03*
%TD*%
%TO.C,Q3*%
X48400000Y-77050000D03*
X47100000Y-77050000D03*
X47750000Y-78950000D03*
%TD*%
%TO.C,Q3*%
X21400000Y-77050000D03*
X20100000Y-77050000D03*
X20750000Y-78950000D03*
%TD*%
%TO.C,Q3*%
X75400000Y-64550000D03*
X74100000Y-64550000D03*
X74750000Y-66450000D03*
%TD*%
%TO.C,Q3*%
X48400000Y-64550000D03*
X47100000Y-64550000D03*
X47750000Y-66450000D03*
%TD*%
%TO.C,Q3*%
X21400000Y-64550000D03*
X20100000Y-64550000D03*
X20750000Y-66450000D03*
%TD*%
%TO.C,Q3*%
X75400000Y-52050000D03*
X74100000Y-52050000D03*
X74750000Y-53950000D03*
%TD*%
%TO.C,Q3*%
X48400000Y-52050000D03*
X47100000Y-52050000D03*
X47750000Y-53950000D03*
%TD*%
%TO.C,Q3*%
X21400000Y-52050000D03*
X20100000Y-52050000D03*
X20750000Y-53950000D03*
%TD*%
%TO.C,Q3*%
X75400000Y-39550000D03*
X74100000Y-39550000D03*
X74750000Y-41450000D03*
%TD*%
%TO.C,Q3*%
X48400000Y-39550000D03*
X47100000Y-39550000D03*
X47750000Y-41450000D03*
%TD*%
%TO.C,Q3*%
X21400000Y-39550000D03*
X20100000Y-39550000D03*
X20750000Y-41450000D03*
%TD*%
%TO.C,Q3*%
X75400000Y-27050000D03*
X74100000Y-27050000D03*
X74750000Y-28950000D03*
%TD*%
%TO.C,Q3*%
X48400000Y-27050000D03*
X47100000Y-27050000D03*
X47750000Y-28950000D03*
%TD*%
%TO.C,Q3*%
X21400000Y-27050000D03*
X20100000Y-27050000D03*
X20750000Y-28950000D03*
%TD*%
%TO.C,Q3*%
X75400000Y-14550000D03*
X74100000Y-14550000D03*
X74750000Y-16450000D03*
%TD*%
%TO.C,Q3*%
X48400000Y-14550000D03*
X47100000Y-14550000D03*
X47750000Y-16450000D03*
%TD*%
%TO.C,Q3*%
X21400000Y-14550000D03*
X20100000Y-14550000D03*
X20750000Y-16450000D03*
%TD*%
%TO.C,Q3*%
X75400000Y-2050000D03*
X74100000Y-2050000D03*
X74750000Y-3950000D03*
%TD*%
%TO.C,Q3*%
X48400000Y-2050000D03*
X47100000Y-2050000D03*
X47750000Y-3950000D03*
%TD*%
D10*
%TO.C,R10*%
X72550000Y-88750000D03*
X70950000Y-88750000D03*
%TD*%
%TO.C,R10*%
X45550000Y-88750000D03*
X43950000Y-88750000D03*
%TD*%
%TO.C,R10*%
X18550000Y-88750000D03*
X16950000Y-88750000D03*
%TD*%
%TO.C,R10*%
X72550000Y-76250000D03*
X70950000Y-76250000D03*
%TD*%
%TO.C,R10*%
X45550000Y-76250000D03*
X43950000Y-76250000D03*
%TD*%
%TO.C,R10*%
X18550000Y-76250000D03*
X16950000Y-76250000D03*
%TD*%
%TO.C,R10*%
X72550000Y-63750000D03*
X70950000Y-63750000D03*
%TD*%
%TO.C,R10*%
X45550000Y-63750000D03*
X43950000Y-63750000D03*
%TD*%
%TO.C,R10*%
X18550000Y-63750000D03*
X16950000Y-63750000D03*
%TD*%
%TO.C,R10*%
X72550000Y-51250000D03*
X70950000Y-51250000D03*
%TD*%
%TO.C,R10*%
X45550000Y-51250000D03*
X43950000Y-51250000D03*
%TD*%
%TO.C,R10*%
X18550000Y-51250000D03*
X16950000Y-51250000D03*
%TD*%
%TO.C,R10*%
X72550000Y-38750000D03*
X70950000Y-38750000D03*
%TD*%
%TO.C,R10*%
X45550000Y-38750000D03*
X43950000Y-38750000D03*
%TD*%
%TO.C,R10*%
X18550000Y-38750000D03*
X16950000Y-38750000D03*
%TD*%
%TO.C,R10*%
X72550000Y-26250000D03*
X70950000Y-26250000D03*
%TD*%
%TO.C,R10*%
X45550000Y-26250000D03*
X43950000Y-26250000D03*
%TD*%
%TO.C,R10*%
X18550000Y-26250000D03*
X16950000Y-26250000D03*
%TD*%
%TO.C,R10*%
X72550000Y-13750000D03*
X70950000Y-13750000D03*
%TD*%
%TO.C,R10*%
X45550000Y-13750000D03*
X43950000Y-13750000D03*
%TD*%
%TO.C,R10*%
X18550000Y-13750000D03*
X16950000Y-13750000D03*
%TD*%
%TO.C,R10*%
X72550000Y-1250000D03*
X70950000Y-1250000D03*
%TD*%
%TO.C,R10*%
X45550000Y-1250000D03*
X43950000Y-1250000D03*
%TD*%
D13*
%TO.C,R9*%
X81000000Y-93200000D03*
X81000000Y-94800000D03*
%TD*%
%TO.C,R9*%
X54000000Y-93200000D03*
X54000000Y-94800000D03*
%TD*%
%TO.C,R9*%
X27000000Y-93200000D03*
X27000000Y-94800000D03*
%TD*%
%TO.C,R9*%
X81000000Y-80700000D03*
X81000000Y-82300000D03*
%TD*%
%TO.C,R9*%
X54000000Y-80700000D03*
X54000000Y-82300000D03*
%TD*%
%TO.C,R9*%
X27000000Y-80700000D03*
X27000000Y-82300000D03*
%TD*%
%TO.C,R9*%
X81000000Y-68200000D03*
X81000000Y-69800000D03*
%TD*%
%TO.C,R9*%
X54000000Y-68200000D03*
X54000000Y-69800000D03*
%TD*%
%TO.C,R9*%
X27000000Y-68200000D03*
X27000000Y-69800000D03*
%TD*%
%TO.C,R9*%
X81000000Y-55700000D03*
X81000000Y-57300000D03*
%TD*%
%TO.C,R9*%
X54000000Y-55700000D03*
X54000000Y-57300000D03*
%TD*%
%TO.C,R9*%
X27000000Y-55700000D03*
X27000000Y-57300000D03*
%TD*%
%TO.C,R9*%
X81000000Y-43200000D03*
X81000000Y-44800000D03*
%TD*%
%TO.C,R9*%
X54000000Y-43200000D03*
X54000000Y-44800000D03*
%TD*%
%TO.C,R9*%
X27000000Y-43200000D03*
X27000000Y-44800000D03*
%TD*%
%TO.C,R9*%
X81000000Y-30700000D03*
X81000000Y-32300000D03*
%TD*%
%TO.C,R9*%
X54000000Y-30700000D03*
X54000000Y-32300000D03*
%TD*%
%TO.C,R9*%
X27000000Y-30700000D03*
X27000000Y-32300000D03*
%TD*%
%TO.C,R9*%
X81000000Y-18200000D03*
X81000000Y-19800000D03*
%TD*%
%TO.C,R9*%
X54000000Y-18200000D03*
X54000000Y-19800000D03*
%TD*%
%TO.C,R9*%
X27000000Y-18200000D03*
X27000000Y-19800000D03*
%TD*%
%TO.C,R9*%
X81000000Y-5700000D03*
X81000000Y-7300000D03*
%TD*%
%TO.C,R9*%
X54000000Y-5700000D03*
X54000000Y-7300000D03*
%TD*%
D10*
%TO.C,R4*%
X73950000Y-88250000D03*
X75550000Y-88250000D03*
%TD*%
%TO.C,R4*%
X46950000Y-88250000D03*
X48550000Y-88250000D03*
%TD*%
%TO.C,R4*%
X19950000Y-88250000D03*
X21550000Y-88250000D03*
%TD*%
%TO.C,R4*%
X73950000Y-75750000D03*
X75550000Y-75750000D03*
%TD*%
%TO.C,R4*%
X46950000Y-75750000D03*
X48550000Y-75750000D03*
%TD*%
%TO.C,R4*%
X19950000Y-75750000D03*
X21550000Y-75750000D03*
%TD*%
%TO.C,R4*%
X73950000Y-63250000D03*
X75550000Y-63250000D03*
%TD*%
%TO.C,R4*%
X46950000Y-63250000D03*
X48550000Y-63250000D03*
%TD*%
%TO.C,R4*%
X19950000Y-63250000D03*
X21550000Y-63250000D03*
%TD*%
%TO.C,R4*%
X73950000Y-50750000D03*
X75550000Y-50750000D03*
%TD*%
%TO.C,R4*%
X46950000Y-50750000D03*
X48550000Y-50750000D03*
%TD*%
%TO.C,R4*%
X19950000Y-50750000D03*
X21550000Y-50750000D03*
%TD*%
%TO.C,R4*%
X73950000Y-38250000D03*
X75550000Y-38250000D03*
%TD*%
%TO.C,R4*%
X46950000Y-38250000D03*
X48550000Y-38250000D03*
%TD*%
%TO.C,R4*%
X19950000Y-38250000D03*
X21550000Y-38250000D03*
%TD*%
%TO.C,R4*%
X73950000Y-25750000D03*
X75550000Y-25750000D03*
%TD*%
%TO.C,R4*%
X46950000Y-25750000D03*
X48550000Y-25750000D03*
%TD*%
%TO.C,R4*%
X19950000Y-25750000D03*
X21550000Y-25750000D03*
%TD*%
%TO.C,R4*%
X73950000Y-13250000D03*
X75550000Y-13250000D03*
%TD*%
%TO.C,R4*%
X46950000Y-13250000D03*
X48550000Y-13250000D03*
%TD*%
%TO.C,R4*%
X19950000Y-13250000D03*
X21550000Y-13250000D03*
%TD*%
%TO.C,R4*%
X73950000Y-750000D03*
X75550000Y-750000D03*
%TD*%
%TO.C,R4*%
X46950000Y-750000D03*
X48550000Y-750000D03*
%TD*%
%TO.C,R3*%
X77800000Y-96750000D03*
X76200000Y-96750000D03*
%TD*%
%TO.C,R3*%
X50800000Y-96750000D03*
X49200000Y-96750000D03*
%TD*%
%TO.C,R3*%
X23800000Y-96750000D03*
X22200000Y-96750000D03*
%TD*%
%TO.C,R3*%
X77800000Y-84250000D03*
X76200000Y-84250000D03*
%TD*%
%TO.C,R3*%
X50800000Y-84250000D03*
X49200000Y-84250000D03*
%TD*%
%TO.C,R3*%
X23800000Y-84250000D03*
X22200000Y-84250000D03*
%TD*%
%TO.C,R3*%
X77800000Y-71750000D03*
X76200000Y-71750000D03*
%TD*%
%TO.C,R3*%
X50800000Y-71750000D03*
X49200000Y-71750000D03*
%TD*%
%TO.C,R3*%
X23800000Y-71750000D03*
X22200000Y-71750000D03*
%TD*%
%TO.C,R3*%
X77800000Y-59250000D03*
X76200000Y-59250000D03*
%TD*%
%TO.C,R3*%
X50800000Y-59250000D03*
X49200000Y-59250000D03*
%TD*%
%TO.C,R3*%
X23800000Y-59250000D03*
X22200000Y-59250000D03*
%TD*%
%TO.C,R3*%
X77800000Y-46750000D03*
X76200000Y-46750000D03*
%TD*%
%TO.C,R3*%
X50800000Y-46750000D03*
X49200000Y-46750000D03*
%TD*%
%TO.C,R3*%
X23800000Y-46750000D03*
X22200000Y-46750000D03*
%TD*%
%TO.C,R3*%
X77800000Y-34250000D03*
X76200000Y-34250000D03*
%TD*%
%TO.C,R3*%
X50800000Y-34250000D03*
X49200000Y-34250000D03*
%TD*%
%TO.C,R3*%
X23800000Y-34250000D03*
X22200000Y-34250000D03*
%TD*%
%TO.C,R3*%
X77800000Y-21750000D03*
X76200000Y-21750000D03*
%TD*%
%TO.C,R3*%
X50800000Y-21750000D03*
X49200000Y-21750000D03*
%TD*%
%TO.C,R3*%
X23800000Y-21750000D03*
X22200000Y-21750000D03*
%TD*%
%TO.C,R3*%
X77800000Y-9250000D03*
X76200000Y-9250000D03*
%TD*%
%TO.C,R3*%
X50800000Y-9250000D03*
X49200000Y-9250000D03*
%TD*%
%TO.C,R5*%
X75300000Y-93500000D03*
X73700000Y-93500000D03*
%TD*%
%TO.C,R5*%
X48300000Y-93500000D03*
X46700000Y-93500000D03*
%TD*%
%TO.C,R5*%
X21300000Y-93500000D03*
X19700000Y-93500000D03*
%TD*%
%TO.C,R5*%
X75300000Y-81000000D03*
X73700000Y-81000000D03*
%TD*%
%TO.C,R5*%
X48300000Y-81000000D03*
X46700000Y-81000000D03*
%TD*%
%TO.C,R5*%
X21300000Y-81000000D03*
X19700000Y-81000000D03*
%TD*%
%TO.C,R5*%
X75300000Y-68500000D03*
X73700000Y-68500000D03*
%TD*%
%TO.C,R5*%
X48300000Y-68500000D03*
X46700000Y-68500000D03*
%TD*%
%TO.C,R5*%
X21300000Y-68500000D03*
X19700000Y-68500000D03*
%TD*%
%TO.C,R5*%
X75300000Y-56000000D03*
X73700000Y-56000000D03*
%TD*%
%TO.C,R5*%
X48300000Y-56000000D03*
X46700000Y-56000000D03*
%TD*%
%TO.C,R5*%
X21300000Y-56000000D03*
X19700000Y-56000000D03*
%TD*%
%TO.C,R5*%
X75300000Y-43500000D03*
X73700000Y-43500000D03*
%TD*%
%TO.C,R5*%
X48300000Y-43500000D03*
X46700000Y-43500000D03*
%TD*%
%TO.C,R5*%
X21300000Y-43500000D03*
X19700000Y-43500000D03*
%TD*%
%TO.C,R5*%
X75300000Y-31000000D03*
X73700000Y-31000000D03*
%TD*%
%TO.C,R5*%
X48300000Y-31000000D03*
X46700000Y-31000000D03*
%TD*%
%TO.C,R5*%
X21300000Y-31000000D03*
X19700000Y-31000000D03*
%TD*%
%TO.C,R5*%
X75300000Y-18500000D03*
X73700000Y-18500000D03*
%TD*%
%TO.C,R5*%
X48300000Y-18500000D03*
X46700000Y-18500000D03*
%TD*%
%TO.C,R5*%
X21300000Y-18500000D03*
X19700000Y-18500000D03*
%TD*%
%TO.C,R5*%
X75300000Y-6000000D03*
X73700000Y-6000000D03*
%TD*%
%TO.C,R5*%
X48300000Y-6000000D03*
X46700000Y-6000000D03*
%TD*%
D14*
%TO.C,C7*%
X79750000Y-92225000D03*
X79750000Y-91275000D03*
%TD*%
%TO.C,C7*%
X52750000Y-92225000D03*
X52750000Y-91275000D03*
%TD*%
%TO.C,C7*%
X25750000Y-92225000D03*
X25750000Y-91275000D03*
%TD*%
%TO.C,C7*%
X79750000Y-79725000D03*
X79750000Y-78775000D03*
%TD*%
%TO.C,C7*%
X52750000Y-79725000D03*
X52750000Y-78775000D03*
%TD*%
%TO.C,C7*%
X25750000Y-79725000D03*
X25750000Y-78775000D03*
%TD*%
%TO.C,C7*%
X79750000Y-67225000D03*
X79750000Y-66275000D03*
%TD*%
%TO.C,C7*%
X52750000Y-67225000D03*
X52750000Y-66275000D03*
%TD*%
%TO.C,C7*%
X25750000Y-67225000D03*
X25750000Y-66275000D03*
%TD*%
%TO.C,C7*%
X79750000Y-54725000D03*
X79750000Y-53775000D03*
%TD*%
%TO.C,C7*%
X52750000Y-54725000D03*
X52750000Y-53775000D03*
%TD*%
%TO.C,C7*%
X25750000Y-54725000D03*
X25750000Y-53775000D03*
%TD*%
%TO.C,C7*%
X79750000Y-42225000D03*
X79750000Y-41275000D03*
%TD*%
%TO.C,C7*%
X52750000Y-42225000D03*
X52750000Y-41275000D03*
%TD*%
%TO.C,C7*%
X25750000Y-42225000D03*
X25750000Y-41275000D03*
%TD*%
%TO.C,C7*%
X79750000Y-29725000D03*
X79750000Y-28775000D03*
%TD*%
%TO.C,C7*%
X52750000Y-29725000D03*
X52750000Y-28775000D03*
%TD*%
%TO.C,C7*%
X25750000Y-29725000D03*
X25750000Y-28775000D03*
%TD*%
%TO.C,C7*%
X79750000Y-17225000D03*
X79750000Y-16275000D03*
%TD*%
%TO.C,C7*%
X52750000Y-17225000D03*
X52750000Y-16275000D03*
%TD*%
%TO.C,C7*%
X25750000Y-17225000D03*
X25750000Y-16275000D03*
%TD*%
%TO.C,C7*%
X79750000Y-4725000D03*
X79750000Y-3775000D03*
%TD*%
%TO.C,C7*%
X52750000Y-4725000D03*
X52750000Y-3775000D03*
%TD*%
D15*
%TO.C,Q2*%
X79200000Y-93550000D03*
X79200000Y-94500000D03*
X79200000Y-95450000D03*
X76800000Y-95450000D03*
X76800000Y-94500000D03*
X76800000Y-93550000D03*
%TD*%
%TO.C,Q2*%
X52200000Y-93550000D03*
X52200000Y-94500000D03*
X52200000Y-95450000D03*
X49800000Y-95450000D03*
X49800000Y-94500000D03*
X49800000Y-93550000D03*
%TD*%
%TO.C,Q2*%
X25200000Y-93550000D03*
X25200000Y-94500000D03*
X25200000Y-95450000D03*
X22800000Y-95450000D03*
X22800000Y-94500000D03*
X22800000Y-93550000D03*
%TD*%
%TO.C,Q2*%
X79200000Y-81050000D03*
X79200000Y-82000000D03*
X79200000Y-82950000D03*
X76800000Y-82950000D03*
X76800000Y-82000000D03*
X76800000Y-81050000D03*
%TD*%
%TO.C,Q2*%
X52200000Y-81050000D03*
X52200000Y-82000000D03*
X52200000Y-82950000D03*
X49800000Y-82950000D03*
X49800000Y-82000000D03*
X49800000Y-81050000D03*
%TD*%
%TO.C,Q2*%
X25200000Y-81050000D03*
X25200000Y-82000000D03*
X25200000Y-82950000D03*
X22800000Y-82950000D03*
X22800000Y-82000000D03*
X22800000Y-81050000D03*
%TD*%
%TO.C,Q2*%
X79200000Y-68550000D03*
X79200000Y-69500000D03*
X79200000Y-70450000D03*
X76800000Y-70450000D03*
X76800000Y-69500000D03*
X76800000Y-68550000D03*
%TD*%
%TO.C,Q2*%
X52200000Y-68550000D03*
X52200000Y-69500000D03*
X52200000Y-70450000D03*
X49800000Y-70450000D03*
X49800000Y-69500000D03*
X49800000Y-68550000D03*
%TD*%
%TO.C,Q2*%
X25200000Y-68550000D03*
X25200000Y-69500000D03*
X25200000Y-70450000D03*
X22800000Y-70450000D03*
X22800000Y-69500000D03*
X22800000Y-68550000D03*
%TD*%
%TO.C,Q2*%
X79200000Y-56050000D03*
X79200000Y-57000000D03*
X79200000Y-57950000D03*
X76800000Y-57950000D03*
X76800000Y-57000000D03*
X76800000Y-56050000D03*
%TD*%
%TO.C,Q2*%
X52200000Y-56050000D03*
X52200000Y-57000000D03*
X52200000Y-57950000D03*
X49800000Y-57950000D03*
X49800000Y-57000000D03*
X49800000Y-56050000D03*
%TD*%
%TO.C,Q2*%
X25200000Y-56050000D03*
X25200000Y-57000000D03*
X25200000Y-57950000D03*
X22800000Y-57950000D03*
X22800000Y-57000000D03*
X22800000Y-56050000D03*
%TD*%
%TO.C,Q2*%
X79200000Y-43550000D03*
X79200000Y-44500000D03*
X79200000Y-45450000D03*
X76800000Y-45450000D03*
X76800000Y-44500000D03*
X76800000Y-43550000D03*
%TD*%
%TO.C,Q2*%
X52200000Y-43550000D03*
X52200000Y-44500000D03*
X52200000Y-45450000D03*
X49800000Y-45450000D03*
X49800000Y-44500000D03*
X49800000Y-43550000D03*
%TD*%
%TO.C,Q2*%
X25200000Y-43550000D03*
X25200000Y-44500000D03*
X25200000Y-45450000D03*
X22800000Y-45450000D03*
X22800000Y-44500000D03*
X22800000Y-43550000D03*
%TD*%
%TO.C,Q2*%
X79200000Y-31050000D03*
X79200000Y-32000000D03*
X79200000Y-32950000D03*
X76800000Y-32950000D03*
X76800000Y-32000000D03*
X76800000Y-31050000D03*
%TD*%
%TO.C,Q2*%
X52200000Y-31050000D03*
X52200000Y-32000000D03*
X52200000Y-32950000D03*
X49800000Y-32950000D03*
X49800000Y-32000000D03*
X49800000Y-31050000D03*
%TD*%
%TO.C,Q2*%
X25200000Y-31050000D03*
X25200000Y-32000000D03*
X25200000Y-32950000D03*
X22800000Y-32950000D03*
X22800000Y-32000000D03*
X22800000Y-31050000D03*
%TD*%
%TO.C,Q2*%
X79200000Y-18550000D03*
X79200000Y-19500000D03*
X79200000Y-20450000D03*
X76800000Y-20450000D03*
X76800000Y-19500000D03*
X76800000Y-18550000D03*
%TD*%
%TO.C,Q2*%
X52200000Y-18550000D03*
X52200000Y-19500000D03*
X52200000Y-20450000D03*
X49800000Y-20450000D03*
X49800000Y-19500000D03*
X49800000Y-18550000D03*
%TD*%
%TO.C,Q2*%
X25200000Y-18550000D03*
X25200000Y-19500000D03*
X25200000Y-20450000D03*
X22800000Y-20450000D03*
X22800000Y-19500000D03*
X22800000Y-18550000D03*
%TD*%
%TO.C,Q2*%
X79200000Y-6050000D03*
X79200000Y-7000000D03*
X79200000Y-7950000D03*
X76800000Y-7950000D03*
X76800000Y-7000000D03*
X76800000Y-6050000D03*
%TD*%
%TO.C,Q2*%
X52200000Y-6050000D03*
X52200000Y-7000000D03*
X52200000Y-7950000D03*
X49800000Y-7950000D03*
X49800000Y-7000000D03*
X49800000Y-6050000D03*
%TD*%
D13*
%TO.C,R11*%
X69250000Y-94700000D03*
X69250000Y-96300000D03*
%TD*%
%TO.C,R11*%
X42250000Y-94700000D03*
X42250000Y-96300000D03*
%TD*%
%TO.C,R11*%
X15250000Y-94700000D03*
X15250000Y-96300000D03*
%TD*%
%TO.C,R11*%
X69250000Y-82200000D03*
X69250000Y-83800000D03*
%TD*%
%TO.C,R11*%
X42250000Y-82200000D03*
X42250000Y-83800000D03*
%TD*%
%TO.C,R11*%
X15250000Y-82200000D03*
X15250000Y-83800000D03*
%TD*%
%TO.C,R11*%
X69250000Y-69700000D03*
X69250000Y-71300000D03*
%TD*%
%TO.C,R11*%
X42250000Y-69700000D03*
X42250000Y-71300000D03*
%TD*%
%TO.C,R11*%
X15250000Y-69700000D03*
X15250000Y-71300000D03*
%TD*%
%TO.C,R11*%
X69250000Y-57200000D03*
X69250000Y-58800000D03*
%TD*%
%TO.C,R11*%
X42250000Y-57200000D03*
X42250000Y-58800000D03*
%TD*%
%TO.C,R11*%
X15250000Y-57200000D03*
X15250000Y-58800000D03*
%TD*%
%TO.C,R11*%
X69250000Y-44700000D03*
X69250000Y-46300000D03*
%TD*%
%TO.C,R11*%
X42250000Y-44700000D03*
X42250000Y-46300000D03*
%TD*%
%TO.C,R11*%
X15250000Y-44700000D03*
X15250000Y-46300000D03*
%TD*%
%TO.C,R11*%
X69250000Y-32200000D03*
X69250000Y-33800000D03*
%TD*%
%TO.C,R11*%
X42250000Y-32200000D03*
X42250000Y-33800000D03*
%TD*%
%TO.C,R11*%
X15250000Y-32200000D03*
X15250000Y-33800000D03*
%TD*%
%TO.C,R11*%
X69250000Y-19700000D03*
X69250000Y-21300000D03*
%TD*%
%TO.C,R11*%
X42250000Y-19700000D03*
X42250000Y-21300000D03*
%TD*%
%TO.C,R11*%
X15250000Y-19700000D03*
X15250000Y-21300000D03*
%TD*%
%TO.C,R11*%
X69250000Y-7200000D03*
X69250000Y-8800000D03*
%TD*%
%TO.C,R11*%
X42250000Y-7200000D03*
X42250000Y-8800000D03*
%TD*%
%TO.C,R7*%
X71750000Y-94950000D03*
X71750000Y-96550000D03*
%TD*%
%TO.C,R7*%
X44750000Y-94950000D03*
X44750000Y-96550000D03*
%TD*%
%TO.C,R7*%
X17750000Y-94950000D03*
X17750000Y-96550000D03*
%TD*%
%TO.C,R7*%
X71750000Y-82450000D03*
X71750000Y-84050000D03*
%TD*%
%TO.C,R7*%
X44750000Y-82450000D03*
X44750000Y-84050000D03*
%TD*%
%TO.C,R7*%
X17750000Y-82450000D03*
X17750000Y-84050000D03*
%TD*%
%TO.C,R7*%
X71750000Y-69950000D03*
X71750000Y-71550000D03*
%TD*%
%TO.C,R7*%
X44750000Y-69950000D03*
X44750000Y-71550000D03*
%TD*%
%TO.C,R7*%
X17750000Y-69950000D03*
X17750000Y-71550000D03*
%TD*%
%TO.C,R7*%
X71750000Y-57450000D03*
X71750000Y-59050000D03*
%TD*%
%TO.C,R7*%
X44750000Y-57450000D03*
X44750000Y-59050000D03*
%TD*%
%TO.C,R7*%
X17750000Y-57450000D03*
X17750000Y-59050000D03*
%TD*%
%TO.C,R7*%
X71750000Y-44950000D03*
X71750000Y-46550000D03*
%TD*%
%TO.C,R7*%
X44750000Y-44950000D03*
X44750000Y-46550000D03*
%TD*%
%TO.C,R7*%
X17750000Y-44950000D03*
X17750000Y-46550000D03*
%TD*%
%TO.C,R7*%
X71750000Y-32450000D03*
X71750000Y-34050000D03*
%TD*%
%TO.C,R7*%
X44750000Y-32450000D03*
X44750000Y-34050000D03*
%TD*%
%TO.C,R7*%
X17750000Y-32450000D03*
X17750000Y-34050000D03*
%TD*%
%TO.C,R7*%
X71750000Y-19950000D03*
X71750000Y-21550000D03*
%TD*%
%TO.C,R7*%
X44750000Y-19950000D03*
X44750000Y-21550000D03*
%TD*%
%TO.C,R7*%
X17750000Y-19950000D03*
X17750000Y-21550000D03*
%TD*%
%TO.C,R7*%
X71750000Y-7450000D03*
X71750000Y-9050000D03*
%TD*%
%TO.C,R7*%
X44750000Y-7450000D03*
X44750000Y-9050000D03*
%TD*%
D16*
%TO.C,P3*%
X80750000Y-88750000D03*
%TD*%
%TO.C,P3*%
X53750000Y-88750000D03*
%TD*%
%TO.C,P3*%
X26750000Y-88750000D03*
%TD*%
%TO.C,P3*%
X80750000Y-76250000D03*
%TD*%
%TO.C,P3*%
X53750000Y-76250000D03*
%TD*%
%TO.C,P3*%
X26750000Y-76250000D03*
%TD*%
%TO.C,P3*%
X80750000Y-63750000D03*
%TD*%
%TO.C,P3*%
X53750000Y-63750000D03*
%TD*%
%TO.C,P3*%
X26750000Y-63750000D03*
%TD*%
%TO.C,P3*%
X80750000Y-51250000D03*
%TD*%
%TO.C,P3*%
X53750000Y-51250000D03*
%TD*%
%TO.C,P3*%
X26750000Y-51250000D03*
%TD*%
%TO.C,P3*%
X80750000Y-38750000D03*
%TD*%
%TO.C,P3*%
X53750000Y-38750000D03*
%TD*%
%TO.C,P3*%
X26750000Y-38750000D03*
%TD*%
%TO.C,P3*%
X80750000Y-26250000D03*
%TD*%
%TO.C,P3*%
X53750000Y-26250000D03*
%TD*%
%TO.C,P3*%
X26750000Y-26250000D03*
%TD*%
%TO.C,P3*%
X80750000Y-13750000D03*
%TD*%
%TO.C,P3*%
X53750000Y-13750000D03*
%TD*%
%TO.C,P3*%
X26750000Y-13750000D03*
%TD*%
%TO.C,P3*%
X80750000Y-1250000D03*
%TD*%
%TO.C,P3*%
X53750000Y-1250000D03*
%TD*%
D17*
%TO.C,C3*%
X65975000Y-93250000D03*
X67525000Y-93250000D03*
%TD*%
%TO.C,C3*%
X38975000Y-93250000D03*
X40525000Y-93250000D03*
%TD*%
%TO.C,C3*%
X11975000Y-93250000D03*
X13525000Y-93250000D03*
%TD*%
%TO.C,C3*%
X65975000Y-80750000D03*
X67525000Y-80750000D03*
%TD*%
%TO.C,C3*%
X38975000Y-80750000D03*
X40525000Y-80750000D03*
%TD*%
%TO.C,C3*%
X11975000Y-80750000D03*
X13525000Y-80750000D03*
%TD*%
%TO.C,C3*%
X65975000Y-68250000D03*
X67525000Y-68250000D03*
%TD*%
%TO.C,C3*%
X38975000Y-68250000D03*
X40525000Y-68250000D03*
%TD*%
%TO.C,C3*%
X11975000Y-68250000D03*
X13525000Y-68250000D03*
%TD*%
%TO.C,C3*%
X65975000Y-55750000D03*
X67525000Y-55750000D03*
%TD*%
%TO.C,C3*%
X38975000Y-55750000D03*
X40525000Y-55750000D03*
%TD*%
%TO.C,C3*%
X11975000Y-55750000D03*
X13525000Y-55750000D03*
%TD*%
%TO.C,C3*%
X65975000Y-43250000D03*
X67525000Y-43250000D03*
%TD*%
%TO.C,C3*%
X38975000Y-43250000D03*
X40525000Y-43250000D03*
%TD*%
%TO.C,C3*%
X11975000Y-43250000D03*
X13525000Y-43250000D03*
%TD*%
%TO.C,C3*%
X65975000Y-30750000D03*
X67525000Y-30750000D03*
%TD*%
%TO.C,C3*%
X38975000Y-30750000D03*
X40525000Y-30750000D03*
%TD*%
%TO.C,C3*%
X11975000Y-30750000D03*
X13525000Y-30750000D03*
%TD*%
%TO.C,C3*%
X65975000Y-18250000D03*
X67525000Y-18250000D03*
%TD*%
%TO.C,C3*%
X38975000Y-18250000D03*
X40525000Y-18250000D03*
%TD*%
%TO.C,C3*%
X11975000Y-18250000D03*
X13525000Y-18250000D03*
%TD*%
%TO.C,C3*%
X65975000Y-5750000D03*
X67525000Y-5750000D03*
%TD*%
%TO.C,C3*%
X38975000Y-5750000D03*
X40525000Y-5750000D03*
%TD*%
D16*
%TO.C,P6*%
X61250000Y-88750000D03*
%TD*%
%TO.C,P6*%
X34250000Y-88750000D03*
%TD*%
%TO.C,P6*%
X7250000Y-88750000D03*
%TD*%
%TO.C,P6*%
X61250000Y-76250000D03*
%TD*%
%TO.C,P6*%
X34250000Y-76250000D03*
%TD*%
%TO.C,P6*%
X7250000Y-76250000D03*
%TD*%
%TO.C,P6*%
X61250000Y-63750000D03*
%TD*%
%TO.C,P6*%
X34250000Y-63750000D03*
%TD*%
%TO.C,P6*%
X7250000Y-63750000D03*
%TD*%
%TO.C,P6*%
X61250000Y-51250000D03*
%TD*%
%TO.C,P6*%
X34250000Y-51250000D03*
%TD*%
%TO.C,P6*%
X7250000Y-51250000D03*
%TD*%
%TO.C,P6*%
X61250000Y-38750000D03*
%TD*%
%TO.C,P6*%
X34250000Y-38750000D03*
%TD*%
%TO.C,P6*%
X7250000Y-38750000D03*
%TD*%
%TO.C,P6*%
X61250000Y-26250000D03*
%TD*%
%TO.C,P6*%
X34250000Y-26250000D03*
%TD*%
%TO.C,P6*%
X7250000Y-26250000D03*
%TD*%
%TO.C,P6*%
X61250000Y-13750000D03*
%TD*%
%TO.C,P6*%
X34250000Y-13750000D03*
%TD*%
%TO.C,P6*%
X7250000Y-13750000D03*
%TD*%
%TO.C,P6*%
X61250000Y-1250000D03*
%TD*%
%TO.C,P6*%
X34250000Y-1250000D03*
%TD*%
%TO.C,P4*%
X80750000Y-96250000D03*
%TD*%
%TO.C,P4*%
X53750000Y-96250000D03*
%TD*%
%TO.C,P4*%
X26750000Y-96250000D03*
%TD*%
%TO.C,P4*%
X80750000Y-83750000D03*
%TD*%
%TO.C,P4*%
X53750000Y-83750000D03*
%TD*%
%TO.C,P4*%
X26750000Y-83750000D03*
%TD*%
%TO.C,P4*%
X80750000Y-71250000D03*
%TD*%
%TO.C,P4*%
X53750000Y-71250000D03*
%TD*%
%TO.C,P4*%
X26750000Y-71250000D03*
%TD*%
%TO.C,P4*%
X80750000Y-58750000D03*
%TD*%
%TO.C,P4*%
X53750000Y-58750000D03*
%TD*%
%TO.C,P4*%
X26750000Y-58750000D03*
%TD*%
%TO.C,P4*%
X80750000Y-46250000D03*
%TD*%
%TO.C,P4*%
X53750000Y-46250000D03*
%TD*%
%TO.C,P4*%
X26750000Y-46250000D03*
%TD*%
%TO.C,P4*%
X80750000Y-33750000D03*
%TD*%
%TO.C,P4*%
X53750000Y-33750000D03*
%TD*%
%TO.C,P4*%
X26750000Y-33750000D03*
%TD*%
%TO.C,P4*%
X80750000Y-21250000D03*
%TD*%
%TO.C,P4*%
X53750000Y-21250000D03*
%TD*%
%TO.C,P4*%
X26750000Y-21250000D03*
%TD*%
%TO.C,P4*%
X80750000Y-8750000D03*
%TD*%
%TO.C,P4*%
X53750000Y-8750000D03*
%TD*%
D15*
%TO.C,Q1*%
X76800000Y-88300000D03*
X76800000Y-89250000D03*
X76800000Y-90200000D03*
X79200000Y-90200000D03*
X79200000Y-89250000D03*
X79200000Y-88300000D03*
%TD*%
%TO.C,Q1*%
X49800000Y-88300000D03*
X49800000Y-89250000D03*
X49800000Y-90200000D03*
X52200000Y-90200000D03*
X52200000Y-89250000D03*
X52200000Y-88300000D03*
%TD*%
%TO.C,Q1*%
X22800000Y-88300000D03*
X22800000Y-89250000D03*
X22800000Y-90200000D03*
X25200000Y-90200000D03*
X25200000Y-89250000D03*
X25200000Y-88300000D03*
%TD*%
%TO.C,Q1*%
X76800000Y-75800000D03*
X76800000Y-76750000D03*
X76800000Y-77700000D03*
X79200000Y-77700000D03*
X79200000Y-76750000D03*
X79200000Y-75800000D03*
%TD*%
%TO.C,Q1*%
X49800000Y-75800000D03*
X49800000Y-76750000D03*
X49800000Y-77700000D03*
X52200000Y-77700000D03*
X52200000Y-76750000D03*
X52200000Y-75800000D03*
%TD*%
%TO.C,Q1*%
X22800000Y-75800000D03*
X22800000Y-76750000D03*
X22800000Y-77700000D03*
X25200000Y-77700000D03*
X25200000Y-76750000D03*
X25200000Y-75800000D03*
%TD*%
%TO.C,Q1*%
X76800000Y-63300000D03*
X76800000Y-64250000D03*
X76800000Y-65200000D03*
X79200000Y-65200000D03*
X79200000Y-64250000D03*
X79200000Y-63300000D03*
%TD*%
%TO.C,Q1*%
X49800000Y-63300000D03*
X49800000Y-64250000D03*
X49800000Y-65200000D03*
X52200000Y-65200000D03*
X52200000Y-64250000D03*
X52200000Y-63300000D03*
%TD*%
%TO.C,Q1*%
X22800000Y-63300000D03*
X22800000Y-64250000D03*
X22800000Y-65200000D03*
X25200000Y-65200000D03*
X25200000Y-64250000D03*
X25200000Y-63300000D03*
%TD*%
%TO.C,Q1*%
X76800000Y-50800000D03*
X76800000Y-51750000D03*
X76800000Y-52700000D03*
X79200000Y-52700000D03*
X79200000Y-51750000D03*
X79200000Y-50800000D03*
%TD*%
%TO.C,Q1*%
X49800000Y-50800000D03*
X49800000Y-51750000D03*
X49800000Y-52700000D03*
X52200000Y-52700000D03*
X52200000Y-51750000D03*
X52200000Y-50800000D03*
%TD*%
%TO.C,Q1*%
X22800000Y-50800000D03*
X22800000Y-51750000D03*
X22800000Y-52700000D03*
X25200000Y-52700000D03*
X25200000Y-51750000D03*
X25200000Y-50800000D03*
%TD*%
%TO.C,Q1*%
X76800000Y-38300000D03*
X76800000Y-39250000D03*
X76800000Y-40200000D03*
X79200000Y-40200000D03*
X79200000Y-39250000D03*
X79200000Y-38300000D03*
%TD*%
%TO.C,Q1*%
X49800000Y-38300000D03*
X49800000Y-39250000D03*
X49800000Y-40200000D03*
X52200000Y-40200000D03*
X52200000Y-39250000D03*
X52200000Y-38300000D03*
%TD*%
%TO.C,Q1*%
X22800000Y-38300000D03*
X22800000Y-39250000D03*
X22800000Y-40200000D03*
X25200000Y-40200000D03*
X25200000Y-39250000D03*
X25200000Y-38300000D03*
%TD*%
%TO.C,Q1*%
X76800000Y-25800000D03*
X76800000Y-26750000D03*
X76800000Y-27700000D03*
X79200000Y-27700000D03*
X79200000Y-26750000D03*
X79200000Y-25800000D03*
%TD*%
%TO.C,Q1*%
X49800000Y-25800000D03*
X49800000Y-26750000D03*
X49800000Y-27700000D03*
X52200000Y-27700000D03*
X52200000Y-26750000D03*
X52200000Y-25800000D03*
%TD*%
%TO.C,Q1*%
X22800000Y-25800000D03*
X22800000Y-26750000D03*
X22800000Y-27700000D03*
X25200000Y-27700000D03*
X25200000Y-26750000D03*
X25200000Y-25800000D03*
%TD*%
%TO.C,Q1*%
X76800000Y-13300000D03*
X76800000Y-14250000D03*
X76800000Y-15200000D03*
X79200000Y-15200000D03*
X79200000Y-14250000D03*
X79200000Y-13300000D03*
%TD*%
%TO.C,Q1*%
X49800000Y-13300000D03*
X49800000Y-14250000D03*
X49800000Y-15200000D03*
X52200000Y-15200000D03*
X52200000Y-14250000D03*
X52200000Y-13300000D03*
%TD*%
%TO.C,Q1*%
X22800000Y-13300000D03*
X22800000Y-14250000D03*
X22800000Y-15200000D03*
X25200000Y-15200000D03*
X25200000Y-14250000D03*
X25200000Y-13300000D03*
%TD*%
%TO.C,Q1*%
X76800000Y-800000D03*
X76800000Y-1750000D03*
X76800000Y-2700000D03*
X79200000Y-2700000D03*
X79200000Y-1750000D03*
X79200000Y-800000D03*
%TD*%
%TO.C,Q1*%
X49800000Y-800000D03*
X49800000Y-1750000D03*
X49800000Y-2700000D03*
X52200000Y-2700000D03*
X52200000Y-1750000D03*
X52200000Y-800000D03*
%TD*%
D14*
%TO.C,C6*%
X72500000Y-90725000D03*
X72500000Y-89775000D03*
%TD*%
%TO.C,C6*%
X45500000Y-90725000D03*
X45500000Y-89775000D03*
%TD*%
%TO.C,C6*%
X18500000Y-90725000D03*
X18500000Y-89775000D03*
%TD*%
%TO.C,C6*%
X72500000Y-78225000D03*
X72500000Y-77275000D03*
%TD*%
%TO.C,C6*%
X45500000Y-78225000D03*
X45500000Y-77275000D03*
%TD*%
%TO.C,C6*%
X18500000Y-78225000D03*
X18500000Y-77275000D03*
%TD*%
%TO.C,C6*%
X72500000Y-65725000D03*
X72500000Y-64775000D03*
%TD*%
%TO.C,C6*%
X45500000Y-65725000D03*
X45500000Y-64775000D03*
%TD*%
%TO.C,C6*%
X18500000Y-65725000D03*
X18500000Y-64775000D03*
%TD*%
%TO.C,C6*%
X72500000Y-53225000D03*
X72500000Y-52275000D03*
%TD*%
%TO.C,C6*%
X45500000Y-53225000D03*
X45500000Y-52275000D03*
%TD*%
%TO.C,C6*%
X18500000Y-53225000D03*
X18500000Y-52275000D03*
%TD*%
%TO.C,C6*%
X72500000Y-40725000D03*
X72500000Y-39775000D03*
%TD*%
%TO.C,C6*%
X45500000Y-40725000D03*
X45500000Y-39775000D03*
%TD*%
%TO.C,C6*%
X18500000Y-40725000D03*
X18500000Y-39775000D03*
%TD*%
%TO.C,C6*%
X72500000Y-28225000D03*
X72500000Y-27275000D03*
%TD*%
%TO.C,C6*%
X45500000Y-28225000D03*
X45500000Y-27275000D03*
%TD*%
%TO.C,C6*%
X18500000Y-28225000D03*
X18500000Y-27275000D03*
%TD*%
%TO.C,C6*%
X72500000Y-15725000D03*
X72500000Y-14775000D03*
%TD*%
%TO.C,C6*%
X45500000Y-15725000D03*
X45500000Y-14775000D03*
%TD*%
%TO.C,C6*%
X18500000Y-15725000D03*
X18500000Y-14775000D03*
%TD*%
%TO.C,C6*%
X72500000Y-3225000D03*
X72500000Y-2275000D03*
%TD*%
%TO.C,C6*%
X45500000Y-3225000D03*
X45500000Y-2275000D03*
%TD*%
D16*
%TO.C,P5*%
X61250000Y-96250000D03*
%TD*%
%TO.C,P5*%
X34250000Y-96250000D03*
%TD*%
%TO.C,P5*%
X7250000Y-96250000D03*
%TD*%
%TO.C,P5*%
X61250000Y-83750000D03*
%TD*%
%TO.C,P5*%
X34250000Y-83750000D03*
%TD*%
%TO.C,P5*%
X7250000Y-83750000D03*
%TD*%
%TO.C,P5*%
X61250000Y-71250000D03*
%TD*%
%TO.C,P5*%
X34250000Y-71250000D03*
%TD*%
%TO.C,P5*%
X7250000Y-71250000D03*
%TD*%
%TO.C,P5*%
X61250000Y-58750000D03*
%TD*%
%TO.C,P5*%
X34250000Y-58750000D03*
%TD*%
%TO.C,P5*%
X7250000Y-58750000D03*
%TD*%
%TO.C,P5*%
X61250000Y-46250000D03*
%TD*%
%TO.C,P5*%
X34250000Y-46250000D03*
%TD*%
%TO.C,P5*%
X7250000Y-46250000D03*
%TD*%
%TO.C,P5*%
X61250000Y-33750000D03*
%TD*%
%TO.C,P5*%
X34250000Y-33750000D03*
%TD*%
%TO.C,P5*%
X7250000Y-33750000D03*
%TD*%
%TO.C,P5*%
X61250000Y-21250000D03*
%TD*%
%TO.C,P5*%
X34250000Y-21250000D03*
%TD*%
%TO.C,P5*%
X7250000Y-21250000D03*
%TD*%
%TO.C,P5*%
X61250000Y-8750000D03*
%TD*%
%TO.C,P5*%
X34250000Y-8750000D03*
%TD*%
%TO.C,P1*%
X61250000Y-91250000D03*
%TD*%
%TO.C,P1*%
X34250000Y-91250000D03*
%TD*%
%TO.C,P1*%
X7250000Y-91250000D03*
%TD*%
%TO.C,P1*%
X61250000Y-78750000D03*
%TD*%
%TO.C,P1*%
X34250000Y-78750000D03*
%TD*%
%TO.C,P1*%
X7250000Y-78750000D03*
%TD*%
%TO.C,P1*%
X61250000Y-66250000D03*
%TD*%
%TO.C,P1*%
X34250000Y-66250000D03*
%TD*%
%TO.C,P1*%
X7250000Y-66250000D03*
%TD*%
%TO.C,P1*%
X61250000Y-53750000D03*
%TD*%
%TO.C,P1*%
X34250000Y-53750000D03*
%TD*%
%TO.C,P1*%
X7250000Y-53750000D03*
%TD*%
%TO.C,P1*%
X61250000Y-41250000D03*
%TD*%
%TO.C,P1*%
X34250000Y-41250000D03*
%TD*%
%TO.C,P1*%
X7250000Y-41250000D03*
%TD*%
%TO.C,P1*%
X61250000Y-28750000D03*
%TD*%
%TO.C,P1*%
X34250000Y-28750000D03*
%TD*%
%TO.C,P1*%
X7250000Y-28750000D03*
%TD*%
%TO.C,P1*%
X61250000Y-16250000D03*
%TD*%
%TO.C,P1*%
X34250000Y-16250000D03*
%TD*%
%TO.C,P1*%
X7250000Y-16250000D03*
%TD*%
%TO.C,P1*%
X61250000Y-3750000D03*
%TD*%
%TO.C,P1*%
X34250000Y-3750000D03*
%TD*%
D12*
%TO.C,D1*%
X65000000Y-96250000D03*
X63000000Y-96250000D03*
X63000000Y-94250000D03*
D18*
X64800000Y-94250000D03*
%TD*%
D12*
%TO.C,D1*%
X38000000Y-96250000D03*
X36000000Y-96250000D03*
X36000000Y-94250000D03*
D18*
X37800000Y-94250000D03*
%TD*%
D12*
%TO.C,D1*%
X11000000Y-96250000D03*
X9000000Y-96250000D03*
X9000000Y-94250000D03*
D18*
X10800000Y-94250000D03*
%TD*%
D12*
%TO.C,D1*%
X65000000Y-83750000D03*
X63000000Y-83750000D03*
X63000000Y-81750000D03*
D18*
X64800000Y-81750000D03*
%TD*%
D12*
%TO.C,D1*%
X38000000Y-83750000D03*
X36000000Y-83750000D03*
X36000000Y-81750000D03*
D18*
X37800000Y-81750000D03*
%TD*%
D12*
%TO.C,D1*%
X11000000Y-83750000D03*
X9000000Y-83750000D03*
X9000000Y-81750000D03*
D18*
X10800000Y-81750000D03*
%TD*%
D12*
%TO.C,D1*%
X65000000Y-71250000D03*
X63000000Y-71250000D03*
X63000000Y-69250000D03*
D18*
X64800000Y-69250000D03*
%TD*%
D12*
%TO.C,D1*%
X38000000Y-71250000D03*
X36000000Y-71250000D03*
X36000000Y-69250000D03*
D18*
X37800000Y-69250000D03*
%TD*%
D12*
%TO.C,D1*%
X11000000Y-71250000D03*
X9000000Y-71250000D03*
X9000000Y-69250000D03*
D18*
X10800000Y-69250000D03*
%TD*%
D12*
%TO.C,D1*%
X65000000Y-58750000D03*
X63000000Y-58750000D03*
X63000000Y-56750000D03*
D18*
X64800000Y-56750000D03*
%TD*%
D12*
%TO.C,D1*%
X38000000Y-58750000D03*
X36000000Y-58750000D03*
X36000000Y-56750000D03*
D18*
X37800000Y-56750000D03*
%TD*%
D12*
%TO.C,D1*%
X11000000Y-58750000D03*
X9000000Y-58750000D03*
X9000000Y-56750000D03*
D18*
X10800000Y-56750000D03*
%TD*%
D12*
%TO.C,D1*%
X65000000Y-46250000D03*
X63000000Y-46250000D03*
X63000000Y-44250000D03*
D18*
X64800000Y-44250000D03*
%TD*%
D12*
%TO.C,D1*%
X38000000Y-46250000D03*
X36000000Y-46250000D03*
X36000000Y-44250000D03*
D18*
X37800000Y-44250000D03*
%TD*%
D12*
%TO.C,D1*%
X11000000Y-46250000D03*
X9000000Y-46250000D03*
X9000000Y-44250000D03*
D18*
X10800000Y-44250000D03*
%TD*%
D12*
%TO.C,D1*%
X65000000Y-33750000D03*
X63000000Y-33750000D03*
X63000000Y-31750000D03*
D18*
X64800000Y-31750000D03*
%TD*%
D12*
%TO.C,D1*%
X38000000Y-33750000D03*
X36000000Y-33750000D03*
X36000000Y-31750000D03*
D18*
X37800000Y-31750000D03*
%TD*%
D12*
%TO.C,D1*%
X11000000Y-33750000D03*
X9000000Y-33750000D03*
X9000000Y-31750000D03*
D18*
X10800000Y-31750000D03*
%TD*%
D12*
%TO.C,D1*%
X65000000Y-21250000D03*
X63000000Y-21250000D03*
X63000000Y-19250000D03*
D18*
X64800000Y-19250000D03*
%TD*%
D12*
%TO.C,D1*%
X38000000Y-21250000D03*
X36000000Y-21250000D03*
X36000000Y-19250000D03*
D18*
X37800000Y-19250000D03*
%TD*%
D12*
%TO.C,D1*%
X11000000Y-21250000D03*
X9000000Y-21250000D03*
X9000000Y-19250000D03*
D18*
X10800000Y-19250000D03*
%TD*%
D12*
%TO.C,D1*%
X65000000Y-8750000D03*
X63000000Y-8750000D03*
X63000000Y-6750000D03*
D18*
X64800000Y-6750000D03*
%TD*%
D12*
%TO.C,D1*%
X38000000Y-8750000D03*
X36000000Y-8750000D03*
X36000000Y-6750000D03*
D18*
X37800000Y-6750000D03*
%TD*%
D19*
%TO.C,P9*%
X63325000Y-88250000D03*
X64595000Y-88250000D03*
X65865000Y-88250000D03*
X67135000Y-88250000D03*
X68405000Y-88250000D03*
X69675000Y-88250000D03*
%TD*%
%TO.C,P9*%
X36325000Y-88250000D03*
X37595000Y-88250000D03*
X38865000Y-88250000D03*
X40135000Y-88250000D03*
X41405000Y-88250000D03*
X42675000Y-88250000D03*
%TD*%
%TO.C,P9*%
X9325000Y-88250000D03*
X10595000Y-88250000D03*
X11865000Y-88250000D03*
X13135000Y-88250000D03*
X14405000Y-88250000D03*
X15675000Y-88250000D03*
%TD*%
%TO.C,P9*%
X63325000Y-75750000D03*
X64595000Y-75750000D03*
X65865000Y-75750000D03*
X67135000Y-75750000D03*
X68405000Y-75750000D03*
X69675000Y-75750000D03*
%TD*%
%TO.C,P9*%
X36325000Y-75750000D03*
X37595000Y-75750000D03*
X38865000Y-75750000D03*
X40135000Y-75750000D03*
X41405000Y-75750000D03*
X42675000Y-75750000D03*
%TD*%
%TO.C,P9*%
X9325000Y-75750000D03*
X10595000Y-75750000D03*
X11865000Y-75750000D03*
X13135000Y-75750000D03*
X14405000Y-75750000D03*
X15675000Y-75750000D03*
%TD*%
%TO.C,P9*%
X63325000Y-63250000D03*
X64595000Y-63250000D03*
X65865000Y-63250000D03*
X67135000Y-63250000D03*
X68405000Y-63250000D03*
X69675000Y-63250000D03*
%TD*%
%TO.C,P9*%
X36325000Y-63250000D03*
X37595000Y-63250000D03*
X38865000Y-63250000D03*
X40135000Y-63250000D03*
X41405000Y-63250000D03*
X42675000Y-63250000D03*
%TD*%
%TO.C,P9*%
X9325000Y-63250000D03*
X10595000Y-63250000D03*
X11865000Y-63250000D03*
X13135000Y-63250000D03*
X14405000Y-63250000D03*
X15675000Y-63250000D03*
%TD*%
%TO.C,P9*%
X63325000Y-50750000D03*
X64595000Y-50750000D03*
X65865000Y-50750000D03*
X67135000Y-50750000D03*
X68405000Y-50750000D03*
X69675000Y-50750000D03*
%TD*%
%TO.C,P9*%
X36325000Y-50750000D03*
X37595000Y-50750000D03*
X38865000Y-50750000D03*
X40135000Y-50750000D03*
X41405000Y-50750000D03*
X42675000Y-50750000D03*
%TD*%
%TO.C,P9*%
X9325000Y-50750000D03*
X10595000Y-50750000D03*
X11865000Y-50750000D03*
X13135000Y-50750000D03*
X14405000Y-50750000D03*
X15675000Y-50750000D03*
%TD*%
%TO.C,P9*%
X63325000Y-38250000D03*
X64595000Y-38250000D03*
X65865000Y-38250000D03*
X67135000Y-38250000D03*
X68405000Y-38250000D03*
X69675000Y-38250000D03*
%TD*%
%TO.C,P9*%
X36325000Y-38250000D03*
X37595000Y-38250000D03*
X38865000Y-38250000D03*
X40135000Y-38250000D03*
X41405000Y-38250000D03*
X42675000Y-38250000D03*
%TD*%
%TO.C,P9*%
X9325000Y-38250000D03*
X10595000Y-38250000D03*
X11865000Y-38250000D03*
X13135000Y-38250000D03*
X14405000Y-38250000D03*
X15675000Y-38250000D03*
%TD*%
%TO.C,P9*%
X63325000Y-25750000D03*
X64595000Y-25750000D03*
X65865000Y-25750000D03*
X67135000Y-25750000D03*
X68405000Y-25750000D03*
X69675000Y-25750000D03*
%TD*%
%TO.C,P9*%
X36325000Y-25750000D03*
X37595000Y-25750000D03*
X38865000Y-25750000D03*
X40135000Y-25750000D03*
X41405000Y-25750000D03*
X42675000Y-25750000D03*
%TD*%
%TO.C,P9*%
X9325000Y-25750000D03*
X10595000Y-25750000D03*
X11865000Y-25750000D03*
X13135000Y-25750000D03*
X14405000Y-25750000D03*
X15675000Y-25750000D03*
%TD*%
%TO.C,P9*%
X63325000Y-13250000D03*
X64595000Y-13250000D03*
X65865000Y-13250000D03*
X67135000Y-13250000D03*
X68405000Y-13250000D03*
X69675000Y-13250000D03*
%TD*%
%TO.C,P9*%
X36325000Y-13250000D03*
X37595000Y-13250000D03*
X38865000Y-13250000D03*
X40135000Y-13250000D03*
X41405000Y-13250000D03*
X42675000Y-13250000D03*
%TD*%
%TO.C,P9*%
X9325000Y-13250000D03*
X10595000Y-13250000D03*
X11865000Y-13250000D03*
X13135000Y-13250000D03*
X14405000Y-13250000D03*
X15675000Y-13250000D03*
%TD*%
%TO.C,P9*%
X63325000Y-750000D03*
X64595000Y-750000D03*
X65865000Y-750000D03*
X67135000Y-750000D03*
X68405000Y-750000D03*
X69675000Y-750000D03*
%TD*%
%TO.C,P9*%
X36325000Y-750000D03*
X37595000Y-750000D03*
X38865000Y-750000D03*
X40135000Y-750000D03*
X41405000Y-750000D03*
X42675000Y-750000D03*
%TD*%
D20*
%TO.C,U2*%
X69975000Y-89775000D03*
X69975000Y-90425000D03*
X69975000Y-91075000D03*
X69975000Y-91725000D03*
X64025000Y-91725000D03*
X64025000Y-91075000D03*
X64025000Y-90425000D03*
X64025000Y-89775000D03*
%TD*%
%TO.C,U2*%
X42975000Y-89775000D03*
X42975000Y-90425000D03*
X42975000Y-91075000D03*
X42975000Y-91725000D03*
X37025000Y-91725000D03*
X37025000Y-91075000D03*
X37025000Y-90425000D03*
X37025000Y-89775000D03*
%TD*%
%TO.C,U2*%
X15975000Y-89775000D03*
X15975000Y-90425000D03*
X15975000Y-91075000D03*
X15975000Y-91725000D03*
X10025000Y-91725000D03*
X10025000Y-91075000D03*
X10025000Y-90425000D03*
X10025000Y-89775000D03*
%TD*%
%TO.C,U2*%
X69975000Y-77275000D03*
X69975000Y-77925000D03*
X69975000Y-78575000D03*
X69975000Y-79225000D03*
X64025000Y-79225000D03*
X64025000Y-78575000D03*
X64025000Y-77925000D03*
X64025000Y-77275000D03*
%TD*%
%TO.C,U2*%
X42975000Y-77275000D03*
X42975000Y-77925000D03*
X42975000Y-78575000D03*
X42975000Y-79225000D03*
X37025000Y-79225000D03*
X37025000Y-78575000D03*
X37025000Y-77925000D03*
X37025000Y-77275000D03*
%TD*%
%TO.C,U2*%
X15975000Y-77275000D03*
X15975000Y-77925000D03*
X15975000Y-78575000D03*
X15975000Y-79225000D03*
X10025000Y-79225000D03*
X10025000Y-78575000D03*
X10025000Y-77925000D03*
X10025000Y-77275000D03*
%TD*%
%TO.C,U2*%
X69975000Y-64775000D03*
X69975000Y-65425000D03*
X69975000Y-66075000D03*
X69975000Y-66725000D03*
X64025000Y-66725000D03*
X64025000Y-66075000D03*
X64025000Y-65425000D03*
X64025000Y-64775000D03*
%TD*%
%TO.C,U2*%
X42975000Y-64775000D03*
X42975000Y-65425000D03*
X42975000Y-66075000D03*
X42975000Y-66725000D03*
X37025000Y-66725000D03*
X37025000Y-66075000D03*
X37025000Y-65425000D03*
X37025000Y-64775000D03*
%TD*%
%TO.C,U2*%
X15975000Y-64775000D03*
X15975000Y-65425000D03*
X15975000Y-66075000D03*
X15975000Y-66725000D03*
X10025000Y-66725000D03*
X10025000Y-66075000D03*
X10025000Y-65425000D03*
X10025000Y-64775000D03*
%TD*%
%TO.C,U2*%
X69975000Y-52275000D03*
X69975000Y-52925000D03*
X69975000Y-53575000D03*
X69975000Y-54225000D03*
X64025000Y-54225000D03*
X64025000Y-53575000D03*
X64025000Y-52925000D03*
X64025000Y-52275000D03*
%TD*%
%TO.C,U2*%
X42975000Y-52275000D03*
X42975000Y-52925000D03*
X42975000Y-53575000D03*
X42975000Y-54225000D03*
X37025000Y-54225000D03*
X37025000Y-53575000D03*
X37025000Y-52925000D03*
X37025000Y-52275000D03*
%TD*%
%TO.C,U2*%
X15975000Y-52275000D03*
X15975000Y-52925000D03*
X15975000Y-53575000D03*
X15975000Y-54225000D03*
X10025000Y-54225000D03*
X10025000Y-53575000D03*
X10025000Y-52925000D03*
X10025000Y-52275000D03*
%TD*%
%TO.C,U2*%
X69975000Y-39775000D03*
X69975000Y-40425000D03*
X69975000Y-41075000D03*
X69975000Y-41725000D03*
X64025000Y-41725000D03*
X64025000Y-41075000D03*
X64025000Y-40425000D03*
X64025000Y-39775000D03*
%TD*%
%TO.C,U2*%
X42975000Y-39775000D03*
X42975000Y-40425000D03*
X42975000Y-41075000D03*
X42975000Y-41725000D03*
X37025000Y-41725000D03*
X37025000Y-41075000D03*
X37025000Y-40425000D03*
X37025000Y-39775000D03*
%TD*%
%TO.C,U2*%
X15975000Y-39775000D03*
X15975000Y-40425000D03*
X15975000Y-41075000D03*
X15975000Y-41725000D03*
X10025000Y-41725000D03*
X10025000Y-41075000D03*
X10025000Y-40425000D03*
X10025000Y-39775000D03*
%TD*%
%TO.C,U2*%
X69975000Y-27275000D03*
X69975000Y-27925000D03*
X69975000Y-28575000D03*
X69975000Y-29225000D03*
X64025000Y-29225000D03*
X64025000Y-28575000D03*
X64025000Y-27925000D03*
X64025000Y-27275000D03*
%TD*%
%TO.C,U2*%
X42975000Y-27275000D03*
X42975000Y-27925000D03*
X42975000Y-28575000D03*
X42975000Y-29225000D03*
X37025000Y-29225000D03*
X37025000Y-28575000D03*
X37025000Y-27925000D03*
X37025000Y-27275000D03*
%TD*%
%TO.C,U2*%
X15975000Y-27275000D03*
X15975000Y-27925000D03*
X15975000Y-28575000D03*
X15975000Y-29225000D03*
X10025000Y-29225000D03*
X10025000Y-28575000D03*
X10025000Y-27925000D03*
X10025000Y-27275000D03*
%TD*%
%TO.C,U2*%
X69975000Y-14775000D03*
X69975000Y-15425000D03*
X69975000Y-16075000D03*
X69975000Y-16725000D03*
X64025000Y-16725000D03*
X64025000Y-16075000D03*
X64025000Y-15425000D03*
X64025000Y-14775000D03*
%TD*%
%TO.C,U2*%
X42975000Y-14775000D03*
X42975000Y-15425000D03*
X42975000Y-16075000D03*
X42975000Y-16725000D03*
X37025000Y-16725000D03*
X37025000Y-16075000D03*
X37025000Y-15425000D03*
X37025000Y-14775000D03*
%TD*%
%TO.C,U2*%
X15975000Y-14775000D03*
X15975000Y-15425000D03*
X15975000Y-16075000D03*
X15975000Y-16725000D03*
X10025000Y-16725000D03*
X10025000Y-16075000D03*
X10025000Y-15425000D03*
X10025000Y-14775000D03*
%TD*%
%TO.C,U2*%
X69975000Y-2275000D03*
X69975000Y-2925000D03*
X69975000Y-3575000D03*
X69975000Y-4225000D03*
X64025000Y-4225000D03*
X64025000Y-3575000D03*
X64025000Y-2925000D03*
X64025000Y-2275000D03*
%TD*%
%TO.C,U2*%
X42975000Y-2275000D03*
X42975000Y-2925000D03*
X42975000Y-3575000D03*
X42975000Y-4225000D03*
X37025000Y-4225000D03*
X37025000Y-3575000D03*
X37025000Y-2925000D03*
X37025000Y-2275000D03*
%TD*%
D16*
%TO.C,P2*%
X61250000Y-93750000D03*
%TD*%
%TO.C,P2*%
X34250000Y-93750000D03*
%TD*%
%TO.C,P2*%
X7250000Y-93750000D03*
%TD*%
%TO.C,P2*%
X61250000Y-81250000D03*
%TD*%
%TO.C,P2*%
X34250000Y-81250000D03*
%TD*%
%TO.C,P2*%
X7250000Y-81250000D03*
%TD*%
%TO.C,P2*%
X61250000Y-68750000D03*
%TD*%
%TO.C,P2*%
X34250000Y-68750000D03*
%TD*%
%TO.C,P2*%
X7250000Y-68750000D03*
%TD*%
%TO.C,P2*%
X61250000Y-56250000D03*
%TD*%
%TO.C,P2*%
X34250000Y-56250000D03*
%TD*%
%TO.C,P2*%
X7250000Y-56250000D03*
%TD*%
%TO.C,P2*%
X61250000Y-43750000D03*
%TD*%
%TO.C,P2*%
X34250000Y-43750000D03*
%TD*%
%TO.C,P2*%
X7250000Y-43750000D03*
%TD*%
%TO.C,P2*%
X61250000Y-31250000D03*
%TD*%
%TO.C,P2*%
X34250000Y-31250000D03*
%TD*%
%TO.C,P2*%
X7250000Y-31250000D03*
%TD*%
%TO.C,P2*%
X61250000Y-18750000D03*
%TD*%
%TO.C,P2*%
X34250000Y-18750000D03*
%TD*%
%TO.C,P2*%
X7250000Y-18750000D03*
%TD*%
%TO.C,P2*%
X61250000Y-6250000D03*
%TD*%
%TO.C,P2*%
X34250000Y-6250000D03*
%TD*%
D14*
%TO.C,C1*%
X70500000Y-95525000D03*
X70500000Y-96475000D03*
%TD*%
%TO.C,C1*%
X43500000Y-95525000D03*
X43500000Y-96475000D03*
%TD*%
%TO.C,C1*%
X16500000Y-95525000D03*
X16500000Y-96475000D03*
%TD*%
%TO.C,C1*%
X70500000Y-83025000D03*
X70500000Y-83975000D03*
%TD*%
%TO.C,C1*%
X43500000Y-83025000D03*
X43500000Y-83975000D03*
%TD*%
%TO.C,C1*%
X16500000Y-83025000D03*
X16500000Y-83975000D03*
%TD*%
%TO.C,C1*%
X70500000Y-70525000D03*
X70500000Y-71475000D03*
%TD*%
%TO.C,C1*%
X43500000Y-70525000D03*
X43500000Y-71475000D03*
%TD*%
%TO.C,C1*%
X16500000Y-70525000D03*
X16500000Y-71475000D03*
%TD*%
%TO.C,C1*%
X70500000Y-58025000D03*
X70500000Y-58975000D03*
%TD*%
%TO.C,C1*%
X43500000Y-58025000D03*
X43500000Y-58975000D03*
%TD*%
%TO.C,C1*%
X16500000Y-58025000D03*
X16500000Y-58975000D03*
%TD*%
%TO.C,C1*%
X70500000Y-45525000D03*
X70500000Y-46475000D03*
%TD*%
%TO.C,C1*%
X43500000Y-45525000D03*
X43500000Y-46475000D03*
%TD*%
%TO.C,C1*%
X16500000Y-45525000D03*
X16500000Y-46475000D03*
%TD*%
%TO.C,C1*%
X70500000Y-33025000D03*
X70500000Y-33975000D03*
%TD*%
%TO.C,C1*%
X43500000Y-33025000D03*
X43500000Y-33975000D03*
%TD*%
%TO.C,C1*%
X16500000Y-33025000D03*
X16500000Y-33975000D03*
%TD*%
%TO.C,C1*%
X70500000Y-20525000D03*
X70500000Y-21475000D03*
%TD*%
%TO.C,C1*%
X43500000Y-20525000D03*
X43500000Y-21475000D03*
%TD*%
%TO.C,C1*%
X16500000Y-20525000D03*
X16500000Y-21475000D03*
%TD*%
%TO.C,C1*%
X70500000Y-8025000D03*
X70500000Y-8975000D03*
%TD*%
%TO.C,C1*%
X43500000Y-8025000D03*
X43500000Y-8975000D03*
%TD*%
D20*
%TO.C,U2*%
X10025000Y-2275000D03*
X10025000Y-2925000D03*
X10025000Y-3575000D03*
X10025000Y-4225000D03*
X15975000Y-4225000D03*
X15975000Y-3575000D03*
X15975000Y-2925000D03*
X15975000Y-2275000D03*
%TD*%
D14*
%TO.C,C1*%
X16500000Y-8975000D03*
X16500000Y-8025000D03*
%TD*%
D17*
%TO.C,C3*%
X13525000Y-5750000D03*
X11975000Y-5750000D03*
%TD*%
D14*
%TO.C,C6*%
X18500000Y-2275000D03*
X18500000Y-3225000D03*
%TD*%
D18*
%TO.C,D1*%
X10800000Y-6750000D03*
D12*
X9000000Y-6750000D03*
X9000000Y-8750000D03*
X11000000Y-8750000D03*
%TD*%
D16*
%TO.C,P1*%
X7250000Y-3750000D03*
%TD*%
%TO.C,P2*%
X7250000Y-6250000D03*
%TD*%
%TO.C,P3*%
X26750000Y-1250000D03*
%TD*%
%TO.C,P4*%
X26750000Y-8750000D03*
%TD*%
%TO.C,P5*%
X7250000Y-8750000D03*
%TD*%
%TO.C,P6*%
X7250000Y-1250000D03*
%TD*%
D19*
%TO.C,P9*%
X15675000Y-750000D03*
X14405000Y-750000D03*
X13135000Y-750000D03*
X11865000Y-750000D03*
X10595000Y-750000D03*
X9325000Y-750000D03*
%TD*%
D15*
%TO.C,Q1*%
X25200000Y-800000D03*
X25200000Y-1750000D03*
X25200000Y-2700000D03*
X22800000Y-2700000D03*
X22800000Y-1750000D03*
X22800000Y-800000D03*
%TD*%
%TO.C,Q2*%
X22800000Y-6050000D03*
X22800000Y-7000000D03*
X22800000Y-7950000D03*
X25200000Y-7950000D03*
X25200000Y-7000000D03*
X25200000Y-6050000D03*
%TD*%
D11*
%TO.C,Q3*%
X20750000Y-3950000D03*
X20100000Y-2050000D03*
X21400000Y-2050000D03*
%TD*%
%TO.C,Q4*%
X20650000Y-7300000D03*
X19350000Y-7300000D03*
X20000000Y-9200000D03*
%TD*%
D10*
%TO.C,R1*%
X9200000Y-5500000D03*
X10800000Y-5500000D03*
%TD*%
%TO.C,R2*%
X23300000Y-4250000D03*
X21700000Y-4250000D03*
%TD*%
%TO.C,R3*%
X22200000Y-9250000D03*
X23800000Y-9250000D03*
%TD*%
%TO.C,R4*%
X21550000Y-750000D03*
X19950000Y-750000D03*
%TD*%
%TO.C,R5*%
X19700000Y-6000000D03*
X21300000Y-6000000D03*
%TD*%
D13*
%TO.C,R8*%
X27000000Y-4300000D03*
X27000000Y-2700000D03*
%TD*%
%TO.C,R9*%
X27000000Y-7300000D03*
X27000000Y-5700000D03*
%TD*%
D10*
%TO.C,R10*%
X16950000Y-1250000D03*
X18550000Y-1250000D03*
%TD*%
D12*
%TO.C,D3*%
X16800000Y-5750000D03*
X14700000Y-5750000D03*
%TD*%
D11*
%TO.C,Q5*%
X13900000Y-7050000D03*
X12600000Y-7050000D03*
X13250000Y-8950000D03*
%TD*%
D10*
%TO.C,R6*%
X19050000Y-4250000D03*
X17450000Y-4250000D03*
%TD*%
D13*
%TO.C,R7*%
X17750000Y-9050000D03*
X17750000Y-7450000D03*
%TD*%
D14*
%TO.C,C7*%
X25750000Y-3775000D03*
X25750000Y-4725000D03*
%TD*%
D13*
%TO.C,R11*%
X15250000Y-8800000D03*
X15250000Y-7200000D03*
%TD*%
M02*
