%TF.GenerationSoftware,KiCad,Pcbnew,(5.1.6)-1*%
%TF.CreationDate,2020-09-22T23:51:07+09:00*%
%TF.ProjectId,motordecoder_simple2_rev2_panelize,6d6f746f-7264-4656-936f-6465725f7369,rev?*%
%TF.SameCoordinates,PX459e440PY38444c0*%
%TF.FileFunction,Profile,NP*%
%FSLAX46Y46*%
G04 Gerber Fmt 4.6, Leading zero omitted, Abs format (unit mm)*
G04 Created by KiCad (PCBNEW (5.1.6)-1) date 2020-09-22 23:51:07*
%MOMM*%
%LPD*%
G01*
G04 APERTURE LIST*
%TA.AperFunction,Profile*%
%ADD10C,0.050000*%
%TD*%
G04 APERTURE END LIST*
D10*
X0Y-97500000D02*
X88000000Y-97500000D01*
X88000000Y0D02*
X88000000Y-97500000D01*
X0Y0D02*
X0Y-97500000D01*
X0Y0D02*
X88000000Y0D01*
X59000000Y-85000000D02*
X83000000Y-85000000D01*
X32000000Y-85000000D02*
X56000000Y-85000000D01*
X5000000Y-85000000D02*
X29000000Y-85000000D01*
X59000000Y-72500000D02*
X83000000Y-72500000D01*
X32000000Y-72500000D02*
X56000000Y-72500000D01*
X5000000Y-72500000D02*
X29000000Y-72500000D01*
X59000000Y-60000000D02*
X83000000Y-60000000D01*
X32000000Y-60000000D02*
X56000000Y-60000000D01*
X5000000Y-60000000D02*
X29000000Y-60000000D01*
X59000000Y-47500000D02*
X83000000Y-47500000D01*
X32000000Y-47500000D02*
X56000000Y-47500000D01*
X5000000Y-47500000D02*
X29000000Y-47500000D01*
X59000000Y-35000000D02*
X83000000Y-35000000D01*
X32000000Y-35000000D02*
X56000000Y-35000000D01*
X5000000Y-35000000D02*
X29000000Y-35000000D01*
X59000000Y-22500000D02*
X83000000Y-22500000D01*
X32000000Y-22500000D02*
X56000000Y-22500000D01*
X5000000Y-22500000D02*
X29000000Y-22500000D01*
X59000000Y-10000000D02*
X83000000Y-10000000D01*
X32000000Y-10000000D02*
X56000000Y-10000000D01*
X82000000Y-96500000D02*
X82000000Y-88500000D01*
X55000000Y-96500000D02*
X55000000Y-88500000D01*
X28000000Y-96500000D02*
X28000000Y-88500000D01*
X82000000Y-84000000D02*
X82000000Y-76000000D01*
X55000000Y-84000000D02*
X55000000Y-76000000D01*
X28000000Y-84000000D02*
X28000000Y-76000000D01*
X82000000Y-71500000D02*
X82000000Y-63500000D01*
X55000000Y-71500000D02*
X55000000Y-63500000D01*
X28000000Y-71500000D02*
X28000000Y-63500000D01*
X82000000Y-59000000D02*
X82000000Y-51000000D01*
X55000000Y-59000000D02*
X55000000Y-51000000D01*
X28000000Y-59000000D02*
X28000000Y-51000000D01*
X82000000Y-46500000D02*
X82000000Y-38500000D01*
X55000000Y-46500000D02*
X55000000Y-38500000D01*
X28000000Y-46500000D02*
X28000000Y-38500000D01*
X82000000Y-34000000D02*
X82000000Y-26000000D01*
X55000000Y-34000000D02*
X55000000Y-26000000D01*
X28000000Y-34000000D02*
X28000000Y-26000000D01*
X82000000Y-21500000D02*
X82000000Y-13500000D01*
X55000000Y-21500000D02*
X55000000Y-13500000D01*
X28000000Y-21500000D02*
X28000000Y-13500000D01*
X82000000Y-9000000D02*
X82000000Y-1000000D01*
X55000000Y-9000000D02*
X55000000Y-1000000D01*
X83000000Y-87500000D02*
X59000000Y-87500000D01*
X56000000Y-87500000D02*
X32000000Y-87500000D01*
X29000000Y-87500000D02*
X5000000Y-87500000D01*
X83000000Y-75000000D02*
X59000000Y-75000000D01*
X56000000Y-75000000D02*
X32000000Y-75000000D01*
X29000000Y-75000000D02*
X5000000Y-75000000D01*
X83000000Y-62500000D02*
X59000000Y-62500000D01*
X56000000Y-62500000D02*
X32000000Y-62500000D01*
X29000000Y-62500000D02*
X5000000Y-62500000D01*
X83000000Y-50000000D02*
X59000000Y-50000000D01*
X56000000Y-50000000D02*
X32000000Y-50000000D01*
X29000000Y-50000000D02*
X5000000Y-50000000D01*
X83000000Y-37500000D02*
X59000000Y-37500000D01*
X56000000Y-37500000D02*
X32000000Y-37500000D01*
X29000000Y-37500000D02*
X5000000Y-37500000D01*
X83000000Y-25000000D02*
X59000000Y-25000000D01*
X56000000Y-25000000D02*
X32000000Y-25000000D01*
X29000000Y-25000000D02*
X5000000Y-25000000D01*
X83000000Y-12500000D02*
X59000000Y-12500000D01*
X56000000Y-12500000D02*
X32000000Y-12500000D01*
X29000000Y-12500000D02*
X5000000Y-12500000D01*
X60000000Y-88500000D02*
X60000000Y-96500000D01*
X33000000Y-88500000D02*
X33000000Y-96500000D01*
X6000000Y-88500000D02*
X6000000Y-96500000D01*
X60000000Y-76000000D02*
X60000000Y-84000000D01*
X33000000Y-76000000D02*
X33000000Y-84000000D01*
X6000000Y-76000000D02*
X6000000Y-84000000D01*
X60000000Y-63500000D02*
X60000000Y-71500000D01*
X33000000Y-63500000D02*
X33000000Y-71500000D01*
X6000000Y-63500000D02*
X6000000Y-71500000D01*
X60000000Y-51000000D02*
X60000000Y-59000000D01*
X33000000Y-51000000D02*
X33000000Y-59000000D01*
X6000000Y-51000000D02*
X6000000Y-59000000D01*
X60000000Y-38500000D02*
X60000000Y-46500000D01*
X33000000Y-38500000D02*
X33000000Y-46500000D01*
X6000000Y-38500000D02*
X6000000Y-46500000D01*
X60000000Y-26000000D02*
X60000000Y-34000000D01*
X33000000Y-26000000D02*
X33000000Y-34000000D01*
X6000000Y-26000000D02*
X6000000Y-34000000D01*
X60000000Y-13500000D02*
X60000000Y-21500000D01*
X33000000Y-13500000D02*
X33000000Y-21500000D01*
X6000000Y-13500000D02*
X6000000Y-21500000D01*
X60000000Y-1000000D02*
X60000000Y-9000000D01*
X33000000Y-1000000D02*
X33000000Y-9000000D01*
X59000000Y-96500000D02*
X60000000Y-96500000D01*
X32000000Y-96500000D02*
X33000000Y-96500000D01*
X5000000Y-96500000D02*
X6000000Y-96500000D01*
X59000000Y-84000000D02*
X60000000Y-84000000D01*
X32000000Y-84000000D02*
X33000000Y-84000000D01*
X5000000Y-84000000D02*
X6000000Y-84000000D01*
X59000000Y-71500000D02*
X60000000Y-71500000D01*
X32000000Y-71500000D02*
X33000000Y-71500000D01*
X5000000Y-71500000D02*
X6000000Y-71500000D01*
X59000000Y-59000000D02*
X60000000Y-59000000D01*
X32000000Y-59000000D02*
X33000000Y-59000000D01*
X5000000Y-59000000D02*
X6000000Y-59000000D01*
X59000000Y-46500000D02*
X60000000Y-46500000D01*
X32000000Y-46500000D02*
X33000000Y-46500000D01*
X5000000Y-46500000D02*
X6000000Y-46500000D01*
X59000000Y-34000000D02*
X60000000Y-34000000D01*
X32000000Y-34000000D02*
X33000000Y-34000000D01*
X5000000Y-34000000D02*
X6000000Y-34000000D01*
X59000000Y-21500000D02*
X60000000Y-21500000D01*
X32000000Y-21500000D02*
X33000000Y-21500000D01*
X5000000Y-21500000D02*
X6000000Y-21500000D01*
X59000000Y-9000000D02*
X60000000Y-9000000D01*
X32000000Y-9000000D02*
X33000000Y-9000000D01*
X59000000Y-85000000D02*
X59000000Y-87500000D01*
X32000000Y-85000000D02*
X32000000Y-87500000D01*
X5000000Y-85000000D02*
X5000000Y-87500000D01*
X59000000Y-72500000D02*
X59000000Y-75000000D01*
X32000000Y-72500000D02*
X32000000Y-75000000D01*
X5000000Y-72500000D02*
X5000000Y-75000000D01*
X59000000Y-60000000D02*
X59000000Y-62500000D01*
X32000000Y-60000000D02*
X32000000Y-62500000D01*
X5000000Y-60000000D02*
X5000000Y-62500000D01*
X59000000Y-47500000D02*
X59000000Y-50000000D01*
X32000000Y-47500000D02*
X32000000Y-50000000D01*
X5000000Y-47500000D02*
X5000000Y-50000000D01*
X59000000Y-35000000D02*
X59000000Y-37500000D01*
X32000000Y-35000000D02*
X32000000Y-37500000D01*
X5000000Y-35000000D02*
X5000000Y-37500000D01*
X59000000Y-22500000D02*
X59000000Y-25000000D01*
X32000000Y-22500000D02*
X32000000Y-25000000D01*
X5000000Y-22500000D02*
X5000000Y-25000000D01*
X59000000Y-10000000D02*
X59000000Y-12500000D01*
X32000000Y-10000000D02*
X32000000Y-12500000D01*
X59000000Y-88500000D02*
X59000000Y-96500000D01*
X32000000Y-88500000D02*
X32000000Y-96500000D01*
X5000000Y-88500000D02*
X5000000Y-96500000D01*
X59000000Y-76000000D02*
X59000000Y-84000000D01*
X32000000Y-76000000D02*
X32000000Y-84000000D01*
X5000000Y-76000000D02*
X5000000Y-84000000D01*
X59000000Y-63500000D02*
X59000000Y-71500000D01*
X32000000Y-63500000D02*
X32000000Y-71500000D01*
X5000000Y-63500000D02*
X5000000Y-71500000D01*
X59000000Y-51000000D02*
X59000000Y-59000000D01*
X32000000Y-51000000D02*
X32000000Y-59000000D01*
X5000000Y-51000000D02*
X5000000Y-59000000D01*
X59000000Y-38500000D02*
X59000000Y-46500000D01*
X32000000Y-38500000D02*
X32000000Y-46500000D01*
X5000000Y-38500000D02*
X5000000Y-46500000D01*
X59000000Y-26000000D02*
X59000000Y-34000000D01*
X32000000Y-26000000D02*
X32000000Y-34000000D01*
X5000000Y-26000000D02*
X5000000Y-34000000D01*
X59000000Y-13500000D02*
X59000000Y-21500000D01*
X32000000Y-13500000D02*
X32000000Y-21500000D01*
X5000000Y-13500000D02*
X5000000Y-21500000D01*
X59000000Y-1000000D02*
X59000000Y-9000000D01*
X32000000Y-1000000D02*
X32000000Y-9000000D01*
X83000000Y-88500000D02*
X83000000Y-96500000D01*
X56000000Y-88500000D02*
X56000000Y-96500000D01*
X29000000Y-88500000D02*
X29000000Y-96500000D01*
X83000000Y-76000000D02*
X83000000Y-84000000D01*
X56000000Y-76000000D02*
X56000000Y-84000000D01*
X29000000Y-76000000D02*
X29000000Y-84000000D01*
X83000000Y-63500000D02*
X83000000Y-71500000D01*
X56000000Y-63500000D02*
X56000000Y-71500000D01*
X29000000Y-63500000D02*
X29000000Y-71500000D01*
X83000000Y-51000000D02*
X83000000Y-59000000D01*
X56000000Y-51000000D02*
X56000000Y-59000000D01*
X29000000Y-51000000D02*
X29000000Y-59000000D01*
X83000000Y-38500000D02*
X83000000Y-46500000D01*
X56000000Y-38500000D02*
X56000000Y-46500000D01*
X29000000Y-38500000D02*
X29000000Y-46500000D01*
X83000000Y-26000000D02*
X83000000Y-34000000D01*
X56000000Y-26000000D02*
X56000000Y-34000000D01*
X29000000Y-26000000D02*
X29000000Y-34000000D01*
X83000000Y-13500000D02*
X83000000Y-21500000D01*
X56000000Y-13500000D02*
X56000000Y-21500000D01*
X29000000Y-13500000D02*
X29000000Y-21500000D01*
X83000000Y-1000000D02*
X83000000Y-9000000D01*
X56000000Y-1000000D02*
X56000000Y-9000000D01*
X82000000Y-88500000D02*
X83000000Y-88500000D01*
X55000000Y-88500000D02*
X56000000Y-88500000D01*
X28000000Y-88500000D02*
X29000000Y-88500000D01*
X82000000Y-76000000D02*
X83000000Y-76000000D01*
X55000000Y-76000000D02*
X56000000Y-76000000D01*
X28000000Y-76000000D02*
X29000000Y-76000000D01*
X82000000Y-63500000D02*
X83000000Y-63500000D01*
X55000000Y-63500000D02*
X56000000Y-63500000D01*
X28000000Y-63500000D02*
X29000000Y-63500000D01*
X82000000Y-51000000D02*
X83000000Y-51000000D01*
X55000000Y-51000000D02*
X56000000Y-51000000D01*
X28000000Y-51000000D02*
X29000000Y-51000000D01*
X82000000Y-38500000D02*
X83000000Y-38500000D01*
X55000000Y-38500000D02*
X56000000Y-38500000D01*
X28000000Y-38500000D02*
X29000000Y-38500000D01*
X82000000Y-26000000D02*
X83000000Y-26000000D01*
X55000000Y-26000000D02*
X56000000Y-26000000D01*
X28000000Y-26000000D02*
X29000000Y-26000000D01*
X82000000Y-13500000D02*
X83000000Y-13500000D01*
X55000000Y-13500000D02*
X56000000Y-13500000D01*
X28000000Y-13500000D02*
X29000000Y-13500000D01*
X82000000Y-1000000D02*
X83000000Y-1000000D01*
X55000000Y-1000000D02*
X56000000Y-1000000D01*
X60000000Y-88500000D02*
X59000000Y-88500000D01*
X33000000Y-88500000D02*
X32000000Y-88500000D01*
X6000000Y-88500000D02*
X5000000Y-88500000D01*
X60000000Y-76000000D02*
X59000000Y-76000000D01*
X33000000Y-76000000D02*
X32000000Y-76000000D01*
X6000000Y-76000000D02*
X5000000Y-76000000D01*
X60000000Y-63500000D02*
X59000000Y-63500000D01*
X33000000Y-63500000D02*
X32000000Y-63500000D01*
X6000000Y-63500000D02*
X5000000Y-63500000D01*
X60000000Y-51000000D02*
X59000000Y-51000000D01*
X33000000Y-51000000D02*
X32000000Y-51000000D01*
X6000000Y-51000000D02*
X5000000Y-51000000D01*
X60000000Y-38500000D02*
X59000000Y-38500000D01*
X33000000Y-38500000D02*
X32000000Y-38500000D01*
X6000000Y-38500000D02*
X5000000Y-38500000D01*
X60000000Y-26000000D02*
X59000000Y-26000000D01*
X33000000Y-26000000D02*
X32000000Y-26000000D01*
X6000000Y-26000000D02*
X5000000Y-26000000D01*
X60000000Y-13500000D02*
X59000000Y-13500000D01*
X33000000Y-13500000D02*
X32000000Y-13500000D01*
X6000000Y-13500000D02*
X5000000Y-13500000D01*
X60000000Y-1000000D02*
X59000000Y-1000000D01*
X33000000Y-1000000D02*
X32000000Y-1000000D01*
X83000000Y-96500000D02*
X82000000Y-96500000D01*
X56000000Y-96500000D02*
X55000000Y-96500000D01*
X29000000Y-96500000D02*
X28000000Y-96500000D01*
X83000000Y-84000000D02*
X82000000Y-84000000D01*
X56000000Y-84000000D02*
X55000000Y-84000000D01*
X29000000Y-84000000D02*
X28000000Y-84000000D01*
X83000000Y-71500000D02*
X82000000Y-71500000D01*
X56000000Y-71500000D02*
X55000000Y-71500000D01*
X29000000Y-71500000D02*
X28000000Y-71500000D01*
X83000000Y-59000000D02*
X82000000Y-59000000D01*
X56000000Y-59000000D02*
X55000000Y-59000000D01*
X29000000Y-59000000D02*
X28000000Y-59000000D01*
X83000000Y-46500000D02*
X82000000Y-46500000D01*
X56000000Y-46500000D02*
X55000000Y-46500000D01*
X29000000Y-46500000D02*
X28000000Y-46500000D01*
X83000000Y-34000000D02*
X82000000Y-34000000D01*
X56000000Y-34000000D02*
X55000000Y-34000000D01*
X29000000Y-34000000D02*
X28000000Y-34000000D01*
X83000000Y-21500000D02*
X82000000Y-21500000D01*
X56000000Y-21500000D02*
X55000000Y-21500000D01*
X29000000Y-21500000D02*
X28000000Y-21500000D01*
X83000000Y-9000000D02*
X82000000Y-9000000D01*
X56000000Y-9000000D02*
X55000000Y-9000000D01*
X83000000Y-85000000D02*
X83000000Y-87500000D01*
X56000000Y-85000000D02*
X56000000Y-87500000D01*
X29000000Y-85000000D02*
X29000000Y-87500000D01*
X83000000Y-72500000D02*
X83000000Y-75000000D01*
X56000000Y-72500000D02*
X56000000Y-75000000D01*
X29000000Y-72500000D02*
X29000000Y-75000000D01*
X83000000Y-60000000D02*
X83000000Y-62500000D01*
X56000000Y-60000000D02*
X56000000Y-62500000D01*
X29000000Y-60000000D02*
X29000000Y-62500000D01*
X83000000Y-47500000D02*
X83000000Y-50000000D01*
X56000000Y-47500000D02*
X56000000Y-50000000D01*
X29000000Y-47500000D02*
X29000000Y-50000000D01*
X83000000Y-35000000D02*
X83000000Y-37500000D01*
X56000000Y-35000000D02*
X56000000Y-37500000D01*
X29000000Y-35000000D02*
X29000000Y-37500000D01*
X83000000Y-22500000D02*
X83000000Y-25000000D01*
X56000000Y-22500000D02*
X56000000Y-25000000D01*
X29000000Y-22500000D02*
X29000000Y-25000000D01*
X83000000Y-10000000D02*
X83000000Y-12500000D01*
X56000000Y-10000000D02*
X56000000Y-12500000D01*
X29000000Y-10000000D02*
X29000000Y-12500000D01*
X5000000Y-10000000D02*
X5000000Y-12500000D01*
X5000000Y-9000000D02*
X6000000Y-9000000D01*
X5000000Y-1000000D02*
X5000000Y-9000000D01*
X6000000Y-1000000D02*
X5000000Y-1000000D01*
X29000000Y-9000000D02*
X28000000Y-9000000D01*
X29000000Y-1000000D02*
X29000000Y-9000000D01*
X28000000Y-1000000D02*
X29000000Y-1000000D01*
X28000000Y-9000000D02*
X28000000Y-1000000D01*
X5000000Y-10000000D02*
X29000000Y-10000000D01*
X6000000Y-1000000D02*
X6000000Y-9000000D01*
M02*
