M48
; DRILL file {KiCad (5.1.6)-1} date 09/22/20 23:51:14
; FORMAT={-:-/ absolute / inch / decimal}
; #@! TF.CreationDate,2020-09-22T23:51:14+09:00
; #@! TF.GenerationSoftware,Kicad,Pcbnew,(5.1.6)-1
FMAT,2
INCH
T1C0.0118
T2C0.0157
T3C0.0197
T4C0.0276
T5C0.0315
%
G90
G05
T1
X0.4528Y-0.1772
X0.4528Y-0.6693
X0.4528Y-1.1614
X0.4528Y-1.6535
X0.4528Y-2.1457
X0.4528Y-2.6378
X0.4528Y-3.1299
X0.4528Y-3.622
X0.5217Y-0.1181
X0.5217Y-0.6102
X0.5217Y-1.1024
X0.5217Y-1.5945
X0.5217Y-2.0866
X0.5217Y-2.5787
X0.5217Y-3.0709
X0.5217Y-3.563
X0.5512Y-0.1772
X0.5512Y-0.6693
X0.5512Y-1.1614
X0.5512Y-1.6535
X0.5512Y-2.1457
X0.5512Y-2.6378
X0.5512Y-3.1299
X0.5512Y-3.622
X0.561Y-0.315
X0.561Y-0.8071
X0.561Y-1.2992
X0.561Y-1.7913
X0.561Y-2.2835
X0.561Y-2.7756
X0.561Y-3.2677
X0.561Y-3.7598
X0.6988Y-0.2362
X0.6988Y-0.7283
X0.6988Y-1.2205
X0.6988Y-1.7126
X0.6988Y-2.2047
X0.6988Y-2.6969
X0.6988Y-3.189
X0.6988Y-3.6811
X0.7579Y-0.0984
X0.7579Y-0.5906
X0.7579Y-1.0827
X0.7579Y-1.5748
X0.7579Y-2.0669
X0.7579Y-2.5591
X0.7579Y-3.0512
X0.7579Y-3.5433
X0.8189Y-0.0295
X0.8189Y-0.5217
X0.8189Y-1.0138
X0.8189Y-1.5059
X0.8189Y-1.998
X0.8189Y-2.4902
X0.8189Y-2.9823
X0.8189Y-3.4744
X0.8858Y-0.2067
X0.8858Y-0.6988
X0.8858Y-1.1909
X0.8858Y-1.6831
X0.8858Y-2.1752
X0.8858Y-2.6673
X0.8858Y-3.1594
X0.8858Y-3.6516
X0.9449Y-0.3051
X0.9449Y-0.7972
X0.9449Y-1.2894
X0.9449Y-1.7815
X0.9449Y-2.2736
X0.9449Y-2.7657
X0.9449Y-3.2579
X0.9449Y-3.75
X1.0531Y-0.1476
X1.0531Y-0.6398
X1.0531Y-1.1319
X1.0531Y-1.624
X1.0531Y-2.1161
X1.0531Y-2.6083
X1.0531Y-3.1004
X1.0531Y-3.5925
X1.5157Y-0.1772
X1.5157Y-0.6693
X1.5157Y-1.1614
X1.5157Y-1.6535
X1.5157Y-2.1457
X1.5157Y-2.6378
X1.5157Y-3.1299
X1.5157Y-3.622
X1.5846Y-0.1181
X1.5846Y-0.6102
X1.5846Y-1.1024
X1.5846Y-1.5945
X1.5846Y-2.0866
X1.5846Y-2.5787
X1.5846Y-3.0709
X1.5846Y-3.563
X1.6142Y-0.1772
X1.6142Y-0.6693
X1.6142Y-1.1614
X1.6142Y-1.6535
X1.6142Y-2.1457
X1.6142Y-2.6378
X1.6142Y-3.1299
X1.6142Y-3.622
X1.624Y-0.315
X1.624Y-0.8071
X1.624Y-1.2992
X1.624Y-1.7913
X1.624Y-2.2835
X1.624Y-2.7756
X1.624Y-3.2677
X1.624Y-3.7598
X1.7618Y-0.2362
X1.7618Y-0.7283
X1.7618Y-1.2205
X1.7618Y-1.7126
X1.7618Y-2.2047
X1.7618Y-2.6969
X1.7618Y-3.189
X1.7618Y-3.6811
X1.8209Y-0.0984
X1.8209Y-0.5906
X1.8209Y-1.0827
X1.8209Y-1.5748
X1.8209Y-2.0669
X1.8209Y-2.5591
X1.8209Y-3.0512
X1.8209Y-3.5433
X1.8819Y-0.0295
X1.8819Y-0.5217
X1.8819Y-1.0138
X1.8819Y-1.5059
X1.8819Y-1.998
X1.8819Y-2.4902
X1.8819Y-2.9823
X1.8819Y-3.4744
X1.9488Y-0.2067
X1.9488Y-0.6988
X1.9488Y-1.1909
X1.9488Y-1.6831
X1.9488Y-2.1752
X1.9488Y-2.6673
X1.9488Y-3.1594
X1.9488Y-3.6516
X2.0079Y-0.3051
X2.0079Y-0.7972
X2.0079Y-1.2894
X2.0079Y-1.7815
X2.0079Y-2.2736
X2.0079Y-2.7657
X2.0079Y-3.2579
X2.0079Y-3.75
X2.1161Y-0.1476
X2.1161Y-0.6398
X2.1161Y-1.1319
X2.1161Y-1.624
X2.1161Y-2.1161
X2.1161Y-2.6083
X2.1161Y-3.1004
X2.1161Y-3.5925
X2.5787Y-0.1772
X2.5787Y-0.6693
X2.5787Y-1.1614
X2.5787Y-1.6535
X2.5787Y-2.1457
X2.5787Y-2.6378
X2.5787Y-3.1299
X2.5787Y-3.622
X2.6476Y-0.1181
X2.6476Y-0.6102
X2.6476Y-1.1024
X2.6476Y-1.5945
X2.6476Y-2.0866
X2.6476Y-2.5787
X2.6476Y-3.0709
X2.6476Y-3.563
X2.6772Y-0.1772
X2.6772Y-0.6693
X2.6772Y-1.1614
X2.6772Y-1.6535
X2.6772Y-2.1457
X2.6772Y-2.6378
X2.6772Y-3.1299
X2.6772Y-3.622
X2.687Y-0.315
X2.687Y-0.8071
X2.687Y-1.2992
X2.687Y-1.7913
X2.687Y-2.2835
X2.687Y-2.7756
X2.687Y-3.2677
X2.687Y-3.7598
X2.8248Y-0.2362
X2.8248Y-0.7283
X2.8248Y-1.2205
X2.8248Y-1.7126
X2.8248Y-2.2047
X2.8248Y-2.6969
X2.8248Y-3.189
X2.8248Y-3.6811
X2.8839Y-0.0984
X2.8839Y-0.5906
X2.8839Y-1.0827
X2.8839Y-1.5748
X2.8839Y-2.0669
X2.8839Y-2.5591
X2.8839Y-3.0512
X2.8839Y-3.5433
X2.9449Y-0.0295
X2.9449Y-0.5217
X2.9449Y-1.0138
X2.9449Y-1.5059
X2.9449Y-1.998
X2.9449Y-2.4902
X2.9449Y-2.9823
X2.9449Y-3.4744
X3.0118Y-0.2067
X3.0118Y-0.6988
X3.0118Y-1.1909
X3.0118Y-1.6831
X3.0118Y-2.1752
X3.0118Y-2.6673
X3.0118Y-3.1594
X3.0118Y-3.6516
X3.0709Y-0.3051
X3.0709Y-0.7972
X3.0709Y-1.2894
X3.0709Y-1.7815
X3.0709Y-2.2736
X3.0709Y-2.7657
X3.0709Y-3.2579
X3.0709Y-3.75
X3.1791Y-0.1476
X3.1791Y-0.6398
X3.1791Y-1.1319
X3.1791Y-1.624
X3.1791Y-2.1161
X3.1791Y-2.6083
X3.1791Y-3.1004
X3.1791Y-3.5925
T2
X0.3937Y-0.3642
X0.3937Y-0.8563
X0.3937Y-1.3484
X0.3937Y-1.8406
X0.3937Y-2.3327
X0.3937Y-2.8248
X0.3937Y-3.3169
X0.3937Y-3.8091
X0.4823Y-0.3642
X0.4823Y-0.8563
X0.4823Y-1.3484
X0.4823Y-1.8406
X0.4823Y-2.3327
X0.4823Y-2.8248
X0.4823Y-3.3169
X0.4823Y-3.8091
X0.4921Y-0.1772
X0.4921Y-0.6693
X0.4921Y-1.1614
X0.4921Y-1.6535
X0.4921Y-2.1457
X0.4921Y-2.6378
X0.4921Y-3.1299
X0.4921Y-3.622
X0.9449Y-0.0295
X0.9449Y-0.5217
X0.9449Y-1.0138
X0.9449Y-1.5059
X0.9449Y-1.998
X0.9449Y-2.4902
X0.9449Y-2.9823
X0.9449Y-3.4744
X0.9744Y-0.1575
X0.9744Y-0.187
X0.9744Y-0.6496
X0.9744Y-0.6791
X0.9744Y-1.1417
X0.9744Y-1.1713
X0.9744Y-1.6339
X0.9744Y-1.6634
X0.9744Y-2.126
X0.9744Y-2.1555
X0.9744Y-2.6181
X0.9744Y-2.6476
X0.9744Y-3.1102
X0.9744Y-3.1398
X0.9744Y-3.6024
X0.9744Y-3.6319
X0.9843Y-0.3642
X0.9843Y-0.8563
X0.9843Y-1.3484
X0.9843Y-1.8406
X0.9843Y-2.3327
X0.9843Y-2.8248
X0.9843Y-3.3169
X0.9843Y-3.8091
X1.4567Y-0.3642
X1.4567Y-0.8563
X1.4567Y-1.3484
X1.4567Y-1.8406
X1.4567Y-2.3327
X1.4567Y-2.8248
X1.4567Y-3.3169
X1.4567Y-3.8091
X1.5453Y-0.3642
X1.5453Y-0.8563
X1.5453Y-1.3484
X1.5453Y-1.8406
X1.5453Y-2.3327
X1.5453Y-2.8248
X1.5453Y-3.3169
X1.5453Y-3.8091
X1.5551Y-0.1772
X1.5551Y-0.6693
X1.5551Y-1.1614
X1.5551Y-1.6535
X1.5551Y-2.1457
X1.5551Y-2.6378
X1.5551Y-3.1299
X1.5551Y-3.622
X2.0079Y-0.0295
X2.0079Y-0.5217
X2.0079Y-1.0138
X2.0079Y-1.5059
X2.0079Y-1.998
X2.0079Y-2.4902
X2.0079Y-2.9823
X2.0079Y-3.4744
X2.0374Y-0.1575
X2.0374Y-0.187
X2.0374Y-0.6496
X2.0374Y-0.6791
X2.0374Y-1.1417
X2.0374Y-1.1713
X2.0374Y-1.6339
X2.0374Y-1.6634
X2.0374Y-2.126
X2.0374Y-2.1555
X2.0374Y-2.6181
X2.0374Y-2.6476
X2.0374Y-3.1102
X2.0374Y-3.1398
X2.0374Y-3.6024
X2.0374Y-3.6319
X2.0472Y-0.3642
X2.0472Y-0.8563
X2.0472Y-1.3484
X2.0472Y-1.8406
X2.0472Y-2.3327
X2.0472Y-2.8248
X2.0472Y-3.3169
X2.0472Y-3.8091
X2.5197Y-0.3642
X2.5197Y-0.8563
X2.5197Y-1.3484
X2.5197Y-1.8406
X2.5197Y-2.3327
X2.5197Y-2.8248
X2.5197Y-3.3169
X2.5197Y-3.8091
X2.6083Y-0.3642
X2.6083Y-0.8563
X2.6083Y-1.3484
X2.6083Y-1.8406
X2.6083Y-2.3327
X2.6083Y-2.8248
X2.6083Y-3.3169
X2.6083Y-3.8091
X2.6181Y-0.1772
X2.6181Y-0.6693
X2.6181Y-1.1614
X2.6181Y-1.6535
X2.6181Y-2.1457
X2.6181Y-2.6378
X2.6181Y-3.1299
X2.6181Y-3.622
X3.0709Y-0.0295
X3.0709Y-0.5217
X3.0709Y-1.0138
X3.0709Y-1.5059
X3.0709Y-1.998
X3.0709Y-2.4902
X3.0709Y-2.9823
X3.0709Y-3.4744
X3.1004Y-0.1575
X3.1004Y-0.187
X3.1004Y-0.6496
X3.1004Y-0.6791
X3.1004Y-1.1417
X3.1004Y-1.1713
X3.1004Y-1.6339
X3.1004Y-1.6634
X3.1004Y-2.126
X3.1004Y-2.1555
X3.1004Y-2.6181
X3.1004Y-2.6476
X3.1004Y-3.1102
X3.1004Y-3.1398
X3.1004Y-3.6024
X3.1004Y-3.6319
X3.1102Y-0.3642
X3.1102Y-0.8563
X3.1102Y-1.3484
X3.1102Y-1.8406
X3.1102Y-2.3327
X3.1102Y-2.8248
X3.1102Y-3.3169
X3.1102Y-3.8091
T3
X0.3937Y-0.3051
X0.3937Y-0.7972
X0.3937Y-1.2894
X0.3937Y-1.7815
X0.3937Y-2.2736
X0.3937Y-2.7657
X0.3937Y-3.2579
X0.3937Y-3.75
X1.4567Y-0.3051
X1.4567Y-0.7972
X1.4567Y-1.2894
X1.4567Y-1.7815
X1.4567Y-2.2736
X1.4567Y-2.7657
X1.4567Y-3.2579
X1.4567Y-3.75
X2.5197Y-0.3051
X2.5197Y-0.7972
X2.5197Y-1.2894
X2.5197Y-1.7815
X2.5197Y-2.2736
X2.5197Y-2.7657
X2.5197Y-3.2579
X2.5197Y-3.75
T4
X0.3671Y-1.5059
X0.4171Y-1.5059
X0.4671Y-1.5059
X0.5171Y-1.5059
X0.5671Y-1.5059
X0.6171Y-1.5059
X0.3671Y-1.0138
X0.4171Y-1.0138
X0.4671Y-1.0138
X0.5171Y-1.0138
X0.5671Y-1.0138
X0.6171Y-1.0138
X2.4931Y-1.998
X2.5431Y-1.998
X2.5931Y-1.998
X2.6431Y-1.998
X2.6931Y-1.998
X2.7431Y-1.998
X1.4301Y-3.4744
X1.4801Y-3.4744
X1.5301Y-3.4744
X1.5801Y-3.4744
X1.6301Y-3.4744
X1.6801Y-3.4744
X2.4931Y-3.4744
X2.5431Y-3.4744
X2.5931Y-3.4744
X2.6431Y-3.4744
X2.6931Y-3.4744
X2.7431Y-3.4744
X1.4301Y-0.5217
X1.4801Y-0.5217
X1.5301Y-0.5217
X1.5801Y-0.5217
X1.6301Y-0.5217
X1.6801Y-0.5217
X0.3671Y-2.9823
X0.4171Y-2.9823
X0.4671Y-2.9823
X0.5171Y-2.9823
X0.5671Y-2.9823
X0.6171Y-2.9823
X1.4301Y-1.998
X1.4801Y-1.998
X1.5301Y-1.998
X1.5801Y-1.998
X1.6301Y-1.998
X1.6801Y-1.998
X0.3671Y-3.4744
X0.4171Y-3.4744
X0.4671Y-3.4744
X0.5171Y-3.4744
X0.5671Y-3.4744
X0.6171Y-3.4744
X1.4301Y-1.0138
X1.4801Y-1.0138
X1.5301Y-1.0138
X1.5801Y-1.0138
X1.6301Y-1.0138
X1.6801Y-1.0138
X2.4931Y-1.0138
X2.5431Y-1.0138
X2.5931Y-1.0138
X2.6431Y-1.0138
X2.6931Y-1.0138
X2.7431Y-1.0138
X2.4931Y-0.0295
X2.5431Y-0.0295
X2.5931Y-0.0295
X2.6431Y-0.0295
X2.6931Y-0.0295
X2.7431Y-0.0295
X2.4931Y-0.5217
X2.5431Y-0.5217
X2.5931Y-0.5217
X2.6431Y-0.5217
X2.6931Y-0.5217
X2.7431Y-0.5217
X0.3671Y-0.0295
X0.4171Y-0.0295
X0.4671Y-0.0295
X0.5171Y-0.0295
X0.5671Y-0.0295
X0.6171Y-0.0295
X0.3671Y-1.998
X0.4171Y-1.998
X0.4671Y-1.998
X0.5171Y-1.998
X0.5671Y-1.998
X0.6171Y-1.998
X1.4301Y-0.0295
X1.4801Y-0.0295
X1.5301Y-0.0295
X1.5801Y-0.0295
X1.6301Y-0.0295
X1.6801Y-0.0295
X2.4931Y-2.9823
X2.5431Y-2.9823
X2.5931Y-2.9823
X2.6431Y-2.9823
X2.6931Y-2.9823
X2.7431Y-2.9823
X1.4301Y-2.9823
X1.4801Y-2.9823
X1.5301Y-2.9823
X1.5801Y-2.9823
X1.6301Y-2.9823
X1.6801Y-2.9823
X2.4931Y-1.5059
X2.5431Y-1.5059
X2.5931Y-1.5059
X2.6431Y-1.5059
X2.6931Y-1.5059
X2.7431Y-1.5059
X2.4931Y-2.4902
X2.5431Y-2.4902
X2.5931Y-2.4902
X2.6431Y-2.4902
X2.6931Y-2.4902
X2.7431Y-2.4902
X0.3671Y-0.5217
X0.4171Y-0.5217
X0.4671Y-0.5217
X0.5171Y-0.5217
X0.5671Y-0.5217
X0.6171Y-0.5217
X1.4301Y-1.5059
X1.4801Y-1.5059
X1.5301Y-1.5059
X1.5801Y-1.5059
X1.6301Y-1.5059
X1.6801Y-1.5059
X0.3671Y-2.4902
X0.4171Y-2.4902
X0.4671Y-2.4902
X0.5171Y-2.4902
X0.5671Y-2.4902
X0.6171Y-2.4902
X1.4301Y-2.4902
X1.4801Y-2.4902
X1.5301Y-2.4902
X1.5801Y-2.4902
X1.6301Y-2.4902
X1.6801Y-2.4902
T5
X3.1791Y-0.0492
X1.3484Y-1.1319
X1.3484Y-3.4941
X2.4114Y-2.0177
X0.2854Y-2.7067
X1.0531Y-3.4941
X2.1161Y-2.313
X1.0531Y-3.7894
X2.1161Y-3.7894
X1.0531Y-3.002
X2.4114Y-2.5098
X3.1791Y-3.7894
X0.2854Y-2.2146
X3.1791Y-0.3445
X2.4114Y-1.3287
X0.2854Y-0.8366
X0.2854Y-3.5925
X0.2854Y-0.6398
X0.2854Y-0.0492
X2.1161Y-1.0335
X2.4114Y-2.313
X1.0531Y-1.5256
X1.3484Y-1.624
X1.3484Y-0.1476
X2.4114Y-0.1476
X2.1161Y-3.4941
X0.2854Y-2.0177
X2.4114Y-1.7224
X3.1791Y-1.3287
X0.2854Y-1.2303
X1.0531Y-2.8051
X0.2854Y-3.1988
X1.0531Y-2.5098
X2.1161Y-2.8051
X1.3484Y-3.6909
X2.1161Y-2.5098
X1.3484Y-0.5413
X3.1791Y-2.8051
X1.3484Y-0.2461
X1.3484Y-0.3445
X1.3484Y-3.1004
X1.0531Y-0.3445
X3.1791Y-0.5413
X0.2854Y-3.2972
X1.0531Y-0.5413
X2.1161Y-0.0492
X1.3484Y-3.2972
X2.4114Y-3.7894
X0.2854Y-1.0335
X0.2854Y-0.5413
X0.2854Y-2.5098
X2.4114Y-2.2146
X0.2854Y-3.6909
X2.1161Y-1.8209
X2.4114Y-1.5256
X2.4114Y-0.2461
X2.1161Y-0.3445
X1.3484Y-1.3287
X0.2854Y-3.1004
X2.4114Y-2.1161
X1.3484Y-2.8051
X0.2854Y-3.7894
X1.3484Y-2.6083
X3.1791Y-2.5098
X2.4114Y-3.4941
X1.3484Y-0.0492
X3.1791Y-1.8209
X1.3484Y-1.2303
X3.1791Y-0.8366
X1.0531Y-2.313
X1.3484Y-0.7382
X3.1791Y-3.4941
X2.1161Y-1.3287
X2.4114Y-0.0492
X0.2854Y-2.313
X0.2854Y-1.3287
X2.4114Y-0.3445
X0.2854Y-1.624
X2.1161Y-0.5413
X1.0531Y-1.0335
X0.2854Y-2.6083
X2.4114Y-3.2972
X0.2854Y-2.8051
X0.2854Y-2.1161
X2.4114Y-3.002
X2.4114Y-3.6909
X3.1791Y-3.2972
X0.2854Y-1.7224
X2.1161Y-3.002
X1.0531Y-1.3287
X2.4114Y-0.7382
X1.3484Y-3.002
X2.4114Y-2.7067
X1.3484Y-1.5256
X1.3484Y-3.1988
X0.2854Y-3.4941
X2.4114Y-1.8209
X2.4114Y-0.8366
X2.4114Y-3.5925
X0.2854Y-1.1319
X0.2854Y-0.3445
X3.1791Y-2.0177
X0.2854Y-0.2461
X2.4114Y-1.1319
X2.4114Y-2.8051
X1.3484Y-2.5098
X2.4114Y-3.1988
X3.1791Y-2.313
X2.4114Y-0.5413
X2.4114Y-1.0335
X1.3484Y-2.2146
X1.3484Y-1.7224
X0.2854Y-1.5256
X2.1161Y-0.8366
X1.3484Y-1.8209
X1.3484Y-0.8366
X2.4114Y-2.6083
X2.4114Y-0.6398
X1.0531Y-0.0492
X1.0531Y-2.0177
X2.1161Y-2.0177
X1.3484Y-2.1161
X1.3484Y-2.313
X3.1791Y-1.0335
X2.4114Y-1.624
X0.2854Y-3.002
X1.3484Y-2.7067
X3.1791Y-3.002
X2.1161Y-3.2972
X1.0531Y-1.8209
X1.3484Y-2.0177
X0.2854Y-0.7382
X1.0531Y-3.2972
X1.3484Y-1.0335
X2.4114Y-1.2303
X1.0531Y-0.8366
X0.2854Y-1.8209
X2.4114Y-3.1004
X1.3484Y-3.5925
X1.3484Y-0.6398
X1.3484Y-3.7894
X3.1791Y-1.5256
X0.2854Y-0.1476
X2.1161Y-1.5256
T0
M30
